<?xml version="1.0" encoding="UTF-8"?>
<svg width="32px" height="32px" viewBox="0 0 32 32" version="1.1" xmlns="http://www.w3.org/2000/svg" xmlns:xlink="http://www.w3.org/1999/xlink">
    <!-- Generator: sketchtool 52.6 (67491) - http://www.bohemiancoding.com/sketch -->
    <title>6ECBF201-E481-4F00-B05B-4927C97FDB22</title>
    <desc>Created with sketchtool.</desc>
    <g id="Page-1" stroke="none" stroke-width="1" fill="none" fill-rule="evenodd">
        <g id="hari-satu-juta-pohon" transform="translate(-228.000000, -3303.000000)" fill="#2C3E50" fill-rule="nonzero" stroke="#2C3E50" stroke-width="0.5">
            <g id="Stacked-Group-4" transform="translate(0.000000, 805.000000)">
                <g id="Group-21" transform="translate(179.000000, 2456.000000)">
                    <g id="lelang" transform="translate(50.000000, 43.000000)">
                        <path d="M14.8358789,26.2334766 C15.7681641,26.7242578 16.4056641,27.7023633 16.4056641,28.8271289 L16.4056641,29.4130664 C16.4056641,29.7366797 16.1432813,29.9990039 15.8197266,29.9990039 L0.5859375,29.9990039 C0.262382813,29.9990039 1.0658141e-14,29.7366797 1.0658141e-14,29.4130664 L1.0658141e-14,28.8271289 C1.0658141e-14,27.7018359 0.638144531,26.7233203 1.57113281,26.2327734 C1.32041016,25.8926367 1.17181641,25.4727539 1.17181641,25.0187109 C1.17181641,24.4706836 1.38509766,23.9557031 1.77240234,23.5685156 C2.15953125,23.1812695 2.67451172,22.9679883 3.22253906,22.9679883 L13.183125,22.9679883 C14.3139258,22.9679883 15.2338477,23.8879688 15.2338477,25.0187109 C15.2338477,25.4619727 15.0942188,25.8835547 14.8358789,26.2334766 Z M2.60097656,24.3970313 C2.43503906,24.5629688 2.34369141,24.78375 2.34369141,25.0186523 C2.34369141,25.5032227 2.73791016,25.8975 3.22253906,25.8975 L13.1830664,25.8975 C13.4179688,25.8975 13.63875,25.8061523 13.8046289,25.6402148 C13.9705664,25.4742773 14.0619727,25.2535547 14.0619727,25.0185938 C14.0619727,24.5340234 13.6677539,24.1397461 13.183125,24.1397461 L3.22253906,24.1397461 C2.98763672,24.1397461 2.76685547,24.2310938 2.60097656,24.3970313 Z M1.17181641,28.8271289 L15.2338477,28.8271289 C15.2338477,27.8579297 14.445293,27.069375 13.4760938,27.069375 L13.183125,27.069375 L3.22253906,27.069375 L2.92957031,27.069375 C1.96037109,27.069375 1.17181641,27.8579297 1.17181641,28.8271289 Z M29.454668,24.6166406 C30.137168,25.6715039 30.1827539,27.0605859 29.5702734,28.154707 C29.0111719,29.1530273 28.0576758,29.8130273 26.9544141,29.9657227 C26.7893555,29.9885742 26.6245312,29.9998242 26.4612305,29.9998242 C25.5348633,29.9998242 24.6525,29.6374219 23.9844727,28.9696289 C23.9173828,28.9025391 23.8527539,28.8323437 23.7922852,28.7609766 L21.36,25.9664062 C21.3489258,25.9569141 21.337793,25.9473633 21.3273047,25.936875 C21.2966016,25.9061719 21.2703516,25.8727148 21.2478516,25.8375586 L13.0853906,16.4593945 C12.7569727,16.7727539 12.3283008,16.9451953 11.8727344,16.9451953 C11.4030469,16.9451953 10.9616602,16.7623242 10.629668,16.430332 C10.4863477,16.2870703 10.3709766,16.1232422 10.285957,15.9457031 L9.5784375,16.6532812 C9.78621094,17.4350391 9.58476562,18.3038672 8.9728125,18.9158789 C8.51583984,19.372793 7.91566406,19.60125 7.31542969,19.60125 C6.71525391,19.60125 6.11507812,19.372793 5.65810547,18.9158789 L0.686601562,13.9443164 C-0.227226563,13.0304297 -0.227226563,11.5434961 0.686601562,10.629668 C1.12904297,10.1872852 1.71738281,9.94359375 2.34363281,9.94359375 C2.55140625,9.94359375 2.75478516,9.97101562 2.95025391,10.0229883 L10.0239844,2.94931641 C9.81621094,2.16755859 10.0176562,1.29867187 10.6296094,0.68671875 C11.0723437,0.243925781 11.6608008,5.85937499e-05 12.2866406,5.85937499e-05 C12.9127734,5.85937499e-05 13.5014062,0.243925781 13.9441992,0.68671875 L18.9157617,5.65816406 C19.3585547,6.10095703 19.6024219,6.68953125 19.6024219,7.31548828 C19.6024219,7.94144531 19.3585547,8.53001953 18.9157031,8.9728125 C18.4589062,9.42960937 17.8587891,9.65800781 17.2587305,9.65806641 C17.0549414,9.65806641 16.8513281,9.63111328 16.6531641,9.5784375 L15.9441797,10.2874219 C16.1202539,10.3708008 16.2850195,10.4846484 16.4299805,10.6294336 C16.7623828,10.9617773 16.9452539,11.4032812 16.9452539,11.8730859 C16.9452539,12.3291211 16.7725195,12.7579687 16.4588086,13.085918 L24.1222852,19.7709375 L25.7779687,21.2149805 C25.8352734,21.2427539 25.8891797,21.2798437 25.9367578,21.3273633 C25.9650586,21.3556641 25.9897852,21.3861328 26.0111133,21.4182422 L28.7489062,23.8061133 C29.0182617,24.0355664 29.2556836,24.3082617 29.454668,24.6166406 Z M11.4583008,1.51535156 C11.0014453,1.97214844 11.0014453,2.71541016 11.4583008,3.17220703 C11.458418,3.17232422 11.4584766,3.17238281 11.4585937,3.1725 L16.430332,8.14423828 C16.8870703,8.60109375 17.6303906,8.60109375 18.0871289,8.14423828 C18.3086133,7.9228125 18.4305469,7.62849609 18.4305469,7.31554687 C18.4305469,7.00259766 18.3086133,6.70828125 18.0871875,6.48685547 L13.115625,1.51535156 C12.8942578,1.29392578 12.5998242,1.17193359 12.2866992,1.17193359 C11.9739844,1.17193359 11.6797266,1.29392578 11.4583008,1.51535156 Z M8.14417969,18.0872461 C8.60103516,17.6305078 8.60103516,16.8871875 8.14412109,16.4304492 L3.17173828,11.4580664 C2.95078125,11.237168 2.65669922,11.1154687 2.34363281,11.1154687 C2.03050781,11.1154687 1.73625,11.2372266 1.51523437,11.4583008 C1.05826172,11.915332 1.05826172,12.6587695 1.51523437,13.1157422 L6.48673828,18.0872461 C6.94365234,18.5442187 7.68726562,18.5441602 8.14417969,18.0872461 Z M10.6110937,13.963418 C10.617832,13.9563281 10.6244531,13.9492969 10.6313086,13.9425586 L13.944082,10.6297266 C13.949707,10.6241602 13.9549219,10.6192383 13.9602539,10.6141992 L15.601582,8.9728125 L10.6296094,4.00078125 L4.00072266,10.6297852 L8.97275391,15.6018164 L10.6110937,13.963418 Z M12.7032422,15.1857422 L15.1830469,12.7058789 C15.1858008,12.7030664 15.1886133,12.7002539 15.1914258,12.6975 L15.6016406,12.2872852 C15.7126172,12.1766016 15.7734375,12.029707 15.7734375,11.8730859 C15.7734375,11.7163477 15.7124414,11.569043 15.6016992,11.4583008 C15.3762891,11.233125 15.0075,11.2303711 14.7793945,11.452207 L11.4512109,14.7803906 C11.3449805,14.8892578 11.2864453,15.0335742 11.2864453,15.1869727 C11.2864453,15.3437109 11.3474414,15.4910156 11.4582422,15.6017578 C11.5688672,15.7124414 11.7160547,15.7733789 11.8726758,15.7733789 C12.0293555,15.7733789 12.1764844,15.7124414 12.287168,15.6018164 L12.6997852,15.1891992 C12.700957,15.1880273 12.7020703,15.1869141 12.7032422,15.1857422 Z M13.9166016,15.6295898 L20.2338281,22.8872461 L22.8795703,20.2414453 L15.6290625,13.9171289 L13.9166016,15.6295898 Z M21.0049805,23.7733008 L21.7761328,24.6594141 L24.6498633,21.785625 L23.7646875,21.0135352 L21.0049805,23.7733008 Z M28.5478711,27.5822461 C28.9444922,26.8736133 28.9134375,25.9372852 28.4703516,25.2526172 C28.3324805,25.0389844 28.17,24.8520117 27.9868945,24.6963281 C27.9849609,24.6946875 27.9830859,24.6931055 27.9812695,24.6914648 L25.5349805,22.5576562 L22.5472266,25.5454687 L24.6788672,27.9948047 C24.6808008,27.9969727 24.6826758,27.9991992 24.6845508,28.0014258 C24.7247461,28.0490039 24.7678711,28.0959375 24.8129297,28.1409375 C25.336875,28.6646484 26.0589258,28.9066992 26.7938086,28.8049805 C27.5303906,28.7030273 28.169707,28.2574219 28.5478711,27.5822461 Z" id="Combined-Shape"></path>
                    </g>
                </g>
            </g>
        </g>
    </g>
</svg>