<?xml version="1.0" encoding="UTF-8"?>
<svg width="165px" height="44px" viewBox="0 0 165 44" version="1.1" xmlns="http://www.w3.org/2000/svg" xmlns:xlink="http://www.w3.org/1999/xlink">
    <!-- Generator: sketchtool 52.6 (67491) - http://www.bohemiancoding.com/sketch -->
    <title>69FAB846-6744-48A4-83DC-2B500BD6A3E3</title>
    <desc>Created with sketchtool.</desc>
    <g id="Page-1" stroke="none" stroke-width="1" fill="none" fill-rule="evenodd">
        <g id="hari-tani-kartini" transform="translate(-638.000000, -55.000000)" fill="#2C3E50">
            <g id="Page-1" transform="translate(638.000000, 55.000000)">
                <path d="M17.6468,26.1066 C18.4208,26.1066 19.0688,26.3476 19.5928,26.8286 C20.0948,27.3096 20.3458,27.9066 20.3458,28.6176 L20.3458,36.3366 L17.6468,36.3366 L17.6468,34.4856 C15.6588,36.0336 13.5048,36.8076 11.1828,36.8076 C10.1988,36.8076 9.1948,36.6926 8.1698,36.4626 C7.2498,36.2536 6.2658,35.8556 5.2198,35.2696 C4.1948,34.7056 3.3158,34.0036 2.5838,33.1676 C1.8518,32.3316 1.2448,31.2526 0.7638,29.9356 C0.3038,28.6386 0.0738,27.1526 0.0738,25.4786 C0.0738,21.1486 0.9528,17.9476 2.7088,15.8766 C4.4668,13.8056 7.0918,12.7696 10.5858,12.7696 C13.5358,12.7696 15.8898,13.4916 17.6468,14.9346 C19.4038,16.3786 20.2828,18.4396 20.2828,21.1176 C20.2828,21.5146 20.2508,21.9126 20.1888,22.3096 C20.1258,22.7496 20.0528,23.0626 19.9688,23.2516 L19.8748,23.5966 L16.6428,23.5966 C16.8308,22.5296 16.9248,21.6716 16.9248,21.0236 C16.9248,19.6006 16.3918,18.3976 15.3248,17.4146 C14.2778,16.4526 12.6988,15.9706 10.5858,15.9706 C5.7738,15.9706 3.3688,19.0986 3.3688,25.3536 C3.3688,26.7966 3.5988,28.0516 4.0588,29.1196 C4.5188,30.1856 5.1358,31.0436 5.9108,31.6926 C6.6638,32.3206 7.4798,32.7916 8.3578,33.1046 C9.2368,33.4186 10.1678,33.5756 11.1508,33.5756 C13.2428,33.5756 15.2508,32.7396 17.1758,31.0646 L17.1758,29.0876 L11.7788,29.0876 L11.7788,26.0446 L17.6468,26.1066 Z M32.7718,23.8156 L38.7028,23.8156 C40.0218,23.8156 41.1198,23.5336 41.9988,22.9686 C42.8768,22.4036 43.3158,21.4626 43.3158,20.1446 C43.3158,17.5496 41.5378,16.2536 37.9808,16.2536 L32.8038,16.2536 L32.7718,23.8156 Z M37.9178,13.2096 C40.7008,13.2096 42.8348,13.7426 44.3198,14.8096 C45.8058,15.8766 46.5478,17.6756 46.5478,20.2076 C46.5478,22.8646 45.3028,24.7786 42.8138,25.9496 L47.1128,33.2616 L50.0628,33.2616 L50.0628,36.3056 L46.6738,36.3056 C46.0668,36.3056 45.5758,36.1486 45.1988,35.8356 C44.8008,35.5006 44.4038,34.9666 44.0058,34.2346 L39.7698,26.8596 L32.7718,26.8596 L32.7718,33.2936 L35.5648,33.2936 L35.5648,36.3366 L27.1868,36.3366 L27.1868,33.2936 L29.6338,33.2936 L29.6338,16.2846 L26.8408,16.2846 L26.8408,13.2406 L37.9178,13.2096 Z M54.4881,36.3684 L54.4881,33.3244 L56.9351,33.3244 L56.9351,16.3154 L54.1431,16.3154 L54.1431,13.2724 L71.8101,13.2724 C72.5841,13.2724 73.2331,13.5134 73.7561,13.9944 C74.2581,14.4754 74.5091,15.0714 74.5091,15.7824 L74.5091,18.7324 L71.3711,18.7324 L71.3711,16.2844 L60.0731,16.2844 L60.0731,22.7184 L69.2681,22.7184 L69.2681,21.4304 L72.4061,21.4304 L72.4061,27.3934 L69.2681,27.3934 L69.2681,25.8244 L60.0731,25.8244 L60.0731,33.2934 L71.3711,33.2934 L71.3711,30.8454 L74.5091,30.8454 L74.5091,33.7954 C74.5091,34.5274 74.2581,35.1244 73.7561,35.5844 C73.2331,36.0644 72.5941,36.3064 71.8421,36.3064 L54.4881,36.3684 Z M94.8436,21.6506 C95.0316,20.8346 95.1256,20.2176 95.1256,19.7986 C95.1256,18.9416 94.6866,18.1046 93.8076,17.2886 C92.9296,16.4726 91.5166,16.0646 89.5716,16.0646 C87.7716,16.0646 86.3496,16.3896 85.3036,17.0376 C84.2366,17.7076 83.7036,18.5546 83.7036,19.5796 C83.7036,20.3126 83.9956,20.9086 84.5816,21.3686 C85.1886,21.8496 85.9516,22.1946 86.8726,22.4036 C87.3536,22.5086 87.8506,22.6076 88.3636,22.7026 C88.8756,22.7966 89.4146,22.8956 89.9796,23.0006 C90.5446,23.1056 91.1096,23.2096 91.6746,23.3136 C92.2386,23.4196 92.8036,23.5446 93.3686,23.6906 C94.4986,23.9836 95.5336,24.3286 96.4756,24.7256 C97.3956,25.1246 98.1586,25.7516 98.7656,26.6086 C99.3516,27.4456 99.6446,28.4816 99.6446,29.7146 C99.6446,32.0176 98.7866,33.7746 97.0716,34.9876 C95.3556,36.2016 92.9916,36.8076 89.9796,36.8076 C88.3476,36.8076 86.8936,36.6086 85.6176,36.2116 C84.3206,35.8146 83.2846,35.3226 82.5106,34.7366 C81.7996,34.1926 81.1616,33.6286 80.5966,33.0426 C80.0946,32.5186 79.7386,32.0276 79.5296,31.5666 L79.2466,30.9706 L81.8836,29.0876 C81.9466,29.2346 82.0506,29.4016 82.1976,29.5896 C82.2806,29.6946 82.4016,29.8406 82.5576,30.0296 C82.7146,30.2176 82.9186,30.4486 83.1696,30.7196 C83.6716,31.2636 84.2056,31.7346 84.7706,32.1316 C85.3356,32.5506 86.0886,32.9266 87.0296,33.2616 C87.9496,33.5966 88.9226,33.7636 89.9476,33.7636 C92.0196,33.7636 93.6086,33.4296 94.7176,32.7596 C95.8266,32.0896 96.3816,31.1486 96.3816,29.9356 C96.3816,29.1616 96.0876,28.5446 95.5026,28.0846 C94.8956,27.6026 94.1326,27.2576 93.2116,27.0476 C92.2706,26.8386 91.2346,26.6516 90.1046,26.4836 C89.5406,26.3996 88.9756,26.3056 88.4106,26.2006 C87.8456,26.0966 87.2806,25.9816 86.7156,25.8556 C85.5866,25.6046 84.5506,25.2596 83.6096,24.8206 C82.6886,24.3806 81.9256,23.7216 81.3186,22.8426 C80.7326,21.9856 80.4396,20.8976 80.4396,19.5796 C80.4396,17.5716 81.2446,15.9506 82.8556,14.7156 C84.4666,13.4816 86.7156,12.8646 89.6026,12.8646 C90.9206,12.8646 92.1346,13.0106 93.2426,13.3036 C94.3096,13.5966 95.1566,13.9726 95.7846,14.4326 C96.4336,14.9156 96.9566,15.4486 97.3536,16.0336 C97.7516,16.6406 98.0336,17.2056 98.2006,17.7276 C98.3686,18.2936 98.4526,18.8266 98.4526,19.3286 C98.4526,19.6846 98.4206,20.0506 98.3586,20.4266 C98.3156,20.6156 98.2896,20.7826 98.2796,20.9286 C98.2686,21.0756 98.2536,21.2016 98.2326,21.3056 L98.1386,21.6196 L94.8436,21.6506 Z M139.5052,26.5461 L136.7122,29.2451 L136.7122,33.2311 L139.5052,33.2311 L139.5052,36.2751 L131.1262,36.2751 L131.1262,33.2311 L133.5742,33.2311 L133.5432,16.5351 C130.3422,16.5351 127.7692,17.0371 125.8232,18.0421 C123.8772,19.0461 122.9042,20.4271 122.9042,22.1851 C122.9042,22.9161 123.1452,23.5441 123.6262,24.0671 C124.0862,24.5691 124.5882,24.8201 125.1322,24.8201 C125.5722,24.8201 126.0112,24.7571 126.4502,24.6321 C126.8482,24.5271 127.1722,24.3811 127.4232,24.1921 L127.7372,23.9731 L128.6472,26.2001 C127.5172,27.0171 126.2832,27.4251 124.9442,27.4251 C123.6892,27.4251 122.5172,26.9961 121.4302,26.1391 C120.3632,25.3021 119.8292,23.9941 119.8292,22.2161 C119.8292,20.8151 120.1432,19.5591 120.7712,18.4491 C121.4192,17.3201 122.2142,16.4521 123.1552,15.8451 C124.1602,15.1971 125.2992,14.6741 126.5762,14.2761 C127.8942,13.8791 129.1492,13.5971 130.3422,13.4291 C130.9482,13.3461 131.5552,13.2871 132.1622,13.2561 C132.7682,13.2251 133.3962,13.2091 134.0452,13.2091 C134.8182,13.2091 135.4672,13.4491 135.9902,13.9311 C136.4922,14.4121 136.7432,15.0091 136.7432,15.7201 L136.7432,25.3541 L146.2522,16.2221 L144.5882,16.2221 L144.5882,13.1781 L153.1242,13.1781 L153.1242,16.2221 L150.1742,16.2221 L141.7022,24.4431 L147.3812,33.6691 C148.6572,35.7821 150.1322,37.4771 151.8062,38.7531 C153.4592,40.0291 155.0272,40.6671 156.5132,40.6671 C157.0782,40.6671 157.6322,40.5841 158.1762,40.4161 C158.6792,40.2701 159.0872,40.0811 159.4002,39.8521 C159.7562,39.6011 160.0282,39.3811 160.2162,39.1921 C160.4252,38.9841 160.5822,38.7951 160.6872,38.6271 L160.8132,38.3761 L164.5152,38.3761 C164.4732,38.5441 164.4102,38.7331 164.3272,38.9421 C164.2222,39.1921 163.9612,39.6011 163.5432,40.1651 C163.0822,40.7931 162.6012,41.3261 162.0992,41.7661 C161.5972,42.2051 160.8542,42.6231 159.8712,43.0211 C158.9292,43.3981 157.8942,43.5861 156.7642,43.5861 C155.6132,43.5861 154.5052,43.3981 153.4382,43.0211 C152.3712,42.6451 151.4192,42.1631 150.5822,41.5771 C149.7242,40.9701 148.8882,40.2281 148.0722,39.3491 C147.2562,38.4711 146.5342,37.5921 145.9062,36.7131 C145.2992,35.8771 144.6622,34.8941 143.9922,33.7641 L139.5052,26.5461 Z M7.533,5.1184 L6.464,6.1514 L6.464,7.6784 L7.533,7.6784 L7.533,8.8434 L4.325,8.8434 L4.325,7.6784 L5.262,7.6784 L5.25,1.2864 C4.025,1.2864 3.04,1.4774 2.295,1.8624 C1.55,2.2464 1.178,2.7754 1.178,3.4484 C1.178,3.7284 1.269,3.9694 1.454,4.1694 C1.63,4.3614 1.822,4.4574 2.031,4.4574 C2.199,4.4574 2.367,4.4334 2.535,4.3864 C2.687,4.3464 2.811,4.2894 2.908,4.2174 L3.028,4.1334 L3.376,4.9864 C2.944,5.2984 2.471,5.4554 1.959,5.4554 C1.478,5.4554 1.029,5.2914 0.613,4.9624 C0.204,4.6414 3.55271368e-15,4.1404 3.55271368e-15,3.4604 C3.55271368e-15,2.9244 0.12,2.4434 0.361,2.0184 C0.609,1.5864 0.913,1.2544 1.274,1.0214 C1.658,0.7734 2.095,0.5734 2.583,0.4204 C3.088,0.2684 3.569,0.1604 4.025,0.0964 C4.257,0.0644 4.489,0.0424 4.721,0.0294 C4.954,0.0174 5.194,0.0124 5.443,0.0124 C5.739,0.0124 5.987,0.1044 6.187,0.2884 C6.38,0.4724 6.476,0.7014 6.476,0.9724 L6.476,4.6624 L10.116,1.1664 L9.479,1.1664 L9.479,0.0004 L12.747,0.0004 L12.747,1.1664 L11.618,1.1664 L8.374,4.3134 L10.549,7.8464 C11.037,8.6544 11.602,9.3034 12.243,9.7924 C12.875,10.2804 13.476,10.5244 14.045,10.5244 C14.262,10.5244 14.473,10.4934 14.682,10.4294 C14.874,10.3724 15.03,10.3004 15.15,10.2124 C15.286,10.1164 15.39,10.0324 15.463,9.9604 C15.543,9.8804 15.603,9.8074 15.643,9.7434 L15.691,9.6474 L17.109,9.6474 C17.093,9.7124 17.069,9.7844 17.037,9.8634 C16.996,9.9604 16.896,10.1164 16.736,10.3334 C16.56,10.5724 16.376,10.7774 16.183,10.9454 C15.991,11.1134 15.707,11.2734 15.33,11.4264 C14.97,11.5704 14.574,11.6414 14.141,11.6414 C13.7,11.6414 13.276,11.5704 12.867,11.4264 C12.459,11.2814 12.095,11.0974 11.774,10.8734 C11.446,10.6404 11.125,10.3564 10.813,10.0194 C10.501,9.6834 10.224,9.3474 9.984,9.0114 C9.752,8.6904 9.508,8.3134 9.251,7.8824 L7.533,5.1184 Z M15.0701,7.8576 C15.5591,7.8576 15.9931,7.6936 16.3701,7.3646 C16.7391,7.0456 17.0441,6.6716 17.2851,6.2476 L15.7191,6.2476 C15.3731,6.2476 15.1091,6.2636 14.9241,6.2956 C14.7071,6.3366 14.5191,6.4236 14.3581,6.5596 C14.1891,6.7046 14.1051,6.9126 14.1051,7.1846 C14.1051,7.3696 14.1941,7.5256 14.3701,7.6536 C14.5471,7.7816 14.7881,7.8456 15.0941,7.8456 L15.0701,7.8576 Z M15.0661,9.0836 C14.3691,9.0836 13.8241,8.9146 13.4321,8.5786 C13.0401,8.2426 12.8431,7.7966 12.8431,7.2446 C12.8431,5.9876 13.8001,5.3586 15.7151,5.3586 L17.4331,5.3586 L17.4331,5.1906 C17.4331,4.6936 17.2971,4.3256 17.0241,4.0856 C16.7441,3.8446 16.3121,3.7246 15.7271,3.7246 C15.3981,3.7246 15.1181,3.8006 14.8861,3.9536 C14.6461,4.1136 14.5261,4.3296 14.5261,4.6016 C14.5261,4.6416 14.5291,4.6976 14.5381,4.7696 C14.5451,4.8416 14.5571,4.9256 14.5731,5.0216 L13.3721,5.0216 C13.2921,4.8706 13.2521,4.6896 13.2521,4.4816 C13.2521,4.0246 13.3761,3.6566 13.6241,3.3766 C13.8811,3.0806 14.1851,2.8796 14.5381,2.7756 C14.9141,2.6636 15.3261,2.6076 15.7751,2.6076 C16.8161,2.6076 17.5491,2.8036 17.9731,3.1956 C18.4061,3.5966 18.6221,4.2496 18.6221,5.1546 L18.6221,7.7016 L19.6801,7.7016 L19.6801,8.8666 L18.2781,8.8666 C18.0281,8.8666 17.8241,8.7746 17.6631,8.5896 C17.5021,8.4066 17.4211,8.1696 17.4211,7.8816 L17.4211,7.4856 C16.8681,8.5266 16.0831,9.0466 15.0661,9.0466 L15.0661,9.0836 Z M25.5428,3.7004 C24.9988,3.7004 24.5338,3.8804 24.1488,4.2394 C23.7648,4.5984 23.4598,4.9984 23.2358,5.4374 L23.2358,7.0314 C23.8048,7.5974 24.4898,7.8824 25.2908,7.8824 C25.7948,7.8824 26.2238,7.7064 26.5758,7.3544 C26.9288,7.0034 27.1048,6.5274 27.1048,5.9294 C27.1048,5.2334 26.9598,4.6874 26.6718,4.2874 C26.3838,3.8874 26.0068,3.6884 25.5428,3.6884 L25.5428,3.7004 Z M20.9648,1.1664 L20.9648,0.0004 L22.2988,0.0004 C22.5788,0.0004 22.8038,0.1044 22.9718,0.3124 C23.1398,0.5204 23.2238,0.8044 23.2238,1.1664 L23.2238,3.8924 C23.4168,3.5724 23.7008,3.2724 24.0768,2.9914 C24.4538,2.7114 24.9338,2.5714 25.5188,2.5714 C26.3438,2.5714 27.0168,2.8714 27.5378,3.4714 C28.0498,4.0654 28.3058,4.8744 28.3058,5.8994 C28.3058,6.9244 28.0258,7.7054 27.4648,8.2424 C26.9038,8.7784 26.1838,9.0474 25.3028,9.0474 C24.5098,9.0474 23.8088,8.7844 23.1998,8.2584 L23.0548,9.4674 L22.0218,9.4674 L22.0218,1.1894 L20.9648,1.1664 Z M34.2171,3.9289 L34.2171,2.7639 L35.5501,2.7639 C35.8311,2.7639 36.0551,2.8669 36.2241,3.0749 C36.3921,3.2839 36.4761,3.5689 36.4761,3.9289 L36.4761,7.6899 L37.5211,7.6899 L37.5211,8.8549 L36.0681,8.8549 C35.5391,8.8549 35.2751,8.5459 35.2751,7.9299 L35.2751,7.0049 C35.2591,7.0609 35.2221,7.1489 35.1671,7.2689 C35.1191,7.3809 35.0231,7.5489 34.8791,7.7739 C34.7431,7.9899 34.5881,8.1859 34.4121,8.3619 C34.2441,8.5309 34.0161,8.6869 33.7291,8.8309 C33.4411,8.9749 33.1341,9.0469 32.8061,9.0469 C31.5121,9.0469 30.8651,8.1379 30.8651,6.3199 L30.8651,3.9409 L29.8081,3.9409 L29.8081,2.7759 L31.1411,2.7759 C31.4221,2.7759 31.6461,2.8799 31.8151,3.0879 C31.9831,3.2959 32.0671,3.5799 32.0671,3.9409 L32.0671,6.2959 C32.0671,6.7119 32.1471,7.0609 32.3071,7.3409 C32.4591,7.6139 32.7111,7.7489 33.0641,7.7489 C33.3761,7.7489 33.6841,7.6169 33.9891,7.3529 C34.2851,7.0879 34.5261,6.7879 34.7101,6.4519 C34.8861,6.1159 35.0301,5.8149 35.1421,5.5509 C35.2551,5.2789 35.3111,5.1179 35.3111,5.0709 L35.3111,3.9289 L34.2171,3.9289 Z M43.6126,3.7248 C43.3236,3.7248 43.0356,3.7928 42.7476,3.9298 C42.4756,4.0578 42.2426,4.2308 42.0506,4.4478 C41.8506,4.6798 41.6946,4.8768 41.5826,5.0378 C41.5176,5.1258 41.4616,5.2168 41.4136,5.3088 C41.3656,5.4018 41.3216,5.4918 41.2816,5.5798 L41.2816,7.0498 C41.8506,7.6208 42.5356,7.9058 43.3366,7.9058 C43.8416,7.9058 44.2696,7.7288 44.6216,7.3748 C44.9746,7.0228 45.1506,6.5438 45.1506,5.9418 C45.1506,5.2438 45.0066,4.6928 44.7176,4.2908 C44.4296,3.8898 44.0526,3.6888 43.5886,3.6888 L43.6126,3.7248 Z M39.0106,3.9538 L39.0106,2.7878 L40.3446,2.7878 C40.6246,2.7878 40.8486,2.8918 41.0176,3.0998 C41.1856,3.3078 41.2696,3.5918 41.2696,3.9538 L41.2696,4.0368 C41.3256,3.9098 41.4096,3.7768 41.5216,3.6398 C41.5776,3.5768 41.6426,3.5068 41.7146,3.4298 C41.7866,3.3548 41.8666,3.2728 41.9546,3.1838 C42.1386,3.0078 42.3746,2.8678 42.6636,2.7638 C42.9596,2.6518 43.2676,2.5948 43.5886,2.5948 C44.4136,2.5948 45.0866,2.8958 45.6066,3.4958 C46.1196,4.0888 46.3756,4.8988 46.3756,5.9228 C46.3756,6.9488 46.0956,7.7298 45.5346,8.2658 C44.9746,8.8028 44.2536,9.0718 43.3726,9.0718 C42.5796,9.0718 41.8906,8.8188 41.3056,8.3138 L41.3056,10.7288 L42.2426,10.7288 L42.2426,11.8948 L39.1786,11.8948 L39.1786,10.7288 L40.1046,10.7288 L40.1046,3.9648 L39.0106,3.9538 Z M50.657,7.8576 C51.146,7.8576 51.58,7.6936 51.957,7.3646 C52.326,7.0456 52.631,6.6716 52.872,6.2476 L51.306,6.2476 C50.96,6.2476 50.696,6.2636 50.511,6.2956 C50.294,6.3366 50.106,6.4236 49.945,6.5596 C49.776,6.7046 49.692,6.9126 49.692,7.1846 C49.692,7.3696 49.781,7.5256 49.957,7.6536 C50.135,7.7816 50.376,7.8456 50.681,7.8456 L50.657,7.8576 Z M50.653,9.0836 C49.956,9.0836 49.411,8.9146 49.019,8.5786 C48.627,8.2426 48.43,7.7966 48.43,7.2446 C48.43,5.9876 49.387,5.3586 51.302,5.3586 L53.02,5.3586 L53.02,5.1906 C53.02,4.6936 52.884,4.3256 52.612,4.0856 C52.331,3.8446 51.899,3.7246 51.314,3.7246 C50.985,3.7246 50.705,3.8006 50.473,3.9536 C50.233,4.1136 50.113,4.3296 50.113,4.6016 C50.113,4.6416 50.116,4.6976 50.125,4.7696 C50.133,4.8416 50.144,4.9256 50.16,5.0216 L48.959,5.0216 C48.879,4.8706 48.839,4.6896 48.839,4.4816 C48.839,4.0246 48.963,3.6566 49.211,3.3766 C49.468,3.0806 49.772,2.8796 50.125,2.7756 C50.501,2.6636 50.913,2.6076 51.362,2.6076 C52.403,2.6076 53.136,2.8036 53.561,3.1956 C53.993,3.5966 54.209,4.2496 54.209,5.1546 L54.209,7.7016 L55.267,7.7016 L55.267,8.8666 L53.865,8.8666 C53.616,8.8666 53.411,8.7746 53.25,8.5896 C53.089,8.4066 53.008,8.1696 53.008,7.8816 L53.008,7.4856 C52.455,8.5266 51.67,9.0466 50.653,9.0466 L50.653,9.0836 Z M56.9124,2.7873 L57.9224,2.7873 L57.9224,1.7063 L59.1234,1.1533 L59.1234,2.7873 L61.5984,2.7873 L61.5984,3.9533 L59.1234,3.9533 L59.1354,6.7163 C59.1354,7.5093 59.4954,7.9053 60.2164,7.9053 C60.4004,7.9053 60.6134,7.8733 60.8534,7.8093 C61.0774,7.7533 61.2574,7.6933 61.3944,7.6293 L61.5864,7.5333 L62.0664,8.3873 C62.0184,8.4343 61.9464,8.4943 61.8504,8.5663 C61.7544,8.6383 61.5384,8.7343 61.2024,8.8543 C60.8654,8.9743 60.4934,9.0353 60.0844,9.0353 C59.4274,9.0353 58.9074,8.8353 58.5224,8.4343 C58.1384,8.0423 57.9464,7.4693 57.9464,6.7163 L57.9464,3.9293 L56.9364,3.9293 L56.9124,2.7873 Z M66.8484,3.7727 C66.0074,3.7727 65.4384,4.1577 65.1424,4.9257 L68.2424,4.9257 C68.2104,4.5847 68.0654,4.3077 67.8094,4.0937 C67.5534,3.8797 67.2334,3.7727 66.8484,3.7727 Z M69.5154,7.7967 C69.4914,7.8377 69.4554,7.8857 69.4074,7.9417 C69.3674,7.9897 69.2594,8.0897 69.0834,8.2427 C68.8984,8.3947 68.7194,8.5227 68.5424,8.6267 C68.3584,8.7307 68.1144,8.8317 67.8094,8.9267 C67.5054,9.0227 67.2014,9.0717 66.8964,9.0717 C66.4804,9.0717 66.0914,9.0227 65.7314,8.9267 C65.3784,8.8317 65.0424,8.6677 64.7224,8.4347 C64.4014,8.2027 64.1534,7.8857 63.9774,7.4857 C63.7924,7.0687 63.7014,6.5877 63.7014,6.0437 C63.7014,4.9867 63.9734,4.1487 64.5174,3.5327 C65.0624,2.9157 65.8434,2.6077 66.8604,2.6077 C67.6294,2.6077 68.2544,2.8357 68.7344,3.2927 C69.2154,3.7487 69.4554,4.3737 69.4554,5.1667 L69.4554,5.9837 L65.0464,5.9837 L65.0464,6.0197 L65.0464,6.0557 L65.0464,6.1037 C65.0464,6.6567 65.2384,7.0877 65.6234,7.4017 C66.0074,7.7127 66.4484,7.8697 66.9444,7.8697 C67.2814,7.8697 67.6174,7.8017 67.9534,7.6657 C68.2744,7.5377 68.5064,7.4057 68.6504,7.2687 L68.8674,7.0647 L69.5154,7.7967 Z M71.7142,7.6896 L72.6392,7.6896 L72.6392,3.9166 L71.5942,3.9166 L71.5942,2.7516 L73.0472,2.7516 C73.5762,2.7516 73.8402,3.0596 73.8402,3.6766 L73.8442,4.8416 C73.8602,4.7866 73.8782,4.7336 73.8982,4.6856 C73.9182,4.6376 73.9362,4.5886 73.9522,4.5416 C73.9682,4.4936 74.0002,4.4246 74.0482,4.3366 C74.0962,4.2496 74.1562,4.1366 74.2282,4.0016 C74.3802,3.7286 74.5362,3.5046 74.6962,3.3286 C74.8642,3.1516 75.0922,2.9836 75.3812,2.8236 C75.6772,2.6636 75.9852,2.5836 76.3052,2.5836 C77.6012,2.5836 78.2502,3.4946 78.2502,5.3166 L78.2502,7.7016 L79.3072,7.7016 L79.3072,8.8546 L77.9662,8.8546 C77.6932,8.8546 77.4712,8.7586 77.3022,8.5666 C77.1332,8.3746 77.0482,8.1186 77.0482,7.7966 L77.0482,5.3226 C77.0482,4.8986 76.9722,4.5496 76.8202,4.2776 C76.6682,4.0046 76.4162,3.8686 76.0632,3.8686 C75.7512,3.8686 75.4462,4.0016 75.1502,4.2666 C74.8462,4.5316 74.6052,4.8336 74.4292,5.1706 C74.2452,5.5076 74.1012,5.8086 73.9972,6.0746 C73.8932,6.3316 73.8402,6.4926 73.8402,6.5556 L73.8402,7.7016 L74.7772,7.7016 L74.7772,8.8546 L71.7142,8.8546 L71.7142,7.6896 Z M111.3065,35.133 L103.0885,35.133 L103.0885,32.283 L104.8165,32.283 L104.8165,28.858 L105.9515,28.828 L105.9515,32.335 L106.9815,32.352 L106.9875,29.8 L106.2965,29.785 L106.2965,29.005 L107.8515,29.035 L107.8575,27.94 L107.1975,27.94 L107.1855,27.259 L108.1475,27.23 L108.1385,26.012 L107.9005,26.016 L107.9005,25.416 L107.5825,25.427 L107.5775,24.973 L107.2165,24.978 L107.2095,24.535 L106.7115,24.535 L106.7155,24.006 L106.4195,24.005 L106.4205,23.618 L105.9515,23.618 L105.9515,22.938 L107.2595,22.938 L107.2845,22.02 L108.2955,22.02 L108.2955,21.517 L107.6545,21.517 L107.6295,21.013 L107.0125,20.984 L107.0125,19.918 L108.4915,19.928 L108.5175,18.764 L108.0245,18.748 L108.0245,17.817 L108.6165,17.817 L108.6165,17.343 L109.4375,17.343 L109.4245,16.684 L108.8385,16.692 L108.8385,15.84 L109.6965,15.832 L109.7025,15.064 L109.3565,15.064 L109.3565,14.301 L109.6285,14.294 L110.5665,10.86 L111.3065,10.86 L111.3065,35.133 Z M112.1702,35.133 L112.1702,10.86 L112.9102,10.86 L113.8482,14.294 L114.1202,14.301 L114.1202,15.064 L113.7742,15.064 L113.7802,15.832 L114.6382,15.84 L114.6382,16.692 L114.0522,16.684 L114.0392,17.343 L114.8602,17.343 L114.8602,17.817 L115.4522,17.817 L115.4522,18.748 L114.9592,18.764 L114.9852,19.928 L116.4642,19.918 L116.4642,20.984 L115.8472,21.013 L115.8222,21.517 L115.1812,21.517 L115.1812,22.02 L116.1922,22.02 L116.2172,22.938 L117.5252,22.938 L117.5252,23.618 L117.0562,23.618 L117.0572,24.005 L116.7612,24.006 L116.7652,24.535 L116.2672,24.535 L116.2602,24.978 L115.8992,24.973 L115.8942,25.427 L115.5762,25.416 L115.5762,26.016 L115.3382,26.012 L115.3292,27.23 L116.2912,27.259 L116.2792,27.94 L115.6192,27.94 L115.6252,29.035 L117.1802,29.005 L117.1802,29.785 L116.4892,29.8 L116.4952,32.352 L117.5252,32.335 L117.5252,28.828 L118.6602,28.858 L118.6602,32.283 L120.3882,32.283 L120.3882,35.133 L112.1702,35.133 Z" id="Combined-Shape"></path>
            </g>
        </g>
    </g>
</svg>