<?xml version="1.0" encoding="UTF-8"?>
<svg width="588px" height="160px" viewBox="0 0 588 160" version="1.1" xmlns="http://www.w3.org/2000/svg" xmlns:xlink="http://www.w3.org/1999/xlink">
    <!-- Generator: sketchtool 52.6 (67491) - http://www.bohemiancoding.com/sketch -->
    <title>0130FC2A-6562-432E-988C-95B221660FA1</title>
    <desc>Created with sketchtool.</desc>
    <defs>
        <polygon id="path-1" points="0 0.988125956 97.0236622 0.988125956 97.0236622 72.937421 0 72.937421"></polygon>
        <polygon id="path-3" points="0.0637483427 0.947461809 134.373818 0.947461809 134.373818 72.8926077 0.0637483427 72.8926077"></polygon>
        <polygon id="path-5" points="0.763613417 0.274145149 100.132206 0.274145149 100.132206 71 0.763613417 71"></polygon>
    </defs>
    <g id="Page-1" stroke="none" stroke-width="1" fill="none" fill-rule="evenodd">
        <g id="hari-tani-kartini" transform="translate(-601.000000, -1913.000000)">
            <g id="Group-15" transform="translate(0.000000, 1861.000000)">
                <g id="Group-20" transform="translate(601.000000, 52.000000)">
                    <g id="Group-3">
                        <mask id="mask-2" fill="white">
                            <use xlink:href="#path-1"></use>
                        </mask>
                        <g id="Clip-2"></g>
                        <path d="M89.1675826,44.1635067 C87.0901512,47.0070457 84.7750475,48.9086349 82.279489,49.8771186 C80.9546863,50.3326155 79.8411478,50.2087911 78.996091,49.51449 C78.6659906,49.2712635 78.397509,48.7582766 78.1862448,47.9401511 C77.9749806,47.0954917 78.0938167,45.8572477 78.5471545,44.1635067 C78.5779639,43.9821924 78.6351813,43.8008781 78.6968,43.5886076 C78.8464455,43.137533 78.996091,42.65108 79.1501378,42.1071371 L79.4186194,41.4128359 L80.4441311,38.7240773 L81.0735224,37.2116507 C81.4960508,36.3935251 81.9757967,35.6063557 82.4863518,34.8810984 C85.2856027,31.3742143 87.8119706,29.4726252 90.0082381,29.1674865 C90.3999572,29.1099966 90.7036495,29.1409527 90.9413217,29.2293987 C91.152586,29.322267 91.3330408,29.4416691 91.4826863,29.6229834 C91.9976428,30.0165681 92.2969338,31.4051704 92.3585525,33.7932126 C92.2969338,37.8440396 91.245014,41.2934338 89.1675826,44.1635067 Z M65.1758903,33.6738104 C63.0104321,37.5123671 60.9021913,40.9882951 58.8555692,44.1015945 C57.4735492,46.127008 56.2411746,47.7013469 55.1276361,48.8201888 C54.2253619,49.6648482 53.653188,50.1203451 53.380305,50.1513012 L53.2614689,50.177835 L52.9005592,49.9390308 C51.7870207,48.8201888 51.4833284,46.6444171 52.0863117,43.3453811 C52.9577766,39.2061081 54.7667264,35.5488658 57.4735492,32.3426981 C58.9479973,30.6799132 60.572091,29.8042977 62.2886127,29.7114294 C64.0315425,29.6539395 65.4443719,30.1359702 66.527101,31.2238561 L65.1758903,33.6738104 Z M95.0961846,26.6600422 C93.472091,24.8778552 91.6059237,24.152598 89.4096562,24.5152266 C88.4765726,24.6346287 87.5126796,24.9088113 86.579596,25.359886 L85.7697498,25.7534707 L86.6412147,23.7899694 C89.5284923,17.1697859 92.5654154,10.7264944 95.7255759,4.4114496 C96.0292682,3.80559447 96.0556763,3.19973933 95.8752214,2.5983065 C95.6683585,2.02340746 95.2766395,1.56791054 94.7044656,1.23623802 C94.1014823,0.962055399 93.5293084,0.904565496 92.9263251,1.11683591 C92.3585525,1.29815022 91.9052147,1.69173494 91.5751144,2.26221168 C85.8269672,13.7823039 80.7742314,25.0901256 76.4125057,36.2122108 L76.0207866,37.1806946 L75.6290676,38.0872661 C75.5762515,38.2376243 75.5322381,38.3614487 75.4794221,38.5073846 C75.0965057,38.6931212 74.7532013,38.9363478 74.4715157,39.3255102 C71.7338836,43.5886076 69.5068067,46.5205927 67.8210943,48.1524215 C66.9804388,49.0015032 66.2894288,49.5764022 65.7788736,49.8771186 L65.5059906,50.0274768 L65.5059906,49.8461625 C65.5059906,49.3950879 65.5984187,48.851145 65.7788736,48.2143337 C67.882713,41.5012819 70.5587264,34.7616963 73.8421244,27.9601985 C74.110606,27.3543434 74.1414154,26.7484882 73.9301512,26.1470554 C73.7496963,25.5721564 73.3271679,25.1166594 72.754994,24.815943 C72.156412,24.5417604 71.5534288,24.5152266 70.9812548,24.7230747 C70.3782716,24.9353451 69.9601445,25.3289299 69.6564522,25.934785 L69.0886796,27.1730291 L68.9654421,27.0845831 C66.7691746,25.4217982 64.2428067,24.7540308 61.4127465,25.0901256 C58.5870876,25.4527543 56.0871278,26.8413565 53.9832883,29.2603548 C50.695489,33.0723776 48.5124254,37.6052354 47.451703,42.8500835 C47.3856829,42.8589281 47.3240642,42.8456612 47.2580441,42.8633504 C46.6242515,43.0446647 46.1445057,43.4072933 45.783596,44.0131485 C45.6955692,44.1635067 45.6031411,44.3757771 45.484305,44.5570914 C44.3707666,47.0954917 41.7827799,50.6023759 37.6895358,55.1352336 C36.6684254,56.1656296 35.8233686,56.8289746 35.1631679,57.1916032 C34.982713,57.2844716 34.8330676,57.3419615 34.7098301,57.4038737 L34.4105391,57.5232758 L34.4105391,57.3729176 C34.3225124,56.9793328 34.4413485,56.2540756 34.7406395,55.1352336 C34.7714488,55.0777437 34.8638769,54.8345172 35.0443318,54.4099764 C35.1939773,53.9898579 35.4624589,53.2646006 35.8849873,52.2651608 C36.2767064,51.2657209 36.8488803,49.8771186 37.5706997,48.0949316 C38.8955023,44.8003179 40.4271679,41.0502073 42.174499,36.8180659 C42.5662181,35.8495822 42.9535358,34.8810984 43.3760642,33.917037 L44.3399572,31.4980387 L48.8205191,31.0115857 C49.5159304,30.9540958 50.057295,30.6799132 50.4754221,30.1978824 C50.8979505,29.6848956 51.1092147,29.1099966 51.0784054,28.4112731 C50.9903786,27.7479281 50.7174957,27.1730291 50.2377498,26.7484882 C49.7536027,26.3283697 49.1550207,26.1470554 48.4904187,26.1780115 L46.4437967,26.3858596 L46.5054154,26.1780115 C48.0986997,22.3350326 49.4851211,18.9210168 50.6558769,15.9580756 C51.8618435,12.9951344 52.6716896,10.9387648 53.0942181,9.79338903 C53.3054823,9.12562169 53.2746729,8.49323275 53.0061913,7.91833371 C52.7333084,7.34343468 52.2843719,6.91889385 51.6505793,6.64913354 C50.9903786,6.43686313 50.3873953,6.46781923 49.784412,6.73757954 C49.2122381,7.01176216 48.794111,7.46283679 48.5520375,8.13060413 C48.129509,9.21848999 47.3504722,11.2439035 46.1753151,14.1758886 C45.0001579,17.0769176 43.6181378,20.4643996 42.0512615,24.3029562 L40.9113151,27.0845831 L38.6842381,27.4472117 C35.4624589,28.0486445 32.3331077,28.835814 29.2653753,29.8042977 L24.8420308,31.3167244 L25.5066328,29.6229834 C28.06381,23.3035163 29.6879037,19.0138851 30.3481043,16.6833328 C30.8586595,14.5385172 30.8894689,12.6634619 30.4713418,11.0316331 C29.9563853,9.306936 28.9352749,8.06869192 27.4300174,7.34343468 C26.017188,6.73757954 24.5735492,6.58722133 23.0374823,6.91889385 C21.4750074,7.21961027 20.0577766,7.7679755 18.7065659,8.55072265 C11.3035157,13.4815874 6.07032508,19.8585444 2.9981913,27.6860159 C1.49733512,31.2548122 0.53344214,34.7307402 0.141723077,38.1757121 C-0.249995987,41.5941502 0.172532441,44.4376893 1.37409766,46.6709509 C1.73500736,47.2768061 2.21915452,47.6394347 2.84854582,47.7897929 C3.48233846,47.9711072 4.0809204,47.8826612 4.68390368,47.5509887 C5.25607759,47.1883601 5.64779666,46.701907 5.79744214,46.0695181 C5.97789699,45.4327068 5.88987023,44.8268517 5.55536856,44.2254189 C4.14253913,41.7135523 4.77633177,36.8180659 7.45234515,29.5610712 C10.3088134,22.4898131 14.8553953,16.8956032 21.1140977,12.7519079 C22.2276361,12.1814312 23.1299104,11.8188025 23.8825391,11.6949781 C24.6043585,11.575576 25.1149137,11.6065321 25.3833953,11.7568903 C25.9863786,12.0576068 26.0788067,13.3002731 25.6562783,15.5335348 C24.9036495,17.952533 23.0682916,22.8214856 20.0577766,30.1978824 L19.3359572,32.0110255 L18.5569204,33.9435708 L15.9073151,35.2171932 C14.4944856,35.9424505 13.0772548,36.6986638 11.6644254,37.5123671 C11.0922515,37.8749957 10.7005324,38.3614487 10.5200776,38.9628816 C10.3704321,39.5996928 10.4320508,40.2011256 10.7621512,40.8069808 C11.1230609,41.4128359 11.6028067,41.8064206 12.2365993,41.9567788 C12.870392,42.1380932 13.4689739,42.0452248 14.0719572,41.7135523 L15.8765057,40.7494909 L12.8968,48.5150501 C9.46815786,57.4657859 7.21027157,64.6608684 6.1891612,70.1312538 C6.09673311,70.825555 6.25077993,71.4314101 6.642499,71.9443969 C7.0034087,72.4573838 7.54477324,72.7934786 8.20497391,72.9128807 C8.89598395,73.0013267 9.49896722,72.8509685 10.0095224,72.4573838 C10.5200776,72.0947551 10.8545793,71.5508122 10.9734154,70.8874672 C11.4839706,67.7741678 12.6591278,63.6304724 14.4944856,58.4033135 C16.2990341,53.1717323 18.3456562,47.6703908 20.6607599,41.8373767 L22.3464722,37.5433232 L26.408907,35.9114944 C29.2345659,34.8545646 32.1262448,33.9435708 35.1015492,33.2183135 L38.7414555,32.4046103 L37.2978167,35.9114944 C35.7353418,39.7810071 34.3225124,43.225979 33.0857365,46.2508324 C32.2758903,48.2452898 31.6112883,49.8461625 31.1007331,51.1463188 C30.6209873,52.3845629 30.290887,53.2336445 30.1368401,53.653763 L30.1104321,53.7466313 C29.326994,56.0462275 29.3578033,58.160087 30.2292682,60.0970545 C30.981897,61.4856568 32.1834622,62.2728263 33.7811478,62.4231845 C36.2767064,62.3922284 38.7150475,61.1230282 41.1181779,58.5536717 C44.115489,55.2457911 46.2853485,52.4995427 47.8126127,50.2132134 C48.4860174,51.9290659 49.5995559,53.3707358 51.2764656,54.4718886 L51.3336829,54.5028447 C52.0555023,54.8035611 52.7509137,54.9539193 53.4419237,54.8964294 C54.8239438,54.772605 56.1179371,54.2021283 57.3503117,53.1098201 C58.617897,52.0528903 59.7578435,50.8146463 60.7833552,49.4216217 L60.9021913,49.2712635 L60.8405726,49.7842503 C60.8141645,50.8146463 60.9946194,51.8096638 61.4435559,52.7206577 C62.1961846,54.2596182 63.5209873,54.9848754 65.3871545,54.9273855 C67.2797298,54.6532029 69.1767064,53.5034048 71.1044923,51.4779913 C71.8747264,50.7129334 72.7241846,49.7267604 73.6176562,48.616763 C73.9125458,50.4166392 74.6871813,51.9202213 75.9899773,53.0832863 C77.1607331,54.0783039 78.4855358,54.6532029 79.9291746,54.8035611 C81.3464054,54.9273855 82.6976161,54.7460712 83.934392,54.2596182 C87.3322247,52.9594619 90.3427398,50.4829737 92.9879438,46.8522652 C95.6067398,43.225979 96.9623518,38.8744356 97.0195692,33.7622565 C97.081188,30.8037376 96.4473953,28.4112731 95.0961846,26.6600422 Z" id="Fill-1" fill="#2C3E50" mask="url(#mask-2)"></path>
                    </g>
                    <path d="M107.301879,23.7820998 C107.858525,24.0489168 108.411109,24.0828753 108.939313,23.8160583 C109.467518,23.5831998 109.857576,23.1174829 110.105426,22.4577172 C110.552368,21.7251833 110.771776,21.0945249 110.82866,20.5997007 C111.052131,19.4693669 111.052131,18.7077256 110.857102,18.2759672 C110.633631,17.8781673 110.247635,17.514326 109.690989,17.2135504 C109.134342,16.9515847 108.577696,16.9176261 108.053555,17.1844431 C107.52535,17.4464089 107.135291,17.9121258 106.883379,18.5767427 C106.468941,19.2704669 106.217028,19.8671668 106.19265,20.4008007 C105.940737,21.0605664 105.940737,21.7251833 106.164208,22.3558417 C106.359237,23.0204585 106.745233,23.4813243 107.301879,23.7820998" id="Fill-4" fill="#2C3E50"></path>
                    <path d="M130.962048,27.2946707 C130.75417,27.0534397 130.515977,26.8429109 130.221483,26.6937863 C128.861617,26.0665858 127.350173,25.8560569 125.691482,26.0972879 C124.063107,26.364835 122.555994,26.8429109 121.161482,27.5666038 C119.710669,28.2552085 118.381118,29.2420625 117.164167,30.4745334 C115.921232,31.7026183 115.154683,33.2026363 114.769243,34.9087971 C114.617666,35.9658274 114.730266,36.9965415 115.02909,38.0404137 C114.894836,38.1763802 114.75192,38.3035747 114.634989,38.4790154 C114.36648,38.9000731 114.132618,39.3167448 113.894425,39.7378024 C113.123545,41.1457141 112.235734,42.6150299 111.200676,44.0843458 C110.195934,45.5536617 108.771106,47.2642085 106.908869,49.1808982 C105.752549,50.3212628 104.778123,51.0098675 103.946612,51.2818006 C103.119432,51.5186455 102.526115,51.5800498 102.17099,51.4616273 C101.906812,51.369521 101.755235,51.2203964 101.668619,51.0098675 C101.607988,50.891445 101.577673,50.6809162 101.577673,50.382667 C101.547357,50.0800318 101.638304,49.6896762 101.78555,49.1808982 L101.78555,49.1501961 C101.78555,49.0931778 101.815866,49.0010715 101.906812,48.8212448 C101.963112,48.641418 102.084374,48.3431689 102.261937,47.891409 C102.439499,47.4747374 102.703677,46.8431509 103.028486,46.0054215 C103.206048,45.5843638 103.38361,45.132604 103.591488,44.6852302 C104.184805,43.2773186 104.834423,41.7465985 105.488371,40.128158 C106.406498,37.9395352 107.203362,35.869335 107.883295,33.8912411 C108.182119,33.0491257 108.446297,32.1806942 108.684491,31.3122627 C108.922684,30.4438313 109.039615,29.6631202 109.06993,29.0052175 C109.06993,28.8517069 109.06993,28.614862 109.009299,28.3122268 C108.978984,28.0139776 108.862053,27.6850262 108.684491,27.3253728 C108.506928,26.9964215 108.212435,26.6937863 107.79668,26.4262392 C107.142731,26.0358837 106.523429,25.9174612 105.990742,26.0665858 C105.42774,26.1850082 105.011985,26.364835 104.747807,26.5753638 C104.392683,26.7858926 104.067874,27.0534397 103.76905,27.3560749 C103.296994,27.8034487 103.058801,28.3429289 103.028486,28.9745154 C103.028486,29.6017159 103.236363,30.1411961 103.652119,30.6543601 C103.76905,30.7727826 103.890312,30.8605029 104.007243,30.9526093 L103.976927,31.1017339 C103.859996,31.4920895 103.71275,31.9131472 103.561172,32.3605209 C102.911554,34.1587881 102.140675,36.1675842 101.252864,38.3298908 C100.603246,39.9483313 99.979613,41.4483493 99.3862955,42.8562609 C99.1827486,43.3036347 99.0051865,43.7553945 98.8276243,44.1764522 C98.7973088,44.2027683 98.7973088,44.2334704 98.7973088,44.2641725 C98.4984846,44.9834794 98.2039913,45.6457681 97.9398134,46.3343728 C97.6713047,46.9922754 97.4937426,47.5010535 97.3768114,47.891409 C96.8441248,49.7203784 96.8701095,51.4002231 97.4937426,52.8695389 C98.0870601,54.3388548 99.2087333,55.3564109 100.837108,55.8958911 C103.946612,56.7073043 107.056115,55.5669397 110.135303,52.4791834 C112.205419,50.3212628 113.833794,48.4308892 114.959798,46.7817466 C115.869263,45.4264672 116.653135,44.1676802 117.350391,42.9659113 C118.307494,44.5404916 119.286252,46.0448957 120.273671,47.4133331 L120.719741,48.0405336 C122.226855,50.1107339 123.114665,51.6984723 123.383174,52.8388368 C123.621367,53.9792014 123.621367,54.7292104 123.352859,55.0581617 C123.175296,55.4485173 122.64261,55.8081707 121.754799,56.0757178 C120.836673,56.378353 119.446491,56.378353 117.519292,56.0757178 C117.40236,56.0494017 117.255114,56.0186995 117.138182,55.9572953 L117.047236,55.9265932 L117.077551,55.8388728 C117.138182,55.5976419 117.372045,55.2072863 117.757485,54.6678061 C118.17324,54.0976239 118.853173,53.378317 119.831931,52.4791834 C120.303986,52.0318096 120.542179,51.4923294 120.572495,50.8607429 C120.59848,50.2291564 120.420917,49.6896762 120.009493,49.1808982 C119.563422,48.7028223 119.030735,48.4308892 118.411433,48.4001871 C117.818116,48.373871 117.255114,48.5843998 116.752743,49.0010715 C113.968048,51.4616273 112.547551,53.7993747 112.430619,55.9879974 C112.460935,57.3652069 112.902675,58.4485533 113.729855,59.1941762 C114.292857,59.7073403 114.855859,60.0669937 115.418861,60.2775226 C116.012178,60.5143675 116.453918,60.637176 116.783058,60.6941942 C121.637868,61.5933278 125.158796,60.5143675 127.350173,57.395909 C128.978548,53.8607789 127.999791,49.8124847 124.387916,45.2554125 C124.270985,45.0755858 124.154054,44.9264612 124.032792,44.7466345 C122.820172,43.0667898 121.694168,41.3562429 120.65911,39.5886778 C120.009493,38.386909 119.593737,37.5184776 119.446491,36.8912771 C119.268929,36.2903927 119.208298,35.9307392 119.268929,35.7816146 C119.563422,34.3386149 120.866988,32.9921075 123.175296,31.7333204 C124.656425,31.0403297 125.89936,30.6806762 126.878117,30.6806762 L127.233242,30.6806762 L127.11198,30.8912051 C126.878117,31.3122627 126.2848,31.9701654 125.396989,32.869299 C124.920603,33.3210588 124.68674,33.8605389 124.656425,34.4921255 C124.656425,35.119326 124.833987,35.6588061 125.280058,36.1675842 C125.721798,36.619344 126.254484,36.8912771 126.878117,36.8912771 C127.467104,36.9175932 128.030106,36.7070643 128.506493,36.2903927 C130.606923,34.4307212 131.789227,32.4833294 131.997105,30.4131292 C132.027421,29.4832934 131.819543,28.6455641 131.377803,27.9262572 C131.256541,27.6850262 131.109294,27.5051995 130.962048,27.2946707" id="Fill-6" fill="#2C3E50"></path>
                    <g id="Group-10" transform="translate(149.000000, 0.000000)">
                        <mask id="mask-4" fill="white">
                            <use xlink:href="#path-3"></use>
                        </mask>
                        <g id="Clip-9"></g>
                        <path d="M56.0911944,39.4475657 C57.2312738,36.6349827 59.4763532,33.915268 62.8045079,31.2265095 C63.6464127,30.6206543 64.3348452,30.1961135 64.9048849,29.9263532 C65.4749246,29.6521706 65.952881,29.4708563 66.3124444,29.3824103 C66.6720079,29.289542 66.943873,29.2585859 67.1236548,29.289542 C67.3034365,29.289542 67.3604405,29.3204981 67.3911349,29.3204981 L67.3911349,29.3514542 C67.4218294,29.3824103 67.4525238,29.5018124 67.5095278,29.7140828 C67.5709167,29.8953971 67.5709167,30.1961135 67.5709167,30.5896982 C67.5402222,30.983283 67.4218294,31.4653137 67.2420476,32.1021249 C65.7424048,35.7593673 63.1640714,38.1474094 59.5070476,39.2972075 C58.6388333,39.5979239 57.770619,39.8101943 56.9594087,39.9295964 L55.8500238,40.0534208 L56.0911944,39.4475657 Z M99.7343095,29.7140828 C101.470738,29.6521706 102.878298,30.1386236 103.961373,31.2265095 L102.610817,33.6720415 C100.453437,37.5150205 98.3530595,40.9909485 96.3140714,44.1042478 C94.9372063,46.1296614 93.7094286,47.699578 92.6000437,48.8184199 C91.7011349,49.6675016 91.1310952,50.1185762 90.8592302,50.1495323 L90.7408373,50.1804884 L90.3812738,49.9372619 C89.2718889,48.8184199 88.9737143,46.6426482 89.5700635,43.3480345 C90.4382778,39.2043392 92.2404802,35.5470968 94.9372063,32.3453514 C96.4061548,30.6825665 98.0241905,29.8025288 99.7343095,29.7140828 Z M120.040877,36.0910398 C121.001175,34.5211232 122.141254,33.2784568 123.399726,32.3143953 C124.688893,31.3768677 125.855282,30.8019687 126.964667,30.6516104 C127.89427,30.5587421 128.525698,30.7091004 128.823873,31.071729 C129.034349,31.2839994 129.214131,31.646628 129.424607,32.221527 C129.604389,32.7964261 129.722782,33.6455077 129.722782,34.7599274 C129.661393,38.5409941 128.613397,41.7736956 126.574409,44.4668765 C124.509111,47.155635 122.228952,48.937822 119.712008,49.8753497 C118.330758,50.3308466 117.221373,50.2114445 116.383853,49.5436772 C116.085679,49.3623629 115.844508,48.9687781 115.634032,48.3938791 C115.45425,47.7924463 115.45425,46.9124085 115.664726,45.7670327 L115.905897,44.798549 L116.234766,44.1042478 C116.563635,43.3789906 116.923198,42.6227773 117.282762,41.7736956 C118.093972,39.8411504 119.023575,37.935139 120.040877,36.0910398 Z M84.8606587,48.3894568 C85.3210754,50.9411241 86.5444683,53.0107606 88.7632381,54.4701197 L88.8202421,54.5010758 C89.539369,54.8062145 90.2321865,54.9565727 90.920619,54.8946605 C92.2974841,54.7752584 93.5866508,54.2003594 94.8188135,53.1124735 C96.0772857,52.0555437 97.2129802,50.8128773 98.2346667,49.4242751 L98.3530595,49.2739169 L98.2960556,49.7869037 C98.2653611,50.8128773 98.4451429,51.8123172 98.8924048,52.7188888 C99.6422262,54.2622716 100.962087,54.9875288 102.821294,54.9256166 C104.579647,54.6691232 106.342385,53.621038 108.127048,51.8476956 C106.859806,55.3103567 105.675877,58.5474805 104.66296,61.3335297 C104.005222,63.1466728 103.465877,64.6281434 103.044925,65.7779414 C102.654667,66.9277395 102.387187,67.6839529 102.264409,68.0465815 C102.084627,68.7099265 102.17671,69.3157817 102.44419,69.8597246 C102.74675,70.4346236 103.224706,70.7972522 103.856135,71.0095227 C104.483179,71.1598809 105.083913,71.0979687 105.623258,70.7972522 C106.162603,70.4965358 106.522167,70.0100828 106.701948,69.3776939 C106.763337,69.2538694 107.000123,68.5905244 107.421075,67.3788141 C107.811333,66.2599722 108.350679,64.7829239 109.008417,62.9653585 C109.999409,60.2146877 111.139488,57.0704322 112.454964,53.5370143 L112.818913,52.5685306 L113.445956,53.2009195 C114.61673,54.1384471 115.932206,54.651434 117.344151,54.8062145 C118.75171,54.9256166 120.071571,54.7752584 121.299349,54.2888054 C124.658198,53.0505613 127.653099,50.7244313 130.292821,47.2794594 C132.928159,43.7991091 134.278714,39.62888 134.370798,34.7333936 C134.427802,31.8014085 133.67798,29.5018124 132.121333,27.8080714 C130.38052,26.2071987 128.433615,25.6013435 126.306929,25.9949283 C124.868675,26.2071987 123.426036,26.7511416 122.018476,27.6267571 L121.900083,27.6886693 L122.018476,26.8130538 C121.957087,25.8445701 121.448437,25.1502689 120.492524,24.7257281 C119.89179,24.5134577 119.291056,24.5444138 118.721016,24.8141741 C118.181671,25.0574006 117.760718,25.5128975 117.523933,26.1452865 C117.133675,27.2331723 116.475937,29.1082277 115.484944,31.7704524 C114.752663,33.7560652 113.928298,36.020283 113.046929,38.4348589 C112.590897,38.6117509 112.191869,38.8815112 111.87177,39.3281636 C109.144349,43.591261 106.925579,46.5232461 105.246155,48.1550749 C104.408635,48.9997342 103.720202,49.5746333 103.211552,49.8753497 L102.939687,50.0301302 L102.939687,49.8488159 C102.939687,49.393319 103.03177,48.849376 103.211552,48.2125648 C105.307544,41.5039353 107.97796,34.7599274 111.244726,27.9584296 C111.512206,27.3569968 111.542901,26.7511416 111.332425,26.1452865 C111.152643,25.5703874 110.73169,25.1193128 110.166036,24.8141741 C109.565302,24.5444138 108.964567,24.5134577 108.394528,24.7257281 C107.798179,24.9379985 107.377226,25.3315832 107.074667,25.9330161 L106.509012,27.1756824 L106.386234,27.0828141 C104.198159,25.4200292 101.681214,24.7566842 98.8617103,25.0883567 C96.0465913,25.4509853 93.5559563,26.8395876 91.4599643,29.2585859 C89.6928413,31.3193778 88.2677421,33.605707 87.1452024,36.0777729 C87.0881984,36.0910398 87.0355794,36.0777729 86.9785754,36.0910398 C86.3822262,36.2723541 85.8998849,36.6349827 85.5710159,37.2098817 C85.3298452,37.6653787 84.7905,38.6294401 84.014369,40.1109107 C82.6024246,42.7731355 80.8353016,46.0367931 78.6779206,49.9991741 C76.9678016,53.1124735 75.288377,56.0754147 73.6396468,58.8879976 C71.9909167,61.6961583 70.6140516,63.8453962 69.4739722,65.3843567 C68.6671468,66.4147527 68.0357183,67.1090538 67.5577619,67.4716824 L67.3779802,67.5910845 L67.3779802,67.259412 C67.4349841,66.8658273 67.5270675,66.3528405 67.7375437,65.7160292 C67.9480198,65.0526842 69.2371865,61.8199827 71.6050437,55.9825464 C73.4335556,51.4806447 75.5295476,46.3109757 77.8974048,40.5044954 C78.4981389,39.0849371 79.0681786,37.6344226 79.6645278,36.2148642 C82.6945079,28.745599 85.452623,21.9441012 87.9081786,15.8059485 C90.3988135,9.672218 91.9554603,5.77174917 92.5561944,4.10896427 C92.7666706,3.47215303 92.7359762,2.87072019 92.4948056,2.32235496 C92.2273254,1.75187823 91.7756786,1.3273374 91.1749444,1.08411089 C90.5479008,0.871840474 89.9471667,0.902796576 89.4078214,1.17697919 C88.8377817,1.44673951 88.4475238,1.87128033 88.2107381,2.50366927 C87.610004,4.10896427 86.0796667,7.9475209 83.6241111,14.0237615 C81.1641706,20.1309581 78.4060556,26.9014998 75.3804603,34.3972988 C75.1349048,35.0164208 74.8893492,35.609009 74.6394087,36.2148642 C74.2009167,36.4227123 73.8150437,36.7366956 73.5651032,37.2098817 C70.6885952,42.5918212 67.9611746,46.2181074 65.3828413,48.0312505 C62.9272857,49.8488159 60.5594286,50.543117 58.3713532,50.1804884 C56.2402817,49.7559476 55.1002024,48.1241188 54.8941111,45.2805797 L54.8941111,44.798549 L56.1832778,44.7366368 C57.827623,44.6172347 59.4193492,44.3165183 61.0066905,43.7725753 C65.7730992,42.3795507 69.3117302,38.9655349 71.6488929,33.5835955 C72.1268492,32.0711688 72.306631,30.5587421 72.1268492,29.0463155 C71.9470675,27.5383111 71.197246,26.2956447 69.9080794,25.3890731 C67.0929603,23.9385586 63.7955,24.606326 60.0770873,27.4144867 C56.1218889,30.5587421 53.3944683,33.9462241 51.864131,37.5415543 L51.2633968,39.1158932 L50.9959167,39.0539809 C50.035619,38.8726666 49.2551032,39.2043392 48.6280595,40.0224647 C48.5184365,40.1860898 48.4745873,40.3674041 48.4088135,40.5398738 C48.987623,37.7051794 49.5138135,34.7643497 49.930381,31.5891381 C50.0224643,30.7091004 49.8119881,30.0147992 49.2726429,29.5327685 C48.7639921,29.0197817 48.1325635,28.7765551 47.4134365,28.7765551 C46.6636151,28.7765551 46.062881,29.1391838 45.5542302,29.8334849 C38.4506587,40.292225 32.3073849,47.4873076 27.1507183,51.4806447 C24.4846865,53.5370143 22.3536151,54.7752584 20.7662738,55.1997992 C19.1482381,55.6199177 18.0081587,55.5889616 17.2890317,55.137887 C17.2276429,55.0759748 17.1706389,55.0450187 17.10925,55.0184849 C14.1099643,53.8377307 12.6717103,51.1489722 12.7637937,47.0052768 C12.8207976,42.4724191 14.951869,36.0910398 19.1175437,27.8080714 C22.8929603,20.643945 26.4622857,15.8988168 29.8781389,13.5417307 C32.6976429,11.542851 35.4250635,10.9414182 38.0604008,11.7241653 L39.1083968,12.0867939 L39.6784365,12.4538449 C41.2701627,13.5417307 41.7174246,15.8988168 41.0289921,19.4631908 C40.3405595,23.0319871 37.55175,27.6886693 32.636254,33.4332373 C32.1846071,33.9462241 32.0048254,34.5520793 32.0355198,35.1844682 C32.0662143,35.8522356 32.3380794,36.3961785 32.8467302,36.8782092 C33.355381,37.30275 33.9254206,37.5150205 34.5831587,37.4840644 C35.2145873,37.4531083 35.784627,37.1789256 36.2318889,36.6659388 C42.6777222,29.0463155 45.9751825,22.7003146 46.1242698,17.6500477 C46.2733571,12.6042031 44.5939325,9.27863327 41.1166905,7.67333828 L40.9982976,7.61584838 C36.2318889,5.70983696 31.5882579,6.3466482 27.0893294,9.54839359 C22.8052619,12.6926491 18.7272857,18.0126763 14.8290913,25.5703874 C10.4529405,34.0965824 8.14647222,41.1987966 7.93599603,46.8549186 C7.75621429,52.0820775 9.58472619,55.9825464 13.3601429,58.5209467 L14.951869,59.3700284 L15.008873,59.4009845 L15.1316508,59.4584744 L16.6005992,60.0643295 C20.7355794,60.939945 25.2608175,59.3390723 30.145619,55.2882452 C33.68425,52.5066183 37.55175,48.4867474 41.7174246,43.2861223 L43.186373,41.3801109 L42.857504,42.8350477 C40.3405595,53.7448624 36.7712341,61.1212593 32.1276032,64.9642382 C26.7297659,70.3727114 17.2890317,68.8602847 3.77032143,60.4579142 C3.20028175,60.0952856 2.59954762,59.9758835 1.97250397,60.1262417 C1.3410754,60.2456438 0.832424603,60.6082724 0.442166667,61.1831715 C0.0826031746,61.7580705 -0.0050952381,62.3639256 0.113297619,62.9963146 C0.262384921,63.6331258 0.591253968,64.1461126 1.16129365,64.5396974 C15.5219087,74.0299537 26.8525437,75.4229783 35.1531984,68.7718387 C41.2306984,63.1776289 45.5761548,53.9482882 48.268496,41.2164858 C48.2597262,41.4022224 48.2334167,41.587959 48.268496,41.7736956 C48.3561944,42.3795507 48.6894484,42.8925376 49.2287937,43.2861223 L50.2767897,43.8610213 L50.2767897,45.7670327 C50.6363532,50.7244313 53.1226032,53.7448624 57.7399246,54.8327483 C61.3048651,55.3192013 64.7821071,54.3197615 68.1716508,51.8123172 C68.2330397,51.7636719 68.2944286,51.6973374 68.3558175,51.6486921 C68.0137937,52.4845068 67.6366905,53.4043453 67.3165913,54.2003594 C66.2685952,56.8006719 65.3696865,59.0073997 64.6505595,60.8514989 C63.9007381,62.6646421 63.4797857,63.8144401 63.3306984,64.2345586 L63.300004,64.327427 C62.5501825,66.5341548 62.5501825,68.5286122 63.2386151,70.3417553 C64.1112143,72.0974085 65.5187738,72.8536219 67.496373,72.6103953 C69.5046667,72.1283646 71.3945675,70.6778501 73.1616905,68.2588519 C74.4201627,66.5341548 75.9198056,64.2345586 77.6299246,61.3025736 C79.3356587,58.3705885 81.0457778,55.3811135 82.7558968,52.2633918 C83.5101032,50.8747896 84.2029206,49.6100117 84.8606587,48.3894568 Z" id="Fill-8" fill="#2C3E50" mask="url(#mask-4)"></path>
                    </g>
                    <path d="M315.090463,131.362574 C312.998896,134.229113 310.668039,136.146082 308.155499,137.1224 C306.821682,137.581581 305.700566,137.456755 304.849759,136.756838 C304.517413,136.511644 304.247104,135.994508 304.034403,135.169765 C303.821701,134.318274 303.941346,133.070015 304.397768,131.362574 C304.428787,131.179793 304.486394,130.997013 304.548432,130.783025 C304.699096,130.328302 304.849759,129.837915 305.004854,129.289572 L305.275163,128.589655 L306.307653,125.879149 L306.941327,124.354489 C307.36673,123.529747 307.849741,122.73621 308.36377,122.005087 C311.182068,118.469838 313.725627,116.552868 315.936839,116.245262 C316.331224,116.187307 316.636982,116.218513 316.876272,116.307675 C317.088974,116.401294 317.270656,116.521662 317.42132,116.704443 C317.939781,117.101211 318.241108,118.501045 318.303146,120.908402 C318.241108,124.991993 317.182031,128.469287 315.090463,131.362574 Z M288.055182,104.81923 L287.935537,105.58156 C287.904518,105.884709 287.811461,106.192316 287.753855,106.557877 L287.660798,106.950187 L286.84101,106.433051 C285.36096,105.367573 284.510153,104.636449 284.32847,104.239681 L284.239844,104.119313 L284.359489,103.994487 C284.421527,103.963281 284.479134,103.905326 284.572191,103.842913 C286.269373,102.897802 287.328451,102.443079 287.691817,102.501034 L287.873499,102.501034 L287.904518,102.563447 C288.024163,102.777435 288.086201,103.356984 288.086201,104.270888 L288.055182,104.81923 Z M262.655046,126.610272 C263.80718,123.77494 266.08043,121.033228 269.443777,118.318264 C270.290153,117.707508 270.985865,117.283992 271.561932,117.007591 C272.138,116.735649 272.625441,116.552868 272.988807,116.459249 C273.352172,116.370088 273.622481,116.338881 273.804164,116.370088 C273.985846,116.370088 274.047884,116.401294 274.078903,116.401294 L274.078903,116.428042 C274.105491,116.459249 274.13651,116.584075 274.198548,116.793604 C274.260586,116.976385 274.260586,117.283992 274.260586,117.68076 C274.229567,118.077528 274.105491,118.563458 273.923808,119.200961 C272.412739,122.892243 269.807143,125.2996 266.111449,126.45424 C265.234055,126.761847 264.352229,126.975834 263.536872,127.096202 L262.415756,127.21657 L262.655046,126.610272 Z M321.059407,113.717536 C319.424262,111.920934 317.545396,111.189811 315.334184,111.555373 C314.394751,111.675741 313.424299,111.952141 312.484867,112.406864 L311.66951,112.803632 L312.546905,110.824249 C315.453829,104.15052 318.511417,97.6551131 321.693081,91.2889903 C321.99884,90.6782348 322.025427,90.0674793 321.843745,89.4611819 C321.635474,88.8816329 321.24109,88.4224518 320.665022,88.0880966 C320.057936,87.8116963 319.481869,87.7537414 318.874782,87.9677287 C318.303146,88.1505096 317.846724,88.5472777 317.514377,89.1223687 C311.727117,100.735639 306.639999,112.134922 302.248594,123.346966 L302.071343,123.779398 C301.588332,124.00676 301.189516,124.341115 300.92807,124.840419 C300.201339,126.271459 299.443589,127.582132 298.566195,128.741229 C297.719819,129.900327 296.354982,131.576561 294.538155,133.769932 C294.445098,133.890299 294.325453,134.015125 294.232396,134.104287 C292.871991,135.722566 291.719856,136.788044 290.780424,137.30518 C290.328432,137.581581 289.965067,137.733155 289.752365,137.764362 L289.539663,137.822316 L289.539663,137.733155 C289.420018,137.425548 289.539663,136.725631 289.87201,135.660153 L290.14675,135.018191 L290.173337,134.960236 C290.204356,134.92903 290.235375,134.866617 290.266394,134.804204 C290.62976,134.1667 291.325472,132.856027 292.357962,130.876645 C293.417039,128.892804 294.569174,126.45424 295.840953,123.59216 C297.41406,119.842923 297.990127,116.887224 297.564724,114.72506 C297.050694,112.834839 296.1733,111.582121 294.870501,110.944617 L293.86903,110.396275 L291.932558,109.388751 L292.083222,108.840409 C292.415568,107.471781 292.659289,106.312683 292.778934,105.367573 L292.778934,105.247205 C293.053674,103.080583 292.659289,101.163614 291.569193,99.5141279 C290.931087,98.6938432 290.115731,98.1767072 289.145279,97.9003069 C288.724306,97.8334358 288.298903,97.8378939 287.873499,97.8378939 C288.148239,97.2761772 288.396391,96.7144605 288.573643,96.1616599 C289.482056,93.2371665 288.693287,90.8298092 286.269373,88.9707943 C281.997613,86.4118626 274.366937,86.3494496 263.337464,88.756807 C243.830939,92.9652243 231.228359,97.5347452 225.534156,102.411873 C222.170809,105.670721 222.13979,108.965235 225.534156,112.25529 C228.020107,114.328292 232.260849,116.093687 238.318418,117.555934 L238.863466,117.68076 L234.622725,157.295163 C234.560687,158.27148 234.835427,158.971397 235.469101,159.461784 C236.107206,159.916507 236.833937,160.099288 237.591687,159.947714 C238.376025,159.796139 238.952092,159.279003 239.315458,158.391848 L259.553145,102.260299 C259.765847,101.58713 259.734828,100.949626 259.460088,100.370077 C259.189779,99.7905282 258.733357,99.3625536 258.099683,99.1218178 C257.430558,98.876624 256.827903,98.9078305 256.220817,99.1797727 C255.64475,99.456173 255.219346,99.9421026 254.980057,100.584065 L241.619727,137.639536 L243.950584,116.062481 C243.981603,115.424977 243.830939,114.845428 243.498593,114.359498 C243.135227,113.869111 242.647785,113.534756 242.04513,113.383181 C234.773389,111.706947 230.319945,110.093126 228.684801,108.506053 C228.472099,108.323273 228.321435,108.171698 228.228378,108.05133 C228.108733,107.926504 228.020107,107.806137 227.989088,107.712517 C227.92705,107.623356 227.896031,107.560943 227.896031,107.529736 L227.896031,107.440575 C227.896031,107.409368 227.896031,107.315749 227.958069,107.195381 C227.989088,107.075013 228.077714,106.923439 228.228378,106.709452 C228.352454,106.526671 228.591743,106.281477 228.897502,105.978328 C232.98758,102.135473 244.801391,97.9939263 264.369954,93.5447733 C275.426015,91.529726 281.81593,91.3469452 283.513113,93.0231792 C283.756834,93.1792116 283.938517,93.3619925 284.027142,93.6027282 C284.120199,93.847922 284.058161,94.2134837 283.907498,94.7618262 C283.575151,96.103705 282.148277,98.1455007 279.604718,100.8248 C279.152727,101.346394 278.909006,101.921485 278.909006,102.563447 C278.935594,103.102874 279.152727,103.593261 279.498367,104.047984 C279.498367,104.422462 279.471779,104.79694 279.573699,105.184792 C279.906046,106.281477 280.513132,107.257794 281.390527,108.109285 C282.267921,108.965235 283.207354,109.723106 284.177806,110.365068 C284.722854,110.699424 285.267903,111.064985 285.84397,111.430547 L286.295961,111.675741 L286.238354,111.796109 C285.906008,112.834839 285.542642,113.900317 285.117239,114.997002 C284.031574,117.974992 282.768657,120.707789 281.417114,123.33805 C280.965123,123.547579 280.570739,123.86856 280.318155,124.354489 C277.411231,129.77996 274.654971,133.435576 272.049374,135.263385 C269.563422,137.091193 267.170527,137.79111 264.959315,137.425548 C262.810141,137.002032 261.658006,135.357004 261.445304,132.490466 L261.445304,132.004536 L262.748103,131.942123 C264.414267,131.821755 266.018392,131.514149 267.62695,130.965806 C272.439327,129.565972 276.015376,126.119885 278.377252,120.694415 C278.864693,119.174213 279.046376,117.649553 278.864693,116.124894 C278.68301,114.600234 277.92526,113.351975 276.622462,112.43807 C273.773144,110.975824 270.440817,111.644534 266.687517,114.479866 C262.686065,117.649553 259.929804,121.059976 258.387716,124.688845 L257.78063,126.271459 L257.50589,126.213504 C256.53987,126.030723 255.751101,126.365079 255.112995,127.185363 C254.74963,127.738164 254.629985,128.344461 254.74963,128.955217 C254.842687,129.565972 255.175033,130.083108 255.720082,130.479876 L256.779159,131.059425 L256.779159,132.976395 C257.142525,137.973891 259.659496,141.02321 264.32121,142.119895 C267.928277,142.605825 271.442288,141.602759 274.863241,139.070576 C277.229548,137.300722 279.529386,134.639255 281.758323,131.193168 C282.294509,131.046051 282.733207,130.747361 283.056691,130.234683 C285.631268,126.030723 287.811461,121.487951 289.570682,116.673236 L290.510115,113.993937 L291.688837,114.600234 L291.812913,114.693853 C292.264905,114.876634 292.566232,115.059415 292.690308,115.179783 C292.840972,115.331357 292.90301,115.482932 292.934029,115.665713 C293.022655,116.004526 292.991636,116.64203 292.809953,117.58714 C292.659289,118.563458 292.202867,119.936543 291.476136,121.733145 C288.870539,127.368144 287.08473,130.965806 286.114278,132.521672 L285.84397,133.038808 C284.572191,135.691359 284.448115,138.129923 285.480604,140.323293 C286.176316,141.482391 287.177787,142.213515 288.538192,142.485457 C291.657818,142.788605 294.781876,140.992004 297.901502,137.153606 C298.052165,136.939619 298.202829,136.756838 298.353493,136.574057 C298.752309,136.101502 299.049205,135.727024 299.408139,135.303507 C299.629703,137.358677 300.391885,139.070576 301.82319,140.3545 C303.001913,141.357565 304.33573,141.937114 305.789192,142.088689 C307.216067,142.213515 308.576472,142.030734 309.821663,141.540346 C313.242617,140.229674 316.273617,137.733155 318.93682,134.07308 C321.573436,130.417464 322.938272,126.030723 322.995879,120.877195 C323.057917,117.894747 322.419812,115.482932 321.059407,113.717536 Z" id="Fill-11" fill="#2C3E50"></path>
                    <path d="M334.301879,111.7821 C334.858525,112.048917 335.411109,112.082875 335.939313,111.816058 C336.467518,111.5832 336.857576,111.117483 337.105426,110.457717 C337.552368,109.725183 337.771776,109.094525 337.82866,108.599701 C338.052131,107.469367 338.052131,106.707726 337.857102,106.275967 C337.633631,105.878167 337.247635,105.514326 336.690989,105.21355 C336.134342,104.951585 335.577696,104.917626 335.053555,105.184443 C334.52535,105.446409 334.135291,105.912126 333.883379,106.576743 C333.468941,107.270467 333.217028,107.867167 333.19265,108.400801 C332.940737,109.060566 332.940737,109.725183 333.164208,110.355842 C333.359237,111.020459 333.745233,111.481324 334.301879,111.7821" id="Fill-13" fill="#2C3E50"></path>
                    <g id="Group-17" transform="translate(322.000000, 89.000000)">
                        <mask id="mask-6" fill="white">
                            <use xlink:href="#path-5"></use>
                        </mask>
                        <g id="Clip-16"></g>
                        <path d="M59.3559898,32.5424134 C57.1973834,36.3323706 55.0958134,39.7642904 53.0556671,42.8381727 C51.6780199,44.8379428 50.4495448,46.3923492 49.3395297,47.4970257 C48.4401104,48.3309909 47.8697469,48.7807209 47.5977274,48.811285 L47.4792673,48.8374829 L47.1194996,48.6017021 C46.0094845,47.4970257 45.7111405,45.3488011 46.3078285,42.0959 C47.1809233,38.0046674 48.979762,34.3937289 51.6780199,31.228154 C53.1478027,29.5864214 54.7667575,28.721892 56.477848,28.6301995 C58.2152629,28.5734374 59.6280093,29.0493652 60.7073125,30.1234775 L59.3559898,32.5424134 Z M98.9304402,35.1709321 C98.3600767,34.8696567 97.7897132,34.7823305 97.1930253,34.9613492 C96.5919499,35.1098037 96.1093347,35.4984053 95.7802788,36.0660257 C94.8501476,37.7339561 93.8015563,39.4062529 92.6608293,41.0785497 C90.5329348,43.9734134 88.6726724,46.0343118 87.1151414,47.2874428 C86.3034703,47.9423893 85.6760705,48.3921193 85.2241671,48.6017021 L85.0442832,48.6584642 L85.105707,48.121408 L85.3163027,47.2874428 L91.7921219,30.1846059 L92.0904659,29.4074027 C92.3624854,28.4817449 92.4239091,27.5298893 92.2440253,26.6042316 C91.76141,24.5433332 90.3837629,23.499785 88.1944446,23.3775283 C87.0844295,23.4386567 86.0051263,23.8272583 84.9521476,24.512769 L84.0264038,25.1720818 C81.9555457,26.7221219 79.5863435,28.9926032 76.91441,31.974793 L76.6467779,32.2717021 L77.5769091,30.0667155 C79.1344402,26.5431032 80.7270705,22.9321647 82.3767371,19.2295337 C84.7459393,13.9462984 87.0537176,8.69362727 89.2737478,3.50208449 C89.5413799,2.9039 89.5413799,2.30571551 89.3044597,1.73809519 C89.0938639,1.14427701 88.6726724,0.72511123 88.0715971,0.4544 C87.4749091,0.218619251 86.8738338,0.218619251 86.3034703,0.428202139 C85.7331068,0.663982888 85.2855909,1.08314866 85.0135714,1.68133316 C82.7628293,6.87287594 80.4857629,12.1255471 78.1165607,17.3782182 C74.7163169,24.7747476 71.8732744,31.3897075 69.468973,37.3846513 C69.1530793,37.5636701 68.8635102,37.7950845 68.6222026,38.1225578 C65.8932327,42.3316807 63.6732026,45.2265444 61.9972114,46.8377128 C61.1548285,47.6760444 60.4660049,48.2436647 59.9570652,48.5405738 L59.6850457,48.6890283 L59.6850457,48.5100096 C59.6850457,48.064646 59.7771813,47.5275898 59.9570652,46.8988412 C62.0542478,40.2751487 64.7261813,33.6165257 67.9948027,26.9011406 C68.2624348,26.3029561 68.2931467,25.709138 68.082551,25.1109535 C67.9026671,24.5433332 67.485863,24.0936032 66.9154996,23.7966941 C66.3144242,23.5303492 65.7133488,23.499785 65.1429854,23.7093679 C64.5462974,23.9145845 64.1251059,24.3031861 63.826762,24.9013706 L63.2563985,26.1239374 L63.133551,26.0366112 C60.9442327,24.3948786 58.4258586,23.7355658 55.6091405,24.0674053 C52.788035,24.4254428 50.3003728,25.7964642 48.1988027,28.1848358 C46.4175137,30.2326353 44.9916051,32.4987503 43.8596529,34.9657155 C43.262965,35.1447342 42.7891246,35.5027717 42.4293568,36.0660257 C42.1880492,36.5113893 41.6483976,37.4676112 40.8367265,38.9303251 C39.4283675,41.5282797 37.6602407,44.7811807 35.4709224,48.6584642 C33.7291201,51.7367128 32.0487416,54.6577743 30.3727504,57.4347476 C28.7230838,60.1811567 27.3103373,62.3293813 26.1432859,63.8532235 C25.3316148,64.8662075 24.704215,65.5560845 24.2215997,65.8835578 L24.011004,66.0320123 L24.0417159,65.704539 C24.0724277,65.3159374 24.1908879,64.8094455 24.3707717,64.1501326 C24.6120793,63.5257503 25.9326902,60.3296112 28.3018923,54.5704481 C30.1621547,50.1517422 32.2900492,45.0475257 34.6592513,39.3189267 C35.2603267,37.9129749 35.861402,36.4808251 36.45809,35.0792396 C39.5205031,27.708908 42.3065093,21.0197209 44.8248834,14.9636487 C47.3169331,8.93377433 48.8744641,5.08268877 49.5062513,3.44095615 C49.7168471,2.81220749 49.6861352,2.2183893 49.4141157,1.65076898 C49.1771955,1.08314866 48.7252921,0.694547059 48.0978923,0.4544 C47.4661051,0.249183422 46.8650297,0.275381283 46.2946662,0.546092513 C45.7550146,0.786239572 45.3382105,1.23160321 45.0969029,1.8297877 C44.4958276,3.41039198 42.9690084,7.2003492 40.4769588,13.1996594 C37.9892965,19.2295337 35.1989029,25.9143545 32.1101653,33.2890524 L31.0308621,35.887007 L30.8816902,36.0660257 C30.7895545,36.2144802 30.6710944,36.3934989 30.5789588,36.5725176 C29.4996556,38.9914535 26.9812815,42.3622449 23.0238364,46.6586941 C22.0322815,47.6454802 21.2249978,48.3004267 20.5624987,48.6322663 C20.4133267,48.7195925 20.2641547,48.7807209 20.1413072,48.8374829 L19.8429632,48.9291754 L19.8429632,48.811285 C19.7815395,48.4226834 19.8736751,47.7328064 20.1720191,46.6892583 C20.2027309,46.6019321 20.2948666,46.361785 20.4440386,45.9731834 C20.5932105,45.5540176 20.8915545,44.8990711 21.2820341,43.9428492 C21.6418019,42.9909936 22.2121653,41.6461701 22.9009889,39.9433091 C24.1908879,36.8126647 25.6913825,33.2279241 27.402473,29.1716219 C27.7622407,28.2459642 28.1527203,27.3508706 28.512488,26.4252128 C30.1007309,22.6614535 31.6012256,19.050515 33.0402965,15.5574668 L33.2816042,14.9636487 L36.8792815,14.9898465 C37.5373932,14.9636487 38.1077566,14.7540658 38.5289481,14.3043358 C38.9764641,13.8895364 39.2177717,13.3481139 39.2484836,12.6931674 C39.2177717,12.0382209 39.007176,11.4706005 38.55966,11.0514348 C38.1077566,10.6060711 37.5681051,10.3659241 36.9099934,10.3353599 L35.168191,10.3353599 L35.5893825,9.32237594 C36.7608214,6.5148385 37.5373932,4.54563262 37.9585847,3.44095615 C38.1691804,2.81220749 38.1384685,2.2183893 37.8708364,1.65076898 C37.5988169,1.08314866 37.1776254,0.694547059 36.5502256,0.4544 C35.9184384,0.249183422 35.317363,0.275381283 34.751387,0.546092513 C34.1810235,0.786239572 33.7905439,1.23160321 33.5492363,1.8297877 C33.1280448,2.9039 32.3821848,4.84254171 31.2414579,7.61951497 L30.1314428,10.3047957 L11.6560536,10.1869053 C10.9979419,10.2174695 10.4275785,10.4270524 10.006387,10.872416 C9.5544836,11.2915818 9.31756339,11.8592021 9.28685151,12.5141487 C9.31756339,13.1690952 9.52815913,13.7105176 9.97567509,14.1558813 C10.4275785,14.5750471 10.9672301,14.8108278 11.6253418,14.841392 L28.2097566,14.9330845 L27.253301,17.290892 C26.2924579,19.6181353 25.3009029,22.006507 24.2830235,24.4254428 C24.2523116,24.512769 24.2215997,24.5738973 24.1908879,24.6612235 C23.6819481,25.8881567 23.1730084,27.0801594 22.6947806,28.272162 C21.6681263,30.7260283 20.7467699,32.9222824 19.8780625,35.0050123 C19.3647354,35.1796647 18.9523187,35.494039 18.6276503,35.9743332 C18.3600182,36.3934989 18.1187105,36.8126647 17.8774029,37.2274642 C17.1008311,38.633416 16.2014118,40.0917636 15.1484331,41.5544775 C14.1305536,43.0171914 12.6914827,44.7200524 10.8005084,46.6324963 C9.633457,47.7633706 8.64190204,48.4532476 7.80390647,48.7195925 C6.96152349,48.9597396 6.36044814,49.0165016 6.00068041,48.8986112 C5.73304832,48.811285 5.58387633,48.6584642 5.49174069,48.4532476 C5.43031693,48.3309909 5.40399246,48.121408 5.40399246,47.8244989 C5.37328059,47.5275898 5.46102881,47.1389882 5.6102008,46.6324963 L5.6102008,46.6019321 C5.6102008,46.5408037 5.64091268,46.4534775 5.73304832,46.2744588 C5.79447207,46.0954401 5.91293218,45.7941647 6.09281605,45.3488011 C6.27269991,44.9296353 6.540332,44.3008866 6.87377527,43.4669214 C7.05365913,43.0477556 7.233543,42.602392 7.43975133,42.152662 C8.04082668,40.7510765 8.7033258,39.2272342 9.3614375,37.6160658 C10.2915687,35.437277 11.0988524,33.3763786 11.7920634,31.4071727 C12.0904074,30.5732075 12.3624269,29.7086781 12.5993471,28.8397824 C12.8406547,27.9752529 12.9591148,27.1980497 12.9898267,26.5431032 C12.9898267,26.3946487 12.9898267,26.1545016 12.9284029,25.8575925 C12.9020785,25.5563171 12.7792309,25.2288439 12.5993471,24.8708064 C12.4194632,24.5433332 12.1211192,24.2464241 11.6999277,23.9757128 C11.041816,23.5871112 10.4100288,23.4692209 9.87037722,23.6176754 C9.30001374,23.7355658 8.88320966,23.9145845 8.61119016,24.1241674 C8.25142243,24.3337503 7.92236658,24.6044615 7.6196352,24.9013706 C7.14140736,25.3511005 6.90009973,25.8881567 6.87377527,26.512539 C6.87377527,27.1412877 7.0799836,27.6783439 7.50117509,28.1848358 C7.6196352,28.3027262 7.74248271,28.3944187 7.86094282,28.4817449 L7.83023094,28.6301995 C7.71177083,29.0188011 7.56259885,29.4379668 7.41342686,29.8876968 C6.75092775,31.677884 5.97435594,33.677654 5.0705492,35.8258786 C4.4124375,37.4370471 3.78065027,38.9303251 3.18396232,40.3319107 C2.97336658,40.7816406 2.79348271,41.2270043 2.61359885,41.6461701 C2.58288697,41.6767342 2.58288697,41.7072984 2.58288697,41.7334963 C2.284543,42.4539374 1.98181161,43.108884 1.71417952,43.7943947 C1.44216002,44.4537075 1.26227615,44.9601995 1.14381605,45.3488011 C0.60416445,47.1695524 0.63487633,48.8374829 1.26227615,50.3001968 C1.86335151,51.7629107 3.00407846,52.780261 4.65374512,53.3173171 C7.80390647,54.1207182 10.9496804,52.9898439 14.0691299,49.9159615 C14.4771591,49.4967957 14.7930527,49.1300257 15.1659827,48.7326914 C15.2098568,49.6583492 15.4072903,50.5534428 15.7933825,51.4048733 C16.5436299,52.7191326 17.6843568,53.4657717 19.2418879,53.6142262 C20.4440386,53.6753545 21.61109,53.3478813 22.8439526,52.6885684 L24.4936192,51.5533278 L23.9802921,52.8108251 C22.9009889,55.3738492 22.0015696,57.5570043 21.2513223,59.3471914 C20.5317868,61.1679428 20.0842708,62.2726193 19.9350988,62.7179829 L19.904387,62.8096754 C19.1541396,64.9579 19.1541396,66.9576701 19.8429632,68.717293 C20.7116707,70.4507182 22.155129,71.1973572 24.1338515,70.9572102 C26.2003223,70.476916 28.1220084,69.0447663 29.8901352,66.6563947 C31.1493223,64.9884642 32.6498169,62.6874187 34.3916192,59.8231193 C36.1290341,56.9282556 37.8708364,53.9722636 39.5775395,50.8983813 C40.3146246,49.5884882 40.9858985,48.3877529 41.6220731,47.2350471 C42.1090758,49.6758144 43.3287762,51.6668519 45.5005448,53.0771701 L45.5575811,53.1077342 C46.281504,53.4046433 46.9703276,53.5530979 47.6591512,53.4963358 C49.0367983,53.3740791 50.3266973,52.8108251 51.5595598,51.7367128 C52.8187469,50.6887984 53.9594738,49.4662316 54.9773533,48.0952102 L55.0958134,47.9423893 L55.038777,48.4532476 C55.0080652,49.4662316 55.187949,50.4530176 55.635465,51.3481112 C56.3857123,52.8675872 57.7063231,53.583662 59.5665855,53.5269 C61.2294145,53.2911193 62.8922434,52.3436299 64.5682345,50.7717583 C64.4936485,51.3000818 64.5375226,51.8109401 64.7700554,52.273769 C65.0683994,52.837023 65.5510146,53.1950604 66.1477026,53.4046433 C66.8102017,53.583662 67.3805652,53.5269 67.9202168,53.2256246 L68.4905802,52.7496968 L68.850348,52.5095497 C69.0565563,52.2999668 69.2364402,52.0641861 69.3899996,51.7629107 C71.6363542,46.7503866 74.4881715,42.152662 77.905965,37.9741032 C81.3237584,33.7955444 84.2940359,30.7827904 86.81241,28.9009107 L86.9045457,28.8397824 C87.1151414,28.6301995 87.3257371,28.5123091 87.505621,28.3944187 L87.4749091,28.5428733 L80.9332788,45.7636005 L80.8762425,45.9426193 C80.305879,47.6760444 80.2444552,49.317777 80.6656467,50.8372529 C81.3237584,52.5401139 82.5829455,53.4352075 84.412496,53.4963358 C86.3341822,53.3740791 88.2251565,52.5095497 90.0810315,50.8678171 C92.0027176,49.2872128 94.1306121,46.9294053 96.4691024,43.7332663 C97.701965,41.912515 98.8119801,40.1223278 99.8298595,38.3321406 C100.128203,37.7339561 100.220339,37.1707021 100.040455,36.5725176 C99.8605714,35.9743332 99.5008036,35.4984053 98.9304402,35.1709321 Z" id="Fill-15" fill="#2C3E50" mask="url(#mask-6)"></path>
                    </g>
                    <path d="M529.577946,120.788034 C527.415713,124.657638 525.310612,128.161681 523.267037,131.300161 C521.887075,133.341957 520.656536,134.92903 519.544656,136.056921 C518.643725,136.908412 518.072403,137.367593 517.799927,137.3988 L517.681268,137.425548 L517.320896,137.184813 C516.209015,136.056921 515.91017,133.863551 516.507861,130.542289 C517.382422,126.365079 519.184284,122.678255 521.887075,119.446155 C523.359328,117.769921 524.981003,116.887224 526.694969,116.793604 C528.435303,116.735649 529.850423,117.221579 530.93154,118.318264 L529.577946,120.788034 Z M499.522023,104.81923 L499.398969,105.58156 C499.368205,105.884709 499.28031,106.192316 499.218783,106.557877 L499.130887,106.950187 L498.317852,106.433051 C496.8456,105.367573 496.006196,104.636449 495.82601,104.239681 L495.733719,104.119313 L495.856773,103.994487 C495.913905,103.967739 495.975432,103.905326 496.067723,103.842913 C497.74653,102.897802 498.801278,102.443079 499.16165,102.501034 L499.341837,102.501034 L499.368205,102.563447 C499.491259,102.777435 499.548391,103.356984 499.548391,104.270888 L499.522023,104.81923 Z M474.331124,126.610272 C475.469373,123.77494 477.723897,121.033228 481.059537,118.318264 C481.898941,117.711966 482.593317,117.283992 483.160244,117.007591 C483.731566,116.735649 484.214992,116.552868 484.575364,116.459249 C484.935736,116.370088 485.203818,116.338881 485.384004,116.370088 C485.56419,116.370088 485.625717,116.401294 485.656481,116.401294 L485.656481,116.428042 C485.687244,116.459249 485.718008,116.584075 485.77514,116.793604 C485.836667,116.980843 485.836667,117.283992 485.836667,117.68076 C485.805904,118.077528 485.687244,118.563458 485.507058,119.20542 C484.004042,122.892243 481.41991,125.2996 477.75466,126.45424 C476.884493,126.761847 476.014326,126.975834 475.201291,127.096202 L474.089411,127.21657 L474.331124,126.610272 Z M587.85717,114.751808 C587.769274,114.511073 587.64622,114.297085 587.466034,114.020685 C587.285848,113.779949 587.048529,113.565962 586.688157,113.351975 C586.327785,113.169194 585.967413,113.080032 585.664173,113.080032 C585.334564,113.080032 585.062087,113.106781 584.824769,113.2004 C584.583056,113.289562 584.433633,113.351975 584.341343,113.414388 C583.980971,113.628375 583.743652,113.837904 583.59423,114.020685 C583.08004,114.569028 582.508718,115.362564 581.849501,116.459249 C580.438775,118.715032 579.085182,121.002021 577.735983,123.346966 C576.263731,125.905897 574.817847,128.286506 573.407122,130.542289 C571.904106,132.91844 570.735093,134.563468 569.860531,135.539785 C569.021128,136.511644 568.449806,137.091193 568.120197,137.242767 L567.909248,137.367593 L567.579639,137.091193 C566.379863,135.566533 566.199677,133.007602 567.100607,129.414398 C567.970775,125.816736 569.680345,122.495475 572.238109,119.446155 C573.226936,118.260309 574.15863,117.529185 575.05956,117.315198 C575.960491,117.101211 576.953712,117.190372 578.034829,117.618347 C578.663283,117.801128 579.265368,117.769921 579.805926,117.497979 C580.346485,117.221579 580.73762,116.766856 580.979333,116.124894 C581.15952,115.48739 581.128756,114.876634 580.85628,114.328292 C580.588198,113.748743 580.135535,113.351975 579.507081,113.106781 C575.600119,111.524166 571.996396,112.589645 568.722282,116.338881 C566.929211,118.420799 565.505301,120.761286 564.371447,123.302385 C563.852862,123.502998 563.417779,123.832895 563.118934,124.354489 C563.026643,124.506064 562.907984,124.688845 562.815694,124.871625 C561.734577,127.341396 559.242735,130.783025 555.335772,135.200972 C554.645791,135.87414 554.074469,136.422483 553.626201,136.756838 L553.656965,136.484896 C553.744861,136.114876 553.86352,135.691359 553.986574,135.232178 C554.105233,134.897823 554.615028,133.587151 555.577485,131.273413 C555.757671,130.783025 555.968621,130.265889 556.210334,129.748753 C556.957447,127.889738 557.739719,125.96831 558.552754,123.926515 C560.025006,120.484885 560.112902,117.618347 558.882362,115.39377 C558.311041,114.569028 557.590296,113.96273 556.750892,113.655123 C555.397299,113.2004 554.135996,113.2004 552.962589,113.628375 C552.123185,113.869111 551.371678,114.203466 550.62017,114.569028 L549.508289,115.21099 L549.626948,114.965796 C549.868662,114.359498 549.899425,113.748743 549.688475,113.169194 C549.446762,112.589645 549.060021,112.134922 548.457936,111.827315 C547.855851,111.586579 547.253765,111.555373 546.686838,111.76936 C546.115517,112.010096 545.662854,112.406864 545.394772,113.017619 L539.699133,125.736491 C539.387103,125.919272 539.101442,126.151091 538.859729,126.485446 C536.126174,130.783025 533.902413,133.738725 532.223606,135.383753 C531.379808,136.239702 530.689827,136.819251 530.180032,137.1224 L529.907555,137.273974 L529.907555,137.091193 C529.907555,136.63647 529.999846,136.088128 530.180032,135.446166 C532.280738,128.683275 534.957161,121.884719 538.231275,115.028209 C538.499357,114.417453 538.53012,113.811156 538.319171,113.2004 C538.138985,112.620851 537.72148,112.16167 537.150158,111.858521 C536.548073,111.586579 535.945988,111.555373 535.374666,111.76936 C534.776975,111.978889 534.355076,112.375658 534.056231,112.986413 L533.484909,114.234672 L533.361855,114.145511 C531.168858,112.469277 528.646252,111.796109 525.824801,112.134922 C522.998956,112.500483 520.507114,113.900317 518.402012,116.338881 C516.538624,118.523335 515.066372,120.966357 513.914938,123.618908 C513.822648,123.63674 513.730357,123.627824 513.642462,123.654573 C513.040376,123.864102 512.587714,124.26087 512.288868,124.840419 C511.568124,126.271459 510.816616,127.582132 509.946449,128.741229 C509.102651,129.900327 507.753452,131.576561 505.951591,133.769932 C505.8593,133.890299 505.740641,134.015125 505.648351,134.104287 C504.299152,135.722566 503.156509,136.788044 502.224814,137.30518 C501.772152,137.581581 501.41178,137.733155 501.20083,137.764362 L500.994275,137.822316 L500.994275,137.733155 C500.871221,137.425548 500.994275,136.725631 501.323884,135.660153 L501.591966,135.018191 L501.622729,134.960236 C501.653493,134.92903 501.684256,134.866617 501.71502,134.808662 C502.075392,134.1667 502.765373,132.856027 503.784963,130.876645 C504.839711,128.892804 505.977959,126.45424 507.239262,123.59216 C508.803805,119.842923 509.375127,116.887224 508.953228,114.72506 C508.443433,112.834839 507.573266,111.586579 506.2812,110.944617 L505.287978,110.396275 L503.367458,109.388751 L503.516881,108.840409 C503.84649,107.471781 504.088203,106.312683 504.206862,105.367573 L504.206862,105.247205 C504.479338,103.080583 504.088203,101.163614 503.007086,99.518586 C502.374237,98.6938432 501.561202,98.1767072 500.603139,97.9003069 C500.185635,97.8378939 499.763736,97.842352 499.341837,97.842352 C499.609918,97.2761772 499.856026,96.7144605 500.031818,96.166118 C500.932748,93.2371665 500.150477,90.8298092 497.74653,88.9707943 C493.509959,86.4118626 485.942142,86.3494496 475.007921,88.756807 C455.657689,92.9652243 443.158925,97.5347452 437.511628,102.411873 C434.175988,105.670721 434.149619,108.965235 437.511628,112.25529 C439.977102,114.328292 444.18291,116.093687 450.190579,117.555934 L450.731137,117.68076 L446.525329,157.295163 C446.463802,158.27148 446.736279,158.971397 447.364733,159.461784 C447.997582,159.916507 448.718326,160.099288 449.469834,159.947714 C450.252106,159.796139 450.823427,159.279003 451.1838,158.396306 L471.250381,102.260299 C471.46133,101.58713 471.430567,100.949626 471.162485,100.370077 C470.890009,99.7905282 470.437346,99.3625536 469.808892,99.1218178 C469.149674,98.876624 468.547589,98.9078305 467.945504,99.1797727 C467.374182,99.456173 466.952283,99.9421026 466.714964,100.584065 L453.464692,137.639536 L455.780743,116.062481 C455.807112,115.424977 455.657689,114.845428 455.32808,114.359498 C454.967708,113.869111 454.488677,113.534756 453.886592,113.383181 C446.674752,111.706947 442.257995,110.093126 440.636319,108.506053 C440.42537,108.323273 440.275947,108.171698 440.188052,108.05133 C440.064998,107.926504 439.977102,107.806137 439.946338,107.712517 C439.884812,107.623356 439.854048,107.560943 439.854048,107.529736 L439.854048,107.440575 C439.854048,107.409368 439.854048,107.320207 439.915575,107.195381 C439.946338,107.075013 440.034234,106.923439 440.188052,106.709452 C440.306711,106.526671 440.548424,106.281477 440.847269,105.978328 C444.903654,102.135473 456.620147,97.9939263 476.02751,93.5447733 C486.992495,91.5341841 493.329773,91.3469452 495.012975,93.0231792 C495.254688,93.1792116 495.434874,93.3619925 495.52277,93.6027282 C495.61506,93.847922 495.553533,94.2134837 495.404111,94.7618262 C495.074502,96.103705 493.663776,98.1455007 491.136776,100.8248 C490.688508,101.346394 490.446795,101.925943 490.446795,102.563447 C490.473164,103.107332 490.688508,103.597719 491.031301,104.052442 C491.031301,104.42692 491.009327,104.79694 491.110407,105.184792 C491.440016,106.281477 492.037706,107.257794 492.912268,108.109285 C493.782435,108.965235 494.71413,109.727564 495.676587,110.365068 C496.217145,110.699424 496.757704,111.064985 497.329026,111.430547 L497.777294,111.675741 L497.715767,111.796109 C497.386158,112.834839 497.025786,113.900317 496.608281,114.997002 C495.531559,117.974992 494.274651,120.707789 492.938637,123.33805 C492.490369,123.547579 492.094839,123.86856 491.844336,124.354489 C488.961358,129.77996 486.227803,133.435576 483.64367,135.263385 C481.178197,137.091193 478.805014,137.79111 476.612017,137.425548 C474.480547,137.002032 473.337903,135.357004 473.126953,132.490466 L473.126953,132.004536 L474.41902,131.942123 C476.071458,131.821755 477.66237,131.514149 479.257676,130.965806 C484.034806,129.565972 487.577001,126.119885 489.923816,120.694415 C490.402847,119.174213 490.583033,117.649553 490.402847,116.124894 C490.222661,114.600234 489.471153,113.351975 488.179087,112.43807 C485.353241,110.975824 482.052759,111.644534 478.325982,114.479866 C474.361888,117.649553 471.623937,121.064434 470.094553,124.688845 L469.492467,126.271459 L469.224386,126.213504 C468.261928,126.030723 467.479657,126.365079 466.851203,127.189821 C466.49083,127.738164 466.367776,128.344461 466.49083,128.955217 C466.578726,129.565972 466.908335,130.083108 467.448893,130.479876 L468.503641,131.059425 L468.503641,132.976395 C468.864013,137.973891 471.355856,141.02321 475.983563,142.119895 C479.556522,142.610283 483.041585,141.602759 486.438752,139.075034 C488.781172,137.300722 491.05767,134.639255 493.272641,131.197626 C493.804409,131.046051 494.239493,130.751819 494.564707,130.234683 C497.118076,126.030723 499.28031,121.487951 501.020644,116.673236 L501.952338,113.993937 L503.125745,114.600234 L503.244404,114.693853 C503.697067,114.876634 503.995912,115.059415 504.118966,115.179783 C504.268389,115.331357 504.325521,115.48739 504.356284,115.670171 C504.448575,116.004526 504.417811,116.64203 504.237625,117.58714 C504.088203,118.563458 503.63554,119.936543 502.914795,121.733145 C500.330663,127.372602 498.559565,130.965806 497.597107,132.521672 L497.329026,133.038808 C496.067723,135.691359 495.944669,138.129923 496.968653,140.323293 C497.658634,141.482391 498.647461,142.213515 500.001054,142.485457 C503.094982,142.793064 506.188909,140.992004 509.282837,137.153606 C509.436654,136.939619 509.586077,136.756838 509.735499,136.574057 C510.429875,135.749314 511.005592,135.036023 511.576914,134.336106 C511.774679,137.541458 513.101903,140.037977 515.69922,141.754333 L515.756353,141.78554 C516.481492,142.088689 517.171473,142.240263 517.861454,142.182308 C519.241416,142.057482 520.533482,141.482391 521.768416,140.385706 C523.029719,139.31577 524.172363,138.06751 525.191953,136.667677 L525.310612,136.511644 L525.25348,137.033238 C525.222716,138.06751 525.402902,139.075034 525.85117,139.988938 C526.602678,141.540346 527.925508,142.271469 529.788896,142.213515 C531.094147,142.026276 532.399397,141.379856 533.713438,140.3545 C533.739806,140.465951 533.726622,140.572945 533.766175,140.688855 C534.007888,141.268404 534.399024,141.723127 534.996714,141.999527 C535.5988,142.271469 536.200885,142.271469 536.772207,142.057482 C537.343529,141.847953 537.791797,141.419978 538.064273,140.840429 L543.562147,128.496036 L545.904567,125.148026 C548.159091,121.733145 550.980542,119.3882 554.316182,118.166689 C554.584264,118.077528 554.76445,118.046322 554.887504,118.046322 L555.006163,118.046322 C555.098454,118.197896 555.098454,118.563458 555.06769,119.20542 C555.006163,119.842923 554.738082,120.819241 554.254655,122.161119 C553.415252,124.171709 552.63298,126.119885 551.881472,127.9789 C551.670523,128.496036 551.459573,128.986423 551.279387,129.472353 C550.378456,131.665723 549.811529,133.070015 549.60058,133.707519 L549.569816,133.801138 C548.849072,135.905347 548.699649,137.853523 549.060021,139.59217 C549.719239,141.633966 551.129964,142.516663 553.292198,142.213515 C555.006163,141.723127 556.808025,140.506074 558.640649,138.526691 C559.884373,137.113483 560.961095,135.825101 561.941132,134.60359 C562.200424,137.661826 563.510069,140.073641 566.015096,141.754333 L566.107386,141.78554 C567.008317,142.182308 567.847721,142.271469 568.691519,142.057482 C569.59245,141.847953 570.431853,141.451185 571.214125,140.809223 C571.965633,140.198467 572.655614,139.529757 573.257699,138.798634 C574.25092,137.639536 575.27051,136.270908 576.2901,134.715042 L577.010844,133.618357 L575.151851,138.584646 C573.859784,142.030734 572.778668,145.138008 571.846974,147.910927 C570.612039,151.049408 569.443027,152.939629 568.300383,153.550385 C567.909248,153.79112 567.368689,153.79112 566.678708,153.577133 C565.865673,153.336397 564.696661,152.391287 563.132118,150.777465 C562.68385,150.287078 562.143292,150.015136 561.541206,149.983929 C560.908358,149.983929 560.367799,150.16671 559.858004,150.621433 C559.378973,151.080614 559.13726,151.628957 559.106496,152.270919 C559.075733,152.877216 559.286682,153.456765 559.708582,153.973901 C561.510443,155.988948 563.312304,157.326369 565.087797,158.030744 C567.008317,158.699454 568.810178,158.605835 570.431853,157.754344 C571.873342,156.929601 573.046749,155.743755 573.978443,154.187888 C574.879374,152.663229 575.630882,151.111821 576.202204,149.524748 C577.916169,144.527252 579.92898,139.012621 582.240636,132.91844 C582.570245,132.004536 582.930617,131.11738 583.260226,130.234683 C584.49516,126.944628 585.545513,124.046883 586.415681,121.58157 C586.806816,120.484885 587.136425,119.477362 587.439665,118.469838 C587.73851,117.497979 587.918697,116.704443 587.980223,116.124894 C588.006592,115.8797 588.006592,115.607758 587.980223,115.21099 C587.94946,115.121828 587.918697,114.965796 587.85717,114.751808 Z" id="Fill-18" fill="#2C3E50"></path>
                </g>
            </g>
        </g>
    </g>
</svg>