<?xml version="1.0" encoding="UTF-8"?>
<svg width="302px" height="202px" viewBox="0 0 302 202" version="1.1" xmlns="http://www.w3.org/2000/svg" xmlns:xlink="http://www.w3.org/1999/xlink">
    <!-- Generator: sketchtool 52.6 (67491) - http://www.bohemiancoding.com/sketch -->
    <title>6DCA4827-5D56-4FB3-B378-E998CDB1FA74</title>
    <desc>Created with sketchtool.</desc>
    <defs>
        <polygon id="path-1" points="0.0714242424 0.192820312 9.71112121 0.192820312 9.71112121 15 0.0714242424 15"></polygon>
    </defs>
    <g id="Page-1" stroke="none" stroke-width="1" fill="none" fill-rule="evenodd">
        <g id="hari-tani-kartini" transform="translate(-184.000000, -192.000000)">
            <g id="kartini" transform="translate(184.000000, 192.000000)">
                <g id="Group-60">
                    <path d="M110.964467,185.877878 C87.7445099,187.303384 65.220816,154.170468 50.7146344,119.597176 L48.8586317,115.099716 L54.6489407,108.719994 C72.7538801,90.1523049 93.1636183,76.9382285 115.934779,69.0777651 C117.172114,68.6231329 118.01518,67.8243399 118.522697,66.742995 C119.084741,65.6595257 119.139267,64.4655851 118.744998,63.2673955 C118.296202,62.0139703 117.50976,61.162066 116.440199,60.6479492 C115.372735,60.0785967 114.192024,60.023361 113.011313,60.4206331 C92.3205527,67.5970237 73.4857953,78.8736021 56.5049434,94.2524926 L50.1504935,100.404899 L50.9390325,98.8646726 C53.0739599,94.4819331 54.9865864,90.379621 56.6160939,86.5619851 C58.1910747,82.7464737 59.9338298,78.3042496 61.7898325,73.1779528 C63.1970391,69.1903609 63.6458352,65.6595257 63.1404152,62.5280871 C62.5783715,59.1098477 60.8335192,56.6603573 57.9100528,55.1222558 C55.3242321,53.9835509 52.5685399,53.6988746 49.6450735,54.3255872 C46.7216071,54.8949397 43.9680122,55.9210489 41.3800943,57.3444301 C26.7061384,66.5135545 15.7420908,78.4189699 8.37680096,93.0585519 C4.88919362,99.6634657 2.41662052,106.213144 0.954887318,112.707586 C-0.506845886,119.142544 -0.282447819,124.553517 1.57355489,128.883145 C2.13559864,130.02185 2.97866428,130.818519 4.10275179,131.217915 C5.22893649,131.672547 6.40964781,131.617312 7.59035914,131.045835 C8.71444665,130.476482 9.50088847,129.622454 9.89515798,128.481624 C10.2873303,127.287684 10.2328037,126.148979 9.72528654,124.950789 C8.77107046,123.357452 8.82559709,119.883977 9.78191035,114.64296 C10.908095,109.459303 13.0996463,103.706293 16.3607584,97.3860557 C23.2206282,83.9446632 33.0018674,73.2926731 45.7086701,65.3748495 C47.9589423,64.2361445 49.814945,63.5520718 51.2200544,63.3247556 C52.6251638,63.1526752 53.5248532,63.1526752 53.9191227,63.3821158 C53.9757465,63.3821158 54.0323703,63.4968361 54.1435208,63.7241522 C54.2001446,63.9493438 54.2546712,64.3508648 54.311295,64.8628571 C54.311295,65.3748495 54.2546712,66.0589223 54.1435208,66.912951 C53.9757465,67.7669797 53.6926275,68.7930889 53.3004551,70.1038742 C51.2200544,75.6848033 49.3640517,80.5264239 47.5667699,84.6266116 C45.8219177,88.6694391 43.5737427,93.4536995 40.8180505,98.8115614 C28.337743,124.098885 18.8899553,148.816856 12.4243549,172.965474 C12.143333,174.218899 12.2565806,175.359729 12.8752482,176.441073 C13.4918186,177.467183 14.3936052,178.206491 15.6309403,178.548527 C16.8661783,178.833204 18.0468896,178.718483 19.0598267,178.091771 C20.1272904,177.467183 20.8025818,176.553669 21.1402275,175.300244 C25.806449,157.758664 32.2154255,139.817687 40.3126306,121.419954 L41.0445457,119.824492 L42.3930313,123.185371 C57.3480091,160.605426 82.7951693,195.616355 111.469887,194.991767 C112.763846,194.877047 113.831309,194.365054 114.619848,193.453666 C115.40629,192.542277 115.80056,191.460932 115.743936,190.150146 C115.630688,188.896721 115.125268,187.815376 114.225579,187.016583 C113.32589,186.219915 112.258426,185.820518 110.964467,185.877878" id="Fill-1" fill="#EF6C5F"></path>
                    <path d="M210.382463,74.3711277 C209.271656,73.9151379 208.160849,73.8599949 207.103925,74.3138638 C206.049072,74.7677327 205.271922,75.5630637 204.770401,76.7040986 C203.937296,77.8960347 203.437847,78.920421 203.381892,79.8302797 C202.882444,80.9670728 202.882444,82.103866 203.325937,83.1833953 C203.715549,84.3201884 204.492699,85.1176403 205.603506,85.628773 C206.716386,86.0826419 207.827193,86.1420266 208.882045,85.6860368 C209.938969,85.2873109 210.71612,84.489859 211.215568,83.3530659 C212.104628,82.103866 212.548122,81.0243367 212.660032,80.169621 C213.103526,78.2374968 213.103526,76.9289122 212.715987,76.190845 C212.272493,75.5079208 211.495342,74.8822604 210.382463,74.3711277" id="Fill-3" fill="#EF6C5F"></path>
                    <path d="M273.381553,79.8305486 C272.882179,80.9673322 272.882179,82.1041158 273.327678,83.183636 C273.715159,84.3204196 274.492192,85.1178648 275.602832,85.6268724 C276.715544,86.0828584 277.826184,86.1422426 278.880878,85.6862566 C279.937643,85.287534 280.714677,84.4900888 281.216122,83.3533052 C282.102976,82.1041158 282.548476,81.0224747 282.660368,80.169887 C283.103796,78.237779 283.103796,76.9292054 282.714243,76.1911444 C282.270816,75.5082259 281.493782,74.8825707 280.38107,74.3714423 C279.27043,73.9154563 278.159791,73.8603138 277.103025,74.3120581 C276.048332,74.768044 275.271298,75.5633684 274.769852,76.7022728 C273.936873,77.8963198 273.437499,78.9185767 273.381553,79.8305486" id="Fill-5" fill="#EF6C5F"></path>
                    <path d="M144.816799,74.5564416 L144.592336,75.9682025 C144.535695,76.5329069 144.367872,77.0976113 144.254592,77.7739923 L144.086769,78.5093722 L142.567971,77.5506391 C139.81148,75.5720666 138.236042,74.2171975 137.900396,73.4818176 L137.730475,73.2563573 L137.954938,73.0287898 C138.068219,72.9740051 138.179401,72.8602214 138.349322,72.7485447 C141.4981,70.9975397 143.465824,70.1483761 144.141311,70.2621598 L144.479055,70.2621598 L144.535695,70.3759435 C144.762256,70.7699723 144.873439,71.8445963 144.873439,73.5408166 L144.816799,74.5564416 Z M111.852177,104.159172 C107.801351,111.331761 103.865903,117.827968 100.041638,123.645688 C97.452969,127.432157 95.1475013,130.369462 93.0664969,132.457604 C91.3798763,134.040041 90.3121028,134.889205 89.8044384,134.943989 L89.5799752,135.002988 L88.9044879,134.549961 C86.8234834,132.457604 86.2612766,128.392997 87.3877881,122.236034 C89.0177684,114.494527 92.3910095,107.659075 97.452969,101.672787 C100.209461,98.5648061 103.247056,96.9275848 106.452474,96.7569093 C109.714533,96.6431255 112.357744,97.547074 114.382108,99.5825383 L111.852177,104.159172 Z M293.885527,109.129835 C292.817754,108.506132 291.69334,108.394455 290.568926,108.676807 C289.442415,108.957052 288.599104,109.63554 287.923617,110.65538 C287.41805,111.443437 286.969124,112.235709 286.5181,113.025874 C285.055943,115.682934 283.369322,118.449564 281.3995,121.218302 C279.488416,123.984932 276.788565,127.206696 273.245403,130.82249 C271.051118,132.967524 269.196674,134.267608 267.621237,134.775421 C266.047897,135.226342 264.921385,135.342232 264.247995,135.114665 C263.740331,134.943989 263.459228,134.661637 263.291405,134.267608 C263.178124,134.040041 263.123582,133.646012 263.123582,133.081308 C263.064844,132.516603 263.234764,131.781223 263.515868,130.82249 L263.515868,130.765598 C263.515868,130.651815 263.572508,130.481139 263.740331,130.144002 C263.853612,129.804758 264.078075,129.240054 264.415818,128.392997 C264.751464,127.600725 265.259129,126.414425 265.877976,124.831988 C266.215719,124.041823 266.553463,123.194767 266.945749,122.34771 C268.070163,119.692757 269.307857,116.812343 270.545551,113.759147 C272.288812,109.63554 273.80761,105.739502 275.099846,102.009924 C275.664151,100.427488 276.169718,98.7902664 276.620742,97.1530452 C277.069668,95.5137168 277.294131,94.045064 277.350772,92.8018715 C277.350772,92.5195193 277.350772,92.0685987 277.239589,91.5038943 C277.182949,90.9370828 276.958486,90.3154866 276.620742,89.6391056 C276.282998,89.0175093 275.720791,88.4528049 274.932024,87.9449924 C273.696427,87.2117196 272.515373,86.9841521 271.502142,87.2643972 C270.434369,87.4919647 269.645601,87.8312087 269.140034,88.2252375 C268.464547,88.6213734 267.8457,89.131293 267.283493,89.6981045 C266.383542,90.543054 265.934616,91.558679 265.877976,92.7470868 C265.877976,93.9312803 266.270262,94.9490124 267.05903,95.9098527 C267.283493,96.135313 267.507956,96.3038815 267.734517,96.4745571 L267.677877,96.7569093 C267.451316,97.4922892 267.17231,98.284561 266.889109,99.1295105 C265.781478,102.16585 264.48085,105.533005 263.012399,109.123514 C262.349498,109.5049 261.791487,110.037998 261.37193,110.767056 C261.202009,111.047301 260.977546,111.388653 260.807625,111.727897 C258.783261,116.302424 254.115685,122.686954 246.804898,130.877275 C245.510564,132.120467 244.442791,133.1382 243.597382,133.759796 L243.656121,133.249876 C243.823943,132.571388 244.048407,131.781223 244.27287,130.934167 C244.499431,130.312571 245.456022,127.885185 247.255923,123.590903 C247.591568,122.686954 247.985952,121.726114 248.434879,120.765274 C249.840396,117.320156 251.304651,113.759147 252.821351,109.976892 C255.577843,103.592361 255.745666,98.284561 253.440198,94.1588477 C252.372425,92.633303 251.02145,91.5038943 249.44811,90.9370828 C246.916081,90.0921333 244.553973,90.0921333 242.361786,90.8801909 C240.786348,91.3332187 239.380831,91.956922 237.975314,92.633303 L235.894309,93.8196037 L236.118773,93.3665759 C236.567699,92.2371671 236.624339,91.1056513 236.232053,90.0352415 C235.781029,88.9627246 235.050999,88.115668 233.924488,87.5488565 C232.800074,87.0958288 231.67566,87.041044 230.607887,87.4371799 C229.538016,87.8881006 228.694705,88.6213734 228.189139,89.7507822 L219.302914,109.407973 C218.877063,109.736682 218.501559,110.155996 218.170109,110.65538 C217.664542,111.443437 217.213518,112.235709 216.764592,113.025874 C215.302434,115.682934 213.613716,118.449564 211.645992,121.218302 C209.734908,123.984932 207.035057,127.206696 203.491895,130.82249 C201.29761,132.967524 199.443166,134.267608 197.867729,134.775421 C196.292291,135.226342 195.167877,135.342232 194.49239,135.114665 C193.986823,134.943989 193.70572,134.661637 193.537897,134.267608 C193.424616,134.040041 193.367976,133.646012 193.367976,133.081308 C193.311336,132.516603 193.481256,131.781223 193.76236,130.82249 L193.76236,130.765598 C193.76236,130.651815 193.816902,130.481139 193.986823,130.144002 C194.100104,129.804758 194.324567,129.240054 194.66231,128.392997 C194.997956,127.600725 195.505621,126.414425 196.124468,124.831988 C196.462211,124.041823 196.799955,123.194767 197.192241,122.34771 C198.316655,119.692757 199.554349,116.812343 200.792043,113.759147 C202.535304,109.63554 204.054102,105.739502 205.346338,102.009924 C205.910643,100.427488 206.41621,98.7902664 206.865136,97.1530452 C207.314062,95.5137168 207.540623,94.045064 207.597264,92.8018715 C207.597264,92.5195193 207.597264,92.0685987 207.486081,91.5038943 C207.427343,90.9370828 207.20288,90.3154866 206.865136,89.6391056 C206.527392,89.0175093 205.965186,88.4528049 205.178515,87.9449924 C203.940821,87.2117196 202.761865,86.9841521 201.748634,87.2643972 C200.678763,87.4919647 199.892093,87.8312087 199.386526,88.2252375 C198.711039,88.6213734 198.092192,89.131293 197.529985,89.6981045 C196.630034,90.543054 196.17901,91.558679 196.124468,92.7470868 C196.124468,93.9312803 196.516754,94.9490124 197.305522,95.9098527 C197.529985,96.135313 197.754448,96.3038815 197.978911,96.4745571 L197.924369,96.7569093 C197.697808,97.4922892 197.416704,98.284561 197.135601,99.1295105 C196.036361,102.140565 194.74832,105.478221 193.294553,109.035015 C192.581306,109.420616 191.996023,109.98532 191.505141,110.767056 C191.056215,111.614113 190.042984,113.42201 188.580827,116.18864 C185.994255,121.159303 182.621014,127.263588 178.626828,134.661637 C175.36477,140.481464 172.215992,146.018938 169.119659,151.269846 C166.027521,156.522861 163.44095,160.53479 161.303305,163.417311 C159.784507,165.336885 158.603453,166.634862 157.705601,167.31335 L157.365759,167.540917 L157.4224,166.919321 C157.47904,166.183941 157.646863,165.225208 158.041247,164.038907 C158.435631,162.795715 160.908921,156.750428 165.297491,145.848262 C168.727372,137.430374 172.664918,127.771401 177.162573,116.92402 C178.232444,114.271173 179.300218,111.559328 180.426729,108.904375 C186.107536,94.9490124 191.280678,82.2389497 195.948254,70.7699723 L196.004894,70.6582957 L259.714678,71.3367838 C260.952372,71.3367838 261.963506,70.9406479 262.808914,70.0935913 C263.652224,69.3034266 264.10115,68.2835874 264.157791,67.0446091 C264.157791,65.7993095 263.763407,64.7267926 262.920096,63.879736 C262.133426,63.0305724 261.120195,62.5775446 259.884599,62.5227599 L199.491416,61.9011636 L200.391366,59.7561298 C202.585651,54.2755474 203.991168,50.6597537 204.610015,48.9087487 C205.002301,47.7224481 204.947759,46.5930393 204.496735,45.5774143 C203.991168,44.5006832 203.204498,43.7105185 202.023444,43.2595978 C200.84239,42.865569 199.772519,42.9182466 198.704745,43.4302734 C197.634874,43.9380859 196.904844,44.7282506 196.455918,45.9145512 C195.66715,48.0048003 193.867249,52.636219 190.942934,59.8678064 L190.212905,61.7325951 L166.254082,61.2226755 C165.016388,61.2226755 164.003157,61.6757033 163.159846,62.4679751 C162.316536,63.2581398 161.865512,64.2737648 161.808872,65.5169573 C161.808872,66.7601498 162.203256,67.8347738 162.992023,68.6797233 C163.833236,69.5288869 164.846467,69.9798076 166.084161,70.0345924 L186.669743,70.4328354 L186.162078,71.6739207 C181.945527,82.0682741 177.332494,93.3665759 172.383815,105.514041 C171.796435,106.934231 171.244717,108.324921 170.674119,109.73036 C169.839199,110.155996 169.180494,110.792342 168.721079,111.668898 C167.370104,114.325958 165.964587,116.753344 164.332509,118.900485 C162.759169,121.047626 160.22714,124.155607 156.853899,128.222322 C156.683979,128.447782 156.459515,128.675349 156.291692,128.843918 C153.759664,131.838115 151.622019,133.814581 149.878758,134.775421 C149.035448,135.283233 148.359961,135.567693 147.965577,135.622477 L147.573291,135.736261 L147.573291,135.567693 C147.348827,135.002988 147.573291,133.700797 148.192138,131.726439 L148.697704,130.538031 L148.754345,130.426354 C148.810985,130.369462 148.865527,130.257786 148.924265,130.144002 C149.597655,128.955594 150.891989,126.528208 152.803073,122.855523 C154.772895,119.184944 156.908442,114.663095 159.27055,109.355295 C162.196962,102.40606 163.264736,96.9275848 162.478066,92.9156552 C161.521475,89.4136452 159.891495,87.0958288 157.470649,85.9116352 L155.616205,84.8939031 L152.016403,83.0291144 L152.297506,82.0134893 C152.916354,79.4702125 153.36528,77.3230716 153.591841,75.5720666 L153.591841,75.3466063 C154.097408,71.3367838 153.36528,67.7757748 151.340916,64.7267926 C150.159862,63.2012479 148.641064,62.2404077 146.841163,61.7325951 C142.567971,61.054107 138.179401,62.2994066 133.625106,65.3483889 C132.051766,66.3092291 130.868615,67.5503145 129.914122,69.0189673 C128.78761,71.0544316 128.506507,73.0877888 129.068713,75.2328226 C129.689658,77.2682869 130.814072,79.0761837 132.444052,80.6586203 C134.074033,82.2389497 135.817294,83.6486035 137.617195,84.8370112 C138.630426,85.4586075 139.643657,86.1349885 140.71143,86.8134766 L141.55474,87.2643972 L141.443558,87.4919647 C140.824711,89.4136452 140.149223,91.3901106 139.362553,93.4234677 C136.63543,100.910015 133.417425,107.724395 129.798743,114.04782 C129.599454,114.250102 129.408555,114.471348 129.230243,114.722094 C124.111643,122.686954 119.949634,128.16543 116.800856,131.216519 C115.225419,132.798956 113.933182,133.871472 112.976591,134.438284 L112.471025,134.720636 L112.471025,134.381392 C112.471025,133.532228 112.638847,132.516603 112.976591,131.328196 C116.914137,118.788808 121.919456,106.192529 128.049189,93.4803596 C128.556854,92.3509508 128.611396,91.2215421 128.217012,90.0921333 C127.881366,89.0175093 127.092598,88.1704528 126.024825,87.6057484 C124.898313,87.0958288 123.7739,87.041044 122.706126,87.4371799 C121.581712,87.8312087 120.795042,88.5665887 120.230738,89.6981045 L119.162964,92.0117068 L118.938501,91.8410312 C114.833132,88.7351571 110.108917,87.4919647 104.822494,88.115668 C99.5360713,88.792049 94.8663979,91.3901106 90.9309499,95.9098527 C84.7424789,103.082441 80.6371102,111.614113 78.6693862,121.500654 C76.7016622,131.387195 79.0637701,138.56189 85.8668926,143.022633 L85.9801731,143.081632 C87.3311478,143.64423 88.6233845,143.928689 89.9177189,143.812798 C92.50429,143.587338 94.9230382,142.514821 97.2285058,140.481464 C99.5906137,138.504998 101.728258,136.187182 103.64144,133.591227 L103.865903,133.306768 L103.752623,134.267608 C103.695982,136.187182 104.035824,138.054078 104.877036,139.746084 C106.284651,142.628605 108.76004,143.983474 112.246561,143.871797 C115.787625,143.361877 119.332885,141.216844 122.930589,137.430374 C126.146497,134.248644 129.937197,129.452871 134.262834,122.994592 C134.753716,122.672205 135.179566,122.238141 135.538288,121.669222 C140.317046,113.875038 144.367872,105.457149 147.627833,96.5314489 L149.373192,91.558679 L151.565379,92.6880878 L151.79194,92.8608705 C152.63525,93.1980074 153.197457,93.5372515 153.42192,93.7627118 C153.703024,94.045064 153.816304,94.3274162 153.870847,94.6687673 C154.040767,95.2882565 153.984127,96.4745571 153.646383,98.2255621 C153.36528,100.033459 152.52197,102.576736 151.173093,105.90807 C146.335596,116.361422 143.016898,123.026198 141.216997,125.906612 L140.71143,126.865345 C138.349322,131.781223 138.124859,136.300966 140.035943,140.36768 C141.330277,142.514821 143.186818,143.871797 145.716749,144.37961 C150.008821,144.796816 154.298795,143.064775 158.590867,139.250914 C158.144038,140.342395 157.684623,141.465482 157.254577,142.514821 C155.284755,147.375914 153.654774,151.497413 152.24716,154.942531 C150.898283,158.332865 150.05707,160.480006 149.773869,161.27017 L149.717229,161.438739 C148.368352,165.562345 148.311712,169.291922 149.606046,172.682256 C151.236026,175.956698 153.879238,177.370566 157.59232,176.917539 C161.416586,176.01359 164.959747,173.301745 168.221806,168.78411 C170.583914,165.562345 173.397046,161.27017 176.600366,155.789588 C179.805784,150.311113 183.0133,144.720961 186.216621,138.901134 C187.429142,141.046168 189.325541,142.607533 191.962459,143.475661 C196.718141,144.704104 201.471726,143.509375 206.19804,139.973651 C206.233702,140.331859 206.298734,140.690067 206.422503,141.048275 C206.873527,142.118685 207.603557,142.967849 208.727971,143.475661 C209.854482,143.983474 210.978896,143.983474 212.046669,143.587338 C213.116541,143.193309 213.957753,142.403144 214.465418,141.326413 L224.757159,118.449564 L229.143632,112.235709 C233.362281,105.90807 238.648703,101.556896 244.893815,99.298079 C245.397284,99.1295105 245.735027,99.0726186 245.95949,99.0726186 L246.186051,99.0726186 C246.353874,99.3570779 246.353874,100.033459 246.297234,101.21976 C246.186051,102.40606 245.680485,104.21185 244.780534,106.698235 C243.205096,110.427812 241.742939,114.043606 240.337422,117.490831 C239.943038,118.449564 239.548654,119.353513 239.213008,120.255354 C237.52429,124.324176 236.456516,126.924344 236.062132,128.110645 L236.005492,128.279213 C234.656615,132.177359 234.375512,135.793153 235.050999,139.012811 C236.286596,142.79928 238.929807,144.436501 242.980633,143.871797 C246.186051,142.967849 249.559292,140.709031 252.991272,137.034238 C253.563967,136.391571 254.088414,135.782617 254.631741,135.161021 C254.784879,136.058648 255.005147,136.937311 255.359673,137.769618 C256.486184,140.536248 258.621731,142.457929 261.715967,143.475661 C267.621237,145.001206 273.526506,142.854065 279.375136,137.034238 C283.312682,132.967524 286.406917,129.408622 288.542464,126.302748 C290.680109,123.139982 292.53665,120.200569 294.055448,117.490831 C294.504374,116.698559 294.955398,115.908395 295.404325,115.173015 C296.023172,114.100498 296.134354,112.968982 295.855349,111.839573 C295.572148,110.710164 294.89666,109.806216 293.885527,109.129835 Z" id="Fill-7" fill="#EF6C5F"></path>
                    <path d="M35.634798,35.7773356 C37.0166302,36.169517 38.9005566,36.1305156 41.2865774,35.6646647 C42.7563833,35.4176555 43.8807312,35.2659831 44.6596211,35.2096477 C45.4363652,35.155479 46.0629103,35.2226482 46.5414018,35.404655 C47.0177477,35.5866618 47.3653514,35.9246745 47.5885044,36.4251933 C47.9275254,37.1792216 47.8674457,37.9224162 47.4125569,38.6504435 C46.957668,39.3784708 46.0929501,40.0328287 44.8141116,40.6156839 C43.6811809,41.1335367 42.6984494,41.3242105 41.8594798,41.1963724 C41.022656,41.0642008 40.3725083,40.7305216 39.9111823,40.1866678 C39.726652,40.0696634 39.5507044,39.995994 39.3811939,39.961326 C39.2116834,39.9266581 39.0271531,39.9569925 38.8276028,40.0479959 L36.3342969,41.1833719 C36.1712236,41.2570413 36.0596471,41.380546 36.0038588,41.5495523 C35.9480706,41.7185586 35.952362,41.8767313 36.0188787,42.0262369 C36.4844961,42.9666055 37.1990149,43.7076333 38.1624351,44.2428201 C39.1280011,44.7801736 40.3059915,45.0315163 41.6942608,44.9968484 C43.0868214,44.9621804 44.6038328,44.5721658 46.2452949,43.822471 C47.7987833,43.1182779 49.0604561,42.2645791 50.0324591,41.2678751 C51.0044622,40.2690042 51.618133,39.1856302 51.8756172,38.0155863 C52.1309558,36.8433757 51.9936309,35.6581645 51.459351,34.4642864 C50.9722767,33.3744121 50.3435859,32.5835491 49.5754246,32.0916973 C48.8051175,31.5976788 47.8395516,31.3398357 46.6765811,31.3138348 C45.5114648,31.2921673 44.0330761,31.4655071 42.2435605,31.8338543 C40.9175166,32.0635296 39.8875796,32.1935345 39.1580409,32.2238689 C38.4242108,32.2607036 37.8384341,32.1783672 37.3985652,31.9790264 C36.9586962,31.7796856 36.6261124,31.4308392 36.4051051,30.9346539 C36.0768127,30.1957928 36.1111439,29.5024334 36.5145359,28.8545758 C36.9157822,28.2045514 37.6195725,27.6520307 38.6237611,27.1926801 C39.5356845,26.7788312 40.3918196,26.6271589 41.1900208,26.7419965 C41.9860763,26.8546674 42.5632701,27.1861798 42.917311,27.7343671 C43.2112722,27.9987103 43.5588759,28.0420453 43.9622679,27.8578717 L46.5628588,26.6726606 C46.7259322,26.5989911 46.8375087,26.4776532 46.893297,26.3064801 C46.9490852,26.1396406 46.9447938,25.9793012 46.8782771,25.8297956 C46.4877593,25.0562666 45.826883,24.3975752 44.8935026,23.8580549 C43.9601222,23.3185347 42.8229001,23.0325239 41.4796906,23.0021895 C40.1364811,22.9696882 38.7074435,23.2990339 37.1904321,23.9902265 C35.7485203,24.6445844 34.5919868,25.4571149 33.7186861,26.4321515 C32.847531,27.4071881 32.3068141,28.4450604 32.0965353,29.5501019 C31.8862565,30.6573101 32.01929,31.7450176 32.4977816,32.8132244 C33.2058633,34.3971172 34.2508202,35.387321 35.634798,35.7773356" id="Fill-9" fill="#42526E"></path>
                    <path d="M59.4317394,36.9234096 C59.6058346,37.0105857 59.7841249,37.0233431 59.9708053,36.961682 L72.4825878,32.7432129 C72.6860485,32.6751731 72.8349733,32.5561034 72.9230696,32.3902564 C73.0132636,32.2265355 73.0237512,32.039426 72.9566302,31.8289278 L72.3273704,29.908929 C72.2581518,29.7026833 72.14069,29.5602249 71.9707898,29.4794276 C71.7987921,29.4028828 71.6121117,29.3986303 71.4065535,29.4666702 L62.0452651,32.6241432 L60.367239,27.508399 L68.8937094,24.6400951 C69.0992676,24.5678028 69.2460948,24.4529856 69.3362887,24.2850123 C69.4264827,24.1191652 69.4369703,23.9320557 69.3677517,23.72581 L68.7846377,21.9461434 C68.7175166,21.7377714 68.5958597,21.5889343 68.423862,21.5017583 C68.2518643,21.4145822 68.0609889,21.403951 67.8575282,21.4719908 L59.3289603,24.3487996 L57.7096651,19.4052812 L66.848615,16.3243529 C67.0520757,16.2541868 67.2010005,16.1372434 67.2911944,15.9713963 C67.3792908,15.803423 67.3918759,15.6163135 67.3226574,15.4100678 L66.7017877,13.5177101 C66.6346666,13.3114644 66.5130098,13.1626273 66.3410121,13.073325 C66.1669169,12.986149 65.9781389,12.9755178 65.7725807,13.0478101 L53.4852342,17.1876082 C53.279676,17.2577742 53.1391413,17.3789702 53.0615326,17.5490697 C52.9839239,17.7234218 52.9797288,17.9126575 53.0489474,18.1189032 L59.0793539,36.508792 C59.1401824,36.6980277 59.2576442,36.8341074 59.4317394,36.9234096" id="Fill-11" fill="#42526E"></path>
                    <path d="M80.9774667,29.8932069 C81.1492589,29.9954397 81.3319241,30.0252576 81.5298114,29.9784009 L94.4098797,26.9561431 C94.6251636,26.9071565 94.7882575,26.7964043 94.8926376,26.6281461 C94.9970177,26.4620178 95.0252873,26.2809805 94.9774464,26.0871641 L94.4685935,23.9999106 C94.4207526,23.808224 94.3120234,23.6591345 94.1402311,23.5547718 C93.9706135,23.4546689 93.7749008,23.4269808 93.5574423,23.4759674 L84.174107,25.6782328 L80.2294094,9.5573944 C80.1772193,9.34440935 80.0706647,9.18893027 79.9140945,9.09095714 C79.7531752,8.99724372 79.5661609,8.97594522 79.3465278,9.02706163 L76.5652333,9.68092573 C76.367346,9.72565259 76.2151251,9.82788541 76.1085704,9.98549435 C75.9998411,10.1452331 75.9737461,10.3284003 76.0259361,10.5435152 L80.6491043,29.4480681 C80.6969452,29.6418845 80.8056745,29.7909741 80.9774667,29.8932069" id="Fill-13" fill="#42526E"></path>
                    <path d="M106.470205,8.21256986 L111.295572,16.644377 L104.510985,17.6621536 L106.470205,8.21256986 Z M99.7290122,25.9911338 L102.402057,25.5903187 C102.818635,25.5273634 103.081167,25.3007245 103.183141,24.9083034 L103.998941,21.1897464 L112.885947,19.8571935 L114.829979,23.1623444 C115.049117,23.5044012 115.36806,23.6450013 115.788978,23.5820461 L118.459853,23.1833294 C118.618239,23.1581473 118.754929,23.078404 118.865583,22.9440995 C118.978406,22.8076964 119.01963,22.6545053 118.991424,22.4803291 L118.889449,22.2264096 L108.685448,4.58005166 C108.407729,4.12887233 108.006338,3.93790806 107.487785,4.01765138 L104.187703,4.51080088 C103.66481,4.58634718 103.343698,4.88433539 103.222196,5.39637146 L99.0173574,25.2062916 L99,25.4769992 C99.0282058,25.6511754 99.1106536,25.78548 99.2495131,25.8841099 C99.3883726,25.9827398 99.5489288,26.0184144 99.7290122,25.9911338 Z" id="Fill-15" fill="#42526E"></path>
                    <path d="M125.567269,21.8239632 C125.717576,21.9557138 125.891503,22.010964 126.091197,21.998214 L128.672184,21.8239632 C128.891203,21.8112131 129.060835,21.7304627 129.181081,21.5838371 C129.301326,21.4350864 129.355007,21.2629606 129.342124,21.0674597 L128.470343,8.30040089 L133.172807,15.8569357 C133.464832,16.2776876 133.819127,16.4689385 134.239987,16.4434384 L135.498272,16.358438 C135.938457,16.3286879 136.254102,16.0906868 136.443059,15.6380597 L140.078343,7.52477232 L140.947977,20.2875811 C140.963008,20.485207 141.044603,20.6509578 141.192763,20.7805834 C141.34307,20.9080839 141.516997,20.9675842 141.71669,20.9527092 L144.297678,20.7805834 C144.516696,20.7635833 144.69277,20.6913329 144.823752,20.5489573 C144.954734,20.4129567 145.01271,20.2365809 144.997679,20.0177048 L143.679271,0.694990867 C143.662093,0.476114859 143.580498,0.303989066 143.430191,0.174363469 C143.282031,0.0468628821 143.097368,-0.0126373919 142.878349,0.00223767664 L140.477731,0.16373842 C140.099816,0.189238538 139.812085,0.397489497 139.616686,0.788491297 L134.555632,11.800292 L128.038747,1.56199486 C127.793961,1.2007432 127.480463,1.03286742 127.102548,1.05836754 L124.671868,1.22199329 C124.450702,1.23686836 124.28107,1.31761873 124.160824,1.46424441 C124.040579,1.60874507 123.989045,1.79362093 124.001928,2.01037192 L125.322483,21.3352109 C125.337514,21.5328368 125.416962,21.6943376 125.567269,21.8239632" id="Fill-17" fill="#42526E"></path>
                    <path d="M161.373421,4.07061862 L164.555105,13.2764024 L157.76694,13.1196902 L161.373421,4.07061862 Z M151.61597,20.574109 L154.289186,20.6355233 C154.709692,20.6439942 155.003617,20.4639869 155.173106,20.091266 L156.636295,16.5377106 L165.524843,16.7367775 L166.822833,20.3559826 C166.975159,20.7350567 167.260502,20.9277704 167.681008,20.938359 L170.354223,20.9997733 C170.515131,21.0040088 170.661021,20.9489477 170.794038,20.8303547 C170.927055,20.7138794 170.993564,20.5698736 171,20.391984 L170.944219,20.1209142 L164.183944,0.843194092 C163.993,0.341291458 163.639003,0.0871635421 163.119807,0.0765748789 L159.815833,0.000336504126 C159.296637,-0.010252159 158.929768,0.229051628 158.717369,0.718247867 L151.066738,19.6719549 L151.00023,19.9366715 C150.995939,20.1145611 151.05172,20.2649201 151.169719,20.3877486 C151.287718,20.5084593 151.435754,20.5698736 151.61597,20.574109 Z" id="Fill-19" fill="#42526E"></path>
                    <path d="M174.663595,3.80099904 L180.218489,4.24717377 L178.901837,20.9841674 C178.884626,21.1865784 178.940562,21.3628718 179.069646,21.5174006 C179.198729,21.669753 179.364387,21.754635 179.564466,21.7698702 L182.384941,21.9962223 C182.606534,22.0158104 182.787251,21.9592224 182.929243,21.8264582 C183.069083,21.698047 183.148685,21.5304594 183.163745,21.325872 L184.480397,4.58887832 L190.007322,5.03287659 C190.226764,5.05246475 190.411784,4.99587673 190.564533,4.86528901 C190.71513,4.73687774 190.799035,4.56276077 190.816246,4.33858518 L190.996963,2.05982935 C191.014174,1.83783021 190.958238,1.64847801 190.829154,1.49612566 C190.700071,1.34377331 190.525808,1.25889129 190.306366,1.23930313 L174.962639,0.00307265239 C174.743197,-0.0143390445 174.56248,0.0422489704 174.420488,0.172836697 C174.278496,0.305600886 174.198895,0.481894317 174.181683,0.703893452 L174.003118,2.98264928 C173.985907,3.20682488 174.039692,3.39400062 174.170926,3.54635297 C174.297859,3.69870532 174.463516,3.78358734 174.663595,3.80099904" id="Fill-21" fill="#42526E"></path>
                    <path d="M207.594856,25.9438546 L210.349637,26.4767206 C210.569758,26.5180449 210.763726,26.4832455 210.931541,26.3701474 C211.097177,26.2592243 211.19961,26.1004519 211.238839,25.9025303 L212.786224,17.9225899 L221.534399,19.6081864 L219.987014,27.5924768 C219.945605,27.7925734 219.984834,27.9752703 220.098164,28.1405675 C220.209314,28.3058647 220.366232,28.408088 220.566738,28.4472374 L223.352032,28.9822783 C223.572153,29.0257776 223.759583,28.9888032 223.9165,28.8757051 C224.073418,28.7604321 224.171492,28.6060097 224.210722,28.4059131 L227.981111,8.94216632 C228.024699,8.72249503 227.992008,8.52892329 227.891755,8.36580105 C227.787143,8.2026788 227.625866,8.09828056 227.405745,8.05478129 L224.620452,7.51756535 C224.419945,7.48059098 224.236875,7.51539039 224.071239,7.62848848 C223.903424,7.74158657 223.798812,7.90905875 223.757403,8.12655508 L222.266683,15.8107005 L213.520687,14.120754 L215.009228,6.43878355 C215.050637,6.21911225 215.015767,6.02771548 214.904616,5.8602433 C214.791287,5.69712105 214.625651,5.59272282 214.40553,5.54922355 L211.648569,5.01635754 C211.428448,4.97503323 211.241018,5.01200761 211.084101,5.12728067 C210.927183,5.24037876 210.82693,5.40785093 210.785521,5.62534727 L207.015131,25.086919 C206.975902,25.2870157 207.012952,25.4697126 207.126282,25.6350098 C207.237432,25.8046569 207.39435,25.9047052 207.594856,25.9438546" id="Fill-23" fill="#42526E"></path>
                    <path d="M243.974449,16.3733667 L244.655808,26.061 L238.223102,24.2025474 L243.974449,16.3733667 Z M230.453071,29.8434478 L232.985949,30.5771032 C233.385877,30.6912743 233.711744,30.5919031 233.967783,30.2726468 L236.27213,27.2132829 L244.696012,29.6447055 L245.009183,33.4652103 C245.057852,33.8690379 245.280034,34.1269801 245.677846,34.2432656 L248.210724,34.9769209 C248.363078,35.0192065 248.515431,35.0044065 248.672017,34.9240639 C248.828602,34.8458355 248.932287,34.7232072 248.980956,34.5519505 L249,34.2792083 L247.476464,13.963087 C247.423564,13.4366311 247.152713,13.1004605 246.65968,12.9588037 L243.527968,12.0538917 C243.034935,11.9122349 242.624427,12.0496631 242.29856,12.4682906 L230.158944,28.834936 L230.02775,29.0738497 C229.979082,29.2451064 229.993894,29.4015632 230.076419,29.5495628 C230.156828,29.6954482 230.281673,29.7948194 230.453071,29.8434478 Z" id="Fill-25" fill="#42526E"></path>
                    <path d="M265.320739,22.4240388 L269.217849,23.9527218 C270.336544,24.3925089 271.075874,24.9718439 271.429373,25.6970697 C271.787183,26.4201812 271.77425,27.2490107 271.39273,28.1835583 C271.01121,29.1159915 270.442163,29.7164701 269.683433,29.9828795 C268.924704,30.249289 267.984914,30.1626002 266.864064,29.7228131 L262.969109,28.1941301 L265.320739,22.4240388 Z M255.457257,37.3006831 L258.037368,38.3134621 C258.242139,38.3916935 258.436132,38.3959222 258.619348,38.3176908 C258.802564,38.2394595 258.931893,38.1104834 259.005179,37.926534 L261.693064,31.3297275 L265.531976,32.8351526 L266.4653,40.7555491 C266.506254,41.0261873 266.581696,41.2651101 266.695936,41.4680888 C266.805866,41.6710674 267.012792,41.8317589 267.312404,41.9480487 L269.89036,42.9587133 C270.039088,43.0158011 270.196438,43.0136867 270.36241,42.9523702 C270.530537,42.8931681 270.646933,42.7768783 270.713753,42.6140725 C270.752552,42.5210406 270.763329,42.4089795 270.752552,42.2778891 L269.543327,33.6724396 C270.886192,33.7337561 272.067396,33.4356311 273.091249,32.7844079 C274.115103,32.1352991 274.897542,31.139435 275.445035,29.8010445 C276.227474,27.8790903 276.182209,26.1410855 275.311395,24.5870301 C274.436269,23.0329748 272.851991,21.8066454 270.554248,20.9059275 L263.296742,18.0599976 C263.089816,17.9796518 262.900134,17.9796518 262.727695,18.0621119 C262.553101,18.1424577 262.425928,18.2841198 262.34402,18.4849841 L255.054182,36.3809361 C254.980896,36.5627711 254.980896,36.7424918 255.060649,36.9222125 C255.138246,37.0998188 255.271886,37.2287949 255.457257,37.3006831 Z" id="Fill-27" fill="#42526E"></path>
                    <path d="M279.77727,47.9133162 C279.961599,48.0108095 280.13591,48.0256454 280.304211,47.9599434 C280.472511,47.8963609 280.596733,47.775554 280.682887,47.5975228 L288.913575,30.3200202 C289.00574,30.1250337 289.023772,29.9427636 288.969676,29.7668519 C288.917583,29.5951789 288.797368,29.4616556 288.615043,29.3641623 L286.208748,28.0840333 C286.042451,27.9950177 285.872148,27.9780623 285.701844,28.026809 C285.529536,28.0819139 285.3973,28.2006013 285.305136,28.3977073 L277.074447,45.6730905 C276.990297,45.8490023 276.978275,46.0312723 277.034375,46.2177811 C277.092479,46.40429 277.204679,46.5420522 277.37298,46.6310678 L279.77727,47.9133162 Z" id="Fill-29" fill="#42526E"></path>
                    <path d="M142.480668,195.450303 L136.584224,195.450303 L139.480085,192.481417 C140.576452,191.610631 141.386439,190.791703 141.90577,190.026793 C142.429376,189.261884 142.690111,188.408384 142.690111,187.468453 C142.690111,186.610631 142.493491,185.845722 142.104527,185.171564 C141.7177,184.497407 141.132116,183.968021 140.354187,183.581245 C139.578395,183.194468 138.63163,183 137.52244,183 C136.451719,183 135.522052,183.222558 134.729163,183.665514 C133.938411,184.106309 133.331455,184.691876 132.908296,185.411409 C132.483,186.135264 132.258597,186.913137 132.228677,187.740709 C132.228677,187.866033 132.27142,187.97191 132.35477,188.05618 C132.438119,188.140449 132.54284,188.183665 132.666796,188.183665 L134.541092,188.183665 C134.682145,188.183665 134.808238,188.144771 134.927919,188.066984 C135.045463,187.991357 135.126676,187.866033 135.167282,187.697494 C135.263454,187.038462 135.511366,186.500432 135.906742,186.087727 C136.302118,185.675022 136.847095,185.465428 137.541675,185.465428 C138.251214,185.465428 138.779095,185.655575 139.127453,186.035869 C139.473674,186.414002 139.646785,186.934745 139.646785,187.593777 C139.646785,188.002161 139.51428,188.414866 139.249271,188.836214 C138.9864,189.257563 138.588887,189.717805 138.052458,190.21478 C137.518166,190.716076 136.757334,191.355661 135.769963,192.144339 L132.521469,195.407087 C132.175248,195.675022 132,196.005618 132,196.396716 L132,197.492221 C132,197.634831 132.049155,197.753673 132.145327,197.850908 C132.243637,197.950303 132.361181,198 132.500097,198 L142.480668,198 C142.632407,198 142.7585,197.952463 142.854673,197.861711 C142.952982,197.770959 143,197.649957 143,197.492221 L143,195.977528 C143,195.824114 142.952982,195.696629 142.854673,195.597234 C142.7585,195.5 142.632407,195.450303 142.480668,195.450303" id="Fill-31" fill="#42526E"></path>
                    <path d="M155.486561,184 L153.56226,184 C153.362589,184 153.182666,184.047186 153.026879,184.139508 L148.234778,187.621043 C148.078991,187.725674 148,187.861079 148,188.021102 C148,188.113423 148.035107,188.207796 148.107515,188.300117 L149.029073,189.420281 C149.127811,189.553634 149.261657,189.619285 149.432803,189.619285 C149.56226,189.619285 149.669775,189.588511 149.755348,189.518757 L152.982995,187.200469 L152.982995,197.51993 C152.982995,197.653283 153.035656,197.768171 153.134394,197.860492 C153.235326,197.954865 153.353812,198 153.498629,198 L155.486561,198 C155.629183,198 155.749863,197.954865 155.850795,197.860492 C155.951728,197.768171 156,197.653283 156,197.51993 L156,184.48007 C156,184.346717 155.951728,184.23388 155.850795,184.139508 C155.749863,184.047186 155.629183,184 155.486561,184" id="Fill-33" fill="#42526E"></path>
                    <path d="M171.624981,192.87925 L174.001078,186.720399 L176.375019,192.87925 L171.624981,192.87925 Z M175.913599,184.500586 C175.773448,184.166178 175.521177,184 175.156784,184 L172.843216,184 C172.478823,184 172.226552,184.166178 172.088557,184.500586 L167.043123,197.400938 L167,197.579426 C167,197.700469 167.043123,197.798945 167.127214,197.881008 C167.211304,197.96102 167.316957,198 167.444171,198 L169.313568,198 C169.606807,198 169.809487,197.874853 169.923764,197.620457 L170.889727,195.19959 L177.112429,195.19959 L178.078392,197.620457 C178.190513,197.874853 178.395349,198 178.686432,198 L180.560142,198 C180.670106,198 180.771446,197.96102 180.864161,197.881008 C180.95472,197.798945 181,197.700469 181,197.579426 L180.956877,197.400938 L175.913599,184.500586 Z" id="Fill-35" fill="#42526E"></path>
                    <g id="Group-39" transform="translate(186.000000, 187.000000)">
                        <mask id="mask-2" fill="white">
                            <use xlink:href="#path-1"></use>
                        </mask>
                        <g id="Clip-38"></g>
                        <path d="M7.06187879,6.36274219 C6.97127273,8.17047656 6.24248485,9.07750781 4.87354545,9.07750781 C4.16839394,9.07750781 3.63066667,8.83703906 3.25839394,8.35610156 C2.88809091,7.87727344 2.68915152,7.29508594 2.66551515,6.60953906 C2.65172727,6.43024219 2.64581818,6.16446094 2.64581818,5.80586719 C2.64581818,5.44938281 2.65172727,5.18992969 2.66551515,5.02539844 C2.68915152,4.29766406 2.88218182,3.68172656 3.24066667,3.17547656 C3.59718182,2.66922656 4.14278788,2.41399219 4.87354545,2.41399219 C6.24248485,2.41399219 6.97127273,3.32102344 7.06187879,5.12875781 C7.07369697,5.26586719 7.08157576,5.47047656 7.08157576,5.74680469 C7.08157576,6.02102344 7.07369697,6.22774219 7.06187879,6.36274219 M8.57854545,1.49852344 C7.88718182,0.629460937 6.89445455,0.192820312 5.60233333,0.192820312 C4.24521212,0.192820312 3.22884848,0.701179687 2.54930303,1.71578906 L2.54930303,0.893132812 C2.54930303,0.756023437 2.504,0.640007812 2.41536364,0.542976562 C2.32475758,0.445945312 2.20854545,0.399539062 2.06869697,0.399539062 L0.53430303,0.399539062 C0.40430303,0.399539062 0.294,0.443835937 0.207333333,0.532429687 C0.116727273,0.621023437 0.0714242424,0.741257812 0.0714242424,0.893132812 L0.0714242424,14.5049297 C0.0714242424,14.6568047 0.116727273,14.7749297 0.207333333,14.8656328 C0.294,14.9542266 0.40430303,15.0006328 0.53430303,15.0006328 L2.20263636,15.0006328 C2.34248485,15.0006328 2.45475758,14.9542266 2.53945455,14.8656328 C2.62218182,14.7749297 2.66551515,14.6568047 2.66551515,14.5049297 L2.66551515,9.83688281 C3.34112121,10.8114141 4.3220303,11.2986797 5.60233333,11.2986797 C6.89445455,11.2986797 7.89112121,10.8557109 8.58642424,9.97188281 C9.28566667,9.08805469 9.6520303,7.92578906 9.69142424,6.48719531 C9.70521212,6.32055469 9.71112121,6.07375781 9.71112121,5.74680469 C9.71112121,5.41774219 9.70521212,5.17094531 9.69142424,5.00430469 C9.64218182,3.53828906 9.26990909,2.36969531 8.57854545,1.49852344" id="Fill-37" fill="#42526E" mask="url(#mask-2)"></path>
                    </g>
                    <path d="M207.509326,188 L206.645909,188 C205.359206,188 204.375752,188.424147 203.691336,189.270468 L203.691336,188.481357 C203.691336,188.339317 203.640794,188.224896 203.546029,188.134149 C203.449158,188.043401 203.327016,188 203.175391,188 L201.494886,188 C201.355897,188 201.237966,188.043401 201.145307,188.134149 C201.048436,188.224896 201,188.339317 201,188.481357 L201,197.53837 C201,197.666601 201.048436,197.777076 201.145307,197.865851 C201.237966,197.956599 201.355897,198 201.494886,198 L203.320698,198 C203.457581,198 203.573406,197.956599 203.670277,197.865851 C203.765042,197.777076 203.813478,197.666601 203.813478,197.53837 L203.813478,192.269087 C203.813478,191.665417 203.998797,191.191951 204.367329,190.844743 C204.737966,190.50148 205.243381,190.327875 205.88568,190.327875 L207.509326,190.327875 C207.658845,190.327875 207.778881,190.282501 207.867329,190.191754 C207.955776,190.102979 208,189.994476 208,189.864273 L208,188.46163 C208,188.31959 207.955776,188.207141 207.867329,188.124285 C207.778881,188.041428 207.658845,188 207.509326,188" id="Fill-40" fill="#42526E"></path>
                    <path d="M215.467636,183 L213.512727,183 C213.368727,183 213.248727,183.055509 213.150545,183.171573 C213.050182,183.285114 213,183.433978 213,183.61312 L213,185.409588 C213,185.576114 213.050182,185.712363 213.150545,185.828427 C213.248727,185.941968 213.368727,186 213.512727,186 L215.467636,186 C215.609455,186 215.733818,185.941968 215.840727,185.828427 C215.947636,185.712363 216,185.576114 216,185.409588 L216,183.61312 C216,183.433978 215.949818,183.285114 215.851636,183.171573 C215.751273,183.055509 215.622545,183 215.467636,183" id="Fill-42" fill="#2C3E50"></path>
                    <path d="M215.458333,188 L213.541667,188 C213.388889,188 213.261574,188.041428 213.157407,188.124285 C213.050926,188.207141 213,188.31959 213,188.46163 L213,197.53837 C213,197.666601 213.050926,197.777076 213.157407,197.865851 C213.261574,197.956599 213.388889,198 213.541667,198 L215.458333,198 C215.608796,198 215.736111,197.956599 215.842593,197.865851 C215.946759,197.777076 216,197.666601 216,197.53837 L216,188.46163 C216,188.333399 215.946759,188.224896 215.842593,188.134149 C215.736111,188.043401 215.608796,188 215.458333,188" id="Fill-44" fill="#42526E"></path>
                    <path d="M223.454545,183 L221.547786,183 C221.393939,183 221.265734,183.045507 221.160839,183.136521 C221.053613,183.229702 221,183.353222 221,183.507079 L221,197.490754 C221,197.633776 221.053613,197.755129 221.160839,197.852644 C221.265734,197.950159 221.393939,198 221.547786,198 L223.454545,198 C223.620047,198 223.755245,197.950159 223.853147,197.852644 C223.951049,197.755129 224,197.633776 224,197.490754 L224,183.507079 C224,183.353222 223.951049,183.229702 223.853147,183.136521 C223.755245,183.045507 223.620047,183 223.454545,183" id="Fill-46" fill="#42526E"></path>
                    <path d="M246.480668,195.450303 L240.584224,195.450303 L243.480085,192.481417 C244.576452,191.610631 245.386439,190.791703 245.90577,190.026793 C246.429376,189.261884 246.690111,188.408384 246.690111,187.468453 C246.690111,186.610631 246.493491,185.845722 246.104527,185.171564 C245.7177,184.497407 245.132116,183.968021 244.354187,183.581245 C243.578395,183.194468 242.63163,183 241.52244,183 C240.451719,183 239.522052,183.222558 238.729163,183.665514 C237.938411,184.106309 237.331455,184.691876 236.908296,185.411409 C236.483,186.135264 236.258597,186.913137 236.228677,187.740709 C236.228677,187.866033 236.27142,187.97191 236.35477,188.05618 C236.438119,188.140449 236.54284,188.183665 236.666796,188.183665 L238.541092,188.183665 C238.682145,188.183665 238.808238,188.144771 238.927919,188.066984 C239.045463,187.991357 239.126676,187.866033 239.167282,187.697494 C239.263454,187.038462 239.511366,186.500432 239.906742,186.087727 C240.302118,185.675022 240.847095,185.465428 241.541675,185.465428 C242.251214,185.465428 242.779095,185.655575 243.127453,186.035869 C243.473674,186.414002 243.646785,186.934745 243.646785,187.593777 C243.646785,188.002161 243.51428,188.414866 243.249271,188.836214 C242.9864,189.257563 242.588887,189.717805 242.052458,190.21478 C241.518166,190.716076 240.757334,191.355661 239.769963,192.144339 L236.521469,195.407087 C236.175248,195.675022 236,196.005618 236,196.396716 L236,197.492221 C236,197.634831 236.049155,197.753673 236.145327,197.850908 C236.243637,197.950303 236.361181,198 236.500097,198 L246.480668,198 C246.632407,198 246.7585,197.952463 246.854673,197.861711 C246.952982,197.770959 247,197.649957 247,197.492221 L247,195.977528 C247,195.824114 246.952982,195.696629 246.854673,195.597234 C246.7585,195.5 246.632407,195.450303 246.480668,195.450303" id="Fill-48" fill="#42526E"></path>
                    <path d="M260.033126,192.313292 C260.004141,193.354039 259.784679,194.155435 259.36646,194.719618 C258.950311,195.281664 258.325052,195.563756 257.488613,195.563756 C256.654244,195.563756 256.028986,195.281664 255.612836,194.719618 C255.194617,194.155435 254.973085,193.354039 254.94617,192.313292 C254.933747,191.911526 254.925466,191.289642 254.925466,190.458327 C254.925466,189.624875 254.933747,189.020088 254.94617,188.646103 C254.973085,187.633139 255.194617,186.840291 255.612836,186.271834 C256.028986,185.701239 256.654244,185.4106 257.488613,185.39564 C258.325052,185.4106 258.950311,185.701239 259.36646,186.271834 C259.784679,186.840291 260.004141,187.633139 260.033126,188.646103 C260.045549,189.020088 260.05383,189.624875 260.05383,190.458327 C260.05383,191.289642 260.045549,191.911526 260.033126,192.313292 M261.507246,184.540818 C260.604555,183.515031 259.267081,183 257.488613,183 C255.714286,183 254.374741,183.515031 253.47205,184.540818 C252.571429,185.570879 252.086957,186.904402 252.020704,188.541388 C252.006211,188.930332 252,189.584271 252,190.498931 C252,191.402906 252.006211,192.041886 252.020704,192.415871 C252.101449,194.082775 252.581781,195.431258 253.461698,196.457045 C254.343685,197.487106 255.6853,198 257.488613,198 C259.293996,198 260.635611,197.487106 261.517598,196.457045 C262.397516,195.431258 262.877847,194.082775 262.958592,192.415871 C262.987578,191.665764 263,191.026784 263,190.498931 C263,189.971079 262.987578,189.321413 262.958592,188.541388 C262.89234,186.904402 262.405797,185.570879 261.507246,184.540818" id="Fill-50" fill="#42526E"></path>
                    <path d="M275.486561,184 L273.56226,184 C273.362589,184 273.182666,184.047186 273.026879,184.139508 L268.234778,187.621043 C268.078991,187.725674 268,187.861079 268,188.021102 C268,188.113423 268.035107,188.207796 268.107515,188.300117 L269.029073,189.420281 C269.127811,189.553634 269.261657,189.619285 269.432803,189.619285 C269.56226,189.619285 269.669775,189.588511 269.755348,189.518757 L272.982995,187.200469 L272.982995,197.51993 C272.982995,197.653283 273.035656,197.768171 273.134394,197.860492 C273.235326,197.954865 273.353812,198 273.498629,198 L275.486561,198 C275.629183,198 275.749863,197.954865 275.850795,197.860492 C275.951728,197.768171 276,197.653283 276,197.51993 L276,184.48007 C276,184.346717 275.951728,184.23388 275.850795,184.139508 C275.749863,184.047186 275.629183,184 275.486561,184" id="Fill-52" fill="#42526E"></path>
                    <path d="M288.338865,190.068766 C287.841033,190.554175 287.220818,190.79688 286.480294,190.79688 C285.737696,190.79688 285.119555,190.554175 284.630021,190.068766 C284.138412,189.58119 283.889497,188.93759 283.889497,188.133632 C283.889497,187.316671 284.140487,186.66657 284.640392,186.181162 C285.138224,185.693586 285.752216,185.450881 286.480294,185.450881 C287.220818,185.450881 287.841033,185.693586 288.338865,186.181162 C288.838771,186.66657 289.087686,187.316671 289.087686,188.133632 C289.087686,188.93759 288.838771,189.58119 288.338865,190.068766 M289.471431,183.689107 C288.637564,183.231869 287.631529,183 286.459551,183 C285.300019,183 284.308505,183.244871 283.487083,183.73028 C282.665661,184.215689 282.043372,184.850621 281.626438,185.630743 C281.20743,186.413031 281,187.247327 281,188.133632 C281,189.035105 281.213653,189.8564 281.645107,190.595348 C282.07656,191.334296 282.661512,191.925888 283.395814,192.370124 C284.130115,192.81436 284.941165,193.050563 285.833113,193.078734 C286.16915,193.078734 286.453328,193.050563 286.681501,192.994221 L283.709033,197.261052 C283.640581,197.358567 283.607392,197.449581 283.607392,197.534094 C283.607392,197.661947 283.646804,197.772465 283.727701,197.863479 C283.808599,197.954493 283.910239,198 284.032623,198 L285.972091,198 C286.135961,198 286.262493,197.965328 286.357911,197.893817 C286.453328,197.824473 286.552895,197.71829 286.660758,197.577434 L290.19951,192.445969 C290.603998,191.85221 290.917217,191.371136 291.141241,190.998411 C291.363191,190.625686 291.562323,190.183617 291.736564,189.676539 C291.91288,189.16946 292,188.627709 292,188.049119 C292,187.134643 291.786347,186.293846 291.363191,185.524559 C290.93796,184.759607 290.307373,184.146345 289.471431,183.689107" id="Fill-54" fill="#42526E"></path>
                    <path d="M299.001057,44 C297.344135,44 296,45.3420218 296,46.9989433 C296,48.6558647 297.344135,50 299.001057,50 C300.657978,50 302,48.6558647 302,46.9989433 C302,45.3420218 300.657978,44 299.001057,44" id="Fill-56" fill="#42526E"></path>
                    <path d="M20.9989433,47 C22.6558647,47 24,45.6558647 24,44.0010567 C24,42.3441353 22.6558647,41 20.9989433,41 C19.3420218,41 18,42.3441353 18,44.0010567 C18,45.6558647 19.3420218,47 20.9989433,47" id="Fill-58" fill="#42526E"></path>
                </g>
            </g>
        </g>
    </g>
</svg>