<?xml version="1.0" encoding="UTF-8"?>
<svg width="32px" height="29px" viewBox="0 0 32 29" version="1.1" xmlns="http://www.w3.org/2000/svg" xmlns:xlink="http://www.w3.org/1999/xlink">
    <!-- Generator: sketchtool 52.6 (67491) - http://www.bohemiancoding.com/sketch -->
    <title>F4D31011-A5A9-408E-B1DF-3D69A65B7E7A</title>
    <desc>Created with sketchtool.</desc>
    <g id="Page-1" stroke="none" stroke-width="1" fill="none" fill-rule="evenodd">
        <g id="hari-satu-juta-pohon" transform="translate(-872.000000, -3307.000000)" fill="#2C3E50" fill-rule="nonzero" stroke="#2C3E50">
            <g id="Stacked-Group-4" transform="translate(0.000000, 805.000000)">
                <g id="Group-21" transform="translate(179.000000, 2456.000000)">
                    <g id="Stacked-Group-8-Copy-3" transform="translate(694.000000, 47.000000)">
                        <g id="pengaduan">
                            <path d="M27.3684211,0 C25.9173684,0 24.7368421,1.18052632 24.7368421,2.63157895 L24.7368421,3.82526316 L4.19157895,10.3394737 C4.09526316,9.26684211 3.20210526,8.42105263 2.10526316,8.42105263 C0.944210526,8.42105263 0,9.36526316 0,10.5263158 L0,16.3157895 C0,17.4768421 0.944210526,18.4210526 2.10526316,18.4210526 C3.20210526,18.4210526 4.09526316,17.5752632 4.19157895,16.5026316 L5.96421053,17.0647368 C5.69789474,17.3042105 5.48368421,17.6068421 5.36526316,17.9710526 C5.19263158,18.5047368 5.23842105,19.0747368 5.49473684,19.5768421 C5.75052632,20.0789474 6.18578947,20.4505263 6.71894737,20.6226316 L14.2294737,23.0557895 C14.4415789,23.1247368 14.66,23.1584211 14.8768421,23.1584211 C15.2057895,23.1584211 15.5326316,23.0805263 15.8342105,22.9263158 C16.3363158,22.6705263 16.7078947,22.2352632 16.8805263,21.7021053 C17.0042105,21.3194737 17.0115789,20.9184211 16.9136842,20.5368421 L24.7368421,23.0168421 L24.7368421,24.2105263 C24.7368421,25.6615789 25.9173684,26.8421053 27.3684211,26.8421053 C28.8194737,26.8421053 30,25.6615789 30,24.2105263 L30,2.63157895 C30,1.18052632 28.8194737,0 27.3684211,0 Z M15.88,21.3768421 C15.7936842,21.6431579 15.6073684,21.8605263 15.3563158,21.9884211 C15.1052632,22.1168421 14.82,22.1394737 14.5547368,22.0542105 L7.04368421,19.6210526 C6.77789474,19.5347368 6.56052632,19.3489474 6.43263158,19.0973684 C6.30421053,18.8457895 6.28052632,18.5610526 6.36684211,18.2957895 C6.51105263,17.8505263 6.92526316,17.5673684 7.36947368,17.5673684 C7.47631579,17.5673684 7.58526316,17.5836842 7.69210526,17.6184211 L15.2031579,20.0515789 C15.7552632,20.2305263 16.0589474,20.8247368 15.88,21.3768421 Z M3.15789474,16.3157895 C3.15789474,16.8963158 2.68578947,17.3684211 2.10526316,17.3684211 C1.52473684,17.3684211 1.05263158,16.8963158 1.05263158,16.3157895 L1.05263158,10.5263158 C1.05263158,9.94578947 1.52473684,9.47368421 2.10526316,9.47368421 C2.68578947,9.47368421 3.15789474,9.94578947 3.15789474,10.5263158 L3.15789474,10.6673684 L3.15789474,16.1752632 L3.15789474,16.3157895 Z M4.21052632,15.4042105 L4.21052632,11.4384211 L24.7368421,4.93 L24.7368421,21.9131579 L4.21052632,15.4042105 Z M28.9473684,24.2105263 C28.9473684,25.0810526 28.2389474,25.7894737 27.3684211,25.7894737 C26.4978947,25.7894737 25.7894737,25.0810526 25.7894737,24.2105263 L25.7894737,23.3505263 L25.7894737,3.49157895 L25.7894737,2.63157895 C25.7894737,1.76105263 26.4978947,1.05263158 27.3684211,1.05263158 C28.2389474,1.05263158 28.9473684,1.76105263 28.9473684,2.63157895 L28.9473684,24.2105263 Z" id="Shape"></path>
                        </g>
                    </g>
                </g>
            </g>
        </g>
    </g>
</svg>