<?xml version="1.0" encoding="UTF-8"?>
<svg width="12px" height="17px" viewBox="0 0 12 17" version="1.1" xmlns="http://www.w3.org/2000/svg" xmlns:xlink="http://www.w3.org/1999/xlink">
    <!-- Generator: Sketch 50.2 (55047) - http://www.bohemiancoding.com/sketch -->
    <title>icon-marker@2x</title>
    <desc>Created with Sketch.</desc>
    <defs></defs>
    <g id="-" stroke="none" stroke-width="1" fill="none" fill-rule="evenodd">
        <g id="Hari-Olahraga-Nsional" transform="translate(-269.000000, -2726.000000)" fill="#606060">
            <g id="Group-25" transform="translate(135.000000, 2613.000000)">
                <g id="Group-12">
                    <g id="Group-11" transform="translate(132.000000, 81.000000)">
                        <g id="location-pin" transform="translate(2.000000, 32.000000)">
                            <g id="Shape">
                                <path d="M6.01042388,0 C2.71518806,0 0.034280597,2.58596951 0.034280597,5.76455488 C0.034280597,7.04186992 0.813886567,8.98443089 2.48776119,11.8778516 C3.62998209,13.8521321 4.76693731,15.5197215 4.81490149,15.5899675 L5.63666866,16.7914736 C5.71952239,16.9126504 5.85990448,16.9855569 6.01042388,16.9855569 C6.16094328,16.9855569 6.30132537,16.9126504 6.3841791,16.7914736 L7.20591045,15.5900366 C7.25340896,15.5205854 8.38208955,13.8674045 9.53308657,11.8778516 C11.2069612,8.98456911 11.9865672,7.04200813 11.9865672,5.76455488 C11.9865672,2.58596951 9.3056597,0 6.01042388,0 Z M8.75111642,11.4568943 C7.61613134,13.4186321 6.50528955,15.0458638 6.45847164,15.1142439 L6.01042388,15.7693313 L5.5625194,15.1144167 C5.51545075,15.0454837 4.39608358,13.4036707 3.26973134,11.4568943 C1.71707463,8.77296748 0.929802985,6.85777236 0.929802985,5.76455488 C0.929802985,3.06228049 3.20894328,0.863821138 6.01042388,0.863821138 C8.81190448,0.863821138 11.0910448,3.06228049 11.0910448,5.76455488 C11.0910448,6.85791057 10.3037731,8.77303659 8.75111642,11.4568943 Z" fill-rule="nonzero"></path>
                                <path d="M6.01042388,2.5324126 C4.1833791,2.5324126 2.69699104,3.96621748 2.69699104,5.72855081 C2.69699104,7.49088415 4.1833791,8.92468902 6.01042388,8.92468902 C7.83746866,8.92468902 9.32385672,7.49088415 9.32385672,5.72855081 C9.32385672,3.96621748 7.83746866,2.5324126 6.01042388,2.5324126 Z M6.01042388,8.06086789 C4.67717015,8.06086789 3.59251343,7.01460772 3.59251343,5.72855081 C3.59251343,4.4424939 4.67717015,3.39623374 6.01042388,3.39623374 C7.34371343,3.39623374 8.42833433,4.4424939 8.42833433,5.72855081 C8.42833433,7.01460772 7.34371343,8.06086789 6.01042388,8.06086789 Z" fill-rule="nonzero"></path>
                            </g>
                        </g>
                    </g>
                </g>
            </g>
        </g>
    </g>
</svg>