<?xml version="1.0" encoding="UTF-8"?>
<svg width="42px" height="42px" viewBox="0 0 42 42" version="1.1" xmlns="http://www.w3.org/2000/svg" xmlns:xlink="http://www.w3.org/1999/xlink">
    <!-- Generator: Sketch 50.2 (55047) - http://www.bohemiancoding.com/sketch -->
    <title>icon-survey@2x</title>
    <desc>Created with Sketch.</desc>
    <defs></defs>
    <g id="-" stroke="none" stroke-width="1" fill="none" fill-rule="evenodd">
        <g id="Hari-Olahraga-Nsional" transform="translate(-648.000000, -3446.000000)" fill="#FFFFFF">
            <g id="Group-24-Copy" transform="translate(179.000000, 3413.000000)">
                <g id="Group-29" transform="translate(441.500000, 0.000000)">
                    <g id="edit" transform="translate(28.000000, 33.000000)">
                        <g id="Shape">
                            <path d="M39.923176,8.23577344 C41.259776,9.57288281 41.259776,11.749418 39.923176,13.0866094 L33.135626,19.8767461 L33.135626,39.7828594 C33.135626,41.0054531 32.14154,41.999918 30.920396,41.999918 L2.290588,41.999918 C1.06846,41.999918 0.074374,41.0054531 0.074374,39.7828594 L0.074374,9.41169141 C0.074374,9.14303906 0.18081,8.88455859 0.371296,8.69498438 L8.766046,0.297035156 C8.955548,0.106476563 9.21393,0 9.48248,0 L30.920396,0 C32.14154,0 33.135626,0.994464844 33.135626,2.21705859 L33.135626,7.78870313 L33.881498,7.04254688 C35.218098,5.7054375 37.393804,5.7054375 38.730486,7.04254688 L39.923176,8.23577344 Z M38.489242,11.6531133 C39.036428,11.1057187 39.036428,10.216582 38.489242,9.6691875 L37.297536,8.47702734 C36.75035,7.92963281 35.861552,7.92963281 35.314366,8.47702734 L34.037544,9.75433594 L37.21242,12.9304219 L38.489242,11.6531133 Z M19.572662,30.5769844 L35.779552,14.363918 L32.604676,11.187832 L16.397704,27.4008984 L19.572662,30.5769844 Z M24.416566,16.5110859 L31.151472,9.77361328 C31.1231,9.68239453 31.108914,9.58502344 31.108914,9.48469922 L31.108914,2.21705859 C31.108914,2.11263281 31.024782,2.02748438 30.920396,2.02748438 L10.495836,2.02748438 L10.495836,8.20935938 C10.495836,9.43096875 9.50175,10.4254336 8.280606,10.4254336 L2.101086,10.4254336 L2.101086,39.7828594 C2.101086,39.8872852 2.186202,39.9724336 2.290588,39.9724336 L30.920396,39.9724336 C31.024782,39.9724336 31.108914,39.8872852 31.108914,39.7828594 L31.108914,21.9043125 L20.289096,32.7281719 C20.16544,32.851875 20.011444,32.941043 19.84318,32.9877187 C19.84318,32.9877187 13.452838,34.7618086 13.447754,34.762793 C13.415364,34.7718984 13.19339,34.7962617 13.192406,34.7962617 L7.99992,34.7962617 C7.440516,34.7962617 6.986564,34.3431211 6.986564,33.7825195 C6.986564,33.2229023 7.440516,32.7687773 7.99992,32.7687773 L12.422262,32.7687773 L13.987888,27.1302773 C14.034464,26.9609648 14.12368,26.8078945 14.247336,26.6841914 L14.263572,26.6679492 L7.99992,26.6679492 C7.440516,26.6679492 6.986564,26.2138242 6.986564,25.654207 C6.986564,25.0945898 7.440516,24.6404648 7.99992,24.6404648 L16.290284,24.6404648 L22.389772,18.5386523 L7.99992,18.5386523 C7.440516,18.5386523 6.986564,18.0855117 6.986564,17.5249102 C6.986564,16.965293 7.440516,16.511168 7.99992,16.511168 L24.416566,16.511168 L24.416566,16.5110859 Z M14.648644,32.3267109 L17.62795,31.4995078 L15.475532,29.3462695 L14.648644,32.3267109 Z M8.469124,8.20944141 L8.469124,3.46196484 L3.53502,8.39794922 L8.280606,8.39794922 C8.384992,8.39794922 8.469124,8.31386719 8.469124,8.20944141 Z" fill-rule="nonzero"></path>
                        </g>
                    </g>
                </g>
            </g>
        </g>
    </g>
</svg>