<?xml version="1.0" encoding="UTF-8"?>
<svg width="89px" height="88px" viewBox="0 0 89 88" version="1.1" xmlns="http://www.w3.org/2000/svg" xmlns:xlink="http://www.w3.org/1999/xlink">
    <!-- Generator: Sketch 50.2 (55047) - http://www.bohemiancoding.com/sketch -->
    <title>icon-industri</title>
    <desc>Created with Sketch.</desc>
    <defs></defs>
    <g id="-" stroke="none" stroke-width="1" fill="none" fill-rule="evenodd">
        <g id="Hari-Olahraga-Nsional" transform="translate(-556.000000, -672.000000)" fill="#FFFFFF">
            <g id="Group-19" transform="translate(480.000000, 621.000000)">
                <g id="factory" transform="translate(76.000000, 51.000000)">
                    <g id="Shape">
                        <path d="M34.0040721,77.6661875 C33.0464113,77.6661875 32.2691793,78.4361875 32.2691793,79.3849375 C32.2691793,80.3336875 33.0464113,81.1036875 34.0040721,81.1036875 C34.9617329,81.1036875 35.7389649,80.3336875 35.7389649,79.3849375 C35.7389649,78.4361875 34.9617329,77.6661875 34.0040721,77.6661875 Z" fill-rule="nonzero"></path>
                        <path d="M87.9191618,42.9835312 C87.3594854,42.6829219 86.6792339,42.7099062 86.1459279,43.0534844 L67.4875029,55.0761406 L67.4875029,44.4736875 C67.4875029,43.8434219 67.1391365,43.2635156 66.5799805,42.9629062 C66.0204776,42.6624688 65.3402261,42.6892812 64.8067466,43.0328594 L46.1483216,55.0555156 L46.1483216,44.4736875 C46.1483216,43.8435937 45.8001287,43.2638594 45.2411462,42.9630781 C44.6821637,42.6624688 44.0017388,42.6887656 43.4684327,43.0323437 L25.696885,54.4695938 C25.5966082,53.2369062 23.0929844,22.4822812 23.0686959,22.1840781 C22.9960039,21.2913594 22.2434074,20.6036875 21.3393548,20.6036875 L6.93974464,20.6036875 C6.03569201,20.6036875 5.28309552,21.2913594 5.21040351,22.1840781 L0.0057251462,86.1215781 C-0.0333099415,86.5999063 0.131504873,87.0725625 0.459920078,87.42525 C0.788335283,87.7779375 1.25068421,87.9785156 1.73506628,87.9785156 C2.85910331,87.9785156 81.7393002,87.9785156 87.0917914,87.9785156 C88.0497992,87.9785156 88.8266842,87.2090312 88.8266842,86.2597656 L88.8266842,44.4941406 C88.8266842,43.8640469 88.4783177,43.2841406 87.9191618,42.9835312 Z M20.6622261,35.3849375 L7.61704678,35.3849375 L7.9388694,31.4318125 L20.340577,31.4318125 L20.6622261,35.3849375 Z M7.33720858,38.8224375 L20.9420643,38.8224375 C21.0619454,40.2942031 23.9349279,75.5902812 24.1039064,77.6661875 L4.17536647,77.6661875 L7.33720858,38.8224375 Z M19.7389162,24.0411875 L20.0607388,27.9943125 L8.21853411,27.9943125 L8.54035673,24.0411875 L19.7389162,24.0411875 Z M3.61569006,84.5411875 L3.89552827,81.1036875 L24.3837446,81.1036875 L24.6635828,84.5411875 L3.61569006,84.5411875 Z M85.3568986,84.5411875 L28.1446452,84.5411875 L26.0138499,58.364625 L42.6785361,47.6397969 L42.6785361,58.2236875 C42.6785361,58.8539531 43.0269025,59.4338594 43.5860585,59.7344687 C44.1457349,60.0350781 44.8259864,60.0082656 45.3592924,59.6645156 L64.0177173,47.6418594 L64.0177173,58.2443125 C64.0177173,58.8745781 64.3660838,59.4544844 64.9252398,59.7550938 C65.4843957,60.0553594 66.1649942,60.0288906 66.6984737,59.6851406 L85.3568986,47.6624844 L85.3568986,84.5411875 Z" fill-rule="nonzero"></path>
                        <path d="M34.0040721,73.7130625 L44.4134288,73.7130625 C45.3714366,73.7130625 46.1483216,72.9435781 46.1483216,71.9943125 L46.1483216,65.1193125 C46.1483216,64.1700469 45.3714366,63.4005625 44.4134288,63.4005625 L34.0040721,63.4005625 C33.0460643,63.4005625 32.2691793,64.1700469 32.2691793,65.1193125 L32.2691793,71.9943125 C32.2691793,72.9435781 33.0460643,73.7130625 34.0040721,73.7130625 Z M35.7389649,66.8380625 L42.6785361,66.8380625 L42.6785361,70.2755625 L35.7389649,70.2755625 L35.7389649,66.8380625 Z" fill-rule="nonzero"></path>
                        <path d="M51.353,73.7130625 L62.2828246,73.7130625 C63.2408324,73.7130625 64.0177173,72.9435781 64.0177173,71.9943125 L64.0177173,65.1193125 C64.0177173,64.1700469 63.2408324,63.4005625 62.2828246,63.4005625 L51.353,63.4005625 C50.3949922,63.4005625 49.6181072,64.1700469 49.6181072,65.1193125 L49.6181072,71.9943125 C49.6181072,72.9435781 50.3949922,73.7130625 51.353,73.7130625 Z M53.0878928,66.8380625 L60.5479318,66.8380625 L60.5479318,70.2755625 L53.0878928,70.2755625 L53.0878928,66.8380625 Z" fill-rule="nonzero"></path>
                        <path d="M69.2223957,73.7130625 L80.1522203,73.7130625 C81.1102281,73.7130625 81.8871131,72.9435781 81.8871131,71.9943125 L81.8871131,65.1193125 C81.8871131,64.1700469 81.1102281,63.4005625 80.1522203,63.4005625 L69.2223957,63.4005625 C68.2643879,63.4005625 67.4875029,64.1700469 67.4875029,65.1193125 L67.4875029,71.9943125 C67.4875029,72.9435781 68.2643879,73.7130625 69.2223957,73.7130625 Z M70.9572885,66.8380625 L78.4173275,66.8380625 L78.4173275,70.2755625 L70.9572885,70.2755625 L70.9572885,66.8380625 Z" fill-rule="nonzero"></path>
                        <path d="M9.36859454,13.7286875 C10.3266023,13.7286875 11.1034873,12.9592031 11.1034873,12.0099375 C11.1034873,9.16678125 13.438306,6.8536875 16.3081657,6.8536875 L37.4738577,6.8536875 C38.8673236,6.8536875 40.2274795,6.29148438 41.2054386,5.31110938 C42.1714269,4.34259375 42.6944971,3.06728125 42.6783626,1.71995313 C42.6672593,0.777734375 41.8928031,0.02165625 40.9439903,0.02165625 C40.9372242,0.02165625 40.9301111,0.02165625 40.9231715,0.02165625 C39.9651637,0.033 39.1976472,0.81159375 39.208924,1.7606875 C39.2139552,2.182125 39.0463645,2.58482813 38.7372066,2.89471875 C38.406883,3.22609375 37.946269,3.41601563 37.4738577,3.41601563 L16.3081657,3.41601563 C11.5250663,3.41601563 7.63370175,7.27117188 7.63370175,12.0097656 C7.63370175,12.9592031 8.41058674,13.7286875 9.36859454,13.7286875 Z" fill-rule="nonzero"></path>
                        <path d="M40.9417349,10.2705625 L21.5128441,10.2911875 C18.6429844,10.2911875 16.3081657,12.6042812 16.3081657,15.4474375 C16.3081657,16.3967031 17.0850507,17.1661875 18.0430585,17.1661875 C19.0010663,17.1661875 19.7779513,16.3967031 19.7779513,15.4474375 C19.7779513,14.4997187 20.5562242,13.7286875 21.5147524,13.7286875 L40.9436433,13.7080625 C43.8135029,13.7080625 46.1483216,11.4319219 46.1483216,8.6343125 L46.1483216,8.59478125 C46.1483216,7.64551562 45.3714366,6.87603125 44.4134288,6.87603125 C43.4554211,6.87603125 42.6785361,7.64551562 42.6785361,8.59478125 L42.6785361,8.6343125 C42.6785361,9.53648437 41.9002632,10.2705625 40.9417349,10.2705625 Z" fill-rule="nonzero"></path>
                        <path d="M80.1522203,77.6661875 L40.9436433,77.6661875 C39.9856355,77.6661875 39.2087505,78.4356719 39.2087505,79.3849375 C39.2087505,80.3342031 39.9856355,81.1036875 40.9436433,81.1036875 L80.1522203,81.1036875 C81.1102281,81.1036875 81.8871131,80.3342031 81.8871131,79.3849375 C81.8871131,78.4356719 81.1104016,77.6661875 80.1522203,77.6661875 Z" fill-rule="nonzero"></path>
                        <path d="M12.144423,49.6505625 L16.1346764,49.6505625 C17.0926842,49.6505625 17.8695692,48.8810781 17.8695692,47.9318125 C17.8695692,46.9825469 17.0926842,46.2130625 16.1346764,46.2130625 L12.144423,46.2130625 C11.1864152,46.2130625 10.4095302,46.9825469 10.4095302,47.9318125 C10.4095302,48.8810781 11.1864152,49.6505625 12.144423,49.6505625 Z" fill-rule="nonzero"></path>
                        <path d="M12.144423,56.5255625 L16.1346764,56.5255625 C17.0926842,56.5255625 17.8695692,55.7560781 17.8695692,54.8068125 C17.8695692,53.8575469 17.0926842,53.0880625 16.1346764,53.0880625 L12.144423,53.0880625 C11.1864152,53.0880625 10.4095302,53.8575469 10.4095302,54.8068125 C10.4095302,55.7560781 11.1864152,56.5255625 12.144423,56.5255625 Z" fill-rule="nonzero"></path>
                        <path d="M12.144423,63.4005625 L16.1346764,63.4005625 C17.0926842,63.4005625 17.8695692,62.6310781 17.8695692,61.6818125 C17.8695692,60.7325469 17.0926842,59.9630625 16.1346764,59.9630625 L12.144423,59.9630625 C11.1864152,59.9630625 10.4095302,60.7325469 10.4095302,61.6818125 C10.4095302,62.6310781 11.1864152,63.4005625 12.144423,63.4005625 Z" fill-rule="nonzero"></path>
                        <path d="M16.1346764,66.8380625 L12.144423,66.8380625 C11.1864152,66.8380625 10.4095302,67.6075469 10.4095302,68.5568125 C10.4095302,69.5060781 11.1864152,70.2755625 12.144423,70.2755625 L16.1346764,70.2755625 C17.0926842,70.2755625 17.8695692,69.5060781 17.8695692,68.5568125 C17.8695692,67.6075469 17.0928577,66.8380625 16.1346764,66.8380625 Z" fill-rule="nonzero"></path>
                    </g>
                </g>
            </g>
        </g>
    </g>
</svg>