<?xml version="1.0" encoding="UTF-8"?>
<svg width="14px" height="14px" viewBox="0 0 14 14" version="1.1" xmlns="http://www.w3.org/2000/svg" xmlns:xlink="http://www.w3.org/1999/xlink">
    <!-- Generator: Sketch 50.2 (55047) - http://www.bohemiancoding.com/sketch -->
    <title>icon-clock@2x</title>
    <desc>Created with Sketch.</desc>
    <defs></defs>
    <g id="-" stroke="none" stroke-width="1" fill="none" fill-rule="evenodd">
        <g id="Hari-Olahraga-Nsional" transform="translate(-267.000000, -2695.000000)" fill="#606060">
            <g id="Group-25" transform="translate(135.000000, 2613.000000)">
                <g id="Group-12">
                    <g id="Group-11" transform="translate(132.000000, 81.000000)">
                        <g id="circular-clock" transform="translate(0.000000, 1.000000)">
                            <g id="Shape">
                                <path d="M10.1612778,6.32257843 L7.67742157,6.32257843 L7.67742157,3.38708497 C7.67742157,3.01269935 7.37438562,2.7096634 7,2.7096634 C6.62561438,2.7096634 6.32257843,3.01269935 6.32257843,3.38708497 L6.32257843,7.67742157 L10.1612778,7.67742157 C10.5352288,7.67742157 10.8386993,7.37438562 10.8386993,7 C10.8386993,6.62561438 10.5352288,6.32257843 10.1612778,6.32257843 Z M7,0 C3.13419281,0 0,3.13419281 0,7 C0,10.8658072 3.13419281,14 7,14 C10.8658072,14 14,10.8658072 14,7 C14,3.13419281 10.8658072,0 7,0 Z M7,12.6451569 C3.88703595,12.6451569 1.35484314,10.1129641 1.35484314,7 C1.35484314,3.88703595 3.88703595,1.35484314 7,1.35484314 C10.1129641,1.35484314 12.6451569,3.88703595 12.6451569,7 C12.6451569,10.1129641 10.1129641,12.6451569 7,12.6451569 Z" fill-rule="nonzero"></path>
                            </g>
                        </g>
                    </g>
                </g>
            </g>
        </g>
    </g>
</svg>