<?xml version="1.0" encoding="UTF-8"?>
<svg width="71px" height="44px" viewBox="0 0 71 44" version="1.1" xmlns="http://www.w3.org/2000/svg" xmlns:xlink="http://www.w3.org/1999/xlink">
    <!-- Generator: Sketch 50.2 (55047) - http://www.bohemiancoding.com/sketch -->
    <title>icon-mail</title>
    <desc>Created with Sketch.</desc>
    <defs></defs>
    <g id="-" stroke="none" stroke-width="1" fill="none" fill-rule="evenodd">
        <g id="Hari-Olahraga-Nsional" transform="translate(-425.000000, -3445.000000)" fill="#FFFFFF">
            <g id="Group-24-Copy" transform="translate(179.000000, 3413.000000)">
                <g id="Group-30" transform="translate(220.750000, 0.000000)">
                    <g id="message" transform="translate(26.000000, 32.000000)">
                        <g>
                            <path d="M69.6682846,23.1377333 C69.7995517,23.4858667 69.8636842,23.8432 69.8636842,24.1945333 C69.8636842,25.436 69.0822222,26.6057333 67.8211306,27.0624 L28.9447953,41.116 C28.5916569,41.2442667 28.2243275,41.3069333 27.8586355,41.3069333 C27.4132554,41.3069333 26.9693762,41.2137333 26.5537427,41.026 C25.7957505,40.6854667 25.2176023,40.0761333 24.92846,39.3110667 L16.9550097,18.2526667 C16.6658674,17.4876 16.6987524,16.6584 17.0472515,15.9177333 C17.3957505,15.1756 18.0193372,14.6121333 18.8023002,14.328 L57.68,0.274266667 C58.462963,-0.00826666667 59.3115595,0.0238666667 60.0695517,0.3644 C60.8290448,0.704933333 61.405692,1.31426667 61.6948343,2.07933333 L69.6682846,23.1377333 Z M66.1753801,22.7101333 L59.2568421,4.44173333 L49.77846,17.6845333 L66.1753801,22.7101333 Z M30.6826511,37.2310667 L63.9140936,25.2176 L47.8985575,20.3096 L45.4246784,23.7684 C45.1277583,24.1822667 44.6463548,24.4204 44.1431189,24.4204 C44.0149903,24.4204 43.8837232,24.4036 43.7539571,24.3716 L39.5734698,23.3209333 L30.6826511,37.2310667 Z M43.4835088,21.1494667 L55.5420663,4.30426667 L23.1077778,16.0292 L43.4835088,21.1494667 Z M27.2960429,36.7637333 L36.3978168,22.5222667 L20.3806433,18.4969333 L27.2960429,36.7637333 Z" id="Shape" fill-rule="nonzero"></path>
                            <g id="Group" transform="translate(0.000000, 24.533333)" fill-rule="nonzero">
                                <path d="M18.2083236,15.196 C18.5083821,15.9870667 18.0942495,16.8650667 17.2846784,17.1582667 L11.3960819,19.2870667 C11.2163743,19.3512 11.0335283,19.3833333 10.8538207,19.3833333 C10.2178168,19.3833333 9.62083821,19.0016 9.38791423,18.3846667 C9.08785575,17.5936 9.5019883,16.7156 10.3115595,16.4224 L16.2001559,14.2936 C17.0097271,14.0018667 17.9082651,14.4050667 18.2083236,15.196 Z" id="Shape"></path>
                                <path d="M10.2365107,1.01866667 C10.5365692,1.80973333 10.1224366,2.68933333 9.31450292,2.98093333 L5.67791423,4.29573333 C5.4997076,4.35986667 5.3168616,4.3904 5.13565302,4.3904 C4.5011501,4.3904 3.90417154,4.01013333 3.66974659,3.3932 C3.37118908,2.60213333 3.78382066,1.72413333 4.59339181,1.43093333 L8.22998051,0.116133333 C9.03791423,-0.175466667 9.93808967,0.2276 10.2365107,1.01866667 Z" id="Shape"></path>
                                <path d="M5.73099415,12.5877333 C6.02955166,13.3788 5.61692008,14.2568 4.80734893,14.5485333 L2.10532164,15.5258667 C1.92711501,15.59 1.74426901,15.6205333 1.56306043,15.6205333 C0.928557505,15.6205333 0.331578947,15.2402667 0.0971539961,14.6233333 C-0.201403509,13.8322667 0.21122807,12.9542667 1.02079922,12.6610667 L3.72282651,11.6852 C4.53226121,11.3921333 5.43093567,11.7968 5.73099415,12.5877333 Z" id="Shape"></path>
                            </g>
                        </g>
                    </g>
                </g>
            </g>
        </g>
    </g>
</svg>