<?xml version="1.0" encoding="UTF-8"?>
<svg width="52px" height="52px" viewBox="0 0 52 52" version="1.1" xmlns="http://www.w3.org/2000/svg" xmlns:xlink="http://www.w3.org/1999/xlink">
    <!-- Generator: Sketch 50.2 (55047) - http://www.bohemiancoding.com/sketch -->
    <title>icon-lelang@2x</title>
    <desc>Created with Sketch.</desc>
    <defs></defs>
    <g id="-" stroke="none" stroke-width="1" fill="none" fill-rule="evenodd">
        <g id="Hari-Olahraga-Nsional" transform="translate(-206.000000, -3441.000000)" fill="#FFFFFF">
            <g id="Group-24-Copy" transform="translate(179.000000, 3413.000000)">
                <g id="Group-31">
                    <g id="auction-(1)" transform="translate(27.000000, 28.000000)">
                        <g id="Shape">
                            <path d="M10.5255313,17.7069141 C10.1284219,18.1040234 10.1284219,18.7469141 10.5255313,19.1429063 C10.921625,19.5400156 11.5655313,19.5400156 11.9615234,19.1429063 C12.3586328,18.7468125 12.3586328,18.1039219 11.9615234,17.7069141 C11.5655313,17.3108203 10.921625,17.3108203 10.5255313,17.7069141 Z" fill-rule="nonzero"></path>
                            <path d="M25.7155234,45.4713594 C26.1633125,44.8648281 26.4053359,44.1339844 26.4053359,43.3657656 C26.4053359,41.4058125 24.8108047,39.8111797 22.85075,39.8111797 L5.58573437,39.8111797 C4.63582031,39.8111797 3.7431875,40.1808672 3.07216406,40.8520938 C2.40083594,41.5232188 2.03114844,42.4158516 2.03114844,43.3657656 C2.03114844,44.1527734 2.28871094,44.8805703 2.72329687,45.4701406 C1.10611719,46.3204219 0,48.0165156 0,49.9670234 L0,50.9826484 C0,51.5435781 0.454796875,51.9982734 1.015625,51.9982734 L27.4208594,51.9982734 C27.9816875,51.9982734 28.4364844,51.5435781 28.4364844,50.9826484 L28.4364844,49.9670234 C28.4364844,48.0174297 27.3314844,46.3220469 25.7155234,45.4713594 Z M4.50835938,42.2881875 C4.79588281,42.0005625 5.17857031,41.8422266 5.58573438,41.8422266 L22.85075,41.8422266 C23.6907734,41.8422266 24.3740859,42.5256406 24.3740859,43.3655625 C24.3740859,43.7728281 24.2156484,44.1554141 23.9280234,44.4430391 C23.6405,44.7306641 23.2578125,44.889 22.8506484,44.889 L5.58573438,44.889 C4.74571094,44.889 4.06239844,44.2055859 4.06239844,43.3656641 C4.06239844,42.9585 4.22073438,42.5758125 4.50835938,42.2881875 Z M2.03114844,49.9670234 C2.03114844,48.2870781 3.39797656,46.92025 5.07792188,46.92025 L5.58573438,46.92025 L22.85075,46.92025 L23.3585625,46.92025 C25.0385078,46.92025 26.4053359,48.2870781 26.4053359,49.9670234 L2.03114844,49.9670234 Z" fill-rule="nonzero"></path>
                            <path d="M51.0547578,42.6688438 C50.7098516,42.1343203 50.2983203,41.6616484 49.8314375,41.2639297 L45.0859297,37.1250547 C45.0489609,37.0693984 45.0061016,37.0165859 44.9570469,36.9675313 C44.8745781,36.8851641 44.7811406,36.820875 44.6818125,36.7727344 L41.8119609,34.2697266 L28.5286016,22.6823594 C29.0723672,22.1139141 29.3717734,21.3705781 29.3717734,20.5801172 C29.3717734,19.7657891 29.0547969,19.0005156 28.4786328,18.4244531 C28.2273672,18.1734922 27.9417734,17.9761562 27.6365781,17.8316328 L28.8654844,16.6027266 C29.2089687,16.6940313 29.5618984,16.74075 29.9151328,16.74075 C30.9552344,16.7406484 31.9954375,16.3447578 32.7872187,15.5529766 C33.5548281,14.7854688 33.9775312,13.7652734 33.9775312,12.6802813 C33.9775312,11.5952891 33.5548281,10.5750938 32.7873203,9.80758594 L24.1699453,1.1903125 C23.4024375,0.422804688 22.3821406,0.0001015625 21.2968437,0.0001015625 C20.2120547,0.0001015625 19.1920625,0.422804688 18.4246562,1.1903125 C17.3639375,2.25103125 17.0148672,3.75710156 17.3749062,5.11214844 L5.11377344,17.3731797 C4.77496094,17.2830937 4.4224375,17.2355625 4.06229687,17.2355625 C2.97679687,17.2355625 1.95700781,17.6579609 1.19010937,18.4247578 C-0.393859375,20.0087266 -0.393859375,22.5860781 1.19010937,24.1701484 L9.80738281,32.7875234 C10.5994687,33.5795078 11.6397734,33.9755 12.6800781,33.9755 C13.7204844,33.9755 14.7607891,33.5795078 15.552875,32.7875234 C16.6135937,31.7267031 16.9626641,30.2207344 16.602625,28.8656875 L17.8289922,27.6392188 C17.9763594,27.9469531 18.1763359,28.2309219 18.4247578,28.4792422 C19.0002109,29.0546953 19.7653828,29.3716719 20.5794062,29.3716719 C21.3690547,29.3716719 22.1120859,29.0727734 22.6813437,28.5296172 L36.8296094,44.7851016 C36.8686094,44.8460391 36.9141094,44.9040313 36.9673281,44.95725 C36.9855078,44.9754297 37.0048047,44.9919844 37.024,45.0084375 L41.2399609,49.8523594 C41.3447734,49.9760625 41.4567969,50.0977344 41.5730859,50.2140234 C42.731,51.3715313 44.2604297,51.9996953 45.8661328,51.9996953 C46.1491875,51.9996953 46.4348828,51.9801953 46.7209844,51.9405859 C48.6333047,51.6759141 50.2860312,50.5319141 51.2551406,48.8014922 C52.3167734,46.9050156 52.2377578,44.4972734 51.0547578,42.6688438 Z M36.4086328,41.2070547 L41.192125,36.4234609 L42.7264297,37.7618516 L37.7452969,42.7430859 L36.4086328,41.2070547 Z M24.1221094,27.0912891 L27.090375,24.1230234 L39.6579219,35.0851719 L35.0719688,39.6712266 L24.1221094,27.0912891 Z M19.8610547,2.62660938 C20.2448594,2.24280469 20.7549062,2.03135156 21.2969453,2.03135156 C21.8396953,2.03135156 22.3500469,2.24280469 22.73375,2.62660938 L31.351125,11.2438828 C31.7349297,11.6276875 31.9462812,12.1378359 31.9462812,12.6802813 C31.9462812,13.2227266 31.7349297,13.732875 31.3510234,14.1166797 C30.5593438,14.9085625 29.2709219,14.9085625 28.4792422,14.1166797 L19.8615625,5.499 C19.8613594,5.49879688 19.8612578,5.49869531 19.8610547,5.49849219 C19.0691719,4.70671094 19.0691719,3.41828906 19.8610547,2.62660938 Z M14.1165781,31.3512266 C13.3245937,32.1432109 12.0356641,32.1433125 11.2436797,31.3512266 L2.62640625,22.7339531 C1.83432031,21.9418672 1.83432031,20.6532422 2.62640625,19.8610547 C3.0095,19.4778594 3.51954687,19.2668125 4.06229687,19.2668125 C4.60494531,19.2668125 5.1146875,19.4777578 5.49767969,19.8606484 L14.1164766,28.4794453 C14.9084609,29.271125 14.9084609,30.5595469 14.1165781,31.3512266 Z M6.93458594,18.4249609 L18.4246562,6.9346875 L27.0427422,15.552875 L24.1977734,18.3979453 C24.1885312,18.4066797 24.1794922,18.4152109 24.1697422,18.4248594 L18.4276016,24.1671016 C18.4157187,24.1787813 18.4042422,24.1909688 18.3925625,24.2032578 L15.5527734,27.0431484 L6.93458594,18.4249609 Z M20.5793047,27.3405234 C20.3078281,27.3405234 20.0527031,27.2348984 19.8609531,27.0430469 C19.6688984,26.8510938 19.5631719,26.5957656 19.5631719,26.3240859 C19.5631719,26.0581953 19.6646328,25.8080469 19.8487656,25.6193438 L25.6176172,19.8504922 C26.013,19.4659766 26.6522344,19.47075 27.0430469,19.8610547 C27.235,20.0530078 27.3407266,20.3083359 27.3407266,20.5800156 C27.3407266,20.8514922 27.2353047,21.1061094 27.0429453,21.2979609 L26.3319062,22.009 C26.3270312,22.0137734 26.3221562,22.0186484 26.3173828,22.0235234 L22.0189531,26.3219531 C22.0169219,26.3239844 22.0149922,26.3259141 22.0129609,26.3279453 L21.2977578,27.0431484 C21.1059062,27.2348984 20.8508828,27.3405234 20.5793047,27.3405234 Z M49.4829766,47.8092266 C48.8274922,48.9795313 47.7193437,49.7519141 46.4426016,49.9286328 C45.1688047,50.1049453 43.91725,49.6853906 43.0090781,48.777625 C42.9309766,48.699625 42.8562266,48.6182734 42.7865547,48.5358047 C42.7833047,48.5319453 42.7800547,48.5280859 42.7767031,48.5243281 L39.0818594,44.2788125 L44.2606328,39.0999375 L48.5008672,42.7985391 C48.5040156,42.8013828 48.5072656,42.804125 48.5106172,42.8069688 C48.828,43.0768203 49.1096328,43.4009063 49.3486094,43.7712031 C50.116625,44.9579609 50.1704531,46.5809297 49.4829766,47.8092266 Z" fill-rule="nonzero"></path>
                            <path d="M19.1429063,10.5255313 C18.7462031,10.1289297 18.1033125,10.1289297 17.7066094,10.5255313 L13.3975156,14.834625 C13.0009141,15.2312266 13.0009141,15.8743203 13.3975156,16.2708203 C13.5958672,16.4691719 13.8557656,16.5682969 14.1156641,16.5682969 C14.3755625,16.5682969 14.6354609,16.4690703 14.8338125,16.2708203 L19.1429063,11.9617266 C19.5395078,11.565125 19.5395078,10.9222344 19.1429063,10.5255313 Z" fill-rule="nonzero"></path>
                        </g>
                    </g>
                </g>
            </g>
        </g>
    </g>
</svg>