<?xml version="1.0" encoding="UTF-8"?>
<svg width="93px" height="82px" viewBox="0 0 93 82" version="1.1" xmlns="http://www.w3.org/2000/svg" xmlns:xlink="http://www.w3.org/1999/xlink">
    <!-- Generator: Sketch 50.2 (55047) - http://www.bohemiancoding.com/sketch -->
    <title>icon-pariwisata@2x</title>
    <desc>Created with Sketch.</desc>
    <defs></defs>
    <g id="-" stroke="none" stroke-width="1" fill="none" fill-rule="evenodd">
        <g id="Hari-Olahraga-Nsional" transform="translate(-73.000000, -675.000000)">
            <g id="Group-17" transform="translate(0.000000, 621.000000)">
                <g id="sun-umbrella-(1)" transform="translate(73.000000, 54.000000)">
                    <g id="Shape">
                        <path d="M52.7024824,34.5803496 C52.7069824,34.5698496 52.7114824,34.5593496 52.7159824,34.5488496 C52.7114824,34.5493496 52.7069824,34.5503496 52.7029824,34.5508496 L52.7024824,34.5803496 Z" fill="#FFF9C5" fill-rule="nonzero"></path>
                        <path d="M77.6063203,79.6406858 L83.8224258,76.7394823 C79.4041992,69.686031 64.4404629,64.495177 46.660752,64.495177 C42.5729297,64.495177 38.6345977,64.7702035 34.9385742,65.2783496 C53.2795547,67.3793274 68.619832,72.6472832 77.6063203,79.6406858 Z" fill="#E7E7E7" fill-rule="nonzero" opacity="0.1"></path>
                        <path d="M92.3687988,77.4970752 C88.0027031,74.5396327 82.3602187,74.5396327 77.994123,77.4970752 C74.560207,79.8230088 70.1225449,79.8230088 66.688084,77.4970752 C62.3219883,74.5396327 56.6795039,74.5396327 52.3134082,77.4970752 C48.8794922,79.8230088 44.4416484,79.8230088 41.0073691,77.4970752 C36.6412734,74.5396327 30.9987891,74.5396327 26.6326934,77.4970752 C23.1985957,79.8230088 18.7609336,79.8230088 15.3266543,77.4970752 C10.9605586,74.5396327 5.31807422,74.5396327 0.951978516,77.4970752 C0.327134766,77.9203186 0.164021484,78.7693451 0.587789062,79.3932345 C1.01155664,80.0173053 1.86181641,80.1800354 2.48629687,79.7569735 C5.92021289,77.4310398 10.3580566,77.4308584 13.7923359,79.7569735 C18.1586133,82.7142345 23.8010977,82.7142345 28.1670117,79.7569735 C31.6009277,77.4310398 36.0387715,77.4308584 39.4730508,79.7569735 C43.8393281,82.7142345 49.4818125,82.7142345 53.8477266,79.7569735 C57.2816426,77.4310398 61.7194863,77.4308584 65.1537656,79.7569735 C67.3369043,81.2355133 69.8390039,81.9749646 72.3412852,81.9749646 C74.8435664,81.9749646 77.3454844,81.2355133 79.528623,79.7569735 C82.9625391,77.4310398 87.4003828,77.4310398 90.8346621,79.7569735 C91.4595059,80.1803982 92.3094023,80.0173053 92.7331699,79.3932345 C93.1567559,78.7691637 92.9938242,77.9203186 92.3687988,77.4970752 Z" fill="#4FC3F7" fill-rule="nonzero"></path>
                        <path d="M6.74141016,15.5604071 C6.74141016,20.4143717 10.6951816,24.3630708 15.5549766,24.3630708 C20.4149531,24.3630708 24.3687246,20.4141903 24.3687246,15.5604071 C24.3687246,10.7066239 20.4149531,6.75774336 15.5549766,6.75774336 C10.6953633,6.75774336 6.74141016,10.7066239 6.74141016,15.5604071 Z M15.5551582,9.48823451 C18.9076992,9.48823451 21.6350332,12.2121947 21.6350332,15.5604071 C21.6350332,18.9086195 18.9075176,21.6325796 15.5551582,21.6325796 C12.2027988,21.6325796 9.4752832,18.9088009 9.4752832,15.5604071 C9.4752832,12.2120133 12.2026172,9.48823451 15.5551582,9.48823451 Z" fill="#FFFFFF" fill-rule="nonzero"></path>
                        <path d="M16.9220039,4.13592035 L16.9220039,1.38964602 C16.9220039,0.635681416 16.3102383,0.0244911504 15.5551582,0.0244911504 C14.8000781,0.0244911504 14.1883125,0.635681416 14.1883125,1.38964602 L14.1883125,4.13592035 C14.1883125,4.88988496 14.8000781,5.50107522 15.5551582,5.50107522 C16.3102383,5.50107522 16.9220039,4.88988496 16.9220039,4.13592035 Z" fill="#FFFFFF" fill-rule="nonzero"></path>
                        <path d="M24.6212051,4.57476549 L22.6769238,6.51664159 C22.143082,7.04982301 22.143082,7.91426991 22.6769238,8.44726991 C22.9439355,8.71395133 23.2935938,8.84711062 23.6436152,8.84711062 C23.9932734,8.84711062 24.3432949,8.71395133 24.6103066,8.44745133 L26.5545879,6.50557522 C27.0884297,5.97239381 27.0884297,5.1079469 26.5545879,4.57476549 C26.0205645,4.04176549 25.1552285,4.04158407 24.6212051,4.57476549 Z" fill="#FFFFFF" fill-rule="nonzero"></path>
                        <path d="M29.7434707,16.9255619 C30.4985508,16.9255619 31.1103164,16.3143717 31.1103164,15.5604071 C31.1103164,14.8064425 30.4985508,14.1952522 29.7434707,14.1952522 L26.9939766,14.1952522 C26.2388965,14.1952522 25.6271309,14.8064425 25.6271309,15.5604071 C25.6271309,16.3143717 26.2388965,16.9255619 26.9939766,16.9255619 L29.7434707,16.9255619 Z" fill="#FFFFFF" fill-rule="nonzero"></path>
                        <path d="M22.6769238,22.6735442 C22.143082,23.2067257 22.143082,24.0711726 22.6769238,24.6041726 L24.6212051,26.5460487 C24.8882168,26.8125487 25.2380566,26.9458894 25.5878965,26.9458894 C25.9377363,26.9458894 26.2875762,26.8127301 26.5545879,26.5460487 C27.0884297,26.0128673 27.0884297,25.1484204 26.5545879,24.6152389 L24.6103066,22.6735442 C24.0761016,22.1403628 23.2107656,22.1403628 22.6769238,22.6735442 Z" fill="#FFFFFF" fill-rule="nonzero"></path>
                        <path d="M14.1883125,26.9850752 L14.1883125,29.7313496 C14.1883125,30.4853142 14.8000781,31.0965044 15.5551582,31.0965044 C16.3102383,31.0965044 16.9220039,30.4853142 16.9220039,29.7313496 L16.9220039,26.9850752 C16.9220039,26.2311106 16.3102383,25.6199204 15.5551582,25.6199204 C14.8000781,25.6199204 14.1883125,26.2311106 14.1883125,26.9850752 Z" fill="#FFFFFF" fill-rule="nonzero"></path>
                        <path d="M4.55591016,26.5460487 C4.82292188,26.8125487 5.17258008,26.9458894 5.52260156,26.9458894 C5.87225977,26.9458894 6.22228125,26.8127301 6.48929297,26.5460487 L8.43357422,24.6041726 C8.96741602,24.0709912 8.96741602,23.2065442 8.43357422,22.6735442 C7.89973242,22.1403628 7.03439648,22.1403628 6.50037305,22.6735442 L4.5560918,24.6152389 C4.02206836,25.1484204 4.02206836,26.0128673 4.55591016,26.5460487 Z" fill="#FFFFFF" fill-rule="nonzero"></path>
                        <path d="M1.3668457,16.9255619 L4.11633984,16.9255619 C4.87141992,16.9255619 5.48318555,16.3143717 5.48318555,15.5604071 C5.48318555,14.8064425 4.87141992,14.1952522 4.11633984,14.1952522 L1.3668457,14.1952522 C0.611765625,14.1952522 0,14.8064425 0,15.5604071 C0,16.3143717 0.611765625,16.9255619 1.3668457,16.9255619 Z" fill="#FFFFFF" fill-rule="nonzero"></path>
                        <path d="M6.48911133,4.57476549 C5.95508789,4.04158407 5.08975195,4.04158407 4.55591016,4.57476549 C4.02206836,5.1079469 4.02206836,5.97239381 4.55591016,6.50557522 L6.50019141,8.44745133 C6.76720313,8.71395133 7.11704297,8.84711062 7.46688281,8.84711062 C7.81654102,8.84711062 8.1665625,8.71395133 8.43357422,8.44726991 C8.96741602,7.9140885 8.96741602,7.04964159 8.43357422,6.51664159 L6.48911133,4.57476549 Z" fill="#FFFFFF" fill-rule="nonzero"></path>
                        <path d="M70.8556465,42.9801549 C71.2040332,43.4536504 71.7415078,43.7216018 72.3343828,43.5773761 C75.5688574,42.9915841 78.9987773,43.3669336 82.2570469,44.6638761 C85.5398379,45.970615 88.3040449,48.0757655 90.2508691,50.7516504 C90.5118867,51.1103097 90.9254824,51.3142212 91.3565156,51.3142212 C91.4658633,51.3142212 91.5763008,51.3011593 91.6856484,51.2739469 C92.2258477,51.1402434 92.6309062,50.6925088 92.7097383,50.1422743 C92.7613242,49.7810752 93.9447129,41.1875841 91.1252871,31.825615 C90.9080449,31.1035796 90.1440645,30.6944867 89.4227695,30.9114602 C88.6998398,31.128615 88.2900586,31.8900177 88.5076641,32.6118717 C90.1533281,38.0768451 90.3329707,43.3609469 90.2319785,46.5843451 C88.2811582,44.698708 85.9200117,43.1824336 83.2693301,42.1273186 C80.2559121,40.9277965 77.1031758,40.4178363 74.0341758,40.6215664 C74.0574258,40.5509956 74.0784961,40.4820575 74.1013828,40.4118496 C75.1694297,37.1528938 75.9659238,33.7943407 76.3577227,30.3849912 C76.7160996,27.2651814 76.7495215,24.1138053 76.3562695,20.9956283 C76.1284922,19.1898142 75.7408711,17.4037743 75.1846875,15.6701637 C75.1806914,15.657646 75.1766953,15.6442212 75.1725176,15.6317035 C80.0769961,18.2856372 83.8473105,22.1962389 86.4062637,27.2938451 C86.7444785,27.9678053 87.5658574,28.2401106 88.2406523,27.9023142 C88.9154473,27.5645177 89.1880898,26.7441549 88.849875,26.0700133 C85.457918,19.3129956 80.1358477,14.4526814 73.0269785,11.6224115 C63.249627,7.73085841 53.0733926,9.0109292 43.6001074,15.324385 C36.5286562,20.0370265 32.3876133,25.8173009 32.2146914,26.0609425 C31.8930059,26.5144823 31.8790195,27.1176903 32.1789082,27.5855619 C32.4787969,28.053615 33.0320742,28.2936283 33.580084,28.191854 C36.8363555,27.5871947 40.2926133,27.9581903 43.5752227,29.2649292 C46.8102422,30.5528009 49.5419355,32.6158628 51.4840371,35.2365973 C51.8618496,35.7463761 52.4129473,36.0598628 53.0597695,35.8679248 C54.795709,35.5606062 56.5868672,35.5301283 58.3771172,35.7692345 L47.4563379,63.1367345 C47.1807891,63.1343761 46.9061484,63.1294779 46.6296914,63.1294779 C40.329668,63.1294779 34.3088262,63.7562699 28.734457,64.9924381 C27.997541,65.1558938 27.5327227,65.8850044 27.6965625,66.6211903 C27.8602207,67.3571947 28.5889629,67.8216195 29.3271504,67.6579823 C34.6314199,66.4816814 40.6146621,65.859969 46.6296914,65.859969 C49.4807227,65.859969 52.3335703,65.9953053 55.1707969,66.2768628 C55.1809687,66.2777699 55.190959,66.2775885 55.2013125,66.2783142 C60.4774277,66.800792 65.4222305,67.8063805 69.786873,69.2664159 C74.997416,71.0092788 79.0202109,73.3060044 81.3811758,75.8514513 C80.1899766,76.2209956 79.0378301,76.7688717 77.9630625,77.4967124 C74.5291465,79.822646 70.0914844,79.822646 66.6573867,77.4967124 C62.2909277,74.5390885 56.6484434,74.5392699 52.2825293,77.4967124 C48.8486133,79.822646 44.4109512,79.822646 40.9768535,77.4967124 C36.6105762,74.5390885 30.9680918,74.5392699 26.6019961,77.4967124 C23.1680801,79.822646 18.730418,79.822646 15.2963203,77.4967124 C14.2217344,76.7688717 13.0695879,76.2208142 11.8783887,75.8514513 C14.236084,73.3096327 18.2517949,71.0154469 23.4519844,69.2734912 C24.1676484,69.0338407 24.5532715,68.2599204 24.3133242,67.5449602 C24.073377,66.8301814 23.2988613,66.444854 22.582834,66.6846858 C16.0506738,68.8725619 11.3087637,71.8396195 8.79394922,75.2992212 C6.06625195,75.1519115 3.30404297,75.8831991 0.921644531,77.4967124 C0.296800781,77.9199558 0.133869141,78.7688009 0.557636719,79.3928717 C0.981222656,80.0169425 1.83057422,80.179854 2.45614453,79.7566106 C4.48507031,78.382385 6.8645625,77.8205398 9.18029883,78.0703496 C9.26367188,78.0883097 9.3474082,78.0997389 9.43168945,78.1017345 C10.9480254,78.3041947 12.4305762,78.854792 13.7621836,79.756792 C18.1280977,82.7140531 23.7704004,82.7144159 28.1368594,79.756792 C31.5711387,77.430677 36.0089824,77.4308584 39.4427168,79.756792 C43.8088125,82.7140531 49.4511152,82.7144159 53.8173926,79.756792 C57.2514902,77.430677 61.689334,77.4308584 65.12325,79.756792 C67.3063887,81.2355133 69.8084883,81.9749646 72.3107695,81.9749646 C74.8130508,81.9749646 77.3149688,81.2355133 79.4982891,79.756792 C80.8268086,78.856969 82.3057266,78.3067345 83.8186113,78.1031858 C83.9081602,78.1015531 83.9973457,78.0893982 84.0859863,78.0698053 C86.3999063,77.8216283 88.7770371,78.3834735 90.8041465,79.7566106 C91.4291719,80.179854 92.2790684,80.0171239 92.7026543,79.3928717 C93.1264219,78.7688009 92.9634902,77.9199558 92.3386465,77.4967124 C89.956248,75.8828363 87.1938574,75.1519115 84.4663418,75.2992212 C81.9486211,71.8354469 77.1992637,68.866031 70.6558418,66.6774292 C66.5941758,65.3189867 62.061334,64.3384336 57.2416816,63.7562699 L67.0348359,39.2159558 C68.5119375,40.2823186 69.8015859,41.5482389 70.8556465,42.9801549 Z M54.914502,32.9093938 C54.9290332,32.8785531 54.9441094,32.8480752 54.9588223,32.8172345 C56.2319414,30.1551372 57.7173984,27.5819336 59.4500684,25.1905088 C59.8736543,24.6059867 59.7523184,23.7237611 59.1441855,23.2841903 C58.5493125,22.8540531 57.6649043,22.9968274 57.2353242,23.5898761 C55.8441387,25.5098009 54.6080742,27.5418407 53.4987949,29.6362876 C53.0980957,30.3931549 52.6910391,31.1590929 52.347375,31.9440796 C52.3413809,31.9567788 52.3350234,31.9692965 52.3290293,31.982177 C50.2408887,29.7251814 47.601832,27.9293451 44.5875059,26.729823 C41.9360977,25.6743451 39.1766133,25.1531372 36.4618125,25.1814381 C38.2867559,23.1316195 41.2845527,20.1393451 45.1869199,17.5505398 C49.0562285,14.9835044 53.0501426,13.3077655 57.0571348,12.5699469 C60.9338906,11.8562566 64.8457031,12.0237035 68.7273633,13.0652124 C68.7117422,13.0737389 68.6950312,13.0831726 68.6794102,13.0916991 C66.5794629,14.2427832 64.632457,15.6632699 62.8647305,17.2756947 C62.1752227,17.9046637 61.5026074,18.5512301 60.8581465,19.2259159 C60.3372012,19.771615 60.3577266,20.6358805 60.9041016,21.1561814 C61.4504766,21.6764823 62.3156309,21.6559823 62.8367578,21.1102832 C64.5888633,19.2747168 66.567293,17.5960752 68.727,16.2389027 C69.7223906,15.6131991 70.761375,15.0479071 71.8463145,14.5921903 C72.1313086,15.2378496 72.5020371,16.1937301 72.8500605,17.4456814 C74.4982676,23.3759867 74.0528848,29.775615 72.6081152,35.6975752 C72.2973281,36.971115 71.9382246,38.2335885 71.5309863,39.4795531 C71.5268086,39.4924336 71.5222676,39.505677 71.5180898,39.5187389 C69.6580898,37.5532788 67.373959,35.9484735 64.7879414,34.7933982 C64.7525215,34.777615 64.7171016,34.7618319 64.6816816,34.7462301 C61.6233984,33.3979469 58.2575977,32.7250752 54.914502,32.9093938 Z M64.6693301,37.7669867 L54.4151719,63.4629204 C53.7814277,63.4081327 53.1433242,63.3613274 52.5015879,63.3199646 C51.7922812,63.2713451 51.0817031,63.2356062 50.3713066,63.2067611 L61.0917363,36.3428717 C61.7405566,36.5284602 62.3792051,36.7492434 63.0045937,37.0019558 C63.1059492,37.0431372 64.6722363,37.7597301 64.6693301,37.7669867 Z" fill="#FFFFFF" fill-rule="nonzero"></path>
                    </g>
                </g>
            </g>
        </g>
    </g>
</svg>