<?xml version="1.0" encoding="UTF-8"?>
<svg width="111px" height="192px" viewBox="0 0 111 192" version="1.1" xmlns="http://www.w3.org/2000/svg" xmlns:xlink="http://www.w3.org/1999/xlink">
    <!-- Generator: sketchtool 52.6 (67491) - http://www.bohemiancoding.com/sketch -->
    <title>3EA78E5F-0B12-4FF4-9450-6FBF6A7FBAEF</title>
    <desc>Created with sketchtool.</desc>
    <defs>
        <polygon id="path-1" points="0 192 110.622438 192 110.622438 0.794847458 0 0.794847458"></polygon>
    </defs>
    <g id="Page-1" stroke="none" stroke-width="1" fill="none" fill-rule="evenodd">
        <g id="hari-tani-pramuka-copy" transform="translate(-911.000000, -214.000000)">
            <g id="Group-37" transform="translate(911.000000, 214.000000)">
                <polygon id="Fill-1" fill="#404042" points="6.36950383 168 2.30657523 172.304105 2.30657523 168 0 168 0 179 2.30657523 179 2.30657523 173.959099 7.0455829 178.995205 7.04881 179 10 179 4.48003227 173.045696 9.17063332 168.024773 9.19322307 168"></polygon>
                <polygon id="Fill-2" fill="#404042" points="20 176.950087 14.213705 176.950087 14.213705 174.156931 18.7394503 174.156931 18.7394503 172.138187 14.213705 172.138187 14.213705 170.049913 19.8327526 170.049913 19.8327526 168 12 168 12 179 20 179"></polygon>
                <g id="Group-36">
                    <path d="M24.967708,169.365803 L27.6859927,169.365803 C28.7117299,169.365803 29.3242555,169.866956 29.3242555,170.707363 C29.3242555,171.559973 28.7279343,172.049736 27.6859927,172.049736 L24.967708,172.049736 L24.967708,169.365803 Z M29.3623358,173.747634 C30.7996642,173.295295 31.6576861,172.135973 31.6576861,170.643905 C31.6576861,169.670075 31.3084818,168.866278 30.6197956,168.255295 C29.9432628,167.638617 28.9985474,167.32621 27.8131971,167.32621 L22.6504818,167.32621 L22.6504818,178.524854 L24.967708,178.524854 L24.967708,174.0096 L26.8684818,174.0096 L30.1061168,178.519159 L30.1101679,178.524854 L32.7992847,178.524854 L29.3623358,173.747634 Z" id="Fill-3" fill="#404042"></path>
                    <path d="M40.5264241,174.840651 L40.5264241,167.326617 L38.224592,167.326617 L38.224592,174.457464 C38.224592,175.914549 37.577227,176.564583 36.1253146,176.564583 C35.3069934,176.564583 34.5713146,176.308312 33.9417745,175.802278 L33.9190883,175.782753 L33.9190883,178.086753 L33.9255701,178.091634 C34.5518693,178.526888 35.4520226,178.748176 36.6025336,178.748176 C37.766008,178.748176 38.6912781,178.464244 39.353227,177.905329 C40.1318474,177.247159 40.5264241,176.215566 40.5264241,174.840651" id="Fill-5" fill="#404042"></path>
                    <path d="M49.7395051,174.011959 L46.5245562,174.011959 L48.1401328,170.186603 L49.7395051,174.011959 Z M49.265527,167.27162 L49.2622861,167.262671 L47.0503883,167.262671 L42.2790088,178.504434 L42.2700964,178.524773 L44.7007533,178.524773 L45.7977898,175.939281 L50.4824759,175.939281 L51.5754613,178.515824 L51.5795124,178.524773 L54.0417679,178.524773 L49.265527,167.27162 Z" id="Fill-7" fill="#404042"></path>
                    <polygon id="Fill-9" fill="#404042" points="64.9430212 172.462698 69.6528241 167.351105 69.6755102 167.326698 66.8397438 167.326698 62.7602912 171.707715 62.7602912 167.326698 60.443065 167.326698 60.443065 178.524529 62.7602912 178.524529 62.7602912 173.39341 67.5187073 178.519647 67.5227584 178.524529 70.4865394 178.524529"></polygon>
                    <mask id="mask-2" fill="white">
                        <use xlink:href="#path-1"></use>
                    </mask>
                    <g id="Clip-12"></g>
                    <polygon id="Fill-11" fill="#404042" mask="url(#mask-2)" points="72.1872701 178.525017 74.4891022 178.525017 74.4891022 167.326373 72.1872701 167.326373"></polygon>
                    <polygon id="Fill-13" fill="#404042" mask="url(#mask-2)" points="80.1970949 178.524692 82.5135109 178.524692 82.5135109 169.413641 86.0420146 169.413641 86.0420146 167.326047 76.6856058 167.326047 76.6856058 169.413641 80.1970949 169.413641"></polygon>
                    <path d="M93.062481,174.011959 L89.8483423,174.011959 L91.4631088,170.186603 L93.062481,174.011959 Z M92.5893131,167.27162 L92.585262,167.262671 L90.3733642,167.262671 L85.6027949,178.504434 L85.5938825,178.524773 L88.0245394,178.524773 L89.1215759,175.939281 L93.8054518,175.939281 L94.8984372,178.515824 L94.9024883,178.524773 L97.365554,178.524773 L92.5893131,167.27162 Z" id="Fill-14" fill="#404042" mask="url(#mask-2)"></path>
                    <path d="M1.10894672,185.962739 L2.88251606,185.962739 C3.69759635,185.962739 4.1650927,186.331281 4.1650927,186.973993 C4.1650927,187.623214 3.69759635,187.995824 2.88251606,187.995824 L1.10894672,187.995824 L1.10894672,185.962739 Z M4.66094672,185.503892 C4.25745766,185.128841 3.68868394,184.937654 2.97164015,184.937654 L-0.000243065693,184.937654 L-0.000243065693,191.87162 L1.10894672,191.87162 L1.10894672,189.020908 L2.97164015,189.020908 C3.69192482,189.020908 4.26150876,188.827281 4.66094672,188.444908 C5.07496861,188.059281 5.28400511,187.557315 5.28400511,186.954468 C5.28400511,186.357315 5.07496861,185.869993 4.66094672,185.503892 Z" id="Fill-15" fill="#404042" mask="url(#mask-2)"></path>
                    <path d="M8.87092555,185.962739 L10.8405679,185.962739 C11.6127066,185.962739 12.0737212,186.333722 12.0737212,186.954468 C12.0737212,187.597993 11.6240496,187.966536 10.8405679,187.966536 L8.87092555,187.966536 L8.87092555,185.962739 Z M13.1934438,186.915417 C13.1934438,186.335349 12.986838,185.852908 12.5792978,185.484366 C12.1790496,185.121519 11.6175679,184.937654 10.9094365,184.937654 L7.76173577,184.937654 L7.76173577,191.87162 L8.87092555,191.87162 L8.87092555,188.951756 L10.459765,188.951756 L12.528254,191.865925 L12.5331153,191.87162 L13.874838,191.87162 L11.7099328,188.828095 C12.6384438,188.595417 13.1934438,187.881925 13.1934438,186.915417 Z" id="Fill-16" fill="#404042" mask="url(#mask-2)"></path>
                    <polygon id="Fill-17" fill="#404042" mask="url(#mask-2)" points="17.3292066 188.685397 20.4339657 188.685397 20.4339657 187.660312 17.3292066 187.660312 17.3292066 185.962414 21.1412869 185.962414 21.1412869 184.938142 16.2200168 184.938142 16.2200168 191.871295 21.2684912 191.871295 21.2684912 190.84621 17.3292066 190.84621"></polygon>
                    <path d="M27.6381088,188.312786 C27.2232766,188.086617 26.9291672,187.96621 26.3765978,187.798617 L25.5931161,187.572447 C25.5372109,187.549668 25.4651015,187.52282 25.3897511,187.495159 C25.2398606,187.441464 25.0697146,187.37882 24.9870723,187.327566 C24.7294226,187.143702 24.590065,186.993193 24.590065,186.71821 C24.590065,186.177193 25.1102255,185.855024 25.9804007,185.855024 C26.724992,185.855024 27.4566197,186.06899 28.153408,186.493668 L28.1752839,186.506685 L28.1752839,185.388041 L28.167992,185.383159 C27.5368314,185.003227 26.7930504,184.8096 25.9609555,184.8096 C25.2042109,184.8096 24.5698095,184.987769 24.1258095,185.325397 C23.6842401,185.661397 23.4508971,186.139769 23.4508971,186.707634 C23.4508971,187.367431 23.6712766,187.799431 24.1655102,188.111024 C24.4539482,188.278617 24.6670358,188.386007 24.8550066,188.458414 C25.0721453,188.540583 25.3816489,188.639024 25.7502985,188.743973 L25.9836416,188.811498 C26.3539117,188.918075 26.5394518,188.972583 26.8295102,189.109261 C26.9834518,189.176786 27.1017438,189.245125 27.1795248,189.312651 C27.3164518,189.434685 27.4793058,189.642142 27.4793058,189.943159 C27.4793058,190.548447 26.8449044,190.955227 25.9009993,190.955227 C25.4335029,190.955227 24.9595248,190.865736 24.4920285,190.689193 C24.0156197,190.506142 23.6534518,190.300312 23.3868898,190.060312 L23.3633934,190.039159 L23.3633934,191.25299 L23.3682547,191.257058 C24.0553204,191.756583 24.9036197,191.999837 25.9609555,191.999837 C26.7120285,191.999837 27.3496708,191.813532 27.8560577,191.44499 C28.3616343,191.075634 28.6176635,190.564719 28.6176635,189.92282 C28.5795832,189.161329 28.2676489,188.6496 27.6381088,188.312786" id="Fill-18" fill="#404042" mask="url(#mask-2)"></path>
                    <polygon id="Fill-19" fill="#404042" mask="url(#mask-2)" points="30.495265 185.962739 32.7646883 185.962739 32.7646883 191.87162 33.8738781 191.87162 33.8738781 185.962739 36.1530241 185.962739 36.1530241 184.937654 30.495265 184.937654"></polygon>
                    <path d="M41.7069942,189.169302 L39.2358263,189.169302 L40.4722204,186.320217 L41.7069942,189.169302 Z M41.0118263,184.898115 L39.9512496,184.898115 L36.9412861,191.851607 L36.9323737,191.871132 L38.113673,191.871132 L38.8509723,190.155336 L42.0934686,190.155336 L42.8356292,191.862997 L42.8388701,191.871132 L44.029892,191.871132 L41.0150672,184.907064 L41.0118263,184.898115 Z" id="Fill-20" fill="#404042" mask="url(#mask-2)"></path>
                    <path d="M50.1849635,188.312786 C49.7709416,188.086617 49.4768321,187.96621 48.9242628,187.798617 L48.140781,187.572447 C48.0840657,187.549668 48.0127664,187.52282 47.9374161,187.495159 C47.7867153,187.441464 47.6173796,187.37882 47.5347372,187.327566 C47.2770876,187.143702 47.1369197,186.993193 47.1369197,186.71821 C47.1369197,186.177193 47.6570803,185.855024 48.5280657,185.855024 C49.2726569,185.855024 50.0034745,186.06899 50.701073,186.493668 L50.7229489,186.506685 L50.7229489,185.388041 L50.7156569,185.383159 C50.0836861,185.003227 49.3407153,184.8096 48.5086204,184.8096 C47.7510657,184.8096 47.1166642,184.987769 46.6734745,185.325397 C46.2319051,185.661397 45.998562,186.139769 45.998562,186.707634 C45.998562,187.367431 46.2181314,187.799431 46.7131752,188.111024 C47.0016131,188.278617 47.2147007,188.386007 47.4026715,188.458414 C47.619,188.540583 47.9285036,188.639024 48.2979635,188.743973 L48.5313066,188.811498 C48.9007664,188.918075 49.0871168,188.972583 49.3771752,189.109261 C49.5311168,189.176786 49.6494088,189.245125 49.7271898,189.312651 C49.8633066,189.434685 50.0261606,189.642142 50.0261606,189.943159 C50.0261606,190.548447 49.3917591,190.955227 48.4486642,190.955227 C47.9811679,190.955227 47.5071898,190.865736 47.0396934,190.689193 C46.5624745,190.506142 46.2011168,190.300312 45.9345547,190.060312 L45.9102482,190.039159 L45.9102482,191.25299 L45.9159197,191.257058 C46.6029854,191.756583 47.4512847,191.999837 48.5086204,191.999837 C49.2588832,191.999837 49.8973358,191.813532 50.4029124,191.44499 C50.9092993,191.075634 51.1653285,190.564719 51.1653285,189.92282 C51.126438,189.161329 50.8153139,188.6496 50.1849635,188.312786" id="Fill-21" fill="#404042" mask="url(#mask-2)"></path>
                    <polygon id="Fill-22" fill="#404042" mask="url(#mask-2)" points="53.8187956 191.871458 54.9279854 191.871458 54.9279854 184.938305 53.8187956 184.938305"></polygon>
                    <path d="M62.8469847,188.705329 L64.934919,188.705329 C65.7807876,188.705329 66.2661088,189.088515 66.2661088,189.756447 C66.2661088,190.439024 65.7678241,190.846617 64.934919,190.846617 L62.8469847,190.846617 L62.8469847,188.705329 Z M64.6886124,187.719295 L62.8469847,187.719295 L62.8469847,185.96282 L64.6886124,185.96282 C65.4145686,185.96282 65.8140066,186.2736 65.8140066,186.835769 C65.8140066,187.397939 65.4040358,187.719295 64.6886124,187.719295 Z M66.0368168,188.065058 C66.5788533,187.838075 66.9142839,187.299498 66.9142839,186.649464 C66.9142839,185.593464 66.1332328,184.937736 64.875773,184.937736 L61.7377949,184.937736 L61.7377949,191.871702 L65.130992,191.871702 C65.8447949,191.871702 66.4168095,191.691905 66.8300212,191.335566 C67.251335,190.982481 67.4636124,190.504108 67.4636124,189.913464 C67.4636124,188.971363 66.9053715,188.250549 66.0368168,188.065058 Z" id="Fill-23" fill="#404042" mask="url(#mask-2)"></path>
                    <path d="M74.2067409,189.169302 L71.735573,189.169302 L72.9711569,186.320217 L74.2067409,189.169302 Z M73.511573,184.898115 L72.4501861,184.898115 L69.4410328,191.851607 L69.4321204,191.871132 L70.6126095,191.871132 L71.350719,190.155336 L74.5924051,190.155336 L75.3353759,191.862997 L75.3386168,191.871132 L76.5296387,191.871132 L73.5148139,184.907064 L73.511573,184.898115 Z" id="Fill-24" fill="#404042" mask="url(#mask-2)"></path>
                    <polygon id="Fill-25" fill="#404042" mask="url(#mask-2)" points="83.646035 189.911349 79.7910131 184.943756 79.7861518 184.938061 78.8219912 184.938061 78.8219912 191.871214 79.9117358 191.871214 79.9117358 186.8784 83.7967358 191.866332 83.7999766 191.871214 84.7357796 191.871214 84.7357796 184.938061 83.646035 184.938061"></polygon>
                    <path d="M92.6645015,190.380854 C92.2634431,190.762414 91.7092533,190.955227 91.0189467,190.955227 C90.3286401,190.955227 89.7566255,190.727431 89.2713044,190.25882 C88.803808,189.789397 88.5672241,189.169464 88.5672241,188.414481 C88.5672241,187.661939 88.803808,187.059092 89.2899394,186.570142 C89.7631073,186.095024 90.3813044,185.855024 91.1275161,185.855024 C91.8607642,185.855024 92.5478299,186.072244 93.1716985,186.502617 L93.1943847,186.518888 L93.1943847,185.40838 L93.1879029,185.404312 C92.6094066,185.008922 91.8923628,184.8096 91.0586474,184.8096 C90.0207569,184.8096 89.1481511,185.152922 88.4643263,185.82899 C87.7772606,186.500176 87.4280562,187.366617 87.4280562,188.404719 C87.4280562,189.436312 87.7740197,190.306007 88.4546036,190.989397 L88.4546036,190.99021 C89.1416693,191.659769 90.0045526,191.999837 91.0189467,191.999837 C92.1192241,191.999837 93.1741292,191.555634 93.7704504,190.840515 L93.7736912,190.837261 L93.7736912,187.857193 L92.6645015,187.857193 L92.6645015,190.380854 Z" id="Fill-26" fill="#404042" mask="url(#mask-2)"></path>
                    <path d="M100.397961,188.312786 C99.9839387,188.086617 99.6898292,187.96621 99.1372599,187.798617 L98.3537781,187.572447 C98.297873,187.549668 98.2257635,187.52282 98.1504131,187.495159 C98.0005226,187.441464 97.8303766,187.37882 97.7477343,187.327566 C97.4900847,187.144515 97.350727,186.993193 97.350727,186.71821 C97.350727,186.177193 97.8708876,185.855024 98.7410628,185.855024 C99.485654,185.855024 100.217282,186.06899 100.91407,186.493668 L100.935946,186.506685 L100.935946,185.388041 L100.928654,185.383159 C100.296683,185.003227 99.5537124,184.8096 98.7216175,184.8096 C97.9640628,184.8096 97.3304715,184.987769 96.8864715,185.325397 C96.4449022,185.661397 96.2115591,186.139769 96.2115591,186.707634 C96.2115591,187.367431 96.4311285,187.799431 96.9261723,188.111024 C97.2138,188.278617 97.4268876,188.385193 97.6156686,188.458414 C97.8336175,188.540583 98.1431212,188.639837 98.5109606,188.743973 L98.7443036,188.811498 C99.1145737,188.918075 99.3001139,188.972583 99.5901723,189.109261 C99.7441139,189.176786 99.8624058,189.245125 99.9401869,189.312651 C100.077114,189.434685 100.239968,189.642142 100.239968,189.943159 C100.239968,190.548447 99.6055664,190.955227 98.6616613,190.955227 C98.194165,190.955227 97.7201869,190.865736 97.2526905,190.689193 C96.7762818,190.506142 96.4141139,190.300312 96.1475518,190.060312 L96.1240555,190.039159 L96.1240555,191.25299 L96.1289168,191.257058 C96.8159825,191.756583 97.6642818,191.999837 98.7216175,191.999837 C99.4726905,191.999837 100.110333,191.813532 100.615909,191.44499 C101.122296,191.075634 101.378326,190.564719 101.378326,189.92282 C101.340245,189.161329 101.028311,188.6496 100.397961,188.312786" id="Fill-27" fill="#404042" mask="url(#mask-2)"></path>
                    <path d="M108.110921,189.169302 L105.640564,189.169302 L106.876147,186.320217 L108.110921,189.169302 Z M107.418994,184.907064 L107.416564,184.898115 L106.355177,184.898115 L103.345213,191.851607 L103.336301,191.871132 L104.5176,191.871132 L105.254899,190.155336 L108.497396,190.155336 L109.239556,191.862997 L109.242797,191.871132 L110.433819,191.871132 L107.418994,184.907064 Z" id="Fill-28" fill="#404042" mask="url(#mask-2)"></path>
                    <path d="M45.7699182,52.7153898 L42.8328745,59.0611525 L78.3852832,59.0611525 L78.4468599,59.0611525 C80.8823781,59.0611525 82.8568818,61.0437966 82.8568818,63.4893559 C82.8568818,64.1719322 82.7037504,64.8097627 82.4290861,65.3873898 L63.380838,106.904949 L75.9076336,106.869153 L78.9046336,106.87078 L78.9046336,106.871593 C85.7428818,106.877288 91.2839693,112.444475 91.2839693,119.310915 C91.2839693,126.181424 85.7372102,131.750237 78.8949109,131.750237 L25.378327,131.791729 L20.3298526,143.083932 L78.9281299,143.070102 C89.7518453,143.070102 101.482196,134.225898 101.525137,123.355119 L101.525137,123.322576 L101.558356,123.322576 L104.521327,123.336407 L104.521327,123.368136 C104.471093,135.888814 91.9758964,146.07539 78.9281299,146.07539 L78.8949109,146.07539 L37.2820642,146.076203 L35.068546,151.027525 L80.5315533,151.024271 C94.5029693,151.024271 106.216305,141.449492 109.604641,128.488678 C109.640291,128.354441 109.673509,128.220203 109.707539,128.085966 C109.86148,127.461966 110.003269,126.834712 110.11832,126.196068 C110.238232,125.548475 110.339509,124.894373 110.41648,124.232136 C110.437546,124.045831 110.461042,123.860339 110.478867,123.67322 C110.570422,122.736814 110.619845,121.789831 110.621466,120.831458 C110.621466,120.824136 110.623086,120.816814 110.623086,120.809492 C110.623086,120.807051 110.622276,120.80461 110.622276,120.802169 C110.622276,120.798102 110.623086,120.794034 110.623086,120.789153 C110.623086,119.808 110.569612,118.839051 110.475626,117.883119 C110.428634,117.390102 110.34113,116.910102 110.270641,116.42522 C110.206634,115.997288 110.15802,115.566102 110.076188,115.143864 C109.931159,114.380746 109.743999,113.634712 109.543874,112.892746 C109.517947,112.8 109.497692,112.704 109.470955,112.611254 C106.169312,100.839864 95.9686555,91.9761356 83.5123489,90.7460339 L83.4191737,90.7281356 L93.0931883,69.8448814 L93.0907577,69.8448814 C93.794838,68.3088814 94.1958964,66.6044746 94.1958964,64.8024407 C94.1958964,58.1247458 88.8046993,52.7121356 82.1544219,52.7121356 L45.7699182,52.7153898 Z" id="Fill-29" fill="#D91F25" mask="url(#mask-2)"></path>
                    <polygon id="Fill-30" fill="#D91F25" mask="url(#mask-2)" points="49.0685628 80.0692881 29.2684314 123.225356 34.7203949 123.233492 54.5237672 80.0692881"></polygon>
                    <polygon id="Fill-31" fill="#D91F25" mask="url(#mask-2)" points="45.9313139 80.0692881 45.6760949 80.0692881 45.6315328 80.0692881 40.0928759 80.0692881 33.1655036 80.0692881 16.0277518 117.064271 23.088 117.064271 23.1827956 117.064271 20.4086058 123.225356 25.8719124 123.233492 26.1279416 123.233492"></polygon>
                    <path d="M85.2031949,13.5242847 C85.2129175,13.5023186 85.2234504,13.4811661 85.233173,13.4592 L85.2412752,13.4429288 L85.2388445,13.4429288 C85.6901365,12.3576407 85.9421146,11.1690305 85.9421146,9.92021695 C85.9421146,4.95669153 82.0012095,0.938522034 77.0920927,0.795335593 L5.33099781,0.795335593 L0.271990511,12.1103186 L55.6528883,12.0940475 L54.2422971,15.1693017 L24.7235891,15.1709288 L22.340735,20.0173017 L60.8788007,20.0173017 L49.6653701,44.219878 L62.2391584,44.219878 L73.3440197,20.0173017 L76.3985453,20.0173017 L65.5148737,44.219878 L71.1321219,44.219878 L85.2031949,13.5242847 Z" id="Fill-32" fill="#D91F25" mask="url(#mask-2)"></path>
                    <path d="M70.6532825,71.9655051 L70.7027058,71.9655051 L54.9787861,106.891607 L60.4420927,106.898929 L76.6740197,71.5213017 L76.6691584,71.5213017 L78.7319759,67.0263864 L79.0973847,66.2299119 L79.0981949,66.2299119 L79.5883774,65.1592678 C79.6985672,64.8997424 79.7593336,64.6149966 79.7593336,64.3147932 C79.7593336,63.1180475 78.7935526,62.1474712 77.6009102,62.1474712 L77.5992898,62.1482847 L28.8994577,62.1490983 L24.5105015,71.9655051 L70.6532825,71.9655051 Z" id="Fill-33" fill="#D91F25" mask="url(#mask-2)"></path>
                    <polygon id="Fill-34" fill="#404042" mask="url(#mask-2)" points="91.0709628 37.1580203 93.8022109 37.1580203 93.8022109 44.2343593 96.1712912 44.2343593 96.1712912 37.1580203 98.9146927 37.1580203 98.9146927 35.0663593 91.0709628 35.0663593"></polygon>
                    <polygon id="Fill-35" fill="#404042" mask="url(#mask-2)" points="108.10452 35.066522 108.10452 38.3175051 104.701601 38.3175051 104.701601 35.066522 102.33171 35.066522 102.33171 44.234522 104.701601 44.234522 104.701601 40.4352 108.10452 40.4352 108.10452 44.234522 110.474411 44.234522 110.474411 35.066522"></polygon>
                </g>
            </g>
        </g>
    </g>
</svg>