<?xml version="1.0" encoding="UTF-8"?>
<svg width="32px" height="28px" viewBox="0 0 32 28" version="1.1" xmlns="http://www.w3.org/2000/svg" xmlns:xlink="http://www.w3.org/1999/xlink">
    <!-- Generator: sketchtool 52.6 (67491) - http://www.bohemiancoding.com/sketch -->
    <title>EE769B35-1F9F-485E-A591-A1079DF5B5DE</title>
    <desc>Created with sketchtool.</desc>
    <g id="Page-1" stroke="none" stroke-width="1" fill="none" fill-rule="evenodd">
        <g id="hari-satu-juta-pohon" transform="translate(-1113.000000, -3307.000000)" fill="#2C3E50" fill-rule="nonzero" stroke="#2C3E50">
            <g id="Stacked-Group-4" transform="translate(0.000000, 805.000000)">
                <g id="Group-21" transform="translate(179.000000, 2456.000000)">
                    <g id="Stacked-Group-8-Copy-4" transform="translate(935.000000, 47.000000)">
                        <g id="peta">
                            <path d="M29.7115,3.7955 L22.2115,0.2955 C22.204,0.292 22.1955,0.291 22.188,0.288 C22.167,0.2795 22.1455,0.273 22.124,0.2675 C22.106,0.263 22.0885,0.2585 22.0705,0.256 C22.048,0.2525 22.0255,0.252 22.0025,0.252 C21.984,0.252 21.9655,0.252 21.947,0.254 C21.9255,0.256 21.905,0.261 21.884,0.266 C21.864,0.271 21.844,0.276 21.8245,0.283 C21.8175,0.2855 21.81,0.286 21.803,0.289 L15,3.2045 L8.197,0.289 C8.1925,0.287 8.188,0.287 8.1835,0.285 C8.1635,0.277 8.143,0.2725 8.1225,0.2675 C8.1035,0.2625 8.0845,0.257 8.065,0.254 C8.044,0.2515 8.0235,0.252 8.0025,0.252 C7.983,0.252 7.964,0.2505 7.945,0.253 C7.9235,0.2555 7.9025,0.2615 7.8815,0.2665 C7.863,0.271 7.8445,0.2745 7.8265,0.281 C7.8225,0.2825 7.818,0.2825 7.814,0.2845 L0.314,3.2845 C0.1245,3.3605 0,3.544 0,3.7485 L0,25.2485 C0,25.4145 0.0825,25.5695 0.2195,25.6625 C0.3035,25.719 0.4015,25.7485 0.5,25.7485 C0.5625,25.7485 0.6255,25.737 0.686,25.713 L7.994,22.79 L14.8035,25.708 C14.8105,25.711 14.818,25.7095 14.825,25.7125 C14.882,25.734 14.9405,25.7485 15.0005,25.7485 C15.0605,25.7485 15.1195,25.734 15.176,25.7125 C15.183,25.71 15.1905,25.711 15.1975,25.708 L22.007,22.79 L29.315,25.713 C29.375,25.737 29.438,25.7485 29.501,25.7485 C29.5995,25.7485 29.6975,25.719 29.7815,25.6625 C29.9175,25.5695 30,25.4145 30,25.2485 L30,4.2485 C30,4.054 29.8875,3.8775 29.7115,3.7955 Z M1,4.087 L7.5,1.487 L7.5,21.91 L1,24.51 L1,4.087 Z M8.5,1.507 L14.5,4.0785 L14.5,24.49 L8.5,21.9185 L8.5,1.507 Z M15.5,4.078 L21.5,1.5065 L21.5,21.9185 L15.5,24.49 L15.5,4.078 Z M29,24.51 L22.5,21.91 L22.5,1.5335 L29,4.5665 L29,24.51 Z" id="Shape"></path>
                        </g>
                    </g>
                </g>
            </g>
        </g>
    </g>
</svg>