<?xml version="1.0" encoding="UTF-8"?>
<svg width="468px" height="120px" viewBox="0 0 468 120" version="1.1" xmlns="http://www.w3.org/2000/svg" xmlns:xlink="http://www.w3.org/1999/xlink">
    <!-- Generator: sketchtool 52.6 (67491) - http://www.bohemiancoding.com/sketch -->
    <title>E29F538E-48C0-4FED-89C8-106E2B9FBC21</title>
    <desc>Created with sketchtool.</desc>
    <defs>
        <polygon id="path-1" points="0.0506057143 0.289813953 23.8551771 0.289813953 23.8551771 30.5306023 0.0506057143 30.5306023"></polygon>
        <polygon id="path-3" points="0.54225 0.219574194 11.385 0.219574194 11.385 22 0.54225 22"></polygon>
        <polygon id="path-5" points="0.0024 0.219645161 15.4242182 0.219645161 15.4242182 22 0.0024 22"></polygon>
        <polygon id="path-7" points="0.0173090909 0.219645161 15.4391273 0.219645161 15.4391273 22 0.0173090909 22"></polygon>
        <polygon id="path-9" points="0.5877 0.219574194 11.43045 0.219574194 11.43045 22 0.5877 22"></polygon>
    </defs>
    <g id="Page-1" stroke="none" stroke-width="1" fill="none" fill-rule="evenodd">
        <g id="hari-idul-fitri" transform="translate(-198.000000, -397.000000)">
            <g id="Group-64" transform="translate(198.000000, 397.000000)">
                <path d="M146.750279,29.9194659 L146.753074,29.9209182 C148.185171,30.6470836 149.863171,31 151.884175,31 C154.162258,31 156.171386,30.4168892 157.695697,29.3116655 C160.132358,27.5129539 161,24.6678379 161,22.6055282 C161,19.5599906 160.091142,17.0525416 155.442763,13.2452565 L154.401872,12.3949168 C150.950168,9.59119232 150.004285,8.25795268 150.004285,6.19419068 C150.004285,3.73176388 151.700447,2.07755915 154.224432,2.07755915 C157.259082,2.07755915 158.268536,3.37666901 158.561243,3.93509019 C158.753353,4.2996252 158.968517,5.29229328 159.004145,5.73743265 C159.03628,6.00320918 159.104042,6.55727337 159.64824,6.55727337 C160.257405,6.55727337 160.257405,5.71201687 160.257405,5.30536425 C160.257405,3.25394706 160.34892,2.03471539 160.387342,1.51405481 C160.399218,1.35720309 160.406203,1.25771844 160.406203,1.21269618 C160.406203,0.923682361 160.281157,0.578753807 159.685963,0.578753807 C159.43098,0.578753807 159.171107,0.550433357 158.466235,0.395760131 C157.382731,0.12562661 156.258709,0 154.9307,0 C150.122345,0 146.891393,2.93879129 146.891393,7.31393769 C146.891393,9.97315531 147.734585,12.4639026 151.848547,15.9734598 L153.518862,17.4018271 C156.773566,20.1946592 157.66426,21.6288358 157.66426,24.0723823 C157.66426,26.4440384 155.959715,28.8454673 152.701518,28.8454673 C151.364428,28.8454673 148.187966,28.4896463 147.545268,25.1935816 C147.441179,24.6910752 147.441179,24.1791286 147.441179,23.8407355 C147.441179,23.6461232 147.441179,23.0528461 146.832014,23.0528461 C146.270352,23.0528461 146.211671,23.7172874 146.185823,24.0113844 L146.153689,24.4775826 C146.095706,25.2582104 146,26.5645819 146,28.1272898 C146,29.1933005 146.034231,29.5476692 146.750279,29.9194659" id="Fill-1" fill="#2C3E50"></path>
                <path d="M166.67872,1.50597076 C167.06279,1.50597076 167.665282,1.5476105 167.927681,1.60937612 C168.953824,1.81549286 169.238945,2.18192261 169.314439,3.39502716 C169.3914,4.56510398 169.3914,5.59985163 169.3914,11.3447484 L169.3914,17.8398545 C169.3914,21.2945653 169.3914,24.277359 169.199365,25.8013736 C169.043978,26.877067 168.870266,27.4412856 168.352797,27.539139 C167.938676,27.6265824 167.531151,27.6786321 167.263621,27.6786321 C166.797459,27.6786321 166.584901,27.9728863 166.584901,28.2470146 C166.584901,28.673128 166.917664,28.8896547 167.575128,28.8896547 C167.851454,28.8896547 168.195944,28.8736928 168.565355,28.8556489 C168.978744,28.836217 169.42365,28.8153971 169.853164,28.8153971 C170.663083,28.7786154 171.317615,28.7786154 171.395309,28.7786154 C171.934767,28.7786154 172.781334,28.8091512 174.42536,28.8896547 L175.281456,28.9111685 C176.684339,28.9486443 178.605424,29 181.021989,29 C182.559736,29 183.134376,29 183.483264,27.7737095 C183.676032,27.0033743 184,24.4550219 184,24.113576 C184,23.8672075 184,23.2127695 183.398974,23.2127695 C182.849255,23.2127695 182.744442,23.7582502 182.687271,24.0552804 C182.431468,25.4724197 182.029807,26.0997918 181.152455,26.4509536 C180.206939,26.8298753 178.545321,26.8298753 177.552895,26.8298753 C173.819936,26.8298753 173.503298,26.4224998 173.397752,24.1337019 C173.3699,23.5854452 173.38236,21.2043458 173.391889,19.4658865 C173.395553,18.7816067 173.398485,18.1917103 173.398485,17.8398545 L173.398485,14.6814799 C174.263376,14.6870319 177.840948,14.7585134 178.841437,14.8640008 C180.280235,15.0034939 180.457611,15.5899203 180.555094,15.9119343 C180.694356,16.3422117 180.694356,16.6753296 180.694356,17.0278795 C180.694356,17.434561 180.951625,17.7073013 181.333496,17.7073013 C181.972636,17.7073013 181.972636,16.9730538 181.972636,16.6586738 C181.972636,16.4227152 182.048131,15.0812214 182.12729,14.3289301 C182.19912,13.5828846 182.299536,13.0658578 182.366968,12.7237179 C182.413144,12.4863714 182.440997,12.3253643 182.440997,12.2302869 C182.440997,11.6188767 181.973369,11.5883409 181.87955,11.5883409 C181.568776,11.5883409 181.36428,11.8111135 181.080625,12.1192476 L181.021989,12.1830952 C180.776448,12.4412616 180.352065,12.5134372 179.430735,12.5856128 C178.793061,12.6383564 175.924994,12.6577883 173.398485,12.6584823 L173.398485,12.6362744 L173.398485,2.45049896 L173.398485,2.42898509 C174.252382,2.43384306 177.968483,2.47131883 178.565111,2.53724843 C180.654043,2.75724508 180.849011,3.17850049 181.034449,3.58032402 C181.197166,3.94883576 181.239677,4.50472635 181.239677,4.77538469 C181.239677,5.52212411 181.714635,5.60262761 181.918397,5.60262761 C182.141217,5.60262761 182.431468,5.48326034 182.552407,4.90654988 C182.605913,4.60257975 182.65722,3.81905856 182.697532,3.18960442 C182.718788,2.85856845 182.737112,2.57611219 182.750305,2.45119295 C182.817738,1.85990858 182.909357,1.47474095 182.976057,1.19297868 C183.027364,0.978533994 183.064012,0.823772944 183.064012,0.67942183 C183.064012,0.0492736976 182.664549,0 182.542145,0 C182.344979,0 182.185927,0.0763395314 182.07012,0.131859191 C182.013682,0.158925025 181.960909,0.184602867 181.907403,0.195012803 C181.600293,0.267882356 180.969949,0.335893938 180.304422,0.369205734 C179.426338,0.405987508 171.722942,0.405987508 171.4129,0.406681504 L169.812851,0.33242396 C168.94796,0.295642185 167.907892,0.295642185 166.990227,0.295642185 C166.332763,0.295642185 166,0.511474861 166,0.937588245 C166,1.26168426 166.292451,1.50597076 166.67872,1.50597076" id="Fill-3" fill="#2C3E50"></path>
                <path d="M190.634754,2.22279442 C190.993945,2.22279442 191.557409,2.26486304 191.80281,2.32726481 C192.762481,2.53550446 193.029133,2.90570828 193.099737,4.13130727 C193.171713,5.31343536 193.171713,6.35884045 193.171713,12.1629071 L193.171713,18.7249099 C193.171713,22.2152027 193.171713,25.2287179 192.992117,26.7684292 C192.846795,27.8552018 192.684337,28.4252315 192.200388,28.5240927 C191.813093,28.6124368 191.431966,28.6650226 191.181766,28.6650226 C190.745801,28.6650226 190.547012,28.9623075 190.547012,29.2392592 C190.547012,29.6697614 190.85822,29.8885182 191.473095,29.8885182 C192.026277,29.8885182 192.842683,29.8499553 193.550783,29.8134958 C194.059408,29.8134958 194.515937,29.7959672 194.798355,29.7847489 C194.916943,29.7798409 195.002628,29.7763352 195.045813,29.7763352 C196.049355,29.7763352 197.12213,29.8085878 198.755627,29.8885182 L199.818805,29.9172651 C201.130127,29.9537245 202.760882,30 204.814578,30 C206.77025,30 207.113675,29.8352313 207.44202,28.7358381 C207.74226,27.6189164 208,25.3296826 208,24.9139044 C208,24.618723 208,24.0045212 207.439278,24.0045212 C207.059522,24.0045212 206.834685,24.2709557 206.772307,24.784894 C206.66263,25.493049 206.302753,26.3449385 205.899692,26.8532676 C205.152519,27.7752714 203.772649,27.8446846 201.752542,27.8446846 C198.899577,27.8446846 198.099623,27.5796523 197.620473,27.089553 C197.030961,26.4865695 196.919228,23.710742 196.919228,18.7999323 L196.919228,12.1629071 C196.919228,6.35884045 196.919228,5.31343536 196.991203,4.12920384 C197.061807,2.87696139 197.316806,2.47310268 198.127042,2.33006939 C198.534902,2.26065617 199.022278,2.22279442 199.273849,2.22279442 C199.635097,2.22279442 199.907917,1.97599188 199.907917,1.64855782 C199.907917,1.21805566 199.59671,1 198.98252,1 C198.199703,1 196.646407,1.05539034 195.717583,1.08904524 C195.353593,1.10236696 195.097224,1.11148183 195.045813,1.11148183 C195.001257,1.11148183 194.82783,1.10447039 194.567348,1.09465438 C193.787273,1.06380407 192.162687,1 190.926082,1 C190.311208,1 190,1.21805566 190,1.64855782 C190,1.97599188 190.273506,2.22279442 190.634754,2.22279442" id="Fill-5" fill="#2C3E50"></path>
                <path d="M224.173984,17.6221184 L224.173984,17.2526045 C224.175381,17.2526045 224.176778,17.2526045 224.177476,17.2526045 L224.173984,17.6221184 Z M217.364876,17.2526045 L220.517642,7.01780819 L223.916259,17.2526045 L217.364876,17.2526045 Z M207,30.3156602 C207,31 207.766191,31 208.054647,31 C209.237807,31 210.545989,30.946051 211.412057,30.9105776 C211.819248,30.894319 212.120975,30.8817555 212.252282,30.8817555 C212.413622,30.8817555 212.765637,30.9009703 213.186099,30.9238801 C213.819585,30.9571364 214.608824,31 215.14872,31 C215.966595,31 216.055297,30.52111 216.055297,30.3156602 C216.055297,30.1737669 216.003613,29.7103965 215.334505,29.7103965 L214.962934,29.7103965 C214.552949,29.7103965 213.900605,29.5012516 213.900605,28.9403295 C213.900605,28.2803776 214.082898,27.3662002 214.402784,26.4261568 L216.623829,19.4881636 C216.648274,19.4253463 216.666434,19.4061315 216.670625,19.4061315 C216.670625,19.4061315 216.671323,19.4061315 216.671323,19.4061315 L224.66429,19.4031754 L228.118085,29.0703984 C228.252884,29.4495196 228.158594,29.6313205 228.136943,29.6431449 C227.650827,29.7717358 227.613111,30.1604644 227.613111,30.2764918 C227.613111,30.8440651 228.175357,30.8736262 228.887768,30.9113167 L229.066569,30.920924 C230.722574,30.9711779 232.796946,31 234.907637,31 C235.810024,31 236,30.62753 236,30.3156602 C236,30.1338594 235.929457,29.7103965 235.279208,29.7103965 C234.932083,29.7103965 234.411743,29.672706 233.889309,29.4886881 C233.422051,29.3475338 232.327593,29.0157103 230.923027,25.3442201 C229.311023,21.0933321 225.894945,11.6515126 223.853399,6.00977424 C223.02854,3.7320905 222.431372,2.07888526 222.27073,1.65098815 C221.832109,0.453024054 221.620481,0 221.128778,0 C220.637075,0 220.434527,0.460414332 219.983334,1.77588385 L219.983334,1.77514483 L211.551745,26.1822776 C210.860288,28.2160822 210.173719,29.433261 208.71677,29.6342766 C208.422726,29.6734451 207.920546,29.7103965 207.683774,29.7103965 C207.280774,29.7103965 207,29.9594488 207,30.3156602 Z" id="Fill-7" fill="#2C3E50"></path>
                <path d="M293.152662,17.6221184 L293.152662,17.2526045 C293.154061,17.2526045 293.155461,17.2526045 293.156161,17.2526045 L293.152662,17.6221184 Z M286.331277,17.2526045 L289.489727,7.01780819 L292.894472,17.2526045 L286.331277,17.2526045 Z M268.544876,28.3520633 C268.602252,28.8982049 268.575663,29.2536773 268.544876,29.4007438 C268.190128,29.5308127 268.133452,29.8256848 268.133452,30.0008344 C268.133452,30.6371373 268.888429,30.706606 269.497169,30.7627721 C270.92386,30.8847117 274.961135,31 275.739202,31 C276.00229,31 276.204504,30.9645267 276.359837,30.9098386 C276.589339,30.999261 276.858024,31 277.004262,31 C278.189555,31 279.500095,30.946051 280.367725,30.9105776 C280.77565,30.894319 281.077921,30.8817555 281.209465,30.8817555 C281.371096,30.8817555 281.723745,30.9009703 282.144965,30.9238801 C282.779594,30.9571364 283.570256,31 284.111125,31 C284.930475,31 285.019337,30.52111 285.019337,30.3156602 C285.019337,30.1737669 284.967559,29.7103965 284.297246,29.7103965 L283.925005,29.7103965 C283.51428,29.7103965 282.860759,29.5012516 282.860759,28.9403295 C282.860759,28.2803776 283.043381,27.3662002 283.363845,26.4261568 L285.588894,19.4881636 C285.613383,19.4253463 285.631576,19.4061315 285.635774,19.4061315 C285.635774,19.4061315 285.636474,19.4061315 285.636474,19.4061315 L293.643852,19.4031754 L297.103874,29.0703984 C297.238916,29.4495196 297.144456,29.6313205 297.122766,29.6431449 C296.635774,29.7717358 296.59799,30.1604644 296.59799,30.2764918 C296.59799,30.8440651 297.161249,30.8736262 297.874944,30.9113167 L298.054068,30.920924 C299.713059,30.9711779 301.791171,31 303.905668,31 C304.809681,31 305,30.62753 305,30.3156602 C305,30.1338594 304.92933,29.7103965 304.277909,29.7103965 C303.930157,29.7103965 303.40888,29.672706 302.885503,29.4886881 C302.417403,29.3475338 301.320972,29.0157103 299.913873,25.3442201 C298.298963,21.0933321 294.876725,11.6515126 292.831499,6.00977424 C292.005152,3.7320905 291.406908,2.07888526 291.245977,1.65098815 C290.806564,0.453024054 290.594555,0 290.101966,0 C289.609376,0 289.406463,0.460414332 288.954456,1.77588385 L288.954456,1.77514483 L280.507665,26.1822776 C279.814961,28.2160822 279.127155,29.433261 277.667578,29.6342766 C277.373004,29.6734451 276.869919,29.7103965 276.632721,29.7103965 C276.567648,29.7103965 276.511672,29.7266551 276.453597,29.7392185 C276.386426,29.7222209 276.312957,29.7103965 276.223395,29.7103965 C275.871446,29.7103965 274.936645,29.7103965 273.912983,29.3748778 C272.60734,28.9255489 272.314865,27.1496651 272.143439,25.5201087 L269.649704,1.39232841 C269.598626,0.871313801 269.512563,0 268.855544,0 C268.334966,0 268.102665,0.552053782 267.980218,0.841752688 L257.352458,24.8209884 L246.290885,0.806279353 C246.111761,0.387250578 245.88016,0 245.414859,0 C245.258126,0 244.740347,0.0753808377 244.657783,1.03685603 L241.978627,26.6611677 L241.964633,26.8060171 C241.8079,28.3845805 241.641371,29.431783 240.770244,29.5995423 C240.245468,29.7103965 240.014567,29.7103965 239.722091,29.7103965 C239.30367,29.7103965 239,29.9483634 239,30.2764918 C239,30.5462369 239.128045,31 239.98238,31 C240.628204,31 241.584696,30.9519632 242.282997,30.9172289 C242.676929,30.8972751 242.987596,30.8817555 243.107945,30.8817555 C243.199606,30.8817555 243.438903,30.89358 243.764264,30.9090996 C244.503848,30.9453119 245.620571,31 246.568666,31 C246.820558,31 247.588131,31 247.588131,30.2764918 C247.588131,29.9587098 247.304052,29.7103965 246.940207,29.7103965 C246.724699,29.7103965 246.199924,29.671228 245.594682,29.5212053 C245.197252,29.4369562 244.908975,29.0770496 244.908975,28.6646721 C244.908975,27.9943739 244.908975,27.3011658 244.94536,26.6922068 L246.340564,9.5947982 C247.512563,12.3284621 250.530373,19.1548621 250.831945,19.7919041 L251.024362,20.1991084 C253.222823,24.8586788 254.624324,27.7918802 255.188283,28.9159415 L255.268049,29.0755716 C256.013231,30.5669297 256.190255,30.920924 256.651358,30.920924 C257.167038,30.920924 257.330768,30.5558443 257.938808,29.1982502 L266.859296,9.20533054 L268.544876,28.3520633 Z" id="Fill-9" fill="#2C3E50"></path>
                <g id="Group-13" transform="translate(301.000000, 0.000000)">
                    <mask id="mask-2" fill="white">
                        <use xlink:href="#path-1"></use>
                    </mask>
                    <g id="Clip-12"></g>
                    <path d="M0.576548571,6.07160233 C1.04214857,6.07160233 1.20192,5.62246279 1.25609143,5.46962558 C1.36237714,5.20936977 1.46180571,4.96425349 1.84649143,4.33920698 C2.34706286,3.54834651 3.11849143,3.30899767 5.28466286,3.27295116 L10.3335771,3.20157907 L10.3335771,19.0519512 C10.3335771,22.6407419 10.3335771,25.7393 10.1552914,27.3224628 C10.0085486,28.4399047 9.84672,29.0260209 9.36260571,29.1276721 C8.97517714,29.2185093 8.59323429,29.2725791 8.34294857,29.2725791 C7.90683429,29.2725791 7.70797714,29.5782535 7.70797714,29.8630209 C7.70797714,30.3056721 8.01997714,30.5306023 8.63506286,30.5306023 C9.41883429,30.5306023 10.7909486,30.4729279 11.6110629,30.4383233 C11.9312914,30.4253465 12.1568914,30.4152535 12.20832,30.4152535 C12.2487771,30.4152535 12.40032,30.4217419 12.6320914,30.431114 C13.4480914,30.4628349 15.14592,30.5306023 16.6935771,30.5306023 C17.5294629,30.5306023 17.6192914,30.0634395 17.6192914,29.8630209 C17.6192914,29.5782535 17.4204343,29.2725791 16.9850057,29.2725791 C16.6839771,29.2725791 15.8954057,29.1983233 15.3900343,29.1226256 C14.56992,29.0072767 14.3738057,28.4543233 14.2620343,27.3289512 C14.0823771,25.7393 14.0823771,22.6407419 14.0823771,19.0519512 L14.0823771,3.2023 L18.3269486,3.27295116 C22.31712,3.36018372 22.4302629,4.54899767 22.4775771,5.05292791 L22.5132343,5.46890465 C22.5386057,5.8373 22.58112,6.45513721 23.14752,6.45513721 C23.2476343,6.45513721 23.7454629,6.41332326 23.7454629,5.59578837 C23.7454629,5.43862558 23.7612343,4.96785814 23.7804343,4.38174186 C23.8119771,3.4193 23.8551771,2.10143953 23.8551771,1.37906744 C23.8551771,1.15413721 23.8551771,0.558648837 23.32992,0.558648837 C23.2270629,0.558648837 23.11392,0.583881395 22.9424914,0.623532558 C22.7751771,0.66174186 22.5509486,0.712927907 22.2464914,0.756183721 C21.6197486,0.879462791 20.7701486,0.941462791 19.7196343,0.941462791 L6.04649143,0.941462791 C5.60352,0.941462791 4.21426286,0.862160465 3.19117714,0.751137209 C2.61860571,0.706439535 2.28329143,0.550718605 2.03986286,0.436811628 C1.87117714,0.358230233 1.72512,0.28974186 1.56123429,0.28974186 C1.17723429,0.28974186 1.02226286,0.782137209 0.885805714,1.21541628 L0.863177143,1.29111395 C0.854948571,1.3257186 0.0506057143,4.88927674 0.0506057143,5.36581163 C0.0506057143,5.88704419 0.333805714,6.07160233 0.576548571,6.07160233" id="Fill-11" fill="#2C3E50" mask="url(#mask-2)"></path>
                </g>
                <path d="M10.6649885,77.3482355 C10.6649885,77.070215 10.4622054,76.7717829 10.0174813,76.7717829 C9.71120901,76.7717829 8.90637018,76.6992864 8.39102161,76.6253823 C7.55471645,76.5127664 7.35473044,75.9729139 7.24145165,74.8742051 C7.05824767,73.3222174 7.05824767,70.297073 7.05824767,66.793311 L7.05824767,62.9911169 L22.5704496,62.9911169 L22.5704496,66.793311 C22.5704496,70.297073 22.5704496,73.3222174 22.3886442,74.8678705 C22.2390043,75.9588369 22.0732816,76.5310665 21.5803091,76.6303092 C21.1852318,76.7189942 20.7957485,76.7717829 20.5405216,76.7717829 C20.0957975,76.7717829 19.8937137,77.070215 19.8937137,77.3482355 C19.8937137,77.780399 20.211174,78 20.8384029,78 C21.6369485,78 23.0368506,77.9436921 23.8731557,77.9099073 C24.1990071,77.897238 24.4297602,77.8873841 24.482204,77.8873841 C24.5234599,77.8873841 24.6786938,77.8937188 24.9157402,77.9028688 C25.7471505,77.934542 27.478498,78 29.0560101,78 C29.908398,78 30,77.5439056 30,77.3482355 C30,77.070215 29.7979162,76.7717829 29.3538913,76.7717829 C29.047619,76.7717829 28.2427802,76.6992864 27.7260331,76.6253823 C26.8904272,76.5127664 26.6904412,75.9729139 26.5771624,74.8742051 C26.3932592,73.3222174 26.3932592,70.297073 26.3932592,66.793311 L26.3932592,60.2059851 C26.3932592,54.3802243 26.3932592,53.3300811 26.4673799,52.1412795 C26.5456961,50.7631426 26.881337,50.4604874 27.5512202,50.3352022 C27.978463,50.2641134 28.1917348,50.2275132 28.4231872,50.2275132 C28.7923921,50.2275132 29.0706944,49.9797583 29.0706944,49.6510606 C29.0706944,49.219601 28.753234,49 28.1267044,49 C27.3274596,49 25.9282568,49.0563079 25.0926509,49.0893889 C24.765401,49.102762 24.5346479,49.111912 24.482204,49.111912 C24.4367527,49.111912 24.2605412,49.1055774 23.9955248,49.0950197 C23.1997762,49.0640503 21.5425495,49 20.2804,49 C19.6531711,49 19.3357108,49.219601 19.3357108,49.6510606 C19.3357108,49.9797583 19.614013,50.2275132 19.9825187,50.2275132 C20.3496259,50.2275132 20.9237116,50.2697442 21.174743,50.3323868 C22.1536955,50.54143 22.4250052,50.9130625 22.4970282,52.1433911 C22.5704496,53.3300811 22.5704496,54.3802243 22.5704496,60.2059851 L22.5704496,60.8647881 L7.05824767,60.8647881 L7.05824767,60.2059851 C7.05824767,54.3802243 7.05824767,53.3300811 7.13166911,52.1412795 C7.21068457,50.7631426 7.54562618,50.4604874 8.2155094,50.3352022 C8.65603804,50.261298 8.85672331,50.2275132 9.08817565,50.2275132 C9.45668135,50.2275132 9.73498357,49.9797583 9.73498357,49.6510606 C9.73498357,49.219601 9.41752325,49 8.79029439,49 C7.99104958,49 6.59184672,49.0563079 5.75554157,49.0900927 C5.42899098,49.102762 5.19963639,49.111912 5.14649325,49.111912 C5.10174114,49.111912 4.92483043,49.1055774 4.65911475,49.0950197 C3.86266695,49.0640503 2.20613943,49 0.944689183,49 C0.317460317,49 0,49.219601 0,49.6510606 C0,49.9797583 0.278302217,50.2275132 0.647507167,50.2275132 C1.01391511,50.2275132 1.58870009,50.2697442 1.83903224,50.3323868 C2.8172855,50.54143 3.08999371,50.9130625 3.16201664,52.1433911 C3.23543808,53.3300811 3.23543808,54.3802243 3.23543808,60.2059851 L3.23543808,66.793311 C3.23543808,70.297073 3.23543808,73.3222174 3.05223411,74.8678705 C2.90329348,75.9588369 2.73827005,76.5310665 2.24459828,76.6303092 C1.84952101,76.7189942 1.46073701,76.7717829 1.2055101,76.7717829 C0.760785959,76.7717829 0.558002937,77.070215 0.558002937,77.3482355 C0.558002937,77.780399 0.875463254,78 1.50199287,78 C2.30123768,78 3.70044053,77.9436921 4.53604643,77.9099073 C4.86329627,77.897238 5.09404937,77.8873841 5.14649325,77.8873841 C5.18844836,77.8873841 5.34298301,77.8937188 5.57933012,77.9028688 C6.41074051,77.934542 8.14208797,78 9.71960003,78 C10.5726872,78 10.6649885,77.5439056 10.6649885,77.3482355" id="Fill-14" fill="#2C3E50"></path>
                <path d="M50.1739842,65.6221184 L50.1739842,65.2526045 C50.1753811,65.2526045 50.176778,65.2526045 50.1774765,65.2526045 L50.1739842,65.6221184 Z M43.3648756,65.2526045 L46.5176417,55.0178082 L49.9162592,65.2526045 L43.3648756,65.2526045 Z M34.054647,79 C35.2378074,79 36.5459888,78.946051 37.4120565,78.9105776 C37.8192481,78.894319 38.1209749,78.8817555 38.252282,78.8817555 C38.413622,78.8817555 38.7656367,78.9009703 39.1860986,78.9238801 C39.8195853,78.9571364 40.6088245,79 41.1487199,79 C41.9665952,79 42.0552973,78.52111 42.0552973,78.3156602 C42.0552973,78.1737669 42.0036126,77.7103965 41.3345054,77.7103965 L40.9629344,77.7103965 C40.5529491,77.7103965 39.9006045,77.5012516 39.9006045,76.9403295 C39.9006045,76.2803776 40.0828978,75.3662002 40.4027841,74.4261568 L42.6238289,67.4881636 C42.6482744,67.4253463 42.6664339,67.4061315 42.6713229,67.4061315 C42.6713229,67.4061315 42.6720214,67.4061315 42.6720214,67.4061315 L50.6642904,67.4031754 L54.1180848,77.0703984 C54.2528841,77.4495196 54.1585944,77.6313205 54.1369428,77.6431449 C53.6508273,77.7717358 53.6131114,78.1604644 53.6131114,78.2764918 C53.6131114,78.8440651 54.175357,78.8736262 54.8877676,78.9113167 L55.0665687,78.920924 C56.7225741,78.9711779 58.7969461,79 60.9076371,79 C61.8100238,79 62,78.62753 62,78.3156602 C62,78.1338594 61.9294574,77.7103965 61.2792081,77.7103965 C60.9320826,77.7103965 60.4117435,77.672706 59.889309,77.4886881 C59.4220515,77.3475338 58.3275933,77.0157103 56.9230269,73.3442201 C55.3110233,69.0933321 51.8949447,59.6515126 49.8533995,54.0097742 C49.0285398,51.7320905 48.4313721,50.0788853 48.2707305,49.6509882 C47.8321091,48.4530241 47.6204812,48 47.1287782,48 C46.6370752,48 46.4345271,48.4604143 45.9833337,49.7758839 L45.9833337,49.7751448 L37.5517449,74.1822776 C36.8602876,76.2160822 36.1737193,77.433261 34.7167698,77.6342766 C34.4227258,77.6734451 33.9205462,77.7103965 33.6837745,77.7103965 C33.2807736,77.7103965 33,77.9594488 33,78.3156602 C33,79 33.7661906,79 34.054647,79 Z" id="Fill-16" fill="#2C3E50"></path>
                <path d="M73.4097617,50.9018009 C77.243629,50.9018009 79.532547,53.568686 79.532547,58.0353138 C79.532547,60.5487598 78.7364934,62.5948498 77.4012912,63.5105577 C76.5651182,64.0912334 75.5128635,64.158803 74.7949371,64.158803 C73.04376,64.158803 71.4861414,63.873744 71.0462356,63.6098005 C70.9631814,63.560531 70.9547352,63.5253386 70.9547352,63.462696 L70.9547352,51.22346 C70.9547352,51.1460366 70.9751468,51.1242173 71.0033008,51.111548 C71.3460754,51.0080821 72.3399107,50.9018009 73.4097617,50.9018009 M64.6517645,50.2275132 C65.0205815,50.2275132 65.5984418,50.2697442 65.8511237,50.3323868 C66.8358089,50.54143 67.1103102,50.9137663 67.1821028,52.1440949 C67.2567108,53.3307849 67.2567108,54.3802243 67.2567108,60.2059851 L67.2567108,66.7940149 C67.2567108,70.297073 67.2567108,73.3222174 67.0723023,74.8678705 C66.9223824,75.9595408 66.756274,76.5310665 66.2593563,76.6303092 C65.8609776,76.7189942 65.4703412,76.7717829 65.2127324,76.7717829 C64.7657881,76.7717829 64.5616718,77.0709189 64.5616718,77.3482355 C64.5616718,77.780399 64.8812194,78 65.5118684,78 C66.4691034,78 68.2794039,77.920465 68.8748604,77.8944226 L69.0304111,77.8873841 C69.0726421,77.8873841 69.2281928,77.8937188 69.46539,77.9028688 C70.3036746,77.934542 72.0464055,78 73.6342896,78 C74.4922819,78 74.58519,77.5446095 74.58519,77.3482355 C74.58519,77.0709189 74.3810737,76.7717829 73.9334256,76.7717829 C73.6251396,76.7717829 72.815009,76.6992864 72.296272,76.6253823 C71.4551721,76.5134702 71.2538712,75.9736178 71.1384399,74.8742051 C70.9547352,73.3222174 70.9547352,70.297073 70.9547352,66.7940149 L70.9568468,65.9493957 L75.4685209,66.022596 C75.5656522,66.022596 75.59451,66.0324499 75.6761565,66.1098733 C75.991481,66.5202175 76.4876948,67.2050629 77.0732974,68.0130819 C77.8630164,69.1019368 78.8462939,70.4582545 79.7542595,71.6477598 L80.2314693,72.2770011 C82.1198971,74.7693316 83.3671181,76.416339 84.9205136,77.2468812 C85.9798068,77.8169992 86.9933498,78 89.0922285,78 L91.7499636,78 C92.2173195,78 93,78 93,77.3482355 C93,77.0307995 92.691714,76.7717829 92.3109315,76.7717829 C92.0955536,76.7717829 91.5901898,76.7717829 90.9067521,76.664094 C89.9382554,76.5092471 88.4334256,76.0728605 86.5421824,74.07604 C84.6488277,72.0524732 82.4408524,69.2194796 79.8851755,65.9388379 L78.9758021,64.7725596 C81.9791272,61.9297121 83.3804912,59.1635843 83.3804912,56.0891704 C83.3804912,53.3969468 81.6652104,51.4437649 80.6509635,50.7124654 C78.5464541,49.2034125 75.9042037,49 73.5969856,49 C72.8642784,49 71.4593952,49.0450464 70.4331829,49.0774234 C69.8208339,49.0971312 69.3330664,49.1126159 69.1803311,49.1126159 C69.1352847,49.1126159 68.9572108,49.1055774 68.6897481,49.0950197 C67.8880637,49.0640503 66.2206446,49 64.9501966,49 C64.3195476,49 64,49.219601 64,49.6517645 C64,49.9797583 64.280132,50.2275132 64.6517645,50.2275132" id="Fill-18" fill="#2C3E50"></path>
                <path d="M93.6962978,50.2275132 C93.9206186,50.2275132 94.41292,50.256371 94.8540341,50.3689869 C95.3576268,50.475972 95.8363786,50.7645503 95.9229453,52.1433911 C96.0019845,53.3300811 96.0019845,54.3795204 96.0019845,60.2059851 L96.0019845,66.793311 C96.0019845,70.297073 96.0019845,73.3222174 95.8055156,74.8678705 C95.645179,75.9588369 95.4675289,76.5310665 94.9353316,76.6303092 C94.5100253,76.7189942 94.0914939,76.7717829 93.8167385,76.7717829 C93.3379867,76.7717829 93.1196879,77.070215 93.1196879,77.3482355 C93.1196879,77.780399 93.4614384,78 94.1366591,78 C94.9970574,78 96.503319,77.9429882 97.4028605,77.9099073 C97.7551495,77.897238 98.0035585,77.8873841 98.0600151,77.8873841 C98.1044276,77.8873841 98.2707863,77.8937188 98.5252173,77.9021649 C99.420995,77.9338382 101.284815,78 102.983029,78 C103.901389,78 104,77.5439056 104,77.3482355 C104,77.070215 103.781701,76.7717829 103.303702,76.7717829 C102.973243,76.7717829 102.107575,76.6992864 101.552795,76.6246784 C100.651748,76.5127664 100.436461,75.9729139 100.314514,74.8742051 C100.117293,73.3222174 100.117293,70.297073 100.117293,66.793311 L100.117293,60.2059851 C100.117293,54.3795204 100.117293,53.3300811 100.197085,52.1412795 C100.281393,50.7631426 100.642715,50.4604874 101.363854,50.3352022 C101.837337,50.261298 102.05413,50.2275132 102.303292,50.2275132 C102.699993,50.2275132 102.998837,49.9797583 102.998837,49.6510606 C102.998837,49.2188971 102.657086,49 101.982618,49 C101.12222,49 99.6152056,49.0556041 98.7156641,49.0893889 C98.3641278,49.102762 98.1164716,49.111912 98.0600151,49.111912 C98.005064,49.111912 97.7717101,49.102762 97.4359817,49.0907966 C96.5755834,49.0591233 94.9744748,49 94.0169712,49 C93.3417505,49 93,49.2188971 93,49.6510606 C93,49.9797583 93.2995962,50.2275132 93.6962978,50.2275132" id="Fill-20" fill="#2C3E50"></path>
                <path d="M130.968902,50.8844943 C130.968902,50.8031994 130.989355,50.7802889 131.017567,50.7669861 C131.361745,50.6583464 132.357605,50.5467506 133.42893,50.5467506 C137.271312,50.5467506 139.564893,53.3469938 139.564893,58.0369761 C139.564893,60.6761074 138.767217,62.8245125 137.42859,63.7860106 C136.591419,64.3957231 135.537021,64.4666714 134.816927,64.4666714 C133.062888,64.4666714 131.501391,64.167358 131.060589,63.890216 C130.978071,63.8384828 130.968902,63.8015305 130.968902,63.7357555 L130.968902,50.8844943 Z M166.058147,65.2530158 C166.059557,65.2522767 166.060968,65.2522767 166.061673,65.2522767 L166.058147,65.6217995 L166.058147,65.2530158 Z M165.797897,65.2522767 L159.182342,65.2522767 L162.36599,55.0172364 L165.797897,65.2522767 Z M177.272148,77.7103657 C176.921622,77.7103657 176.396186,77.6734134 175.868634,77.4893911 C175.3968,77.3474944 174.291621,77.016402 172.873297,73.3448243 C171.245504,69.0930959 167.795964,59.6510514 165.734422,54.0099175 C164.901482,51.7314404 164.298465,50.0789348 164.13625,49.6510275 C163.693332,48.4522958 163.479632,48 162.983112,48 C162.486593,48 162.282061,48.4604253 161.826448,49.7759262 L161.826448,49.7751871 L153.312271,74.1821628 C152.668347,76.0593382 152.020192,77.2292471 150.76902,77.5588614 C149.79714,77.3674486 148.36612,76.8464216 146.588102,74.8798217 C144.69089,72.755066 142.478417,69.7804081 139.917534,66.3357174 L139.006308,65.1111191 C142.015751,62.1261145 143.41997,59.221666 143.41997,55.9935155 C143.41997,53.1666667 141.7019,51.1150765 140.684882,50.3479474 C138.576086,48.7634339 135.928453,48.5498498 133.616535,48.5498498 C132.882335,48.5498498 131.47459,48.5971487 130.446993,48.6311448 C129.833396,48.6518381 129.34393,48.667358 129.190884,48.667358 C129.145745,48.667358 128.967309,48.6607066 128.699301,48.6496209 C127.896689,48.6171029 126.225168,48.5498498 124.952837,48.5498498 C124.320199,48.5498498 124,48.780432 124,49.2342059 C124,49.5786011 124.281408,49.8387451 124.653092,49.8387451 C125.02266,49.8387451 125.602403,49.8830878 125.854895,49.9488628 C126.841586,50.1683593 127.116646,50.5593144 127.18929,51.8511658 C127.263345,53.0971964 127.263345,54.1991131 127.263345,60.3161922 L127.263345,67.2336576 C127.263345,70.9118867 127.263345,74.088304 127.078561,75.7112478 C126.928335,76.8575073 126.761889,77.4576122 126.263959,77.5618176 C125.865474,77.6549373 125.473336,77.7103657 125.215908,77.7103657 C124.767348,77.7103657 124.562816,78.02446 124.562816,78.3156439 C124.562816,78.7694178 124.883014,79 125.515653,79 C126.474133,79 128.288121,78.9164879 128.884791,78.8891432 L129.041364,78.8817527 C129.082975,78.8817527 129.238843,78.8884041 129.477228,78.8980117 C130.316515,78.9312688 132.062796,79 133.65462,79 C134.513655,79 134.606752,78.5218376 134.606752,78.3156439 C134.606752,78.02446 134.40222,77.7103657 133.95366,77.7103657 C133.644746,77.7103657 132.833671,77.634244 132.313172,77.5566443 C131.470359,77.439136 131.268648,76.8722882 131.153686,75.7178992 C130.968902,74.088304 130.968902,70.9118867 130.968902,67.2336576 L130.971018,66.346803 L135.491883,66.4236638 C135.589212,66.4236638 135.618128,66.4340104 135.699941,66.5153054 C136.015908,66.9461689 136.513133,67.6652601 137.099928,68.5136843 C137.891256,69.6569876 138.876536,71.0811281 139.786351,72.3301149 L140.265239,72.9908215 C142.156808,75.6077814 143.407275,77.3371478 144.963129,78.2092214 C146.025286,78.8078482 147.040188,79 149.144048,79 L151.806491,79 C152.013844,79 152.281852,78.9963048 152.517417,78.9371811 C152.752981,78.9283126 152.973735,78.919444 153.170509,78.9113145 C153.582394,78.8943165 153.887076,78.8817527 154.01967,78.8817527 C154.18259,78.8817527 154.538053,78.9009679 154.962633,78.9238783 C155.602325,78.9578744 156.399295,79 156.944479,79 C157.770365,79 157.859936,78.5218376 157.859936,78.3156439 C157.859936,78.1737472 157.807745,77.7103657 157.132084,77.7103657 L156.756873,77.7103657 C156.342872,77.7103657 155.684138,77.5019549 155.684138,76.9402804 C155.684138,76.2803128 155.868217,75.3661136 156.191236,74.4260478 L158.434036,67.4886282 C158.458721,67.4258094 158.477059,67.4058551 158.481996,67.4058551 C158.481996,67.4058551 158.482701,67.4058551 158.482701,67.4058551 L166.553255,67.403638 L170.04088,77.0703524 C170.177,77.4502217 170.081787,77.6312878 170.059923,77.6431126 C169.568341,77.7724455 169.530961,78.1611834 169.530961,78.2764745 C169.530961,78.8440614 170.098714,78.8743623 170.818102,78.9113145 L170.998655,78.9216612 C172.670881,78.9719163 174.765572,79 176.896937,79 C177.808163,79 178,78.6282601 178,78.3156439 C178,78.1338387 177.928766,77.7103657 177.272148,77.7103657 Z" id="Fill-22" fill="#2C3E50"></path>
                <path d="M191.945372,77.3482355 C191.945372,77.070215 191.746611,76.7717829 191.310707,76.7717829 C191.010509,76.7717829 190.221633,76.6992864 189.716505,76.6253823 C188.940651,76.519101 188.593847,76.0165526 188.518455,74.8903937 C188.410164,73.3306636 188.410164,71.7624873 188.410164,71.1726615 L188.410164,67.9539585 C188.410164,66.7581185 188.410164,65.6291442 188.93037,64.3467307 C189.558867,62.8045969 194.624537,54.045192 195.841093,52.5312121 C196.662867,51.4951459 197.024065,51.1080287 197.688201,50.6983884 C198.192644,50.3753216 198.816343,50.2275132 199.183708,50.2275132 C199.747779,50.2275132 200,49.9002233 200,49.5764526 C200,49.3103976 199.785475,49 199.183708,49 C198.734097,49 197.503148,49.0457502 196.60461,49.0788311 C196.111134,49.0978351 195.725948,49.111912 195.647814,49.111912 C195.548434,49.111912 195.340763,49.0978351 195.074148,49.0802388 C194.562852,49.0464541 193.863761,49 193.242803,49 C192.437478,49 192.31685,49.3610747 192.31685,49.5764526 C192.31685,50.0170623 192.730822,50.158536 193.123547,50.2922674 C193.2195,50.3169021 193.446362,50.3753216 193.446362,50.9982282 C193.446362,51.5169652 193.25514,52.096937 192.876123,52.7254745 C192.246256,53.7925101 188.324491,60.7303529 187.090115,63.1790447 C185.728943,60.8288918 181.225973,52.8676521 180.716048,51.9188632 C180.455602,51.4177224 180.2822,51.0059706 180.2822,50.6244842 C180.2822,50.5716955 180.2822,50.4112179 180.552927,50.2725596 C180.631061,50.2359594 180.703026,50.2071016 180.766081,50.181763 C180.993628,50.0902626 181.303422,49.9656813 181.303422,49.6137566 C181.303422,49.3336246 181.161547,49 180.486445,49 C179.478931,49 178.493349,49.0556041 177.90529,49.088685 C177.667462,49.1020582 177.498172,49.111912 177.424836,49.111912 C177.364523,49.111912 177.012921,49.0992428 176.548916,49.0823504 C175.645581,49.0492695 174.280296,49 173.816977,49 C173.039752,49 173,49.5116985 173,49.6137566 C173,49.9755352 173.290603,50.2275132 173.707316,50.2275132 C173.9472,50.2275132 174.576382,50.4196641 175.084251,50.7673657 C175.796365,51.2551332 176.688049,52.2553031 177.468701,53.4412893 C178.765447,55.418402 183.617277,63.6098005 183.864015,64.1890685 C184.328019,65.2525848 184.663172,66.0211883 184.663172,67.9539585 L184.663172,71.1726615 C184.663172,71.7624873 184.663172,73.3306636 184.554881,74.8910975 C184.506219,75.6139508 184.318424,76.5022086 183.692669,76.6303092 C183.304056,76.7189942 182.922983,76.7717829 182.673504,76.7717829 C182.2376,76.7717829 182.038838,77.070215 182.038838,77.3482355 C182.038838,77.780399 182.350688,78 182.964792,78 C183.748185,78 185.120323,77.9436921 185.939356,77.9099073 C186.25943,77.897238 186.484922,77.8873841 186.536325,77.8873841 C186.577448,77.8873841 186.728918,77.8937188 186.960578,77.9028688 C187.776184,77.934542 189.473194,78 191.019419,78 C191.854902,78 191.945372,77.5439056 191.945372,77.3482355" id="Fill-24" fill="#2C3E50"></path>
                <path d="M214.173984,65.2530158 C214.175381,65.2530158 214.176778,65.2530158 214.177476,65.2530158 L214.173984,65.6225385 L214.173984,65.2530158 Z M213.916259,65.2530158 L207.364876,65.2530158 L210.517642,55.0172364 L213.916259,65.2530158 Z M217.613111,78.2772136 C217.613111,78.8440614 218.175357,78.8743623 218.887768,78.9113145 L219.066569,78.9216612 C220.722574,78.9719163 222.796946,79 224.907637,79 C225.810024,79 226,78.6282601 226,78.3156439 C226,78.1338387 225.929457,77.7103657 225.279208,77.7103657 C224.932083,77.7103657 224.411743,77.6734134 223.889309,77.4893911 C223.422051,77.3474944 222.327593,77.016402 220.923027,73.3448243 C219.311023,69.0930959 215.894945,59.6510514 213.853399,54.0099175 C213.02854,51.7314404 212.431372,50.0789348 212.27073,49.6510275 C211.832109,48.4530349 211.620481,48 211.128778,48 C210.637075,48 210.434527,48.4596863 209.983334,49.7751871 L201.551745,74.1821628 C200.860288,76.2167549 200.173719,77.4339627 198.71677,77.6349831 C198.422726,77.6741525 197.920546,77.7103657 197.683774,77.7103657 C197.280774,77.7103657 197,77.959424 197,78.3156439 C197,79 197.766191,79 198.054647,79 C199.237807,79 200.545989,78.9467887 201.412057,78.9113145 C201.819248,78.8943165 202.120975,78.8817527 202.252282,78.8817527 C202.413622,78.8817527 202.765637,78.9009679 203.186099,78.9238783 C203.819585,78.9578744 204.608824,79 205.14872,79 C205.967294,79 206.055297,78.5218376 206.055297,78.3156439 C206.055297,78.1737472 206.003613,77.7103657 205.334505,77.7103657 L204.962934,77.7103657 C204.552949,77.7103657 203.900605,77.5019549 203.900605,76.9402804 C203.900605,76.2803128 204.082898,75.3668526 204.402784,74.4260478 L206.623829,67.4886282 C206.648274,67.4258094 206.666434,67.4058551 206.670625,67.4058551 C206.670625,67.4058551 206.671323,67.4058551 206.671323,67.4065942 L214.66429,67.403638 L218.118085,77.0703524 C218.252884,77.4502217 218.158594,77.6312878 218.136943,77.6431126 C217.650827,77.7724455 217.613111,78.1611834 217.613111,78.2772136 Z" id="Fill-26" fill="#2C3E50"></path>
                <path d="M252.302997,76.7717829 C251.973313,76.7717829 251.106952,76.6992864 250.55221,76.6253823 C249.651978,76.5127664 249.435952,75.9729139 249.314014,74.8742051 C249.117559,73.3222174 249.117559,70.297073 249.117559,66.793311 L249.117559,60.2059851 C249.117559,54.3802243 249.117559,53.3300811 249.196592,52.1412795 C249.280895,50.7631426 249.642192,50.4604874 250.363282,50.3352022 C250.837485,50.261298 251.05351,50.2275132 251.302655,50.2275132 C251.699329,50.2275132 251.998905,49.9797583 251.998905,49.6510606 C251.998905,49.2188971 251.657178,49 250.982004,49 C250.122417,49 248.615506,49.0563079 247.715273,49.0893889 C247.363761,49.102762 247.116122,49.111912 247.059669,49.111912 C247.004721,49.111912 246.771384,49.102762 246.435678,49.0907966 C245.575339,49.0591233 243.975092,49 243.016902,49 C242.34248,49 242,49.2188971 242,49.6510606 C242,49.9797583 242.299576,50.2275132 242.69625,50.2275132 C242.920556,50.2275132 243.412823,50.256371 243.853907,50.3689869 C244.357465,50.475972 244.836184,50.7645503 244.922745,52.1433911 C245.002532,53.3300811 245.002532,54.3802243 245.002532,60.2059851 L245.002532,66.793311 C245.002532,70.297073 245.002532,73.3222174 244.805324,74.8678705 C244.644998,75.9588369 244.46736,76.5310665 243.935952,76.6303092 C243.509922,76.7189942 243.092172,76.7717829 242.816683,76.7717829 C242.338716,76.7717829 242.120432,77.070215 242.120432,77.3482355 C242.120432,77.780399 242.46216,78 243.136581,78 C243.996921,78 245.503079,77.9436921 246.402559,77.9099073 C246.754824,77.897238 247.003216,77.8873841 247.059669,77.8873841 C247.104831,77.8873841 247.270426,77.8937188 247.524839,77.9021649 C248.421308,77.9338382 250.284248,78 251.982346,78 C252.900643,78 253,77.5439056 253,77.3482355 C253,77.070215 252.781716,76.7717829 252.302997,76.7717829" id="Fill-28" fill="#2C3E50"></path>
                <path d="M265.049901,60.4889202 C265.049901,57.6966062 265.049901,53.8726526 265.086918,52.6093636 C265.086918,52.3074542 265.144189,52.2678025 265.339748,52.180847 C265.530418,52.089022 266.730312,51.958241 267.597057,51.958241 C272.405014,51.958241 276.268003,52.6511022 279.489138,56.0312351 C280.784717,57.3842622 282.958913,60.3637043 282.958913,65.1128641 C282.958913,68.6321257 281.833052,72.0046066 280.089085,73.7082381 C277.958889,75.8299515 274.82785,77.0466324 271.497062,77.0466324 C267.270893,77.0466324 265.887313,76.3245542 265.466163,75.7096051 C265.298541,75.4821296 265.183999,74.6000534 265.123236,73.0849413 C265.088315,72.4192103 265.049901,69.1684671 265.049901,65.075995 L265.049901,60.4889202 Z M268.859809,50.0027865 L268.1544,50.0055691 C266.608786,50.0055691 264.991932,50.0591336 264.025312,50.0911332 C263.590892,50.1057418 263.2766,50.1161764 263.141106,50.1161764 C263.095708,50.1161764 262.919007,50.10922 262.653605,50.0987853 C261.858798,50.0688726 260.204229,50.0055691 258.943572,50.0055691 C258.317085,50.0055691 258,50.2219143 258,50.6490395 C258,50.9739051 258.278672,51.2187717 258.646741,51.2187717 C259.012716,51.2187717 259.586821,51.2598147 259.836858,51.3224226 C260.814652,51.5290288 261.08634,51.8963287 261.158278,53.112314 C261.231612,54.2851693 261.231612,55.3223741 261.231612,61.080913 L261.231612,67.5914427 C261.231612,71.0543572 261.231612,74.044234 261.048625,75.5718677 C260.900559,76.6501155 260.735032,77.2149782 260.241944,77.3137596 C259.847334,77.4014107 259.45901,77.453584 259.204085,77.453584 C258.759886,77.453584 258.557343,77.7485369 258.557343,78.0233162 C258.557343,78.4504414 258.874428,78.6667867 259.500915,78.6667867 C259.764221,78.6667867 260.092481,78.6507868 260.444487,78.6333958 C260.838399,78.6139177 261.262343,78.5930484 261.67162,78.5923528 C262.443379,78.5561793 263.067073,78.5561793 263.141106,78.5561793 C263.231203,78.5561793 263.580415,78.5833094 264.104234,78.6236567 C264.649005,78.6653954 265.377463,78.7210469 266.19881,78.777394 C268.326213,78.9248705 270.071577,79 271.385314,79 C276.175112,79 280.15334,77.4918444 282.892563,74.6376181 C285.502577,71.8981731 287,68.008829 287,63.9664432 C287,59.1699796 284.987838,56.0778432 283.299046,54.3282992 C279.045638,49.9492219 272.667622,49.9833085 268.859809,50.0027865 Z" id="Fill-30" fill="#2C3E50"></path>
                <path d="M318.283932,63.971511 L318.283932,59.7663424 C318.283932,53.6492633 318.283932,52.5473466 318.358413,51.2990988 C318.43715,49.8764364 318.766994,49.5623421 319.458601,49.4019692 C319.892009,49.3273256 320.108358,49.2888952 320.34315,49.2888952 C320.717682,49.2888952 321,49.0287513 321,48.683617 C321,48.2305822 320.677959,48 320.042389,48 C319.270626,48 318.217254,48.0532113 317.520681,48.0886855 C317.197221,48.1049445 316.956755,48.1175082 316.873052,48.1175082 C316.814177,48.1175082 316.626911,48.1093787 316.353105,48.097554 C315.574958,48.0635579 314.126483,48 312.874496,48 C312.238926,48 311.916175,48.2305822 311.916175,48.683617 C311.916175,49.0287513 312.199203,49.2888952 312.573025,49.2888952 C312.94543,49.2888952 313.527799,49.333238 313.781743,49.399013 C314.774821,49.6185095 315.050755,50.0087255 315.123817,51.3005769 C315.198298,52.5473466 315.198298,53.6492633 315.198298,59.7663424 L315.198298,64.6795165 C315.198298,69.3561961 314.567693,72.1667859 313.092973,74.0705669 C311.756574,75.7341582 309.590955,76.7673437 307.443069,76.7673437 C305.323557,76.7673437 303.753076,76.430339 301.991781,74.7083631 C300.64758,73.372908 299.272876,71.2075049 299.272876,65.2685357 L299.272876,59.7663424 C299.272876,53.6492633 299.272876,52.5473466 299.348066,51.2990988 C299.428931,49.8261813 299.779346,49.5054356 300.446836,49.4019692 C300.893721,49.3243694 301.097302,49.2888952 301.332803,49.2888952 C301.706626,49.2888952 301.988235,49.0287513 301.988235,48.683617 C301.988235,48.2305822 301.666194,48 301.030624,48 C300.292909,48 299.100506,48.048777 298.230145,48.0842512 C297.770491,48.1027273 297.414402,48.1175082 297.295942,48.1175082 C297.193088,48.1175082 296.905095,48.1064225 296.508573,48.0916416 C295.621897,48.0569065 294.137955,48 292.95832,48 C292.322041,48 292,48.2305822 292,48.683617 C292,49.0287513 292.283027,49.2888952 292.65685,49.2888952 C293.028545,49.2888952 293.610914,49.333238 293.865568,49.399013 C294.859355,49.6185095 295.134579,50.0087255 295.206932,51.3005769 C295.281413,52.5473466 295.281413,53.6492633 295.281413,59.7663424 L295.281413,65.5042912 C295.281413,71.8977733 297.09378,74.5287751 298.674902,76.1088542 C301.233496,78.6245649 304.79368,79 306.68833,79 C308.73407,79 311.789913,78.6888619 314.693956,75.9987365 C317.876061,73.0573356 318.283932,68.0259143 318.283932,63.971511" id="Fill-32" fill="#2C3E50"></path>
                <path d="M326.634754,50.2227944 C326.993945,50.2227944 327.557409,50.264863 327.80281,50.3272648 C328.762481,50.5355045 329.029133,50.9057083 329.099737,52.1313073 C329.171713,53.3134354 329.171713,54.3588405 329.171713,60.1629071 L329.171713,66.7249099 C329.171713,70.2152027 329.171713,73.2287179 328.992117,74.7684292 C328.846795,75.8552018 328.684337,76.4252315 328.200388,76.5240927 C327.813093,76.6124368 327.431966,76.6650226 327.181766,76.6650226 C326.745801,76.6650226 326.547012,76.9623075 326.547012,77.2392592 C326.547012,77.6697614 326.85822,77.8885182 327.473095,77.8885182 C328.026277,77.8885182 328.842683,77.8499553 329.550783,77.8134958 C330.059408,77.8134958 330.515937,77.7959672 330.798355,77.7847489 C330.916943,77.7798409 331.002628,77.7763352 331.045813,77.7763352 C332.049355,77.7763352 333.12213,77.8085878 334.755627,77.8885182 L335.818805,77.9172651 C337.130812,77.9537245 338.761567,78 340.814578,78 C342.770936,78 343.114361,77.8352313 343.44202,76.7358381 C343.74226,75.6189164 344,73.3296826 344,72.9139044 C344,72.618723 344,72.0045212 343.439278,72.0045212 C343.059522,72.0045212 342.834685,72.2709557 342.772307,72.784894 C342.66263,73.493049 342.302753,74.3449385 341.899692,74.8532676 C341.152519,75.7752714 339.772649,75.8446846 337.752542,75.8446846 C334.899577,75.8446846 334.099623,75.5796523 333.620473,75.089553 C333.030961,74.4865695 332.919228,71.710742 332.919228,66.7999323 L332.919228,60.1629071 C332.919228,54.3588405 332.919228,53.3134354 332.991203,52.1292038 C333.061807,50.8769614 333.316806,50.4731027 334.127042,50.3300694 C334.534902,50.2606562 335.022278,50.2227944 335.273849,50.2227944 C335.635097,50.2227944 335.907917,49.9759919 335.907917,49.6485578 C335.907917,49.2180557 335.59671,49 334.98252,49 C334.199703,49 332.646407,49.0553903 331.717583,49.0890452 C331.353593,49.102367 331.097224,49.1114818 331.045813,49.1114818 C331.001257,49.1114818 330.82783,49.1044704 330.567348,49.0946544 C329.787273,49.0638041 328.162687,49 326.926082,49 C326.311208,49 326,49.2180557 326,49.6485578 C326,49.9759919 326.273506,50.2227944 326.634754,50.2227944" id="Fill-34" fill="#2C3E50"></path>
                <path d="M361.684658,50.5117229 C362.072089,50.5117229 362.679852,50.5535217 362.944547,50.6155232 C363.979667,50.8224272 364.267283,51.1902566 364.343438,52.4079946 C364.421072,53.5825406 364.421072,54.6212405 364.421072,60.3880801 L364.421072,66.9079946 C364.421072,70.3759008 364.421072,73.3700874 364.227357,74.8999231 C364.07061,75.9797252 363.895379,76.5460988 363.373383,76.6443259 C362.955638,76.7321034 362.544547,76.7843519 362.274677,76.7843519 C361.804436,76.7843519 361.590018,77.07973 361.590018,77.3549054 C361.590018,77.7826463 361.925693,78 362.588909,78 C363.433272,78 364.912754,77.9435716 365.797043,77.9108292 C366.142329,77.8982896 366.386322,77.8885366 366.442514,77.8885366 C366.486137,77.8885366 366.649538,77.8948064 366.899445,77.9031661 C367.778558,77.9345152 369.609242,78 371.278004,78 C372.179298,78 372.276895,77.5485731 372.276895,77.3549054 C372.276895,77.07973 372.062477,76.7843519 371.592237,76.7843519 C371.268392,76.7843519 370.418115,76.7125973 369.872458,76.6387528 C368.98817,76.527986 368.77671,75.9936581 368.656932,74.9061929 C368.463216,73.3700874 368.463216,70.3759008 368.463216,66.9079946 L368.463216,63.7744787 C371.501294,63.7751754 373.665434,63.8155809 374.257671,63.8824589 C375.28244,64.0071586 375.830314,64.53452 375.998891,64.9810704 C376.126063,65.3377534 376.169686,65.7647977 376.205176,66.1082445 L376.216266,66.2043817 C376.216266,66.6119199 376.475786,66.8857019 376.860998,66.8857019 C377.50573,66.8857019 377.50573,66.1751225 377.50573,65.8337657 C377.50573,65.5808831 377.585582,64.1060824 377.661738,63.38366 C377.734196,62.6340684 377.836229,62.1143701 377.903512,61.7709234 C377.950092,61.533367 377.977449,61.3724416 377.977449,61.2770011 C377.977449,60.6792784 377.544177,60.6326031 377.41183,60.6326031 C377.099076,60.6326031 376.912754,60.8611031 376.76414,61.0450178 L376.674677,61.152998 C376.431423,61.4839051 376.101664,61.5953685 375.143438,61.6706063 C374.607394,61.7068319 374.075046,61.7068319 373.398521,61.7068319 L368.463216,61.7416643 L368.463216,51.5343999 C368.463216,51.5100173 368.464695,51.4905112 368.466174,51.475185 L374.492791,51.5859518 C375.868762,51.6193908 376.662847,52.2066638 376.839556,52.5696166 C377.048059,52.994571 377.159704,53.5755741 377.159704,53.8312434 C377.159704,54.5857115 377.697227,54.6240271 377.805176,54.6240271 C378.003327,54.6240271 378.356007,54.5341597 378.483919,53.9252907 C378.537153,53.6222494 378.585952,52.8754444 378.629575,52.2157202 C378.651017,51.8778466 378.67024,51.5880417 378.683549,51.4598587 C378.750832,50.8663159 378.843993,50.4789805 378.911275,50.196142 C378.963031,49.9815749 379,49.8262227 379,49.6820169 C379,49.2800519 378.750832,49 378.394455,49 C378.209612,49 378.063216,49.0773278 377.935305,49.1455991 C377.873937,49.1776449 377.806654,49.2152638 377.726802,49.240343 C377.496858,49.3127943 377.057671,49.3302104 376.549723,49.3511098 L376.097967,49.3706159 C375.107209,49.4110214 367.182625,49.4416739 366.460259,49.4082348 L364.846211,49.3336937 C363.973752,49.2967714 362.924584,49.2967714 361.998891,49.2967714 C361.335675,49.2967714 361,49.5134285 361,49.9411694 C361,50.2665033 361.295009,50.5117229 361.684658,50.5117229" id="Fill-36" fill="#2C3E50"></path>
                <path d="M385.696298,50.2275132 C385.920619,50.2275132 386.41292,50.256371 386.854034,50.3689869 C387.357627,50.475972 387.836379,50.7645503 387.922945,52.1433911 C388.001985,53.3300811 388.001985,54.3795204 388.001985,60.2059851 L388.001985,66.793311 C388.001985,70.297073 388.001985,73.3222174 387.805516,74.8678705 C387.645179,75.9588369 387.467529,76.5310665 386.935332,76.6303092 C386.510025,76.7189942 386.091494,76.7717829 385.816739,76.7717829 C385.337987,76.7717829 385.119688,77.070215 385.119688,77.3482355 C385.119688,77.780399 385.461438,78 386.136659,78 C386.997057,78 388.503319,77.9429882 389.40286,77.9099073 C389.75515,77.897238 390.003558,77.8873841 390.060015,77.8873841 C390.104428,77.8873841 390.270786,77.8937188 390.525217,77.9021649 C391.420995,77.9338382 393.284815,78 394.983029,78 C395.901389,78 396,77.5439056 396,77.3482355 C396,77.070215 395.781701,76.7717829 395.303702,76.7717829 C394.973243,76.7717829 394.107575,76.6992864 393.552795,76.6246784 C392.651748,76.5127664 392.436461,75.9729139 392.314514,74.8742051 C392.117293,73.3222174 392.117293,70.297073 392.117293,66.793311 L392.117293,60.2059851 C392.117293,54.3795204 392.117293,53.3300811 392.197085,52.1412795 C392.281393,50.7631426 392.642715,50.4604874 393.363854,50.3352022 C393.837337,50.261298 394.05413,50.2275132 394.303292,50.2275132 C394.699993,50.2275132 394.998837,49.9797583 394.998837,49.6510606 C394.998837,49.2188971 394.657086,49 393.982618,49 C393.12222,49 391.615206,49.0556041 390.715664,49.0893889 C390.364128,49.102762 390.116472,49.111912 390.060015,49.111912 C390.005064,49.111912 389.77171,49.102762 389.435982,49.0907966 C388.575583,49.0591233 386.974475,49 386.016971,49 C385.34175,49 385,49.2188971 385,49.6510606 C385,49.9797583 385.299596,50.2275132 385.696298,50.2275132" id="Fill-38" fill="#2C3E50"></path>
                <path d="M400.530261,53.9270031 C400.999683,53.9270031 401.160766,53.4665888 401.215382,53.3099149 C401.322541,53.0431258 401.422786,52.7918564 401.810629,52.1511193 C402.31531,51.3404058 403.093072,51.0950485 405.277027,51.0580971 L410.367392,50.9849334 L410.367392,67.233199 C410.367392,70.9120795 410.367392,74.0884211 410.187642,75.7113262 C410.039695,76.8568193 409.876538,77.4576489 409.388449,77.5618519 C408.99784,77.6549694 408.612761,77.7103965 408.360421,77.7103965 C407.920726,77.7103965 407.720236,78.0237442 407.720236,78.3156602 C407.720236,78.7694233 408.034798,79 408.654933,79 C409.445139,79 410.828518,78.9408778 411.655365,78.9054044 C411.978223,78.8921019 412.205675,78.8817555 412.257526,78.8817555 C412.298315,78.8817555 412.451102,78.8884068 412.684776,78.8980142 C413.507475,78.9305314 415.219242,79 416.779605,79 C417.622353,79 417.712919,78.52111 417.712919,78.3156602 C417.712919,78.0237442 417.513121,77.7103965 417.074118,77.7103965 C416.770618,77.7103965 415.974881,77.6342766 415.465361,77.5566787 C414.638514,77.4384342 414.440789,76.8715999 414.3281,75.7179774 C414.146968,74.0884211 414.146968,70.9120795 414.146968,67.233199 L414.146968,50.9856724 L418.426386,51.0580971 C422.449316,51.1475195 422.563388,52.3661764 422.61109,52.8827568 L422.64704,53.3091759 C422.67262,53.6868191 422.715483,54.3201659 423.286533,54.3201659 C423.387469,54.3201659 423.889385,54.2773023 423.889385,53.4392448 C423.889385,53.2781367 423.905286,52.7955515 423.924644,52.1947219 C423.956445,51.2081198 424,49.8571769 424,49.116671 C424,48.8860944 424,48.2756574 423.470431,48.2756574 C423.366729,48.2756574 423.252657,48.3015234 423.079821,48.3421699 C422.911134,48.3813384 422.685064,48.4338093 422.378107,48.478151 C421.746219,48.6045248 420.889644,48.6680812 419.830506,48.6680812 L406.04511,48.6680812 C405.598502,48.6680812 404.19784,48.5867881 403.166355,48.4729778 C402.589083,48.4271581 402.251015,48.2675281 402.005588,48.1507617 C401.835518,48.0702076 401.688262,48 401.52303,48 C401.135878,48 400.979634,48.504756 400.842057,48.9489117 L400.819242,49.0265096 C400.810946,49.061983 400,52.7149975 400,53.2034949 C400,53.737812 400.285525,53.9270031 400.530261,53.9270031" id="Fill-40" fill="#2C3E50"></path>
                <path d="M437.409762,50.9018009 C441.243629,50.9018009 443.532547,53.568686 443.532547,58.0353138 C443.532547,60.5487598 442.736493,62.5948498 441.401291,63.5105577 C440.565118,64.0912334 439.512863,64.158803 438.794937,64.158803 C437.04376,64.158803 435.486141,63.873744 435.046236,63.6098005 C434.963181,63.560531 434.954735,63.5253386 434.954735,63.462696 L434.954735,51.22346 C434.954735,51.1460366 434.975147,51.1242173 435.003301,51.111548 C435.346075,51.0080821 436.339911,50.9018009 437.409762,50.9018009 M428.651764,50.2275132 C429.020582,50.2275132 429.598442,50.2697442 429.851124,50.3323868 C430.835809,50.54143 431.11031,50.9137663 431.182103,52.1440949 C431.256711,53.3307849 431.256711,54.3802243 431.256711,60.2059851 L431.256711,66.7940149 C431.256711,70.297073 431.256711,73.3222174 431.072302,74.8678705 C430.922382,75.9595408 430.756274,76.5310665 430.259356,76.6303092 C429.860978,76.7189942 429.470341,76.7717829 429.212732,76.7717829 C428.765788,76.7717829 428.561672,77.0709189 428.561672,77.3482355 C428.561672,77.780399 428.881219,78 429.511868,78 C430.469103,78 432.279404,77.920465 432.87486,77.8944226 L433.030411,77.8873841 C433.072642,77.8873841 433.228193,77.8937188 433.46539,77.9028688 C434.303675,77.934542 436.046406,78 437.63429,78 C438.492282,78 438.58519,77.5446095 438.58519,77.3482355 C438.58519,77.0709189 438.381074,76.7717829 437.933426,76.7717829 C437.62514,76.7717829 436.815009,76.6992864 436.296272,76.6253823 C435.455172,76.5134702 435.253871,75.9736178 435.13844,74.8742051 C434.954735,73.3222174 434.954735,70.297073 434.954735,66.7940149 L434.956847,65.9493957 L439.468521,66.022596 C439.565652,66.022596 439.59451,66.0324499 439.676156,66.1098733 C439.991481,66.5202175 440.487695,67.2050629 441.073297,68.0130819 C441.863016,69.1019368 442.846294,70.4582545 443.75426,71.6477598 L444.231469,72.2770011 C446.119897,74.7693316 447.367118,76.416339 448.920514,77.2468812 C449.979807,77.8169992 450.99335,78 453.092229,78 L455.749964,78 C456.21732,78 457,78 457,77.3482355 C457,77.0307995 456.691714,76.7717829 456.310932,76.7717829 C456.095554,76.7717829 455.59019,76.7717829 454.906752,76.664094 C453.938255,76.5092471 452.433426,76.0728605 450.542182,74.07604 C448.648828,72.0524732 446.440852,69.2194796 443.885175,65.9388379 L442.975802,64.7725596 C445.979127,61.9297121 447.380491,59.1635843 447.380491,56.0891704 C447.380491,53.3969468 445.66521,51.4437649 444.650964,50.7124654 C442.546454,49.2034125 439.904204,49 437.596986,49 C436.864278,49 435.459395,49.0450464 434.433183,49.0774234 C433.820834,49.0971312 433.333066,49.1126159 433.180331,49.1126159 C433.135285,49.1126159 432.957211,49.1055774 432.689748,49.0950197 C431.888064,49.0640503 430.220645,49 428.950197,49 C428.319548,49 428,49.219601 428,49.6517645 C428,49.9797583 428.280132,50.2275132 428.651764,50.2275132" id="Fill-42" fill="#2C3E50"></path>
                <path d="M467.302997,76.7717829 C466.973313,76.7717829 466.106952,76.6992864 465.55221,76.6253823 C464.651978,76.5127664 464.435952,75.9729139 464.314014,74.8742051 C464.117559,73.3222174 464.117559,70.297073 464.117559,66.793311 L464.117559,60.2059851 C464.117559,54.3802243 464.117559,53.3300811 464.196592,52.1412795 C464.280895,50.7631426 464.642192,50.4604874 465.363282,50.3352022 C465.837485,50.261298 466.05351,50.2275132 466.302655,50.2275132 C466.699329,50.2275132 466.998905,49.9797583 466.998905,49.6510606 C466.998905,49.2188971 466.657178,49 465.982004,49 C465.122417,49 463.615506,49.0563079 462.715273,49.0893889 C462.363761,49.102762 462.116122,49.111912 462.059669,49.111912 C462.004721,49.111912 461.771384,49.102762 461.435678,49.0907966 C460.575339,49.0591233 458.975092,49 458.016902,49 C457.34248,49 457,49.2188971 457,49.6510606 C457,49.9797583 457.299576,50.2275132 457.69625,50.2275132 C457.920556,50.2275132 458.412823,50.256371 458.853907,50.3689869 C459.357465,50.475972 459.836184,50.7645503 459.922745,52.1433911 C460.002532,53.3300811 460.002532,54.3802243 460.002532,60.2059851 L460.002532,66.793311 C460.002532,70.297073 460.002532,73.3222174 459.805324,74.8678705 C459.644998,75.9588369 459.46736,76.5310665 458.935952,76.6303092 C458.509922,76.7189942 458.092172,76.7717829 457.816683,76.7717829 C457.338716,76.7717829 457.120432,77.070215 457.120432,77.3482355 C457.120432,77.780399 457.46216,78 458.136581,78 C458.996921,78 460.503079,77.9436921 461.402559,77.9099073 C461.754824,77.897238 462.003216,77.8873841 462.059669,77.8873841 C462.104831,77.8873841 462.270426,77.8937188 462.524839,77.9021649 C463.421308,77.9338382 465.284248,78 466.982346,78 C467.900643,78 468,77.5439056 468,77.3482355 C468,77.070215 467.781716,76.7717829 467.302997,76.7717829" id="Fill-44" fill="#2C3E50"></path>
                <g id="Group-48" transform="translate(187.000000, 98.000000)">
                    <mask id="mask-4" fill="white">
                        <use xlink:href="#path-3"></use>
                    </mask>
                    <g id="Clip-47"></g>
                    <path d="M10.749,20.8797032 C10.4985,20.8797032 9.31425,20.7980903 8.9205,20.7242839 C8.25,20.5851871 8.16975,20.4091871 8.0565,19.5802839 C7.929,18.5186065 7.88175,16.4158323 7.91475,13.3294452 L7.94325,8.26660645 C7.9665,4.94247742 8.046,2.51467097 8.07525,1.60060645 C8.08275,1.34867097 8.088,1.19538065 8.088,1.14925161 C8.088,0.584348387 7.81575,0.219574194 7.39425,0.219574194 C7.10025,0.219574194 6.846,0.382090323 6.5775,0.554541935 L0.89475,4.14905806 C0.789,4.22357419 0.54225,4.42796129 0.54225,4.70615484 C0.54225,4.98434839 0.79425,5.30796129 1.119,5.30796129 C1.3335,5.30796129 1.49025,5.24338065 1.629,5.1631871 L2.02425,4.9808 C2.66925,4.68060645 4.3815,3.88505806 4.76325,3.88505806 C4.8225,3.88505806 4.84875,3.89215484 4.85325,3.89215484 C4.87425,3.91912258 4.90875,4.01847742 4.90875,4.37828387 L4.90875,13.3258968 C4.90875,16.0510581 4.90875,18.4043484 4.8225,19.5973161 C4.7715,20.334671 4.64625,20.5681548 3.90525,20.6958968 C3.4005,20.7959613 2.028,20.8797032 1.66875,20.8797032 C1.3455,20.8797032 1.062,21.1479613 1.062,21.4538323 C1.062,21.6575097 1.1745,22.0002839 1.929,22.0002839 C3.381,22.0002839 5.19675,21.9491871 5.97225,21.9278968 C6.186,21.9215097 6.32325,21.9179613 6.354,21.9179613 C6.3825,21.9179613 6.47925,21.9215097 6.63225,21.9264774 C7.27725,21.9484774 8.787,22.0002839 10.518,22.0002839 C11.09325,22.0002839 11.385,21.8157677 11.385,21.4538323 C11.385,21.1252516 11.049,20.8797032 10.749,20.8797032" id="Fill-46" fill="#2C3E50" mask="url(#mask-4)"></path>
                </g>
                <g id="Group-51" transform="translate(201.000000, 98.000000)">
                    <mask id="mask-6" fill="white">
                        <use xlink:href="#path-5"></use>
                    </mask>
                    <g id="Clip-50"></g>
                    <path d="M3.0504,13.5736452 C4.30858182,11.8995161 7.7144,7.31287097 9.14421818,5.31725806 L9.14421818,13.5736452 L3.0504,13.5736452 Z M14.9194909,13.2727419 C14.7965818,13.2727419 14.7013091,13.323129 14.6082182,13.3720968 C14.4554909,13.4522903 14.2242182,13.5736452 13.7696727,13.5736452 L12.0024,13.5736452 L12.0024,5.14480645 C12.0024,4.15622581 12.0140364,2.87383871 12.0227636,1.99454839 C12.0271273,1.53254839 12.0307636,1.18125806 12.0307636,1.03932258 C12.0307636,0.435387097 11.6976727,0.219645161 11.3864,0.219645161 C10.9798545,0.219645161 10.7158545,0.573774194 10.5034909,0.858354839 C9.63730909,2.02009677 0.5864,13.9767419 0.334036364,14.2811935 C0.182763636,14.4657097 0.0024,14.7538387 0.0024,15.0774516 C0.0024,15.2378387 0.0707636364,15.760871 0.9544,15.760871 L9.1464,15.760871 C9.14712727,15.8779677 9.14858182,16.0042903 9.15003636,16.139129 C9.16021818,17.1433226 9.17621818,18.6606129 9.0904,19.5846129 C9.0024,20.4383548 8.80021818,20.7115806 8.20021818,20.8002903 C7.78130909,20.8513871 7.18203636,20.8797742 6.92749091,20.8797742 C6.59803636,20.8797742 6.33912727,21.1317097 6.33912727,21.4539032 C6.33912727,21.703 6.48021818,22.0003548 7.15221818,22.0003548 C8.29694545,22.0003548 9.41476364,21.9556452 10.0154909,21.9315161 C10.2176727,21.9237097 10.3551273,21.9180323 10.4045818,21.9180323 C10.4554909,21.9180323 10.6125818,21.9237097 10.8453091,21.9315161 C11.5267636,21.9556452 12.7951273,22.0003548 13.9384,22.0003548 C14.6104,22.0003548 14.7507636,21.703 14.7507636,21.4539032 C14.7507636,21.1423548 14.4685818,20.8797742 14.1347636,20.8797742 C13.8649455,20.8797742 13.3340364,20.8528065 12.9885818,20.781129 C12.3376727,20.6221613 12.1369455,20.3645484 12.0569455,19.5881613 C11.9711273,18.6599032 11.9864,17.1411935 11.9965818,16.1362903 C11.9980364,16.002871 11.9994909,15.8772581 12.0002182,15.760871 L14.2184,15.760871 C14.6794909,15.760871 14.9267636,15.611129 15.1529455,15.1626129 C15.2649455,14.8347419 15.4242182,14.154871 15.4242182,13.9561613 C15.4242182,13.3614516 15.1078545,13.2727419 14.9194909,13.2727419 Z" id="Fill-49" fill="#2C3E50" mask="url(#mask-6)"></path>
                </g>
                <g id="Group-54" transform="translate(217.000000, 98.000000)">
                    <mask id="mask-8" fill="white">
                        <use xlink:href="#path-7"></use>
                    </mask>
                    <g id="Clip-53"></g>
                    <path d="M3.06530909,13.5736452 C4.32349091,11.8995161 7.72930909,7.31287097 9.15912727,5.31725806 L9.15912727,13.5736452 L3.06530909,13.5736452 Z M14.9344,13.2727419 C14.8114909,13.2727419 14.7162182,13.323129 14.6231273,13.3720968 C14.4704,13.4522903 14.2391273,13.5736452 13.7845818,13.5736452 L12.0180364,13.5736452 L12.0180364,5.14480645 C12.0180364,4.15622581 12.0296727,2.87383871 12.0376727,1.99383871 C12.0420364,1.53254839 12.0456727,1.18125806 12.0456727,1.03932258 C12.0456727,0.435387097 11.7125818,0.219645161 11.4013091,0.219645161 C10.9947636,0.219645161 10.7307636,0.573774194 10.5184,0.858354839 C9.65221818,2.02009677 0.601309091,13.9767419 0.348945455,14.2811935 C0.197672727,14.4657097 0.0173090909,14.7538387 0.0173090909,15.0774516 C0.0173090909,15.2378387 0.0856727273,15.760871 0.969309091,15.760871 L9.16130909,15.760871 C9.16203636,15.8779677 9.16349091,16.0042903 9.16494545,16.139129 C9.17512727,17.1433226 9.19112727,18.6606129 9.10530909,19.5846129 C9.01730909,20.4383548 8.81512727,20.7115806 8.21512727,20.8002903 C7.79621818,20.8513871 7.19694545,20.8797742 6.9424,20.8797742 C6.61294545,20.8797742 6.35403636,21.1317097 6.35403636,21.4539032 C6.35403636,21.703 6.49512727,22.0003548 7.16712727,22.0003548 C8.31185455,22.0003548 9.42967273,21.9556452 10.0304,21.9315161 C10.2325818,21.9237097 10.3700364,21.9180323 10.4194909,21.9180323 C10.4704,21.9180323 10.6274909,21.9237097 10.8602182,21.9315161 C11.5416727,21.9556452 12.8100364,22.0003548 13.9533091,22.0003548 C14.6253091,22.0003548 14.7656727,21.703 14.7656727,21.4539032 C14.7656727,21.1423548 14.4834909,20.8797742 14.1496727,20.8797742 C13.8798545,20.8797742 13.3489455,20.8528065 13.0034909,20.781129 C12.3525818,20.6221613 12.1518545,20.3645484 12.0718545,19.5881613 C11.9860364,18.6620323 12.0013091,17.1454516 12.0122182,16.1419677 C12.0136727,16.0064194 12.0151273,15.8786774 12.0158545,15.760871 L14.2333091,15.760871 C14.6944,15.760871 14.9416727,15.611129 15.1678545,15.1626129 C15.2798545,14.8347419 15.4391273,14.154871 15.4391273,13.9561613 C15.4391273,13.3614516 15.1227636,13.2727419 14.9344,13.2727419 Z" id="Fill-52" fill="#2C3E50" mask="url(#mask-8)"></path>
                </g>
                <g id="Group-57" transform="translate(234.000000, 98.000000)">
                    <mask id="mask-10" fill="white">
                        <use xlink:href="#path-9"></use>
                    </mask>
                    <g id="Clip-56"></g>
                    <path d="M10.79445,20.8797032 C10.54395,20.8797032 9.3597,20.7980903 8.96595,20.7242839 C8.29545,20.5851871 8.2152,20.4091871 8.10195,19.5802839 C7.97445,18.5186065 7.9272,16.4158323 7.9602,13.3294452 L7.9887,8.26660645 C8.01195,4.94247742 8.09145,2.51467097 8.1207,1.60060645 C8.1282,1.34867097 8.13345,1.19538065 8.13345,1.14925161 C8.13345,0.584348387 7.8612,0.219574194 7.4397,0.219574194 C7.1457,0.219574194 6.89145,0.382090323 6.62295,0.554541935 L0.9402,4.14905806 C0.83445,4.22357419 0.5877,4.42796129 0.5877,4.70615484 C0.5877,4.98434839 0.8397,5.30796129 1.16445,5.30796129 C1.37895,5.30796129 1.5357,5.24338065 1.67445,5.1631871 L2.0697,4.9808 C2.7147,4.68060645 4.42695,3.88505806 4.8087,3.88505806 C4.86795,3.88505806 4.8942,3.89215484 4.8987,3.89215484 C4.9197,3.91912258 4.9542,4.01847742 4.9542,4.37828387 L4.9542,13.3258968 C4.9542,16.0510581 4.9542,18.4043484 4.86795,19.5973161 C4.81695,20.334671 4.6917,20.5681548 3.9507,20.6958968 C3.44595,20.7959613 2.07345,20.8797032 1.7142,20.8797032 C1.39095,20.8797032 1.10745,21.1479613 1.10745,21.4538323 C1.10745,21.6575097 1.21995,22.0002839 1.97445,22.0002839 C3.42645,22.0002839 5.2422,21.9491871 6.0177,21.9278968 C6.23145,21.9215097 6.3687,21.9179613 6.39945,21.9179613 C6.42795,21.9179613 6.5247,21.9215097 6.6777,21.9264774 C7.3227,21.9484774 8.83245,22.0002839 10.56345,22.0002839 C11.1387,22.0002839 11.43045,21.8157677 11.43045,21.4538323 C11.43045,21.1252516 11.09445,20.8797032 10.79445,20.8797032" id="Fill-55" fill="#2C3E50" mask="url(#mask-10)"></path>
                </g>
                <path d="M280.432914,118.927363 C280.214211,118.927363 279.635208,118.875821 279.262992,118.822886 C278.767405,118.757413 278.599172,118.495522 278.510148,117.64995 C278.377664,116.542488 278.377664,114.374229 278.377664,111.863284 L278.377664,107.13602 C278.377664,102.958308 278.377664,102.205373 278.431639,101.354925 C278.484913,100.423682 278.695205,100.23005 279.13892,100.147861 C279.453656,100.095622 279.596654,100.07194 279.757177,100.07194 C280.080325,100.07194 280.324263,99.8532338 280.324263,99.5627861 C280.324263,99.3057711 280.188275,99 279.541278,99 C278.961574,99 277.930444,99.040398 277.331114,99.0640796 C277.096288,99.0731343 276.930158,99.0800995 276.891604,99.0800995 C276.858659,99.0800995 276.732484,99.0752239 276.54252,99.0675622 C275.962817,99.0459701 274.756444,99 273.838171,99 C273.190473,99 273.055186,99.3057711 273.055186,99.5627861 C273.055186,99.8532338 273.298423,100.07194 273.621571,100.07194 C273.881631,100.07194 274.293803,100.101891 274.467644,100.145075 C275.137072,100.286468 275.303202,100.512836 275.352971,101.357015 C275.406245,102.205373 275.406245,102.958308 275.406245,107.13602 L275.406245,107.513532 L264.32318,107.513532 L264.32318,107.13602 C264.32318,102.958308 264.32318,102.205373 264.376454,101.354925 C264.429728,100.423682 264.640019,100.23005 265.084435,100.147861 C265.399172,100.095622 265.54217,100.07194 265.701991,100.07194 C266.025139,100.07194 266.269078,99.8532338 266.269078,99.5627861 C266.269078,99.3057711 266.13379,99 265.486092,99 C264.906388,99 263.873857,99.040398 263.275227,99.0640796 C263.040401,99.0731343 262.875673,99.0800995 262.83712,99.0800995 C262.804875,99.0800995 262.677298,99.0752239 262.486634,99.0675622 C261.90693,99.0459701 260.70196,99 259.782986,99 C259.135288,99 259,99.3057711 259,99.5627861 C259,99.8532338 259.243237,100.07194 259.566385,100.07194 C259.827147,100.07194 260.238617,100.101891 260.412458,100.145075 C261.082587,100.286468 261.248017,100.512836 261.297786,101.357015 C261.351059,102.205373 261.351059,102.958308 261.351059,107.13602 L261.351059,111.863284 C261.351059,114.374229 261.351059,116.542488 261.219978,117.643682 C261.104317,118.47602 260.97674,118.774826 260.706866,118.827761 C260.425777,118.890448 260.150295,118.927363 259.972248,118.927363 C259.599331,118.927363 259.405162,119.183682 259.405162,119.436517 C259.405162,119.693532 259.540449,120 260.188147,120 C260.767851,120 261.79898,119.958905 262.39761,119.935224 C262.632436,119.926169 262.799267,119.919204 262.83712,119.919204 C262.867261,119.919204 262.978716,119.92408 263.14765,119.929652 C263.752589,119.952637 265.012235,120 266.161829,120 C266.888737,120 266.944814,119.568856 266.944814,119.436517 C266.944814,119.183682 266.749944,118.927363 266.377728,118.927363 C266.159025,118.927363 265.580723,118.875821 265.207806,118.822886 C264.712219,118.757413 264.543986,118.495522 264.454963,117.64995 C264.32318,116.542488 264.32318,114.374229 264.32318,111.863284 L264.32318,109.230448 L275.406245,109.230448 L275.406245,111.863284 C275.406245,114.374229 275.406245,116.542488 275.275163,117.643682 C275.159503,118.47602 275.031926,118.774826 274.762052,118.827761 C274.480962,118.890448 274.20548,118.927363 274.026733,118.927363 C273.654516,118.927363 273.460347,119.183682 273.460347,119.436517 C273.460347,119.693532 273.595635,120 274.243333,120 C274.822336,120 275.855568,119.958905 276.453497,119.935224 C276.688322,119.926169 276.853752,119.919204 276.891604,119.919204 C276.921746,119.919204 277.033201,119.92408 277.203537,119.930348 C277.808475,119.952637 279.068122,120 280.216314,120 C280.943922,120 281,119.568856 281,119.436517 C281,119.183682 280.80513,118.927363 280.432914,118.927363" id="Fill-58" fill="#2C3E50"></path>
                <polygon id="Fill-60" fill="#2C3E50" points="453.455548 112.313658 309 112.313658 309 113.686342 453.455548 113.686342 456.873386 117 461 113 456.873386 109"></polygon>
                <polygon id="Fill-62" fill="#2C3E50" points="12.1265943 109 8 113 12.1265943 117 15.5451251 113.686342 160 113.686342 160 112.313658 15.5451251 112.313658"></polygon>
            </g>
        </g>
    </g>
</svg>