<?xml version="1.0" encoding="UTF-8"?>
<svg width="16px" height="22px" viewBox="0 0 16 22" version="1.1" xmlns="http://www.w3.org/2000/svg" xmlns:xlink="http://www.w3.org/1999/xlink">
    <!-- Generator: sketchtool 52.6 (67491) - http://www.bohemiancoding.com/sketch -->
    <title>18F421B4-CB05-4640-9E54-5DE99D8C1B51</title>
    <desc>Created with sketchtool.</desc>
    <g id="Page-1" stroke="none" stroke-width="1" fill="none" fill-rule="evenodd">
        <g id="hari-satu-juta-pohon" transform="translate(-331.000000, -3051.000000)" fill="#414042" fill-rule="nonzero" stroke="#414042" stroke-width="0.5">
            <g id="Stacked-Group-4" transform="translate(0.000000, 805.000000)">
                <g id="Stacked-Group-11" transform="translate(178.000000, 2029.000000)">
                    <g id="Group-15" transform="translate(0.000000, 65.000000)">
                        <g id="Group-8">
                            <g id="Stacked-Group-8" transform="translate(154.000000, 34.000000)">
                                <g id="Stacked-Group-9">
                                    <g id="Group-5" transform="translate(0.000000, 116.000000)">
                                        <g id="marker" transform="translate(0.000000, 3.000000)">
                                            <path d="M7.265625,1.91846539e-13 C11.2595312,1.91846539e-13 14.5087891,3.24929688 14.5088672,7.24320313 C14.5088672,12.1997656 8.026875,19.4762891 7.75089844,19.7836328 C7.49214844,20.0718359 7.03957031,20.0723438 6.78035156,19.7836328 C6.504375,19.4762891 0.0223828125,12.1997656 0.0223828125,7.24320313 C0.0223828125,3.24929688 3.27167969,1.91846539e-13 7.265625,1.91846539e-13 Z M7.265625,18.3487891 C9.44769531,15.7566406 13.2044531,10.6451172 13.2044922,7.24324219 C13.2044922,3.96851563 10.5403516,1.304375 7.265625,1.304375 C3.99089844,1.304375 1.32675781,3.96851563 1.32675781,7.24328125 C1.32675781,10.645 5.08410156,15.7574609 7.265625,18.3487891 Z M7.265625,3.59898437 C9.27503906,3.59898437 10.9098047,5.23378906 10.9098047,7.24324219 C10.9098047,9.25269531 9.27503906,10.8875 7.265625,10.8875 C5.25621094,10.8875 3.62140625,9.25269531 3.62140625,7.24324219 C3.62140625,5.23378906 5.25617187,3.59898437 7.265625,3.59898437 Z M7.265625,9.583125 C8.55582031,9.583125 9.60546875,8.53347656 9.60546875,7.24324219 C9.60546875,5.95300781 8.55582031,4.90335937 7.265625,4.90335937 C5.97542969,4.90335937 4.92578125,5.95300781 4.92578125,7.24324219 C4.92578125,8.53347656 5.97539062,9.583125 7.265625,9.583125 Z" id="Combined-Shape"></path>
                                        </g>
                                    </g>
                                </g>
                            </g>
                        </g>
                    </g>
                </g>
            </g>
        </g>
    </g>
</svg>