<?xml version="1.0" encoding="UTF-8"?>
<svg width="167px" height="148px" viewBox="0 0 167 148" version="1.1" xmlns="http://www.w3.org/2000/svg" xmlns:xlink="http://www.w3.org/1999/xlink">
    <!-- Generator: sketchtool 52.6 (67491) - http://www.bohemiancoding.com/sketch -->
    <title>51D5FE5E-A1CF-449F-AD18-57163BBBD88D</title>
    <desc>Created with sketchtool.</desc>
    <defs>
        <polygon id="path-1" points="0 0.328496654 76.9752583 0.328496654 76.9752583 107.75617 0 107.75617"></polygon>
        <polygon id="path-3" points="0.0262956522 0.313125 8.77625217 0.313125 8.77625217 10 0.0262956522 10"></polygon>
    </defs>
    <g id="Page-1" stroke="none" stroke-width="1" fill="none" fill-rule="evenodd">
        <g id="hari-idul-fitri" transform="translate(-349.000000, -210.000000)">
            <g id="Group-73" transform="translate(349.000000, 210.000000)">
                <path d="M68,74.0400364 C65.8721221,74.1894861 63.7691599,73.9641062 62.7841875,73.785329 C59.6448141,73.2156523 56.8490358,71.5500109 55.1141823,69.2158631 C53.3419554,66.8314969 52.8782026,61.3062758 52.9955474,55.9341201 C53.0365377,54.058767 54.1448827,30.5947562 54.1448827,30.5947562 L59.137258,38.3705619 C59.137258,38.3705619 60.0261845,32.7766421 61.3017056,29.9186167 C55.5212721,23.3532736 51.9663698,18 51.9663698,18 L48.2165627,20.6165757 C48.2165627,20.6165757 50.4975513,34.4973228 48.8691923,46.6035551 C48.2507213,48.6769694 47.4755227,50.4458597 46.5001951,52.0098593 C44.2312624,55.6472731 40.4384557,58.501281 34.5639856,60.9909047 C34.293932,61.1054025 34.0138318,61.2432016 33.7100214,61.3589046 C24.1950517,64.9742224 21.7902885,60.546573 21.3956565,58.317281 C20.919044,55.620356 28.0991752,45.5582104 28.0991752,45.5582104 L22.4099651,43.5563071 C22.4099651,43.5563071 11.5362881,54.1202342 16.1332277,61.4372452 C17.6237468,63.8091572 20.2631995,65.399672 23.7658593,66.0360386 C26.4282184,66.5193398 29.6246566,66.439794 32.5373779,65.8170867 C37.9376466,64.6620652 43.1928419,62.2977864 47.1492079,59.3031672 C46.1614225,65.4747986 48.0566202,70.4805614 52.6881203,73.8576434 C55.9858286,76.2620969 61.1638658,78.6958778 66.2342029,79 C67.103438,77.0278259 67.9083747,75.3200011 68,74.0400364" id="Fill-1" fill="#2C3E50"></path>
                <path d="M133.751232,123.391477 C133.225341,125.478271 131.662922,129.379371 129.549322,129.268611 C128.082046,129.183132 126.898992,127.591551 125.646086,125.906063 C124.743641,124.692914 123.810686,123.438028 122.687447,122.705242 C122.125025,122.338047 121.521655,122.040679 120.90022,121.821164 C123.684232,117.833782 126.991324,114.218813 131.219327,115.807987 C134.881697,117.183666 134.210082,121.569946 133.751232,123.391477 M139.609096,116.736209 C138.896936,114.040232 137.233353,112.02166 134.796591,110.898403 C131.590663,109.419588 127.222154,109.709332 123.926302,111.618347 C120.113391,113.827138 117.696701,117.411207 115.359898,120.878094 C113.513659,123.616208 111.769788,126.202629 109.385614,128.183478 C106.815573,130.317626 102.917154,130.991821 100.752972,128.039008 C99.1997867,125.92051 99.1849333,115.193587 99.1849333,115.193587 L93.7505917,114.317535 C93.7505917,114.317535 92.3555753,119.91255 91.6996165,121.468014 C90.0464719,125.390786 88.1725333,129.836861 84.6859959,130.480155 C83.6306007,130.675591 82.7173166,130.437215 81.8975688,129.752586 C80.0517313,128.211569 78.9746582,124.541621 78.7257632,121.588005 C78.2564757,116.027502 89.6426196,55.9667627 88.5960563,5.19305922 C85.6566864,3.57178084 81.3672619,1.66838397 80.9341043,2.04922387 C81.6558998,12.1023537 82.4045921,29.651087 81.9461435,40.6480898 C80.0746136,85.5494748 64.4913771,129.700417 79.3809191,135.09197 C81.7165178,135.937924 84.0597439,136.42511 86.5354464,135.497289 C90.1821598,134.131242 92.4378712,131.36022 94.1765233,128.29464 C95.2046203,131.460948 97.0412246,133.648069 99.6550237,134.811858 C101.080951,135.447126 102.567095,135.739679 104.079735,135.705567 C108.449047,135.606445 113.034335,132.778438 116.98173,127.581919 C117.267557,127.392904 117.51846,127.160146 117.728415,126.887258 C118.046759,126.886455 118.907856,127.333109 119.567428,127.921425 C120.244262,128.52499 120.810698,129.294696 121.410054,130.110151 C121.78179,130.614994 122.165972,131.137897 122.58548,131.627089 C125.014214,134.465129 128.151094,135.494882 131.190825,134.452287 C137.027011,132.451373 141.354172,123.344925 139.609096,116.736209" id="Fill-3" fill="#2C3E50"></path>
                <path d="M157.449907,88.2802363 C154.728696,91.8109535 151.180569,94.2070988 148.678473,95.5964772 C147.165615,96.4364543 145.5432,97.1799747 143.855534,97.8069433 C142.959339,98.0661706 142.034949,98.3145467 141.096462,98.4833459 C124.4079,101.482747 115.649758,95.5739706 113.382082,90.6426217 C111.043517,85.5577459 110.154169,79.7683343 111.245312,74.1573675 C111.281562,74.0516671 111.319021,73.9455647 111.357688,73.8386585 C114.305667,74.7188259 117.712819,74.8160864 121.73462,74.1380762 C127.647091,73.1413569 133.395226,71.418801 138.319667,69.8819242 C143.042715,68.4073424 147.836251,68.069342 152.785262,70.226355 C155.697393,71.4951626 158.415784,73.894523 159.353466,76.7882241 C160.583972,80.5870105 159.840835,84.211773 157.449907,88.2802363 M166.125881,74.9410782 C163.780871,68.3563007 157.008053,64.4791432 151.452046,63.0459574 C143.791089,61.0693988 136.089853,63.1709492 128.642371,65.2025685 C127.810219,65.4296436 126.984108,65.6551112 126.164039,65.8725406 C123.113351,66.6839826 117.682207,68.1244027 113.30072,67.8551278 C118.249731,57.4719657 132.901009,46.234358 144.775091,41.0867853 L145.982638,40.5631058 C145.982638,40.5631058 140.444354,36.388942 140.14146,36.5328233 C140.14146,36.5328233 129.173241,42.4954551 123.092809,46.842839 C122.726275,46.8995073 122.361755,46.9352767 122.004486,46.9501471 C119.697337,47.0437905 117.467523,44.8023779 116.725192,42.6714886 C115.159167,38.1798215 116.290588,33.3425179 119.607516,30.3479392 C121.387823,28.7403275 123.770695,27.6302716 126.493114,27.1403519 C129.855155,26.5350861 132.129678,27.3296482 135.041808,29.2660165 C135.892488,29.831092 141.135532,28.924399 141.135532,28.924399 L140.501549,28.4308622 C134.97414,24.1268838 128.176752,22.0743656 121.918693,23.3982338 C117.040572,24.428311 113.276553,27.2030488 111.020961,31.4194124 C109.374379,34.4983907 108.14347,41.2604074 110.561384,46.6555523 C111.771348,49.3547323 113.77238,51.3091862 116.405784,52.386688 C113.405041,55.3515259 110.090529,60.0091789 107.470417,65.0008132 C106.969756,64.0322271 105.897142,62.7055456 105.611568,61.722491 L105.539066,56.8060125 L98.8609027,56.1935125 L98.9382373,56.7292491 C99.9029057,63.3879768 99.069545,66.4440466 97.2952801,69.1388057 C96.3294034,70.6057514 93.4990381,72.7237798 86.7745542,74.1758551 C86.6351908,76.5599432 86.4192985,77.6515116 86,80.096689 C99.5621502,78.9440314 103.157,69.1524704 103.434921,68.3414303 C104.080182,69.1958759 104.819291,69.9844095 105.645401,70.698591 C102.636603,85.2647587 108.268333,109.201695 141.143587,104.365597 C148.827101,103.235446 155.450083,99.5813447 160.436553,94.6596415 C167.37129,87.813627 167.922299,79.9849599 166.125881,74.9410782" id="Fill-5" fill="#2C3E50"></path>
                <path d="M77,23 C76.7403619,19.345663 76.3988985,15.6677875 76,12 C76.1778127,12.6414215 76.3288749,13.3068017 76.4563336,13.9961406 C76.8481511,16.7450898 76.9425649,19.845854 77,23" id="Fill-7" fill="#2C3E50"></path>
                <path d="M77.5085,33.6525 C77.4995,33.6605 77.4995,33.6605 77.4915,33.6685 L77.4915,33.3315 C77.4915,33.4355 77.4995,33.5485 77.5085,33.6525" id="Fill-9" fill="#2C3E50"></path>
                <g id="Group-13">
                    <mask id="mask-2" fill="white">
                        <use xlink:href="#path-1"></use>
                    </mask>
                    <g id="Clip-12"></g>
                    <path d="M76.9402047,39.4598275 C76.7757776,49.102742 76.4308818,77.1205115 71.3460745,91.7535078 C68.6165849,99.615426 58.0246734,107.53837 45.2089859,107.75156 C28.404137,108.025775 13.0197776,95.9928089 8.70497031,91.7828164 C2.7499026,85.9660729 -0.485701563,78.7140134 0.0593140625,72.3781472 C0.400600521,68.4230989 2.36329844,64.7679613 5.45693385,62.8617011 C10.4354651,59.7871138 14.4085849,62.0515004 14.4085849,62.0515004 L17.3185432,66.9942067 C17.3185432,66.9942067 13.0197776,64.6936862 9.00775677,66.9327792 C6.63278802,68.2584892 3.54236094,71.9232625 8.59548594,82.2659688 C13.3001057,91.8988461 45.3216786,111.635545 62.0591526,92.689374 C73.6340172,79.5916639 72.7894234,51.6638275 71.9520484,36.620913 C71.9488401,36.5727346 71.9456318,36.5273665 71.9456318,36.4824 C71.9259807,36.1371212 71.9067307,35.7886305 71.8870797,35.4401398 C71.6199859,30.1947123 71.6296109,24.449032 71.3107828,19.6974335 C71.2979495,19.7199167 71.2879234,19.7391881 71.2750901,19.7616714 C68.2492307,25.5009279 66.9570745,25.2684669 66.9570745,25.2684669 C63.3128089,24.9978647 58.8592411,24.1876639 58.8592411,24.1876639 C69.2514339,17.4358572 69.638038,0.328496654 69.638038,0.328496654 C72.7216474,1.18647435 75.2129182,5.33182751 76.2054964,12.106519 C76.2087047,12.1193665 76.211913,12.1322141 76.211913,12.1450617 C76.4148401,15.6484372 76.5888922,19.1618498 76.7212359,22.6523777 C76.7597359,26.2492996 76.7661526,29.9172848 76.9690797,33.182177 L76.9690797,33.3174781 C76.981913,35.3855375 76.9758974,37.4371361 76.9402047,39.4598275" id="Fill-11" fill="#2C3E50" mask="url(#mask-2)"></path>
                </g>
                <path d="M72,36 C71.689384,32.7572365 71.4207077,30.1967305 71.3997379,28.635944 C71.3630406,25.9048736 71.2162516,23.0195608 71,20.0652878 C71.0209699,20.0424371 71.0366972,20.0228507 71.0583224,20 C71.578637,24.8292571 71.5635649,30.6688429 72,36" id="Fill-14" fill="#2C3E50"></path>
                <path d="M76.508,12.552 C76.508,12.52 76.5,12.488 76.492,12.455 L76.5,12.448 C76.5,12.48 76.508,12.52 76.508,12.552" id="Fill-16" fill="#2C3E50"></path>
                <path d="M77.809,34 C77.303,30.5893164 77.287,26.7575399 77.191,23 C77.528,26.7004995 77.745,30.3770923 77.809,34" id="Fill-18" fill="#2C3E50"></path>
                <path d="M69.0011406,112.312205 C63.2848583,105.295013 59.3150488,107.866846 56.331001,112.763525 C53.6754053,117.120732 49.5961118,134.827016 34.7062851,132.056537 C13.4935534,128.110027 34.1994146,111.203201 34.1994146,111.203201 C34.1994146,111.203201 30.0978188,112.269551 29.1672046,112.618095 C23.6520485,114.684986 19.6485828,120.951467 21.4274954,126.424585 C23.4140221,132.538324 27.8724547,134.020652 34.1296692,134.783143 C47.897082,136.460867 53.312486,128.038531 56.5410481,122.109625 C65.0893171,106.414173 70.5858204,122.690532 70.5858204,122.690532 C70.5858204,122.690532 72.2183488,116.262371 69.0011406,112.312205" id="Fill-20" fill="#2C3E50"></path>
                <path d="M33.078638,75.902218 C33.8289606,72.1210829 37.7087074,70.3982616 44,71.5555267 C43.0747254,70.1350981 41.7642276,69.1425144 41.1453244,69.0832618 C34.7070064,68.4637653 29.8050631,71.3450777 29.2235323,76.2634548 C29.5188153,80.2006899 39.5756841,84.5167333 39.3165415,86.8378019 C39.0984674,88.7906869 32.7558391,89.4040538 30.7833162,89.493137 C27.2941314,89.6512803 26.671532,93.3188138 27.133964,92.9776004 C30.4781768,90.5102391 39.5391331,92.2992599 42.5309776,89.4167216 C47.0066292,85.10313 34.8232304,79.7421972 33.078638,75.902218" id="Fill-22" fill="#2C3E50"></path>
                <path d="M21.976537,68.1878324 C21.4003604,67.4710578 21.6872533,69.0149733 21.9350969,69.3230287 C24.4067589,72.396306 23.9058917,79.07084 21.4808498,81.8372746 C18.8669367,84.8187821 16,84.8187821 16,84.8187821 C16.4546456,85.5848779 18.3557095,87.3709525 19.1685727,88 C21.2142785,86.5033843 22.3339577,85.1700946 23.3771322,83.1269029 C24.3091357,81.3004011 24.8554276,79.3004666 24.978154,77.2427211 C25.1757913,73.9418386 24.0210474,70.7303002 21.976537,68.1878324" id="Fill-24" fill="#2C3E50"></path>
                <path d="M152.976189,72.1878286 C152.400008,71.4710685 152.687301,73.0149528 152.934749,73.323002 C155.406431,76.3962171 154.90556,83.0710204 152.480896,85.8369949 C149.866562,88.8184421 147,88.8184421 147,88.8184421 C147.454251,89.5845224 149.355331,91.3705609 150.168599,92 C152.213924,90.5030103 153.333613,89.1697476 154.377194,87.1265972 C155.308807,85.3005366 155.855104,83.3002382 155.97823,81.2425343 C156.17547,77.9417185 155.021115,74.7302451 152.976189,72.1878286" id="Fill-26" fill="#2C3E50"></path>
                <path d="M49.7516665,73.2659483 C50.047351,72.3842144 50.303293,73.9456776 50.1761169,74.324029 C48.908727,78.102656 51.647386,84.2352885 54.8569943,85.99224 C58.3169805,87.8864407 61,86.8727522 61,86.8727522 C60.8350684,87.7577442 59.6630607,90.1178588 59.1162032,91 C56.6931,90.30846 55.1916265,89.4446458 53.5208498,87.8815535 C52.0277222,86.4850336 50.8362406,84.7875431 50.0219158,82.8864188 C48.7143859,79.8355787 48.7028606,76.3921329 49.7516665,73.2659483" id="Fill-28" fill="#2C3E50"></path>
                <path d="M114.751666,75.265779 C115.047351,74.3844641 115.303293,75.9454991 115.176117,76.3242527 C113.908727,80.102829 116.647386,86.234972 119.856994,87.9923072 C123.316981,89.8860752 126,88.8728075 126,88.8728075 C125.835466,89.7573805 124.663061,92.1174634 124.116203,93 C121.6931,92.308062 120.191627,91.4442594 118.52085,89.8811881 C117.02812,88.4846869 115.836241,86.7876264 115.021916,84.8861204 C113.714386,81.8357285 113.702861,78.3919216 114.751666,75.265779" id="Fill-30" fill="#2C3E50"></path>
                <path d="M45.5228263,31.0179677 C43.9469112,30.8922148 42.1274719,31.4396801 40.8563737,32.2490637 C38.804928,33.5550508 37.5194322,35.8266112 36.4774607,37.9559989 C35.7600512,39.4217802 35.1351974,40.9380227 34.5403728,42.4666804 C34.6148287,41.3140797 34.6687167,40.1606781 34.6909301,39.0048735 C34.7226047,37.3720893 35.1483609,34.6940349 34.0146565,33.2823194 C32.0788026,30.8729915 28.2239606,35.2443036 27.0055163,36.36046 C26.865243,36.4894167 29.4444618,36.2262969 29.7019723,35.9904103 C30.5440235,35.2190729 30.9014941,33.563461 32.1672447,34.4421288 C33.1450443,35.1209537 33.1466897,35.83382 33.1730166,36.8730829 C33.2610474,40.3941618 31.8348669,44.870001 31.4366717,48.3686526 C31.446133,48.2837494 35.2392712,49.258534 35.3108476,48.9333388 C36.3022219,44.4098418 37.5210777,38.7433557 40.0299541,35.2655294 C41.2677323,33.5502449 43.1661525,31.7961133 45.3027494,32.7148297 C46.8367058,33.3744313 46.1205304,35.6299723 45.0250823,37.4249536 C45.1225743,37.2647589 47.6688844,36.7196965 47.7610287,36.2807631 C48.1876077,34.2599073 48.3480375,31.2434417 45.5228263,31.0179677" id="Fill-32" fill="#2C3E50"></path>
                <path d="M70.5842706,130.009984 C69.6838861,129.940124 68.6442712,130.244172 67.9179246,130.693893 C66.7457892,131.419479 66.0110553,132.681317 65.4155518,133.864166 C65.0054092,134.678664 64.6485265,135.520948 64.3084185,136.36998 C64.3511941,135.73013 64.381808,135.089089 64.3943891,134.447255 C64.4124219,133.540272 64.6560751,132.052184 64.0081505,131.267852 C62.9022753,129.929407 60.6993317,132.35782 60.0031797,132.97822 C59.9226609,133.049667 61.3967418,132.903597 61.5435209,132.772214 C62.0249561,132.343927 62.2291886,131.424242 62.9525996,131.912068 C63.5111987,132.289151 63.5124568,132.685286 63.5271347,133.262421 C63.5774589,135.218885 62.7626256,137.705249 62.5349084,139.649011 C62.5403602,139.602174 64.7080768,140.143585 64.7487556,139.962982 C65.315742,137.450024 66.011894,134.301582 67.4457155,132.369728 C68.1527711,131.416701 69.2376778,130.44224 70.45846,130.95269 C71.3353599,131.319056 70.9256367,132.572161 70.2999387,133.569247 C70.3557147,133.480335 71.8105046,133.177478 71.8637644,132.933764 C72.1069983,131.810851 72.19884,130.135016 70.5842706,130.009984" id="Fill-34" fill="#2C3E50"></path>
                <path d="M148.348493,46.0119496 C147.297987,45.9282121 146.084831,46.2933236 145.237333,46.8326569 C143.870086,47.7037655 143.012805,49.217788 142.318175,50.6373577 C141.839598,51.6148248 141.42339,52.6252314 141.02675,53.644369 C141.076483,52.8760472 141.112356,52.1069317 141.127031,51.3366257 C141.148229,50.2480376 141.431951,48.4625626 140.676582,47.5216066 C139.385972,45.9151157 136.815759,48.8296585 136.003727,49.5737718 C135.909561,49.6594936 137.629422,49.4844782 137.801042,49.3269246 C138.362371,48.8125935 138.600844,47.7089247 139.444673,48.2946907 C140.0965,48.7475084 140.097723,49.2225503 140.115252,49.9150717 C140.173546,52.2628979 139.222913,55.2468913 138.957535,57.5792399 C138.964058,57.5224889 141.493098,58.1725462 141.540385,57.9554636 C142.201588,54.9401182 143.01362,51.1620071 144.68701,48.8435486 C145.511679,47.7001938 146.777423,46.531043 148.202148,47.1433986 C149.224526,47.58312 148.747172,49.0868241 148.017076,50.2833582 C148.081892,50.1766027 149.779333,49.8130786 149.840888,49.5205925 C150.125018,48.1732514 150.231821,46.1623597 148.348493,46.0119496" id="Fill-36" fill="#2C3E50"></path>
                <path d="M113.346606,21.4374948 C105.063579,21.0773847 99.1763793,13.951058 97.1213871,6.13714126 C96.9912788,5.64257962 92.9259941,6.62305398 93.0010259,6.909255 C95.2479877,15.4520408 103.970031,21.6136185 112.821384,21.998496 C113.586069,22.0319123 114.740281,21.4980373 113.346606,21.4374948" id="Fill-38" fill="#2C3E50"></path>
                <path d="M143.858653,125.330697 C142.743548,117.201646 149.124979,110.235072 156.913209,106.881409 C157.406172,106.669117 155.651007,102.879822 155.365147,103.002935 C146.850183,106.669117 141.986811,116.229364 143.178172,124.915978 C143.281098,125.666498 144.04617,126.698364 143.858653,125.330697" id="Fill-40" fill="#2C3E50"></path>
                <path d="M57.8505681,139.444079 C56.5589544,132.669127 60.6449674,126.947175 65.9504571,124.246768 C66.2865588,124.075768 64.8095652,120.903269 64.6149164,121.002269 C58.8145432,123.954677 55.962918,131.851764 57.3435947,139.091442 C57.4628825,139.716942 58.0681879,140.584214 57.8505681,139.444079" id="Fill-42" fill="#2C3E50"></path>
                <path d="M16.2859595,123.313193 C18.8191565,115.355242 13.9374536,107.301721 7.0534389,102.63288 C6.61734011,102.336936 8.98618645,98.8350039 9.23840776,99.0060649 C16.7647732,104.110992 19.7210511,114.507968 17.0141469,123.01203 C16.7806388,123.746869 15.8596241,124.651967 16.2859595,123.313193" id="Fill-44" fill="#2C3E50"></path>
                <path d="M97.6905371,142.430002 C105.727085,144.778747 113.737408,139.869002 118.315484,133.054534 C118.605169,132.623254 122.162085,134.883991 121.994245,135.13368 C116.989306,142.584116 106.59251,145.648476 98.005237,143.138051 C97.262868,142.921415 96.3381345,142.034961 97.6905371,142.430002" id="Fill-46" fill="#2C3E50"></path>
                <path d="M54.43588,129.474511 C49.7442299,136.433113 40.431656,137.663079 32.5476746,135.212057 C32.0485715,135.056944 30.752591,139.097972 31.0415243,139.18788 C39.6613012,141.867724 49.6325143,137.667534 54.6460498,130.231849 C55.0796507,129.589124 55.2255238,128.303674 54.43588,129.474511" id="Fill-48" fill="#2C3E50"></path>
                <path d="M83.0018078,111.459892 C82.9264566,111.517747 85.2188894,111.35409 87.5814906,112 C100.028006,105.622528 105.260733,105.584883 107.459076,105.659777 C109.142718,103.539765 108.992813,101.139594 108.998794,101.010808 C108.764367,100.831697 94.2909432,102.818961 83.0018078,111.459892" id="Fill-50" fill="#2C3E50"></path>
                <path d="M122.001808,84.4598922 C121.926457,84.5177468 124.218889,84.3540898 126.581491,85 C139.028006,78.622528 144.260733,78.5848829 146.459076,78.6597768 C148.142718,76.5397647 147.992813,74.139594 147.998794,74.0108082 C147.764367,73.8316969 133.290943,75.8189606 122.001808,84.4598922" id="Fill-52" fill="#2C3E50"></path>
                <path d="M29.0016695,120.509021 C28.932095,120.561287 31.0484534,120.412805 33.2291278,121 C44.7182198,115.202491 49.5483872,115.168043 51.5777776,115.236146 C53.1318772,113.309055 52.9935372,111.126971 52.9987958,111.009769 C52.7823868,110.847429 39.4224696,112.654152 29.0016695,120.509021" id="Fill-54" fill="#2C3E50"></path>
                <path d="M118.335179,109.41815 C117.237322,109.835422 116.034967,109.964701 114.883003,110.230418 C114.26551,110.203767 113.729386,110.076477 113.572019,109.730806 C113.393999,109.340185 114.945785,108.006028 115.426149,107.731957 C116.923826,106.877524 119.350428,106.506792 121.198362,106.856044 C120.770454,108.019552 119.282689,109.058158 118.335179,109.41815 M122.372218,105.37789 C120.897257,102.529779 113.367564,104.537379 112.630704,107.412141 C112.366772,108.445178 112.769898,109.735181 113.325435,110.702982 C110.874464,111.596398 108.667599,113.078529 106.931598,114.97117 C105.586332,116.437391 103.689246,118.85908 104.04322,120.934303 C104.265434,122.231864 105.066729,123.811452 106.491299,124 C106.390931,123.986475 107.609807,123.002366 105.331074,121.548874 C109.849302,111.889165 119.094757,114.112362 122.225589,111.135768 C123.386227,110.032324 123.077687,106.740289 122.372218,105.37789" id="Fill-56" fill="#2C3E50"></path>
                <g id="Group-60" transform="translate(76.000000, 138.000000)">
                    <mask id="mask-4" fill="white">
                        <use xlink:href="#path-3"></use>
                    </mask>
                    <g id="Clip-59"></g>
                    <polygon id="Fill-58" fill="#2C3E50" mask="url(#mask-4)" points="5.02403478 0.313125 0.0262956522 4.31145833 3.53473043 10.0002083 8.77625217 5.499375"></polygon>
                </g>
                <polygon id="Fill-61" fill="#2C3E50" points="98.1407522 79 93 82.7150517 96.6087611 88 102 83.8188434"></polygon>
                <polygon id="Fill-63" fill="#2C3E50" points="92.2828132 86 86 90.9532525 90.4110129 98 97 92.4251323"></polygon>
                <path d="M92.0297092,58 C93.3421247,56.8091101 95.7575067,54.5727365 97.1588392,53.4855938 C97.1339425,52.7100934 97.1517259,50.9880497 97.0960045,50.208143 C96.1191026,36.4898761 95.0445896,29.7290822 95.0445896,29.7290822 C95.0445896,29.7290822 98.6230065,35.6779239 102.236595,39.0022413 L108,37.4868909 C108,37.4868909 101.016258,29.8392385 98.3677158,26.6066513 C95.7187784,23.3740641 92.0502589,16 92.0502589,16 C92.0502589,16 90.7299396,22.0281542 91.050041,27.6909901 C91.5029251,35.7099694 92.1079562,46.2341036 92.0297092,58" id="Fill-65" fill="#2C3E50"></path>
                <path d="M62.9422222,50 C62.9422222,50 55.6544499,62.9455077 60.8965317,63.8918779 C66.1382037,64.838248 67,59.2608502 67,59.2608502 C67,59.2608502 64.6207374,62.3369548 62.5172661,61.5255509 C60.4133849,60.7145486 62.3238434,50.3040756 62.9422222,50" id="Fill-67" fill="#2C3E50"></path>
                <path d="M131.755024,52 C131.755024,52 122.122144,59.2198387 125.862896,61.3461979 C129.603223,63.4725571 132,59.7316901 132,59.7316901 C132,59.7316901 129.212449,61.2676293 127.845587,60.1064315 C126.478725,58.9452338 131.184121,52.0462168 131.755024,52" id="Fill-69" fill="#2C3E50"></path>
                <path d="M64.4495845,31 C64.4495845,31 58.0727795,42.095908 62.6592579,42.9072825 C67.2457362,43.7186569 68,38.9379195 68,38.9379195 C68,38.9379195 65.9177951,41.574483 64.0774922,40.8792497 C62.2367693,40.1836131 63.9086648,31.2605109 64.4495845,31" id="Fill-71" fill="#2C3E50"></path>
            </g>
        </g>
    </g>
</svg>