<?xml version="1.0" encoding="UTF-8"?>
<svg width="361px" height="205px" viewBox="0 0 361 205" version="1.1" xmlns="http://www.w3.org/2000/svg" xmlns:xlink="http://www.w3.org/1999/xlink">
    <!-- Generator: sketchtool 52.6 (67491) - http://www.bohemiancoding.com/sketch -->
    <title>050FEB25-919A-44FE-8151-38C34DBA115E</title>
    <desc>Created with sketchtool.</desc>
    <defs>
        <polygon id="path-1" points="0 0 361 0 361 205 0 205"></polygon>
    </defs>
    <g id="Page-1" stroke="none" stroke-width="1" fill="none" fill-rule="evenodd">
        <g id="hari-tani-pramuka" transform="translate(-864.000000, -1957.000000)">
            <g id="Group-27" transform="translate(864.000000, 1957.000000)">
                <mask id="mask-2" fill="white">
                    <use xlink:href="#path-1"></use>
                </mask>
                <g id="Clip-1"></g>
                <path d="M105.551802,200.616975 C105.388305,200.616975 105.269089,200.558397 105.194153,200.44124 C105.119216,200.324084 105.081749,200.134568 105.081749,199.872688 L105.081749,199.603917 C105.081749,199.342037 105.119216,199.152521 105.194153,199.035365 C105.269089,198.918208 105.388305,198.85963 105.551802,198.85963 L108.862617,198.85963 L108.862617,188.253536 L105.490491,188.811752 C105.326993,188.811752 105.204372,188.673922 105.122623,188.398259 C105.040874,188.122596 105,187.846936 105,187.571273 C105,187.336959 105.136246,187.185347 105.408743,187.116431 L110.252342,186.082699 C110.41584,186.082699 110.572523,186.127493 110.722396,186.217084 C110.872269,186.306674 110.947204,186.413492 110.947204,186.537541 L110.947204,198.85963 L113.726653,198.85963 C113.890151,198.85963 114.009367,198.918208 114.084303,199.035365 C114.15924,199.152521 114.196707,199.342037 114.196707,199.603917 L114.196707,199.872688 C114.196707,200.134568 114.15924,200.324084 114.084303,200.44124 C114.009367,200.558397 113.890151,200.616975 113.726653,200.616975 L105.551802,200.616975 Z M122.780301,200.658324 C122.262558,200.658324 122.00369,200.486037 122.00369,200.141458 L122.00369,197.309032 L116.036049,197.309032 C115.913425,197.309032 115.787398,197.150528 115.657962,196.833515 C115.528526,196.516502 115.463809,196.240843 115.463809,196.006529 C115.463809,195.88248 115.477434,195.806674 115.504684,195.779108 L122.044564,186.413493 C122.194437,186.206745 122.480554,186.103373 122.902924,186.103373 L123.291229,186.103373 C123.808972,186.103373 124.06784,186.27566 124.06784,186.620239 L124.06784,195.551687 L125.27363,195.551687 C125.437128,195.551687 125.556344,195.610264 125.63128,195.727421 C125.706217,195.844578 125.743684,196.034094 125.743684,196.295974 L125.743684,196.564744 C125.743684,196.826624 125.706217,197.01614 125.63128,197.133297 C125.556344,197.250454 125.437128,197.309032 125.27363,197.309032 L124.06784,197.309032 L124.06784,200.141458 C124.06784,200.486037 123.808972,200.658324 123.291229,200.658324 L122.780301,200.658324 Z M122.00369,195.551687 L122.00369,190.072905 C122.00369,189.935074 122.044564,189.680089 122.126313,189.307943 L122.044564,189.266594 L117.773205,195.551687 L122.00369,195.551687 Z M132.140505,200.658324 C131.486514,200.658324 131.159523,200.534278 131.159523,200.286181 C131.159523,200.203482 131.17996,200.093218 131.220835,199.955386 L135.962248,186.454842 C136.043997,186.220528 136.350551,186.103373 136.881919,186.103373 L137.597218,186.103373 C138.128586,186.103373 138.43514,186.220528 138.516889,186.454842 L143.258303,199.976061 C143.299177,200.100109 143.319614,200.203482 143.319614,200.286181 C143.319614,200.534278 143.01306,200.658324 142.399943,200.658324 L142.032075,200.658324 C141.514332,200.658324 141.207778,200.541169 141.112404,200.306855 L140.029236,197.164309 L134.368152,197.164309 L133.305422,200.306855 C133.210048,200.541169 132.923931,200.658324 132.447062,200.658324 L132.140505,200.658324 Z M139.375248,195.262242 L137.51547,189.804135 C137.46097,189.611171 137.409878,189.383752 137.362191,189.121872 C137.314504,188.859991 137.277037,188.673921 137.249787,188.563656 L137.208913,188.563656 C137.099914,189.142549 136.99773,189.556038 136.902356,189.804135 L135.02214,195.262242 L139.375248,195.262242 Z M148.735453,205 C147.332096,205 146.245533,204.782918 145.475731,204.348749 C144.705929,203.914579 144.321033,203.249551 144.321033,202.353645 C144.321033,201.774752 144.487935,201.264783 144.821743,200.823721 C145.155551,200.38266 145.608569,200.051869 146.180812,199.831338 L146.201249,199.769314 C145.642631,199.355819 145.363327,198.804501 145.363327,198.115343 C145.363327,197.27457 145.751628,196.599205 146.528243,196.089227 C145.969625,195.799781 145.54045,195.400075 145.240704,194.890098 C144.940958,194.380121 144.791087,193.794345 144.791087,193.132753 C144.791087,192.071449 145.158952,191.227243 145.894692,190.600109 C146.630432,189.972975 147.645466,189.659412 148.939824,189.659412 C149.334944,189.659412 149.770931,189.707653 150.2478,189.804135 L153.844735,189.804135 C154.008232,189.804135 154.127448,189.862713 154.202384,189.979869 C154.277321,190.097026 154.314789,190.286542 154.314789,190.548422 L154.314789,190.817193 C154.314789,191.079073 154.277321,191.265143 154.202384,191.375408 C154.127448,191.485673 154.015045,191.540805 153.865172,191.540805 C153.347429,191.540805 152.925066,191.520131 152.59807,191.478781 L152.577633,191.520131 C152.891004,191.961192 153.047687,192.498727 153.047687,193.132753 C153.047687,194.180274 152.686634,195.017588 151.964519,195.644723 C151.242403,196.271857 150.247807,196.585419 148.980698,196.585419 C147.822589,196.585419 147.243542,196.978233 147.243542,197.763874 C147.243542,198.204935 147.444506,198.501269 147.846438,198.652884 C148.24837,198.804498 148.885321,198.935437 149.757309,199.045702 C150.084305,199.073268 150.315923,199.100834 150.452171,199.1284 C151.419534,199.280015 152.179106,199.538446 152.730911,199.9037 C153.282716,200.268954 153.558615,200.892633 153.558615,201.774755 C153.558615,202.794709 153.139658,203.58723 152.301731,204.152339 C151.463805,204.717449 150.275057,205 148.735453,205 Z M148.919387,194.972797 C149.587003,194.972797 150.118363,194.828075 150.513483,194.538629 C150.908603,194.249182 151.10616,193.780562 151.10616,193.132753 C151.10616,192.484944 150.908603,192.016324 150.513483,191.726877 C150.118363,191.437431 149.587003,191.292709 148.919387,191.292709 C148.265396,191.292709 147.740848,191.437431 147.345728,191.726877 C146.950608,192.016324 146.753051,192.484944 146.753051,193.132753 C146.753051,193.780562 146.950608,194.249182 147.345728,194.538629 C147.740848,194.828075 148.265396,194.972797 148.919387,194.972797 Z M148.960261,203.304679 C150.690613,203.304679 151.555776,202.84295 151.555776,201.919478 C151.555776,201.505983 151.351407,201.223432 150.942663,201.071817 C150.533918,200.920202 149.893561,200.789264 149.021573,200.678999 C148.299457,200.582517 147.802159,200.50671 147.529662,200.451578 C146.684923,200.80994 146.26256,201.31991 146.26256,201.981502 C146.26256,202.863624 147.161785,203.304679 148.960261,203.304679 Z M159.342322,200.761697 C158.306836,200.761697 157.506389,200.46881 156.940959,199.883025 C156.375529,199.29724 156.092819,198.473709 156.092819,197.412405 L156.092819,190.279652 C156.092819,189.935073 156.406185,189.762786 157.032926,189.762786 L157.257735,189.762786 C157.884477,189.762786 158.197843,189.935073 158.197843,190.279652 L158.197843,197.164309 C158.197843,197.729419 158.354526,198.167028 158.667897,198.477149 C158.981268,198.78727 159.437692,198.942329 160.037184,198.942329 C160.473178,198.942329 160.895542,198.814836 161.304286,198.559848 C161.713031,198.304859 162.053646,197.977514 162.326142,197.577802 L162.326142,190.279652 C162.326142,189.935073 162.639509,189.762786 163.26625,189.762786 L163.491059,189.762786 C164.1178,189.762786 164.431167,189.935073 164.431167,190.279652 L164.431167,197.39173 C164.431167,198.315202 164.47204,198.983676 164.553789,199.397171 C164.635538,199.810666 164.676412,200.044976 164.676412,200.100109 C164.676412,200.293073 164.506104,200.430903 164.165484,200.513602 C163.824863,200.596301 163.511497,200.63765 163.225376,200.63765 C163.021004,200.63765 162.874539,200.534277 162.785978,200.32753 C162.697417,200.120782 162.629293,199.900255 162.581607,199.665941 C162.53392,199.431627 162.503264,199.273123 162.48964,199.190424 C162.09452,199.672835 161.617658,200.055312 161.059041,200.337867 C160.500423,200.620422 159.928189,200.761697 159.342322,200.761697 Z M170.03094,200.803047 C169.458697,200.803047 168.920525,200.734132 168.416406,200.5963 C167.912288,200.458469 167.506956,200.286182 167.200397,200.079434 C166.893839,199.872687 166.740562,199.665942 166.740562,199.459195 C166.740562,199.280014 166.83934,199.035366 167.0369,198.725245 C167.23446,198.415124 167.408174,198.260065 167.558047,198.260065 C167.585297,198.260065 167.721543,198.332426 167.96679,198.477149 C168.212036,198.621872 168.491341,198.749365 168.804712,198.85963 C169.118083,198.969895 169.472323,199.025027 169.867443,199.025027 C171.052802,199.025027 171.645473,198.542624 171.645473,197.577802 C171.645473,197.150524 171.495602,196.816287 171.195856,196.575082 C170.89611,196.333876 170.391999,196.09612 169.683508,195.861806 C168.729771,195.57236 168.041728,195.189883 167.619359,194.714363 C167.196989,194.238844 166.985808,193.587599 166.985808,192.760609 C166.985808,191.837137 167.305986,191.089412 167.946353,190.51741 C168.586719,189.945409 169.424633,189.659412 170.460119,189.659412 C171.16861,189.659412 171.815779,189.752447 172.401646,189.93852 C172.987514,190.124593 173.280443,190.355457 173.280443,190.631121 C173.280443,190.837868 173.195289,191.099745 173.024979,191.416757 C172.854668,191.73377 172.694579,191.892274 172.544706,191.892274 C172.490207,191.878491 172.306275,191.792348 171.992904,191.633841 C171.679533,191.475335 171.25717,191.396083 170.725802,191.396083 C170.248933,191.396083 169.860632,191.496009 169.560886,191.695865 C169.26114,191.895721 169.111269,192.174826 169.111269,192.533188 C169.111269,192.960466 169.257733,193.301595 169.550667,193.556583 C169.843601,193.811572 170.296619,194.049328 170.909736,194.269859 C171.631851,194.517956 172.193867,194.77294 172.595799,195.03482 C172.997731,195.296701 173.29066,195.6206 173.474596,196.006529 C173.658531,196.392457 173.750497,196.881753 173.750497,197.474429 C173.750497,198.108454 173.590408,198.680447 173.270224,199.190424 C172.950041,199.700402 172.507241,200.096662 171.941811,200.379217 C171.376381,200.661771 170.73943,200.803047 170.03094,200.803047 Z M179.227647,200.761697 C178.478282,200.761697 177.834519,200.530833 177.296338,200.069097 C176.758158,199.607361 176.489072,198.838961 176.489072,197.763874 L176.489072,191.56148 L175.671587,191.56148 C175.508089,191.56148 175.388873,191.502902 175.313937,191.385745 C175.239,191.268588 175.201533,191.079073 175.201533,190.817193 L175.201533,190.548422 C175.201533,190.286542 175.239,190.097026 175.313937,189.979869 C175.388873,189.862713 175.508089,189.804135 175.671587,189.804135 L176.489072,189.804135 L176.754754,187.695321 C176.795629,187.350742 177.054497,187.178455 177.531365,187.178455 L177.858359,187.178455 C178.348853,187.178455 178.594096,187.350742 178.594096,187.695321 L178.594096,189.804135 L180.106443,189.804135 C180.269941,189.804135 180.389157,189.862713 180.464093,189.979869 C180.53903,190.097026 180.576497,190.286542 180.576497,190.548422 L180.576497,190.817193 C180.576497,191.079073 180.53903,191.268588 180.464093,191.385745 C180.389157,191.502902 180.269941,191.56148 180.106443,191.56148 L178.594096,191.56148 L178.594096,197.660501 C178.594096,198.156695 178.67925,198.504714 178.84956,198.70457 C179.01987,198.904426 179.26852,199.004353 179.595515,199.004353 C179.786263,199.004353 179.946352,198.987124 180.075788,198.952666 C180.205223,198.918208 180.304002,198.900979 180.372126,198.900979 C180.508374,198.900979 180.624183,199.049146 180.719557,199.345484 C180.814931,199.641822 180.862617,199.865795 180.862617,200.01741 C180.862617,200.513604 180.317632,200.761697 179.227647,200.761697 Z M186.155833,200.761697 C185.120347,200.761697 184.319901,200.46881 183.754471,199.883025 C183.189041,199.29724 182.90633,198.473709 182.90633,197.412405 L182.90633,190.279652 C182.90633,189.935073 183.219696,189.762786 183.846438,189.762786 L184.071246,189.762786 C184.697988,189.762786 185.011354,189.935073 185.011354,190.279652 L185.011354,197.164309 C185.011354,197.729419 185.168037,198.167028 185.481408,198.477149 C185.794779,198.78727 186.251203,198.942329 186.850695,198.942329 C187.28669,198.942329 187.709053,198.814836 188.117797,198.559848 C188.526542,198.304859 188.867157,197.977514 189.139654,197.577802 L189.139654,190.279652 C189.139654,189.935073 189.45302,189.762786 190.079762,189.762786 L190.30457,189.762786 C190.931312,189.762786 191.244678,189.935073 191.244678,190.279652 L191.244678,197.39173 C191.244678,198.315202 191.285552,198.983676 191.367301,199.397171 C191.44905,199.810666 191.489923,200.044976 191.489923,200.100109 C191.489923,200.293073 191.319616,200.430903 190.978995,200.513602 C190.638375,200.596301 190.325009,200.63765 190.038887,200.63765 C189.834515,200.63765 189.68805,200.534277 189.599489,200.32753 C189.510928,200.120782 189.442805,199.900255 189.395118,199.665941 C189.347431,199.431627 189.316776,199.273123 189.303151,199.190424 C188.908031,199.672835 188.431169,200.055312 187.872552,200.337867 C187.313934,200.620422 186.7417,200.761697 186.155833,200.761697 Z M196.844451,200.803047 C196.272208,200.803047 195.734036,200.734132 195.229918,200.5963 C194.725799,200.458469 194.320467,200.286182 194.013909,200.079434 C193.70735,199.872687 193.554073,199.665942 193.554073,199.459195 C193.554073,199.280014 193.652852,199.035366 193.850412,198.725245 C194.047971,198.415124 194.221685,198.260065 194.371558,198.260065 C194.398808,198.260065 194.535054,198.332426 194.780301,198.477149 C195.025548,198.621872 195.304852,198.749365 195.618223,198.85963 C195.931594,198.969895 196.285834,199.025027 196.680954,199.025027 C197.866313,199.025027 198.458984,198.542624 198.458984,197.577802 C198.458984,197.150524 198.309113,196.816287 198.009367,196.575082 C197.709621,196.333876 197.20551,196.09612 196.49702,195.861806 C195.543282,195.57236 194.855239,195.189883 194.43287,194.714363 C194.0105,194.238844 193.799319,193.587599 193.799319,192.760609 C193.799319,191.837137 194.119497,191.089412 194.759864,190.51741 C195.40023,189.945409 196.238144,189.659412 197.27363,189.659412 C197.982121,189.659412 198.62929,189.752447 199.215158,189.93852 C199.801025,190.124593 200.093954,190.355457 200.093954,190.631121 C200.093954,190.837868 200.0088,191.099745 199.83849,191.416757 C199.66818,191.73377 199.50809,191.892274 199.358217,191.892274 C199.303718,191.878491 199.119786,191.792348 198.806415,191.633841 C198.493044,191.475335 198.070681,191.396083 197.539313,191.396083 C197.062444,191.396083 196.674143,191.496009 196.374397,191.695865 C196.074651,191.895721 195.92478,192.174826 195.92478,192.533188 C195.92478,192.960466 196.071245,193.301595 196.364178,193.556583 C196.657112,193.811572 197.11013,194.049328 197.723247,194.269859 C198.445363,194.517956 199.007378,194.77294 199.40931,195.03482 C199.811242,195.296701 200.104172,195.6206 200.288107,196.006529 C200.472042,196.392457 200.564008,196.881753 200.564008,197.474429 C200.564008,198.108454 200.403919,198.680447 200.083735,199.190424 C199.763552,199.700402 199.320752,200.096662 198.755322,200.379217 C198.189892,200.661771 197.552941,200.803047 196.844451,200.803047 Z M207.59438,200.616975 C207.471756,200.616975 207.366166,200.486037 207.277604,200.224157 C207.189043,199.962277 207.144763,199.7004 207.144763,199.43852 C207.144763,199.273122 207.172012,199.162858 207.226511,199.107726 L212.458416,192.491839 C212.962534,191.816464 213.289525,191.306494 213.439398,190.961915 C213.589271,190.617336 213.664207,190.224522 213.664207,189.78346 C213.664207,189.163218 213.453025,188.673923 213.030656,188.31556 C212.608286,187.957198 212.036052,187.77802 211.313937,187.77802 C210.796194,187.77802 210.3568,187.85038 209.995742,187.995103 C209.634685,188.139827 209.270226,188.322451 208.902356,188.542982 C208.657109,188.694596 208.500426,188.770403 208.432302,188.770403 C208.268804,188.770403 208.09509,188.629127 207.911155,188.346572 C207.72722,188.064017 207.635254,187.826261 207.635254,187.633297 C207.635254,187.330067 207.843029,187.054408 208.258586,186.806311 C208.674143,186.558214 209.178254,186.361807 209.770934,186.217084 C210.363614,186.072361 210.912004,186 211.416123,186 C212.778605,186 213.851543,186.330791 214.63497,186.992383 C215.418397,187.653975 215.810105,188.549867 215.810105,189.680087 C215.810105,190.30033 215.721545,190.851648 215.544422,191.334059 C215.3673,191.81647 215.036903,192.391908 214.553222,193.060392 C214.069541,193.728875 213.25547,194.766043 212.110985,196.171926 L209.944649,198.880305 L215.503548,198.880305 C215.667046,198.880305 215.786261,198.935437 215.861198,199.045702 C215.936134,199.155967 215.973602,199.342037 215.973602,199.603917 L215.973602,199.872688 C215.973602,200.134568 215.936134,200.324084 215.861198,200.44124 C215.786261,200.558397 215.667046,200.616975 215.503548,200.616975 L207.59438,200.616975 Z M222.574794,200.761697 C221.675556,200.761697 220.871704,200.489484 220.163213,199.945049 C219.454723,199.400614 218.896113,198.573636 218.487369,197.464091 C218.078624,196.354547 217.874255,194.993479 217.874255,193.380849 C217.874255,191.768218 218.078624,190.407151 218.487369,189.297606 C218.896113,188.188061 219.454723,187.361084 220.163213,186.816649 C220.871704,186.272213 221.675556,186 222.574794,186 C223.474032,186 224.281291,186.272213 224.996594,186.816649 C225.711897,187.361084 226.277318,188.188061 226.692875,189.297606 C227.108432,190.407151 227.316208,191.768218 227.316208,193.380849 C227.316208,194.993479 227.108432,196.354547 226.692875,197.464091 C226.277318,198.573636 225.711897,199.400614 224.996594,199.945049 C224.281291,200.489484 223.474032,200.761697 222.574794,200.761697 Z M222.574794,199.004353 C223.337784,199.004353 223.964516,198.542623 224.45501,197.619151 C224.945503,196.695679 225.190747,195.282926 225.190747,193.380849 C225.190747,191.478772 224.945503,190.066018 224.45501,189.142546 C223.964516,188.219074 223.337784,187.757345 222.574794,187.757345 C221.825429,187.757345 221.208915,188.219074 220.725234,189.142546 C220.241553,190.066018 219.999716,191.478772 219.999716,193.380849 C219.999716,195.282926 220.241553,196.695679 220.725234,197.619151 C221.208915,198.542623 221.825429,199.004353 222.574794,199.004353 Z M229.421232,200.616975 C229.257734,200.616975 229.138519,200.558397 229.063582,200.44124 C228.988646,200.324084 228.951178,200.134568 228.951178,199.872688 L228.951178,199.603917 C228.951178,199.342037 228.988646,199.152521 229.063582,199.035365 C229.138519,198.918208 229.257734,198.85963 229.421232,198.85963 L232.732047,198.85963 L232.732047,188.253536 L229.359921,188.811752 C229.196423,188.811752 229.073801,188.673922 228.992052,188.398259 C228.910303,188.122596 228.869429,187.846936 228.869429,187.571273 C228.869429,187.336959 229.005676,187.185347 229.278172,187.116431 L234.121771,186.082699 C234.285269,186.082699 234.441952,186.127493 234.591825,186.217084 C234.741698,186.306674 234.816634,186.413492 234.816634,186.537541 L234.816634,198.85963 L237.596083,198.85963 C237.759581,198.85963 237.878796,198.918208 237.953733,199.035365 C238.028669,199.152521 238.066137,199.342037 238.066137,199.603917 L238.066137,199.872688 C238.066137,200.134568 238.028669,200.324084 237.953733,200.44124 C237.878796,200.558397 237.759581,200.616975 237.596083,200.616975 L229.421232,200.616975 Z M242.173999,200.678999 C241.956002,200.678999 241.77207,200.520495 241.622197,200.203482 C241.472324,199.886469 241.397389,199.617702 241.397389,199.397171 C241.397389,199.259339 241.465512,199.162858 241.60176,199.107726 C242.855243,198.625315 243.89412,197.943058 244.718422,197.060936 C245.542723,196.178813 246.125176,195.165766 246.465796,194.021763 C245.730056,194.449041 244.878517,194.662677 243.911155,194.662677 C243.229914,194.662677 242.589557,194.497281 241.990065,194.166485 C241.390573,193.835689 240.906899,193.34984 240.539029,192.708923 C240.171159,192.068006 239.987227,191.306497 239.987227,190.424374 C239.987227,189.514685 240.191596,188.725611 240.600341,188.057127 C241.009085,187.388644 241.55407,186.88212 242.235311,186.537541 C242.916552,186.192962 243.672718,186.020675 244.503832,186.020675 C245.907188,186.020675 247.007376,186.472067 247.804428,187.374864 C248.60148,188.277661 249,189.583597 249,191.292709 C249,193.263702 248.546982,194.952115 247.640931,196.357998 C246.734881,197.763881 245.723253,198.835506 244.606018,199.572905 C243.488782,200.310305 242.678118,200.678999 242.173999,200.678999 Z M244.524269,192.905332 C245.287259,192.905332 246.050237,192.691696 246.813227,192.264418 C246.854102,191.864706 246.874539,191.478783 246.874539,191.106638 C246.874539,189.893719 246.64292,189.03573 246.179676,188.532644 C245.716433,188.029559 245.130574,187.77802 244.422083,187.77802 C244.054213,187.77802 243.689755,187.877946 243.328697,188.077802 C242.967639,188.277658 242.671304,188.570546 242.439682,188.956474 C242.20806,189.342403 242.092251,189.804132 242.092251,190.341676 C242.092251,191.196232 242.323869,191.83714 242.787113,192.264418 C243.250357,192.691696 243.829403,192.905332 244.524269,192.905332 Z" id="14-Agustus-2019" fill="#522E32" mask="url(#mask-2)"></path>
                <path d="M74.3884286,87.3042255 C75.0215351,88.0116574 75.7421101,88.5272434 76.5418235,88.8509834 C77.3415369,89.1707267 78.3536742,89.4584956 79.5699049,89.7142902 L80.3404621,89.8821554 C81.3984163,90.1139692 82.2314511,90.3337927 82.8395665,90.5216418 C83.4476818,90.7174846 83.9766589,91.0052535 84.4306629,91.3929422 C84.8846668,91.7886244 85.1720638,92.3162008 85.2928539,92.9916584 C85.4761215,94.0228303 85.2428718,94.8821403 84.5889395,95.5855754 C83.9350072,96.2890105 83.04366,96.7326543 81.9024023,96.9205034 C80.9402472,97.0763783 80.0822213,97.100359 79.3283249,96.9884489 C78.5744284,96.8725419 77.8080364,96.6966832 77.0166533,96.4608725 C76.6292922,96.281017 76.3543907,96.2130715 76.2002793,96.2330555 C75.9836902,96.2730234 75.7462753,96.5727827 75.4838694,97.1483205 C75.2297937,97.7158647 75.1256644,98.1675021 75.1839768,98.4832485 C75.2381241,98.7710174 75.5171907,99.0427992 76.0378375,99.2786098 C76.7001001,99.6023499 77.6330991,99.8221733 78.8243388,99.942077 C80.0155786,100.053987 81.3067825,100.006026 82.685455,99.7782086 C84.8513454,99.4184975 86.5132498,98.5751747 87.6753334,97.252237 C88.8332517,95.9292994 89.2331084,94.2466506 88.8707383,92.2082874 C88.6333233,90.8853498 88.1501632,89.8461843 87.4170926,89.0907909 C86.6881871,88.3353974 85.8676479,87.7998275 84.9679703,87.4800843 C84.0682928,87.1643378 82.9270351,86.8725721 81.5483625,86.5967936 C80.4029397,86.3769701 79.5574094,86.189121 79.0159368,86.0412397 C78.470299,85.8893617 77.9788085,85.6415607 77.5414653,85.2738559 C77.1082872,84.9141448 76.8292205,84.3985588 76.7084305,83.727098 C76.5459887,82.7998426 76.7584126,82.0124749 77.3457021,81.3530044 C77.941322,80.693534 78.8493299,80.2618806 80.0780562,80.0620411 C81.1693317,79.8821855 82.2647725,79.9381406 83.3518828,80.2339031 C83.9266768,80.4017683 84.2640559,80.4737105 84.3723505,80.4577234 C84.5931047,80.4177555 84.8138589,80.1179962 85.0429434,79.5544487 C85.2636977,78.9869045 85.3511663,78.5592479 85.3011842,78.2594886 C85.2428718,77.9437422 84.9638051,77.6879476 84.4556539,77.4921048 C83.8683644,77.240307 83.1019724,77.0844322 82.1564779,77.0244803 C81.2068183,76.9685253 80.3071407,77.0084932 79.4532801,77.1443841 C78.0329558,77.3801947 76.8042295,77.831832 75.7754315,78.4952992 C74.7424684,79.1627633 73.9885719,80.0020893 73.5012466,81.0132773 C73.0139212,82.0204685 72.8848008,83.135573 73.1013899,84.3545941 C73.3263093,85.6135831 73.7553222,86.5927968 74.3884286,87.3042255" id="Fill-2" fill="#522E32" mask="url(#mask-2)"></path>
                <path d="M107.842035,96.8147691 C108.03886,96.9717747 108.327816,97.0311822 108.704715,96.9845049 L120.350896,95.6054015 C120.614725,95.5756977 120.798987,95.4568826 120.899494,95.2489563 C121,95.0452733 121.025127,94.7312621 120.974873,94.2984358 L120.899494,93.6279793 C120.84924,93.195153 120.752922,92.8981153 120.60635,92.7198928 C120.463966,92.5459135 120.258765,92.4780192 119.994936,92.5034796 L110.806974,93.5855454 L109.95267,86.172334 L118.139755,85.2048399 C118.407772,85.1708928 118.587846,85.0563211 118.688352,84.8526381 C118.788859,84.6447117 118.813985,84.3307005 118.76792,83.8978742 L118.684165,83.2274178 C118.638099,82.7988349 118.541781,82.4975538 118.399396,82.3193312 C118.252825,82.145352 118.051812,82.0689709 117.783795,82.102918 L109.596709,83.0704121 L108.801034,76.1918686 L117.955493,75.1098028 C118.219322,75.080099 118.403584,74.961284 118.504091,74.7533576 C118.604597,74.5496746 118.629724,74.2356634 118.57947,73.8028371 L118.499903,73.1281373 C118.453837,72.6995544 118.353331,72.3982733 118.210947,72.2242941 C118.068563,72.0503149 117.863362,71.9739338 117.599533,72.0078809 L105.982666,73.382741 C105.605767,73.4251749 105.33775,73.5524768 105.182803,73.747673 C105.027855,73.9513559 104.969227,74.2441502 105.015292,74.6260558 L107.477699,96.0000372 C107.519577,96.3861862 107.64521,96.6535201 107.842035,96.8147691" id="Fill-3" fill="#522E32" mask="url(#mask-2)"></path>
                <path d="M150.873351,91.9425987 C150.978991,91.7503299 151.019622,91.4476088 150.991181,91.0344355 L150.946487,90.3799034 C150.922108,89.9708209 150.840846,89.6721907 150.710827,89.4962852 C150.576745,89.3203797 150.381716,89.2385632 150.121678,89.2590173 L141.755765,89.8235512 L140.471827,70.7234878 C140.439322,70.1834988 139.923309,69.9421401 138.927851,70.0116842 L138.440279,70.0403199 C137.444821,70.109864 136.965376,70.4166759 137.001944,70.9607556 L138.415901,91.9875978 C138.436216,92.3598629 138.54592,92.6257665 138.728759,92.7893995 C138.915661,92.9489417 139.191952,93.0225766 139.557631,92.9939408 L150.324833,92.2575923 C150.584871,92.241229 150.767711,92.1348675 150.873351,91.9425987" id="Fill-4" fill="#522E32" mask="url(#mask-2)"></path>
                <path d="M171.655759,73.8271211 C171.799483,73.4297667 171.947199,72.7810248 172.098908,71.8727861 L172.158793,71.8727861 C172.206701,72.0471355 172.274571,72.3309601 172.354417,72.7404784 C172.438256,73.1499968 172.522095,73.5068048 172.613919,73.8027933 L175.684026,82.3134761 L168.881085,82.4472792 L171.655759,73.8271211 Z M164.541416,90.9985084 L165.020496,90.9863445 C165.767063,90.9741805 166.210212,90.7836126 166.349944,90.4146407 L167.918932,85.4477105 L176.761956,85.2774157 L178.550523,90.1713624 C178.706224,90.5362798 179.189297,90.7106291 179.999741,90.690356 L180.570645,90.6822467 C181.532798,90.6619735 182.007886,90.4632963 181.999901,90.0699965 C181.995909,89.9443028 181.96397,89.7821173 181.892108,89.5874947 L174.079107,68.5196014 C173.943367,68.1587387 173.464287,67.988444 172.633881,68.0006079 L171.512035,68.0208811 C170.681629,68.0370996 170.206541,68.2317222 170.086771,68.6006942 L163.084213,89.9280842 C163.024328,90.14298 162.996382,90.3132747 163.000374,90.4470778 C163.004367,90.8322683 163.519378,91.0187816 164.541416,90.9985084 Z" id="Fill-5" fill="#522E32" mask="url(#mask-2)"></path>
                <path d="M199.482019,90.3108933 L199.90998,90.326748 C200.918156,90.362421 201.432532,90.1166733 201.453107,89.5855413 L202.004518,75.2687574 C202.033323,74.5077323 202.033323,73.9448909 202.000403,73.5841967 L202.136198,73.556451 C202.502433,74.269912 202.749334,74.729698 202.872784,74.9476999 L207.856055,84.135492 C208.041231,84.4605131 208.329281,84.6269874 208.724321,84.6428421 L209.942363,84.6904061 C210.337404,84.7022971 210.637799,84.5556413 210.851779,84.2464748 L216.452302,75.5937785 C216.732122,75.1775929 217.016057,74.7178069 217.295878,74.2223479 L217.427558,74.2619846 C217.369948,74.6424972 217.324683,75.2093023 217.295878,75.9703273 L216.748582,90.132528 C216.728007,90.6636601 217.225923,90.9450808 218.234099,90.9807539 L218.66206,90.9966085 C219.670236,91.0322816 220.184612,90.7865339 220.205187,90.2593655 L220.999383,69.5372874 C221.019958,69.0061553 220.526157,68.7247346 219.517981,68.6890616 L218.267019,68.6454612 C217.456363,68.6097881 216.921412,68.8198628 216.662167,69.251903 L210.357979,79.0540643 C209.913558,79.8031983 209.617278,80.3382941 209.473252,80.6712425 C209.378607,80.1837109 209.168742,79.6486151 208.839542,79.0619916 L203.243134,68.7722987 C202.996234,68.3164764 202.481858,68.0826197 201.687662,68.0509104 L200.33794,68.0033463 C199.329764,67.9676732 198.815388,68.2173846 198.794813,68.744553 L198.000617,89.4666311 C197.980042,89.9937995 198.473843,90.2791839 199.482019,90.3108933" id="Fill-6" fill="#522E32" mask="url(#mask-2)"></path>
                <path d="M245.542821,77.6507597 C245.727251,77.287611 245.947765,76.6757843 246.204363,75.8113324 L246.268512,75.819227 C246.292568,75.9889595 246.324643,76.2731629 246.360727,76.6836788 C246.396811,77.0863003 246.444923,77.4415544 246.497045,77.7415469 L248.589921,86.318962 L241.786068,85.6637153 L245.542821,77.6507597 Z M236.477699,93.4398348 L236.954811,93.4872021 C237.700548,93.5582529 238.165632,93.4200985 238.350062,93.0806334 L240.479022,88.4623289 L249.323631,89.3070444 L250.54648,94.2450777 C250.658742,94.6161209 251.119816,94.837168 251.929703,94.9161134 L252.503039,94.9753224 C253.461272,95.0621623 253.95843,94.9200606 253.994514,94.5450701 C254.010552,94.4187575 253.990505,94.2569195 253.946402,94.0635033 L248.565865,72.7995664 C248.469641,72.4364176 248.008567,72.207476 247.178633,72.1285307 L246.064036,72.0219544 C245.234102,71.943009 244.736944,72.0772162 244.572561,72.4206286 L235.146597,92.2359179 C235.062401,92.4411758 235.014289,92.6030139 235.002261,92.7253792 C234.962168,93.1082643 235.455317,93.3451004 236.477699,93.4398348 Z" id="Fill-7" fill="#522E32" mask="url(#mask-2)"></path>
                <path d="M270.617563,76.1148304 L276.943733,77.0533573 L273.874644,96.796552 C273.787206,97.3554021 274.272489,97.7137488 275.330494,97.875858 L275.850752,97.9483805 C276.908757,98.1062237 277.481479,97.9014542 277.573289,97.342604 L280.642378,77.6036754 L286.902969,78.5251383 C287.1784,78.5720646 287.388252,78.5038081 287.536898,78.3331669 C287.676799,78.1582596 287.786097,77.8553713 287.851676,77.4287681 L287.956602,76.7504691 C288.022181,76.328132 288.013437,76.0081796 287.930371,75.799144 C287.842932,75.5901085 287.659312,75.4706596 287.383881,75.4237332 L271.098474,73.0091593 C270.823043,72.9750311 270.613191,73.0347555 270.468918,73.2139288 C270.324644,73.3845701 270.215346,73.6874584 270.149767,74.1140615 L270.044841,74.7838285 C269.979262,75.2146977 269.983634,75.530384 270.071073,75.7394196 C270.158511,75.9484551 270.342132,76.0764361 270.617563,76.1148304" id="Fill-8" fill="#522E32" mask="url(#mask-2)"></path>
                <path d="M308.086077,92.603375 C308.081997,92.6701968 308.135029,92.7913113 308.179902,92.7996641 C308.706137,92.924955 309.236452,93.0377168 309.783084,93.1504787 C309.80756,92.9792477 309.840195,92.8623095 309.844275,92.7370186 C309.901385,91.6219294 309.832037,90.5110165 309.628069,89.4126327 C309.383309,88.0553144 309.097754,86.7063488 308.87339,85.344854 C308.681661,84.162943 308.669423,82.9810319 309.150786,81.8492372 C309.689259,80.5754462 310.578557,79.6357642 311.74117,78.9550169 C312.463215,78.5290277 313.226052,78.1615077 313.952176,77.7355185 C314.196936,77.5935221 314.323396,77.6185803 314.453935,77.8608095 C314.527363,77.9944531 314.629347,78.1072149 314.723172,78.2366822 C315.314677,79.0427205 315.987769,79.8069952 316.48137,80.6756789 C317.358429,82.22511 317.570555,83.899832 316.79548,85.562025 C316.363069,86.4891778 315.816437,87.3620379 315.253487,88.2140162 C314.4213,89.4794546 313.503448,90.6864238 312.854832,92.064624 C312.61415,92.5741404 312.418342,93.1003623 312.18174,93.6725242 C312.777324,93.7978151 313.270925,93.9105769 313.764526,93.9982806 C313.842033,94.014986 313.98889,93.9064006 314.017445,93.8270497 C314.392745,92.7913113 314.935298,91.8558058 315.539041,90.9495347 C316.269244,89.8553273 317.028002,88.773649 317.733729,87.6543834 C318.427218,86.560176 318.896343,85.3615595 318.982009,84.0460048 C319.120707,81.9369409 318.451694,80.0826352 317.174859,78.4496768 C316.35899,77.4055858 315.514565,76.3907293 314.890425,75.2129946 C314.85779,75.1503491 314.804759,75.1044091 314.731331,75 C314.61303,75.1002327 314.506967,75.2004655 314.388666,75.2798164 C313.633987,75.7559219 312.895625,76.2570856 312.11647,76.6914275 C311.284284,77.1591803 310.423542,77.568464 309.693339,78.2074477 C308.00449,79.6817042 307.033605,81.5151281 307.000971,83.8246575 C306.984653,84.9606285 307.176383,86.0631887 307.400747,87.1615724 C307.75565,88.957409 308.204378,90.7448929 308.086077,92.603375" id="Fill-9" fill="#522E32" mask="url(#mask-2)"></path>
                <path d="M320.476236,97.9966346 C320.5562,97.9856915 320.672148,97.9273287 320.68814,97.8762613 C320.804088,97.4494833 320.892049,97.0117622 321,96.5448598 C320.832076,96.5120307 320.720126,96.486497 320.604178,96.4646109 C314.638864,95.3301839 308.665554,94.1884616 302.700239,93.0540345 C302.668254,93.0467392 302.640266,93.0467392 302.612279,93.0357962 C302.352396,92.9373089 302.264436,93.0503869 302.224454,93.2728951 C302.180473,93.5391754 302.108506,93.8054557 302.048533,94.0680883 C301.956574,94.4729802 301.956574,94.4729802 302.400374,94.5605244 C308.337701,95.6913038 314.279026,96.8257308 320.216353,97.9565101 C320.304313,97.9747485 320.392274,98.0112253 320.476236,97.9966346" id="Fill-10" fill="#522E32" mask="url(#mask-2)"></path>
                <path d="M308.530939,99.4169289 C308.723025,99.1055907 308.831073,98.7388086 309.003149,98.3379074 C308.426893,98.2099602 307.934674,98.0862779 307.438454,98.0009797 C307.366422,97.988185 307.234363,98.1033375 307.194345,98.1929005 C306.694123,99.2889817 306.029827,100.244321 305.173447,101.054653 C305.009374,101.20819 304.969356,101.353197 305.021379,101.570707 C305.509596,103.826843 306.698125,105.566925 308.426893,106.923165 C308.51093,106.982874 308.650992,107.016993 308.751037,106.991404 C310.855973,106.48388 312.612753,105.392064 313.897324,103.515505 C314.001371,103.366233 314.037387,103.242551 313.953349,103.05916 C313.46113,101.928959 313.197013,100.73905 313.164999,99.4894323 C313.160997,99.4083991 313.112976,99.271922 313.060953,99.2591273 C312.544723,99.1311801 312.028494,99.0202925 311.488254,98.9008751 C311.464243,99.041617 311.444234,99.135445 311.444234,99.225008 C311.43623,100.423447 311.600303,101.600561 311.972469,102.730762 C312.044501,102.952537 312.02049,103.093279 311.860419,103.25108 C311.084074,104.018764 310.199681,104.585996 309.199236,104.939984 C309.083185,104.982633 308.875092,104.935719 308.783051,104.841891 C307.994701,104.087002 307.38643,103.182842 306.974247,102.133675 C306.894212,101.937489 306.942233,101.818072 307.054283,101.656005 C307.562509,100.922441 308.062731,100.180347 308.530939,99.4169289" id="Fill-11" fill="#522E32" mask="url(#mask-2)"></path>
                <path d="M296.251522,88.0702096 C296.640021,88.065691 297.024596,88.0295422 297.409171,88.0476166 C297.636777,88.0566538 297.683868,87.9572447 297.711337,87.7313148 C297.758428,87.3472339 297.809443,86.9541159 297.919322,86.5926281 C298.766956,83.8272461 301.61595,83.0952332 303.397553,85.1828255 C304.08037,85.9871359 304.492414,86.9676717 304.79458,88.0159864 C305.194852,89.4212704 305.343973,90.8627032 305.308655,92.3357661 C305.308655,92.4306567 305.367519,92.5933262 305.426382,92.6114006 C305.912987,92.7469585 306.407441,92.8599235 307,93 C306.984303,92.145985 307.011773,91.3642675 306.952909,90.6006245 C306.780243,88.3142139 306.270092,86.1498055 305.006489,84.3152547 C303.970491,82.7970058 302.608782,81.9565465 300.909588,82.0017325 C298.197942,82.0695115 296.08278,84.7128913 296.000371,87.8171681 C295.992523,88.065691 296.11025,88.0702096 296.251522,88.0702096" id="Fill-12" fill="#522E32" mask="url(#mask-2)"></path>
                <path d="M316.63849,93.1272563 C316.407711,93.5856795 316.226933,94.0670239 316,94.5865702 C316.553871,94.701176 317.042355,94.8081414 317.534685,94.8960058 C317.588533,94.9074664 317.684691,94.8081414 317.719308,94.7431981 C318.027015,94.1510681 318.284719,93.5245564 318.634734,92.9591678 C319.377076,91.7519867 320.300194,90.7052537 321.604099,90.0558208 C323.492646,89.1122331 325.569663,89.9564958 326.181229,91.9200752 C326.408163,92.6497321 326.415855,93.3832093 326.127381,94.109046 C326.050454,94.3000557 326.073532,94.4108413 326.288926,94.4910653 C326.642789,94.6324125 326.981265,94.800501 327.323588,94.9609491 C327.485134,95.037353 327.569753,95.0067915 327.638987,94.8234222 C328.015927,93.8263517 328.108239,92.8101803 327.865921,91.7710877 C327.346666,89.5400947 325.500429,88.0349385 323.200325,88.0005568 C321.923345,87.9814558 320.804063,88.4551598 319.800172,89.2115581 C318.415494,90.2468305 317.40391,91.5915386 316.63849,93.1272563" id="Fill-13" fill="#522E32" mask="url(#mask-2)"></path>
                <path d="M42.4603336,90.9529923 C43.064121,91.8594598 43.6067137,92.7909909 43.9820409,93.8269538 C44.0105984,93.9104991 44.1615453,94.0149309 44.2349789,93.9982218 C44.7326955,93.9146764 45.2222528,93.8018901 45.8178808,93.6723948 C45.5812615,93.1042861 45.3813589,92.5779502 45.1447395,92.0683233 C44.5001557,90.6898243 43.5781561,89.4784162 42.7459087,88.2168808 C42.1869975,87.3647178 41.6321658,86.4916685 41.2038032,85.5643146 C40.4286708,83.9017614 40.6408123,82.222499 41.5179358,80.672732 C42.0115728,79.80386 42.6847141,79.0394196 43.2762625,78.2332066 C43.3700943,78.1078885 43.476165,77.990925 43.545519,77.8572524 C43.6760676,77.619148 43.8025366,77.5940844 44.0473152,77.7361115 C44.7734919,78.1580158 45.5363854,78.5256155 46.262562,78.9558742 C47.421181,79.6325919 48.3146231,80.5766548 48.8490565,81.8465448 C49.3345341,82.9827621 49.3182156,84.1607521 49.1264723,85.3429193 C48.9020918,86.7047092 48.6165168,88.0581445 48.3676585,89.4157571 C48.1677559,90.514379 48.0984019,91.6213554 48.155517,92.7408637 C48.1595966,92.8620045 48.1881541,92.978968 48.2167116,93.1502361 C48.7633839,93.0374498 49.2937377,92.9288408 49.8200118,92.7993455 C49.8608082,92.7909909 49.9179233,92.6698501 49.9138436,92.6071911 C49.7955339,90.7441288 50.2402151,88.9562575 50.6033035,87.1642089 C50.8236043,86.0614097 51.0153476,84.9586106 50.999029,83.8265705 C50.9663918,81.5123632 49.9954365,79.6827191 48.3064638,78.2039657 C47.5762075,77.5690208 46.7154025,77.1554711 45.8831551,76.6917942 C45.1039431,76.2531809 44.3614478,75.7519085 43.6067137,75.2756998 C43.4924836,75.2005089 43.3904925,75.0960772 43.2681032,75 C43.1905899,75.1002545 43.1416342,75.1503817 43.1089971,75.2088635 C42.4848115,76.3910308 41.6403251,77.4061072 40.8243963,78.4504246 C39.5474677,80.0795597 38.8824856,81.9384447 39.0171139,84.0479658 C39.1027864,85.3596284 39.5719455,86.5585048 40.265485,87.6571267 C40.9712635,88.7766349 41.7300773,89.8543704 42.4603336,90.9529923" id="Fill-14" fill="#522E32" mask="url(#mask-2)"></path>
                <path d="M55.9514773,94.0680883 C55.8915169,93.8054557 55.8155671,93.5391754 55.7755935,93.2728951 C55.73562,93.0503869 55.6436807,92.9373089 55.3838524,93.0357962 C55.3598682,93.0467392 55.3278894,93.0467392 55.2959105,93.0540345 C49.3318514,94.1884616 43.363795,95.3301839 37.3997359,96.4646109 C37.2838125,96.486497 37.1678891,96.5120307 37,96.5448598 C37.1079287,97.0154099 37.1998679,97.4494833 37.311794,97.8762613 C37.3277834,97.9309764 37.4477042,97.9856915 37.523654,97.9966346 C37.6075985,98.0112253 37.6995378,97.9747485 37.7874797,97.9565101 L55.5997098,94.5605244 C56.0434166,94.4729802 56.0434166,94.4729802 55.9514773,94.0680883" id="Fill-15" fill="#522E32" mask="url(#mask-2)"></path>
                <path d="M46.5132473,98.9008208 C45.9729373,99.020231 45.4526388,99.1311119 44.9363426,99.2590513 C44.8883151,99.2718453 44.8402875,99.4083141 44.8362852,99.4893424 C44.8042669,100.738885 44.536113,101.928722 44.0438306,103.063119 C43.9637847,103.246499 43.9998053,103.365909 44.0998627,103.515172 C45.3886021,105.391618 47.1456101,106.483368 49.2468156,106.990861 C49.346873,107.016449 49.4909556,106.986597 49.5750039,106.922627 C51.3039958,105.566468 52.4926777,103.826491 52.9809579,101.570492 C53.0289854,101.352994 52.9889625,101.207996 52.8288706,101.054469 C51.9723792,100.244185 51.3079981,99.2889039 50.8077111,98.1928889 C50.7676881,98.1033313 50.6356123,97.9881857 50.563571,98.0009797 C50.0672863,98.0905373 49.5750039,98.2099475 48.9986732,98.337887 C49.1707719,98.7387641 49.2788339,99.105524 49.4709442,99.4168434 C49.9392128,100.180216 50.4394998,100.922265 50.9477914,101.655785 C51.0598557,101.822106 51.103881,101.937251 51.0278373,102.133425 C50.6115985,103.182529 50.0072518,104.086635 49.2187995,104.845743 C49.1227444,104.9353 48.9186273,104.982211 48.8025607,104.939565 C47.8019867,104.585599 46.9134769,104.018401 46.1410338,103.255028 C45.9809419,103.092972 45.9529258,102.952238 46.0249672,102.730476 C46.401183,101.600344 46.5612749,100.423301 46.5572726,99.2249341 C46.5572726,99.1353765 46.5332588,99.0415542 46.5132473,98.9008208" id="Fill-16" fill="#522E32" mask="url(#mask-2)"></path>
                <path d="M52.6907436,92.3400136 C52.655438,90.8663453 52.8045059,89.4197997 53.2046355,88.0184587 C53.5066941,86.9697132 53.9185921,85.9887745 54.6011661,85.1841335 C56.382135,83.0956833 59.230116,83.8234766 60.0774492,86.5945154 C60.1872887,86.9561518 60.2382856,87.3494314 60.2853597,87.7291496 C60.3128195,87.9551723 60.3638164,88.0591428 60.5874183,88.0501019 C60.9718565,88.0320201 61.3562947,88.0681837 61.7446557,88.0727042 C61.8858779,88.0727042 62.0074859,88.0681837 61.9996403,87.8195587 C61.9133378,84.7140062 59.7989276,82.0695401 57.088246,82.0017332 C55.3896567,81.9565287 54.0284316,82.7973333 52.9888793,84.3162061 C51.729648,86.1515108 51.219679,88.3122883 51.0470741,90.5996384 C50.9882315,91.3681158 51.0156914,92.1501545 51,93 C51.5923487,92.8598659 52.0827035,92.751375 52.5730584,92.6157613 C52.6279781,92.5976795 52.6907436,92.4349431 52.6907436,92.3400136" id="Fill-17" fill="#522E32" mask="url(#mask-2)"></path>
                <path d="M30.6754672,94.9609491 C31.0178189,94.800501 31.356324,94.6285923 31.7102156,94.4910654 C31.9256279,94.4070211 31.9487078,94.2962355 31.8717748,94.1052258 C31.5832762,93.3832093 31.5909695,92.6497322 31.8179218,91.916255 C32.4295389,89.9526756 34.506729,89.1122331 36.3954333,90.0558209 C37.6994471,90.7052537 38.6226427,91.7481665 39.3650459,92.9591678 C39.7150909,93.5245564 39.9728163,94.1472479 40.2805482,94.7393779 C40.315168,94.8081414 40.4113342,94.9036462 40.4613407,94.8921857 C40.9575583,94.8081414 41.4460826,94.701176 42,94.58275 C41.7768944,94.0670239 41.5922553,93.5856795 41.3614564,93.1272563 C40.59982,91.5877184 39.5843048,90.2468305 38.1995114,89.2077379 C37.1955362,88.4551598 36.0761615,87.9814559 34.7990743,88.0005568 C32.4987785,88.0349386 30.6523873,89.5362746 30.1330898,91.7672675 C29.8907509,92.8101803 29.9869171,93.8225315 30.360042,94.8234222 C30.4331283,95.0067915 30.513908,95.037353 30.6754672,94.9609491" id="Fill-18" fill="#522E32" mask="url(#mask-2)"></path>
                <path d="M57.541571,147.000538 C56.9377989,147.061161 56.4196972,147.315776 55.995425,147.7563 C53.4865073,150.342866 50.3942152,152.351495 46.7960601,153.72965 C43.1775073,155.115887 39.3753751,155.883774 35.4875726,156.013102 C34.6920621,156.077766 34.0474946,155.790819 33.5416315,155.196717 C33.0235298,154.598574 32.8236323,153.931725 32.9256208,153.16788 C34.8144483,140.675578 36.2708444,130.709218 37.2580933,123.567873 C37.474309,122.403919 36.9439687,121.534995 35.7649813,121.122761 C35.4590158,121.01364 35.1326525,120.977267 34.8103688,121.01364 C32.4687122,121.252089 30.1311353,121.595617 27.86699,122.036142 C25.5865266,122.484749 23.0000977,123.179889 20.1729758,124.105394 C17.3050585,125.047065 14.6941523,126.182729 12.4177684,127.480053 C10.1046687,128.793544 7.90171656,130.547558 5.87010516,132.685516 C3.82625514,134.847723 2.29234774,137.313043 1.31325791,140.004687 C-0.147217755,143.84412 -0.391990213,147.926044 0.591179159,152.129212 C1.57026899,156.324298 3.58556223,160.050569 6.60850208,163.223153 C7.13068332,163.708134 7.75893263,163.930416 8.50548863,163.841503 L8.50956817,163.841503 C8.99911308,163.788964 9.43562397,163.574764 9.81910082,163.19082 C10.2515322,162.742213 10.4677478,162.204692 10.4759069,161.594425 C10.4759069,160.972032 10.2474526,160.438553 9.80686219,160.030361 C7.40809211,157.488252 5.79259389,154.501578 5.00524248,151.151167 C4.21789107,147.812881 4.39739088,144.575633 5.52742372,141.540461 C6.96342214,137.793982 9.70895321,134.589066 13.6946647,132.010584 C17.7170921,129.407853 22.9389046,127.504302 29.1928408,126.34439 C29.9965104,126.235269 30.6696347,126.421178 31.2611681,126.958699 C31.8445425,127.496219 32.0566786,128.122653 31.9179742,128.947121 C30.6369983,137.842481 29.4743292,145.767878 28.4258871,152.727356 C28.3442963,153.228503 28.1362397,153.664985 27.7853992,154.073178 C27.4508769,154.457121 27.0674,154.699612 26.6104914,154.816815 C26.1495033,154.925936 25.6477198,154.921895 25.1092203,154.788525 C24.9909137,154.764276 24.872607,154.715778 24.6563913,154.610698 C20.9317704,153.41037 18.5207617,151.692729 17.5131151,149.587104 L16.9990929,147.711844 C16.7869568,146.996497 16.3504459,146.49535 15.7058784,146.220527 C15.0531519,145.941663 14.3963458,145.969954 13.7599374,146.301357 C12.8461202,146.733799 12.421848,147.517851 12.5319956,148.605017 C12.678859,149.477983 12.8991542,150.294368 13.1969607,151.074379 C14.5268911,155.617034 16.2362188,160.293059 18.2759892,164.965043 C20.3443165,169.709773 21.7925535,172.86215 22.7063707,174.591915 C23.5997902,176.297432 24.3545053,177.679628 24.9501182,178.698088 C25.4437427,179.518514 26.1984578,179.878208 27.1285931,179.805461 L27.7038084,179.680174 L27.6997289,179.619552 C28.4422053,179.40131 28.9317502,178.839541 29.1316477,177.974658 C29.3886588,176.750081 30.1760102,171.779026 31.4651452,163.206987 C31.6650427,161.946036 31.1306228,161.024572 29.9271582,160.604255 C29.2254772,160.410263 28.5768302,160.495134 28.0056944,160.862912 C27.4263996,161.230689 27.0796386,161.784376 27.0184455,162.4391 C26.6268096,164.868046 26.3126849,166.763514 26.0760716,168.153793 C26.0515943,168.456906 25.9373672,168.671106 25.4722995,168.755977 C25.1377771,168.824683 24.872607,168.768102 24.6645504,168.303328 C23.3590973,165.478314 22.1148373,162.608843 20.9766453,159.783829 C20.8257023,159.403927 20.9072932,159.092731 21.2295769,158.765369 C21.5355425,158.44609 21.8129512,158.377384 22.2168258,158.567335 C22.5758254,158.704746 22.9307455,158.809826 23.228552,158.870448 C25.2071293,159.537297 27.3488883,160.00207 29.6660676,160.240519 C33.5538701,160.713376 37.5436612,160.575965 41.5375318,159.84041 C42.4268717,159.662584 43.2101436,159.860618 43.9159042,160.442595 C44.6339034,161.04478 45.0051416,161.784376 45.0540961,162.68159 C45.1520051,173.100599 47.9097748,179.530638 53.1846212,181.75751 C53.453871,181.91917 53.7435184,182 54.0535635,182 C54.1147566,182 54.1800292,181.995958 54.2412224,181.987875 C55.203994,181.894921 55.8322433,181.333151 56.0076636,180.456144 C56.3136292,179.40131 55.8934364,178.540469 54.8082786,178.03528 C52.7725876,177.15019 51.267237,175.157726 50.3411812,172.098305 C49.3824891,168.945928 48.9949327,164.682137 49.1948302,159.436259 C49.2560233,158.23189 49.7986022,157.395298 50.8470443,156.873943 C54.1637111,155.305838 57.0357079,153.236586 59.381444,150.734892 C59.8138753,150.286285 60.0260114,149.716432 59.9974547,149.085957 C59.9607388,148.431232 59.6792505,147.885629 59.1570692,147.46127 C58.7042402,147.097535 58.1535021,146.956082 57.541571,147.000538" id="Fill-19" fill="#522E32" mask="url(#mask-2)"></path>
                <path d="M47.1889402,151.935412 C47.329376,151.979816 47.4698119,152 47.6057175,152 C47.6555496,152 47.6963213,151.995963 47.7461534,151.991926 C49.0780288,151.866787 49.8708118,151.19265 50.0384287,150.026028 C50.7859098,144.148518 52.3714758,136.276852 54.7452946,126.637089 C55.3115681,124.307883 55.7147549,122.685109 55.9775058,121.700141 C56.0590492,121.094629 55.9186134,120.541594 55.5607285,120.045073 C55.1937832,119.536442 54.6728115,119.205429 54.0159342,119.064142 C53.3364059,118.914783 52.688589,119.027812 52.1087249,119.387083 C51.5515117,119.742317 51.1890966,120.230764 51.0350702,120.836276 C50.7813796,121.768766 50.3736627,123.371357 49.7983288,125.660195 C47.42451,135.538126 45.8162931,143.551079 45.0189799,149.472993 C44.9374365,150.09869 45.1186441,150.655762 45.5626025,151.128062 C45.9793799,151.584215 46.5275327,151.854677 47.1889402,151.935412" id="Fill-20" fill="#522E32" mask="url(#mask-2)"></path>
                <path d="M76.269853,154.295894 C75.7810257,156.872006 75.0437112,159.241866 74.0742037,161.336726 C73.1128434,163.41541 72.1107474,165.04115 71.0882836,166.169463 C70.0780405,167.269466 69.0596503,168.013587 68.0657015,168.373514 C67.2550628,168.660647 66.6236609,168.583809 66.1511278,168.18344 C65.4341811,167.524247 64.9494274,166.327184 64.6968666,164.620561 C64.4361587,162.833055 64.5705862,160.172017 65.0960756,156.718329 C65.6541534,153.656922 66.4851598,150.975663 67.5728006,148.747347 C68.6482207,146.531163 69.7277143,144.937775 70.7746194,143.999537 C71.7889361,143.097696 72.7258551,142.608356 73.5609351,142.551738 L74.1190129,142.507252 C75.1251824,142.770121 75.8706441,143.833727 76.3391036,145.665719 C76.8482987,147.671608 76.8238573,150.575294 76.269853,154.295894 M123.034332,150.668309 C122.451813,150.59147 121.901882,150.737059 121.400834,151.101031 C120.907933,151.469047 120.602416,151.962431 120.496503,152.581183 C120.109515,155.355457 119.221479,158.319805 117.856836,161.397388 C116.235559,165.057327 114.936093,165.870197 114.129528,165.906594 C113.958438,165.906594 113.836231,165.890418 113.828084,165.890418 C113.595891,165.603284 113.428875,165.170562 113.335183,164.608428 C113.233344,163.997764 113.229271,163.136365 113.327036,162.032317 C113.428875,160.89996 113.534788,159.840398 113.648848,158.849586 C113.762907,157.854729 113.974732,156.536343 114.288397,154.926779 C114.606134,153.272729 114.870916,151.958387 115.086815,150.967574 C115.302713,149.976762 115.612304,148.54514 115.995219,146.672707 C116.724386,143.291814 117.26617,140.642908 117.616496,138.758343 C117.661305,138.362018 117.624643,137.994002 117.510583,137.634075 C117.39245,137.274147 117.184698,136.958705 116.887328,136.687748 C116.573664,136.404659 116.198897,136.242894 115.868938,136.218629 C115.233463,136.032599 114.630576,136.14179 114.121381,136.517894 C113.624406,136.881866 113.318889,137.379294 113.21705,137.973782 C112.866724,139.720846 112.300499,142.333355 111.522449,145.762778 C111.082504,147.914256 110.724031,149.693673 110.426661,151.177869 C110.296307,151.246619 110.141512,151.343679 110.007084,151.493311 C109.730082,151.808754 109.534551,152.168681 109.416418,152.633756 C109.102754,155.234133 108.361366,157.99223 107.220769,160.819078 C105.538388,165.077547 104.185966,166.027918 103.350886,166.080492 C102.882426,166.120933 102.556541,166.036006 102.413967,165.890418 C102.222509,165.676079 102.075861,165.340416 101.982169,164.883429 C101.88033,164.386001 101.855889,163.722764 101.904772,162.917981 C101.961801,162.080846 102.035126,161.288197 102.124744,160.548121 C102.210289,159.816133 102.373231,158.873851 102.621718,157.660611 C102.870206,156.451416 103.065736,155.521266 103.212385,154.845896 C103.359033,154.178614 103.558637,153.191846 103.798977,151.917945 C104.218554,150.029336 104.528145,148.634111 104.711455,147.720137 C104.947722,146.579692 104.471115,145.694028 103.440504,145.261306 C103.212385,145.123805 102.915015,145.038878 102.446555,144.990349 L102.275466,144.990349 C99.4402673,144.990349 97.1224111,144.610201 95.3504122,143.857992 C94.9797181,143.720492 94.7067895,143.481888 94.5234793,143.130049 C94.3401691,142.774165 94.2709185,142.402105 94.3238748,141.98556 L94.3931254,141.795485 C94.5886563,140.723791 95.1793226,137.452089 95.305603,136.98297 C95.7985039,134.544359 95.4033685,132.768985 94.1242703,131.701334 C93.2525283,130.989567 92.2667266,130.811626 91.1913065,131.203906 C89.3989397,131.899497 88.2216806,133.970092 87.6921177,137.350985 C87.2847616,139.866435 87.6187936,142.050266 88.6738459,143.813507 C89.0323193,144.4727 89.146379,145.184467 89.0078779,145.916455 C88.4620207,148.609846 88.0505911,150.676397 87.7654418,152.144417 C87.6228672,152.213167 87.4965868,152.298094 87.3866007,152.391109 C86.9344354,152.763169 86.6615068,153.256553 86.5718885,153.863172 C86.1523117,156.637446 85.2357605,159.634147 83.8385291,162.772393 C82.1846634,166.488949 80.8729768,167.338217 80.0704853,167.394834 C80.0378969,167.398879 80.0053084,167.398879 79.9727199,167.398879 C79.8464395,167.398879 79.7608947,167.382702 79.7690418,167.402923 C79.6427614,167.245202 79.4716719,166.897406 79.3576122,166.124977 C79.2557732,165.453652 79.2557732,164.555855 79.3535386,163.459895 C79.4553776,162.31945 79.5735109,161.243711 79.712012,160.236723 C79.8382924,159.270175 80.0786325,157.963921 80.4411794,156.237077 C80.7996527,154.566851 81.0766549,153.240376 81.2721858,152.269785 C81.4636432,151.311326 81.7610131,149.936321 82.1602221,148.164992 C82.9871549,144.646598 83.561527,142.078575 83.8996326,140.327466 C84.0544279,139.712758 83.9770302,139.130403 83.663366,138.604666 C83.3497018,138.082973 82.8730952,137.739222 82.2416933,137.577457 C81.6143649,137.419736 81.0236986,137.520839 80.4941357,137.868634 C79.980867,138.204297 79.6427614,138.689593 79.4757455,139.356874 C79.443157,139.603566 79.4105685,139.797685 79.3698329,139.963494 C79.3372444,140.121215 79.2639203,140.238495 79.0276538,140.311289 C78.811755,140.363863 78.6651068,140.327466 78.506238,140.165701 C77.4511857,139.04952 76.2291174,138.362018 74.8807688,138.111282 C71.9763199,137.589589 69.137048,138.940329 66.3955415,142.135192 C63.719212,145.249173 61.7964913,149.879703 60.6803356,155.909502 C59.2423686,163.649969 60.0855957,168.915428 63.1937226,171.58051 C64.3546875,172.526837 65.6867419,173 67.1572974,173 C67.3202398,173 67.4913294,172.995956 67.6583454,172.983823 C68.2734531,172.935294 68.9211492,172.801838 69.609581,172.57941 C71.344918,171.956614 73.0272986,170.743375 74.6119138,168.980134 C74.6974585,168.870942 74.8359596,168.765795 75.1455502,168.802192 C75.3818168,168.830501 75.528465,168.931604 75.6262304,169.117634 C75.833982,169.566533 76.0621014,169.946681 76.3513243,170.310653 C77.3860087,171.479407 78.7506516,172.0011 80.4004438,171.887864 C81.9035877,171.770584 83.3211869,171.054773 84.6247264,169.74043 C85.8753096,168.474617 86.8814791,167.026819 87.6228672,165.445563 C88.3357403,163.900705 88.9997308,162.185994 89.5944707,160.349958 C90.1973577,158.461349 90.5761988,157.126786 90.7472884,156.26943 L90.7635826,156.20068 C91.3379547,155.865017 91.7127223,155.359501 91.8756647,154.680087 C92.0834163,153.705451 92.4337426,151.934122 92.9225699,149.333746 C92.9795997,148.957641 93.1669835,148.694773 93.5132362,148.504699 C93.8880038,148.306536 94.2546243,148.274183 94.6538333,148.40764 C95.7333269,148.787788 96.947248,149.046612 98.1937577,149.17198 C98.6133344,149.269039 98.9351457,149.491467 99.1877065,149.843306 C99.4280466,150.187057 99.4932236,150.534852 99.3995317,150.94331 C98.849601,153.470892 98.4585391,155.367589 98.2141255,156.629358 C97.9656382,157.895171 97.7375188,159.399588 97.5175465,161.235623 C97.2935007,163.108056 97.3179421,164.592252 97.5827235,165.777182 C97.8556521,166.978289 98.3363323,167.99741 99.0166169,168.81028 C100.100184,170.09227 101.63999,170.658448 103.615667,170.573521 C105.721698,170.448153 107.607757,169.166164 109.241255,166.743729 C109.51011,167.544467 109.880804,168.211749 110.34519,168.729398 C111.351359,169.922416 112.667119,170.456242 114.357647,170.403668 C115.860791,170.330874 117.290611,169.643371 118.598224,168.365426 C119.856954,167.123878 120.863124,165.700344 121.584144,164.139309 C122.28887,162.598495 122.94064,160.904004 123.519086,159.104366 C124.109752,157.256198 124.480446,155.933767 124.651536,155.056191 C124.830772,154.166482 124.936685,153.54773 124.9652,153.203979 C125.075186,152.581183 124.924464,152.01096 124.513034,151.505444 C124.117899,151.020148 123.620925,150.737059 123.034332,150.668309" id="Fill-21" fill="#522E32" mask="url(#mask-2)"></path>
                <path d="M116.470924,135 L116.583227,135 C117.266033,134.959964 117.832043,134.701957 118.344147,134.137011 C118.775393,133.669929 118.995508,133.096085 119,132.433274 C119,131.752669 118.761916,131.169929 118.281257,130.702847 C117.800598,130.235765 117.203143,130 116.493384,130 L116.470924,130 C115.779134,130 115.16371,130.266904 114.696527,130.769573 L114.692035,130.77847 C114.233836,131.281139 114.000245,131.868327 114.000245,132.522242 C113.991261,133.19395 114.229344,133.785587 114.736956,134.314947 C115.244568,134.768683 115.824055,135 116.470924,135" id="Fill-22" fill="#522E32" mask="url(#mask-2)"></path>
                <path d="M222.748662,149.104105 C222.048864,151.644667 221.126587,153.9539 219.998011,155.962811 C218.87348,157.967664 217.744904,159.513916 216.640599,160.552868 C215.564609,161.56747 214.492664,162.224932 213.46926,162.50902 C212.644065,162.724116 212.021124,162.606422 211.588301,162.164056 C210.937044,161.453835 210.552762,160.211962 210.44759,158.483081 C210.334328,156.689266 210.686249,154.035068 211.491219,150.613832 C212.296189,147.594378 213.339818,144.980764 214.601881,142.841984 C215.847764,140.719438 217.045106,139.20971 218.161547,138.357445 C219.229447,137.545764 220.192175,137.131807 221.013325,137.131807 L221.021415,137.131807 C221.215578,137.139923 221.405697,137.139923 221.59177,137.139923 C222.570678,137.488946 223.21789,138.617183 223.525316,140.48405 C223.865102,142.529487 223.602172,145.431247 222.748662,149.104105 Z M322.318174,142.058712 C322.981566,143.170715 322.771223,144.846837 321.695233,147.038376 C320.566657,149.323259 318.993123,151.190125 317.019126,152.586217 C315.081536,153.957958 313.249117,154.449026 311.554231,154.108119 C310.571277,153.949842 309.89575,153.406015 309.479107,152.448231 C309.06651,151.478272 309.139321,150.581364 309.701586,149.70069 C310.623863,148.264015 311.748394,146.896332 313.046863,145.634167 C314.337242,144.38012 315.643801,143.353343 316.94227,142.586304 C318.196243,141.839558 319.336954,141.389075 320.311817,141.259206 C321.25432,141.178037 321.905577,141.462126 322.318174,142.058712 Z M346.382323,154.883275 C345.488362,157.36702 344.388102,159.599143 343.105813,161.518769 C341.823524,163.438395 340.577641,164.887246 339.400524,165.832855 C338.247678,166.758171 337.127193,167.338523 336.091653,167.541444 C335.254323,167.67943 334.639472,167.517093 334.243054,167.04226 C333.648428,166.283338 333.361228,165.017115 333.385498,163.284176 C333.413814,161.470068 333.972034,158.856455 335.035889,155.520445 C336.075473,152.569983 337.321356,150.045655 338.741177,148.012393 C340.152908,145.995366 341.459467,144.58304 342.636584,143.828177 C343.672123,143.15854 344.5944,142.821692 345.38319,142.821692 C345.460046,142.821692 345.532858,142.82575 345.605669,142.833867 L346.151754,142.87851 C347.098302,143.300584 347.656522,144.469405 347.82237,146.356564 C348.000353,148.430409 347.514944,151.307819 346.382323,154.883275 Z M360.681662,155.552912 C360.329741,154.988794 359.840287,154.635712 359.22948,154.51396 C358.630809,154.388149 358.072589,154.481493 357.57909,154.777756 C357.077501,155.07402 356.729624,155.524503 356.547596,156.104855 C355.69004,158.799637 354.31067,161.624288 352.44589,164.497639 C350.225144,167.910759 348.821503,168.604746 348.008443,168.474877 C347.83046,168.458644 347.721243,168.430235 347.717198,168.430235 C347.620116,168.259782 347.506854,167.890467 347.514944,167.107194 C347.527079,166.42944 347.664612,165.54065 347.935632,164.46923 C348.218787,163.34911 348.505988,162.302041 348.801278,161.323966 C349.092523,160.358065 349.537482,159.099959 350.160423,157.484713 C350.775274,155.885701 351.260683,154.619479 351.604515,153.686045 C351.952391,152.764787 352.458025,151.453922 353.133553,149.765625 C354.480563,146.466141 355.479696,143.937754 356.086457,142.269749 C356.341297,141.677221 356.353432,141.092811 356.130953,140.528692 C355.908474,139.964574 355.495877,139.546558 354.909341,139.28682 C354.31067,139.027082 353.720089,139.035199 353.145688,139.294937 C352.591513,139.5425 352.18296,139.968632 351.90385,140.613919 C351.839129,140.845248 351.774408,141.031935 351.705642,141.194271 C351.649011,141.340374 351.560019,141.449951 351.309224,141.47836 C351.094835,141.514885 350.957303,141.433717 350.831905,141.255147 C349.970305,139.980808 348.886225,139.104192 347.599891,138.641534 C344.861375,137.679691 341.839704,138.556307 338.64005,141.275439 C335.865129,143.64149 333.454265,147.391457 331.480268,152.427939 C331.32251,152.484757 331.176888,152.55375 331.0434,152.643035 C330.545856,152.943357 330.210115,153.365431 330.040222,153.897082 C328.806474,157.687634 326.666629,160.743613 323.665184,162.979795 C320.679919,165.220035 317.767465,166.258987 315.000634,166.064184 C313.742616,165.983016 312.618085,165.414839 311.554231,164.327186 C310.474196,163.2233 309.628775,161.741981 309.034149,159.895407 C308.880436,159.481449 308.953248,159.14866 309.268763,158.815871 C309.60046,158.466848 309.928111,158.361329 310.336663,158.462789 C313.342154,159.164893 316.432591,158.454672 319.547298,156.344301 C322.390986,154.359741 324.551055,151.733952 325.958741,148.535928 C327.394743,145.272969 327.443284,142.326566 326.092229,139.74542 C324.753309,137.460537 322.645825,136.458111 319.818318,136.786842 C318.196243,136.961353 316.452816,137.622874 314.648713,138.751111 C314.228025,138.970265 313.880149,138.949972 313.512047,138.645592 C313.143945,138.341212 313.046863,138.032773 313.184396,137.614757 L317.638023,124.372178 C317.884772,123.763417 317.868592,123.179006 317.589482,122.631121 C317.314417,122.103529 316.881594,121.726097 316.295058,121.519118 C315.704477,121.312139 315.121986,121.340548 314.543541,121.608403 C313.973185,121.884375 313.596993,122.334858 313.423055,122.923327 L304.058707,150.755876 L303.844318,150.885745 C303.318459,151.206359 302.970582,151.669017 302.808779,152.277778 C302.153477,154.99691 300.996586,157.890554 299.366421,160.865366 C297.432875,164.388062 296.029234,165.077991 295.288985,165.041466 C295.151453,165.033349 294.969425,165.008998 294.888523,164.887246 C294.706495,164.643742 294.601323,164.225726 294.585142,163.645374 C294.564917,162.987912 294.649864,162.10318 294.835937,161.003351 C295.02201,159.879173 295.216174,158.848338 295.422473,157.906788 C295.620682,156.981471 295.976648,155.686839 296.478237,154.05536 C296.983872,152.403589 297.376244,151.096782 297.663444,150.126823 C297.950645,149.152806 298.375377,147.785123 298.937643,146.007541 C300.005542,142.59848 300.794332,140.033567 301.299966,138.316861 C301.692339,137.135865 301.328282,136.198373 300.292743,135.691072 C299.649576,135.321757 298.965958,135.273057 298.310656,135.54497 C297.651309,135.816883 297.214441,136.316067 297.048593,136.977587 C296.538913,138.70241 295.750124,141.263264 294.686269,144.656092 C293.670956,147.760772 292.987338,149.952312 292.647552,151.242885 L292.522154,151.490447 C290.442986,158.02854 287.781327,162.159997 284.605943,163.78336 C283.477367,164.347478 282.510595,164.46923 281.640904,164.148616 C280.407156,163.726542 279.727583,162.326392 279.630501,159.98875 C279.521284,157.480655 279.954107,154.846749 280.91279,152.143851 C281.721805,149.725041 282.797795,146.368739 284.108399,142.16423 C284.921459,139.554675 285.402823,137.959721 285.52822,137.456479 C285.912502,136.291716 285.556536,135.329874 284.549312,134.761697 C283.950641,134.380207 283.283204,134.327448 282.623857,134.60342 C281.9726,134.871274 281.523596,135.346108 281.280892,136.031978 C281.030097,136.872069 280.528508,138.458905 279.776124,140.816839 C278.692044,144.359828 277.789992,147.265647 277.037609,149.615464 L276.434892,149.95637 C275.925213,150.244517 275.557111,150.686883 275.334632,151.307819 C274.473031,154.246105 273.05321,157.302085 271.119664,160.382415 C268.729025,164.1892 267.398196,164.513873 266.84402,164.408354 C266.726713,164.371829 266.690308,164.331244 266.694353,164.347478 C266.625586,164.201375 266.585136,163.982222 266.568955,163.694075 C266.552775,163.389694 266.589181,162.975737 266.678172,162.456261 C266.771209,161.908376 266.876381,161.397017 266.997733,160.901891 C267.11504,160.406766 267.272798,159.777713 267.483142,159.018791 C267.685396,158.263927 267.859334,157.6714 268.000912,157.229034 C268.146535,156.786667 268.360923,156.173848 268.652169,155.374342 C269.113307,153.945783 269.461184,152.837838 269.703888,152.042391 C269.934458,151.251001 270.233793,150.122765 270.593805,148.661738 C270.953816,147.196654 271.180341,145.98319 271.261242,145.057874 C271.342143,144.128499 271.358324,143.048963 271.309783,141.847674 C271.265287,140.593627 271.034718,139.526266 270.63021,138.682118 C270.225703,137.846086 269.622987,137.042522 268.838242,136.295775 C268.025182,135.528736 267.026049,134.952442 265.873203,134.587186 C263.810214,133.917549 261.6461,134.128586 259.425354,135.248706 C258.13902,135.934577 256.913362,136.932945 255.821192,138.178875 C255.554217,138.434555 255.254882,138.531957 254.91105,138.483256 C254.579354,138.442672 254.34474,138.26816 254.182937,137.955663 C253.325381,135.987336 251.917695,134.708938 250.004375,134.14482 C247.892846,133.463007 245.69637,133.706512 243.475624,134.88345 C243.127748,135.070136 242.763691,135.293349 242.359184,135.577437 C242.233786,134.457317 241.505673,133.994659 240.898912,133.81203 C240.300241,133.588818 239.70157,133.625344 239.139304,133.921607 C238.593219,134.209754 238.208937,134.656179 237.986458,135.277115 L234.309485,147.8947 C234.184088,147.9434 234.04251,148.016452 233.904978,148.109795 C233.431704,148.446643 233.120233,148.921476 232.978656,149.518062 C232.331444,152.277778 231.174552,155.199831 229.540342,158.20711 C227.598706,161.766332 226.239561,162.517137 225.438636,162.517137 L225.426501,162.517137 C225.252563,162.517137 225.123121,162.480611 225.131211,162.500903 C225.021994,162.33045 224.876371,161.965194 224.82783,161.190038 C224.787379,160.512284 224.860191,159.615377 225.042219,158.523665 C225.240428,157.395428 225.442681,156.328068 225.661115,155.333758 C225.879549,154.331332 226.235516,153.004233 226.720925,151.393046 C227.210379,149.749391 227.590616,148.450701 227.865681,147.492917 C228.140746,146.54325 228.545254,145.199918 229.087294,143.454803 C230.163284,140.098501 230.960163,137.497063 231.449617,135.760065 C231.655916,135.155363 231.627601,134.570952 231.360626,134.027126 C231.093651,133.475183 230.652738,133.085576 230.041931,132.882655 C229.431125,132.66756 228.840544,132.712202 228.286369,133.0247 C227.748374,133.316905 227.372182,133.771446 227.149703,134.432966 C227.101162,134.676471 227.048576,134.867216 226.99599,135.025494 C226.951494,135.18783 226.874638,135.293349 226.631933,135.342049 C226.413499,135.386692 226.271922,135.329874 226.130344,135.16348 C225.175707,133.954075 224.026905,133.162685 222.708211,132.805546 C219.888794,132.034448 216.95207,133.162685 213.982985,136.12938 C211.386047,138.714585 209.266428,142.667473 207.676714,147.878466 C207.470415,147.967751 207.239846,148.101678 207.037592,148.304599 C206.746346,148.608979 206.531957,148.953944 206.39038,149.412544 C205.937331,152.013982 205.055505,154.737172 203.769171,157.509064 C201.867986,161.681105 200.484571,162.565838 199.655331,162.569896 C199.182057,162.569896 198.862496,162.48467 198.733054,162.326392 C198.55507,162.111296 198.429673,161.762273 198.360907,161.295557 C198.28405,160.780139 198.296185,160.118619 198.393267,159.323171 C198.490349,158.483081 198.603611,157.69575 198.733054,156.961179 C198.854406,156.234724 199.076885,155.272882 199.384311,154.091886 C199.695781,152.898714 199.938486,151.969339 200.120514,151.307819 C200.302542,150.638182 200.553337,149.660106 200.856718,148.397942 C201.382577,146.539192 201.758769,145.151217 201.993384,144.242134 C202.284629,143.113897 201.859896,142.200756 200.852673,141.697513 C200.630194,141.555469 200.330858,141.454009 199.889945,141.385016 C197.001762,141.242972 194.663708,140.735671 192.912191,139.867172 C192.552179,139.712953 192.301385,139.461332 192.135537,139.096075 C191.969689,138.730819 191.925193,138.353387 191.998004,137.943488 L192.078906,137.748684 C192.908146,134.217871 193.167031,133.219503 193.243887,132.975999 C193.862784,130.561247 193.563448,128.763373 192.358016,127.627019 C191.532821,126.872156 190.570093,126.648943 189.473878,126.965499 C188.296761,127.355106 187.390664,128.357532 186.686821,129.871318 C187.087284,125.910314 185.987023,122.217164 183.220192,118.897388 C179.324785,114.157169 173.62123,111.86417 166.154022,112.006214 C160.62036,112.132025 155.762226,113.80003 151.713106,116.977762 C147.668031,120.151435 144.808163,124.534514 143.214404,130.001187 C141.915935,134.234105 141.65705,138.34527 142.44584,142.216989 C143.238674,146.13741 144.89311,148.994528 147.352515,150.703117 C147.906691,151.096782 148.525587,151.230709 149.193024,151.072432 C149.872597,150.926329 150.374186,150.508313 150.624981,149.919844 C150.883865,149.432836 150.956677,148.909301 150.843415,148.373592 C150.726108,147.81759 150.418682,147.371165 149.937318,147.046493 C148.286928,145.897964 147.214983,143.807885 146.745754,140.84119 C146.26439,137.80956 146.507095,134.579069 147.457687,131.26741 C147.744888,130.382677 148.104899,129.441127 148.525587,128.463051 C148.93414,127.509326 149.666298,126.263395 150.697792,124.749609 C151.713106,123.260174 152.882132,121.941192 154.168466,120.825131 C155.442665,119.725303 157.161821,118.735052 159.28144,117.882786 C161.397014,117.034579 163.743158,116.580038 166.259194,116.52322 C166.477628,116.519162 166.692017,116.515103 166.906406,116.515103 C172.585691,116.515103 176.917966,118.276452 179.794014,121.754506 C182.047121,124.469579 182.807595,127.334814 182.115887,130.512546 C179.939637,141.117161 172.848621,146.405265 160.567774,146.600068 C161.186671,146.360622 161.692305,145.938548 161.914784,145.167451 C163.706752,138.073357 165.130618,131.1903 166.149977,124.676558 C166.202563,124.079972 166.052895,123.528029 165.709064,123.032904 C165.357143,122.525603 164.847463,122.213106 164.248792,122.131937 C163.629896,122.058886 163.063585,122.196872 162.566041,122.578362 C162.080632,122.951735 161.769161,123.414394 161.639719,124.002863 C160.782163,130.013362 159.390657,136.778725 157.497563,144.128499 C157.372165,144.688559 157.469247,145.236444 157.784763,145.768095 C157.987017,146.109001 158.270172,146.352505 158.589733,146.551367 C157.707906,146.531075 156.878666,146.559484 155.944254,146.486433 C155.248501,146.425557 154.678146,146.648769 154.221052,147.099252 C153.751823,147.553794 153.525299,148.126029 153.54148,148.803783 C153.553615,149.359784 153.772049,149.858968 154.184646,150.289159 C154.593199,150.711233 155.106923,150.958796 155.798631,151.023731 C155.843127,151.104899 155.851217,151.169833 155.843127,151.222593 C154.961301,154.144645 154.09161,156.697383 153.250234,158.807754 C152.408859,160.926242 151.68479,162.496845 151.094209,163.483038 C150.499583,164.473289 149.929228,165.244386 149.399323,165.776037 C148.683345,166.490317 148.412325,166.616127 148.355694,166.636419 C148.141305,166.701354 147.943096,166.737879 147.894555,166.754113 C147.267569,166.636419 146.685078,166.778463 146.211804,167.172129 C145.73044,167.561736 145.483691,168.105562 145.495826,168.738674 C145.507961,169.2825 145.677854,169.749217 145.997415,170.12259 C146.325066,170.508139 146.745754,170.735409 147.227118,170.792227 C147.498138,170.840928 147.765113,170.86122 148.036133,170.86122 L148.112989,170.86122 C150.349916,170.808461 152.433129,169.250033 154.305999,166.230579 C156.110102,163.312585 157.950611,158.657593 159.766849,152.407647 C159.843706,152.151968 160.021689,151.855704 160.288664,151.526973 C160.503053,151.267235 160.733622,151.141425 161.008687,151.133308 L161.012732,151.133308 L162.477049,151.031848 L162.392103,150.950679 C165.264106,150.800518 167.950035,150.402795 170.320449,149.664165 C173.042784,148.820016 175.336342,147.756714 177.1364,146.498608 C178.948593,145.232385 180.542353,143.714541 181.877227,141.98566 C183.208057,140.252721 184.235506,138.511665 184.923169,136.815251 C185.133513,136.30795 185.234639,135.719481 185.416668,135.18783 C185.368127,136.770608 185.647237,138.211343 186.298494,139.469448 C186.6221,140.163436 186.694911,140.861482 186.516928,141.591995 C185.53802,145.394721 184.882718,148.000218 184.575292,149.3192 C184.251686,150.504255 184.656194,151.449863 185.720048,151.973398 C186.383441,152.310246 187.063013,152.318362 187.677865,152.005865 C188.284626,151.701485 188.689133,151.210417 188.887342,150.524547 C189.146227,149.566763 189.58714,147.809473 190.218171,145.224268 C190.290983,144.854953 190.489191,144.599274 190.849203,144.428821 C191.22944,144.242134 191.589452,144.238076 191.981824,144.388237 C193.017363,144.822486 194.206615,145.151217 195.448453,145.350079 C195.865096,145.471831 196.172521,145.711277 196.399045,146.076534 C196.617479,146.429615 196.66602,146.790813 196.548713,147.192595 C195.869141,149.696632 195.375642,151.567557 195.068216,152.821605 C194.756745,154.059419 194.441229,155.601613 194.125713,157.399487 C193.806153,159.262295 193.749522,160.755789 193.951775,161.957077 C194.154029,163.17054 194.578762,164.221668 195.209794,165.073933 C196.204882,166.409148 197.669199,167.086902 199.63915,167.086902 L199.675556,167.086902 C202.207773,167.070669 204.513465,165.329612 206.540048,161.900259 C206.95669,163.357227 207.563451,164.485464 208.384602,165.317437 C209.573854,166.474083 211.02199,167.070669 212.688561,167.086902 L212.733057,167.086902 C213.335773,167.086902 213.974895,167.009793 214.650422,166.851515 C216.41812,166.364506 218.181772,165.293087 219.900929,163.657549 C220.046552,163.511446 220.2124,163.474921 220.434879,163.515505 C220.669493,163.568264 220.811071,163.6819 220.891972,163.880761 C221.065911,164.355595 221.268164,164.769552 221.506824,165.126692 C222.433146,166.372623 223.73566,167.021968 225.38605,167.038201 L225.434591,167.038201 C226.753286,167.038201 228.04771,166.551193 229.289547,165.601526 C229.305728,165.881556 229.370449,166.153469 229.483711,166.413207 C229.71428,166.9408 230.106653,167.318231 230.592061,167.513035 C230.863081,167.663196 231.150282,167.740306 231.449617,167.752481 L231.542654,167.752481 C232.622689,167.752481 233.371028,167.159954 233.654183,166.080418 L237.958142,151.311878 C239.895733,144.733201 242.472446,140.540868 245.611424,138.848512 C246.731909,138.260043 247.722953,138.122058 248.641185,138.42238 C249.523011,138.714585 250.105502,139.469448 250.421017,140.711321 C250.760804,142.06277 250.833615,143.568439 250.639451,145.19586 C250.433153,146.859806 250.065051,148.641446 249.551326,150.496138 L245.239277,165.215977 C245.093654,165.796329 245.13006,166.352331 245.348494,166.859632 C245.579063,167.383166 245.96739,167.764656 246.464934,167.963518 C246.739999,168.109621 247.0272,168.190789 247.318445,168.202964 C248.41466,168.223256 249.22772,167.638845 249.523011,166.530901 L253.82697,151.762361 C255.817147,145.130925 258.39386,140.94265 261.480251,139.303054 C262.576467,138.714585 263.56751,138.568482 264.437201,138.872863 C265.225991,139.128542 265.800391,139.538441 266.196809,140.12691 C266.609406,140.735671 266.84402,141.405308 266.920877,142.180464 C266.997733,142.992145 266.928967,144.067623 266.710533,145.386605 C266.488054,146.754287 266.200854,148.057036 265.861067,149.254266 C265.509146,150.483963 265.011602,152.087033 264.38866,154.002601 C263.789989,155.739599 263.389527,157.005821 263.154912,157.862145 C262.916253,158.742819 262.661413,159.78583 262.386348,161.011468 C262.107238,162.273633 262.006111,163.340993 262.095103,164.197317 C262.18814,165.061758 262.426799,165.853147 262.815126,166.559309 C263.429977,167.651021 264.39675,168.373417 265.666904,168.702148 C266.079501,168.832017 266.471874,168.90101 266.831885,168.909127 C266.880426,168.909127 266.928967,168.913185 266.981553,168.913185 C268.373059,168.913185 269.78479,168.336891 271.180341,167.196479 C272.571846,166.064184 273.753008,164.728968 274.691465,163.227358 C274.909899,162.882393 275.112153,162.50902 275.314407,162.135647 C275.322497,162.184348 275.330587,162.237107 275.342722,162.293925 C275.941393,165.479773 277.575604,167.537385 280.164451,168.389651 C280.783348,168.653447 281.450785,168.803608 282.146538,168.836075 C283.695801,168.909127 285.180344,168.560104 286.672976,167.789007 C287.413225,167.379107 288.157519,166.892099 288.881587,166.336097 C289.193058,166.084476 289.524754,165.999249 289.929262,166.10071 C290.349949,166.206228 290.66142,166.441616 290.855584,166.750055 C290.95671,167.001676 291.098288,167.24518 291.264136,167.488684 C292.093376,168.726498 293.37162,169.396135 295.066506,169.477303 C296.134406,169.530063 297.250847,169.250033 298.286386,168.637213 C298.468414,168.527636 298.630217,168.397767 298.78393,168.267898 C298.80011,168.300366 298.816291,168.332833 298.832471,168.3653 C299.127761,168.876659 299.532269,169.245974 300.037903,169.477303 L300.68916,169.554413 C301.809646,169.578764 302.614616,169.087696 302.946312,168.048745 L304.333772,163.929462 C304.455125,163.596673 304.665468,163.442454 305.02548,163.414045 C305.365266,163.389694 305.628196,163.511446 305.802134,163.819885 C307.889393,167.991927 310.882748,170.240284 314.705344,170.500022 C318.511759,170.75976 322.382895,169.469187 326.221671,166.689178 C327.123723,166.027658 327.985324,165.272795 328.86715,164.34342 C328.976367,166.656711 329.619534,168.531695 330.800696,169.939962 C331.900956,171.185892 333.296507,171.896114 334.954987,172.042216 C335.590064,172.086859 336.245366,172.062508 336.933029,171.952931 C338.733087,171.607967 340.573596,170.678592 342.414105,169.18104 C342.519277,169.07958 342.668945,169.00247 342.96019,169.087696 C343.182669,169.152631 343.316157,169.2825 343.384923,169.48542 C343.51841,169.964312 343.688304,170.390445 343.902693,170.771935 C344.731933,172.099034 345.985906,172.837664 347.620116,172.979708 C347.773829,172.991883 347.927542,173 348.0853,173 C349.420174,173 350.767184,172.504874 352.102059,171.52274 C353.534015,170.463496 354.751583,169.197273 355.726446,167.740306 C356.689174,166.30363 357.615496,164.708676 358.469006,163.008204 C359.326562,161.315849 359.929278,160.021217 360.256929,159.156777 C360.57649,158.304511 360.774699,157.732276 360.835375,157.460363 C361.098305,156.802901 361.045719,156.145439 360.681662,155.552912 Z" id="Fill-23" fill="#522E32" mask="url(#mask-2)"></path>
                <path d="M173.535424,52.5618111 C174.91718,53.2529407 176.383189,53.7123622 177.941877,53.8921358 C178.316805,53.9400755 178.695946,53.9640453 179.070873,54 L179.711199,54 C180.02715,53.9680402 180.3431,53.9440704 180.654837,53.9041207 C182.782236,53.6444477 184.635811,52.7975142 186.282966,51.527114 C187.508853,50.5882962 188.540957,49.4776948 189.455107,48.2672191 C189.488808,48.2192794 189.522509,48.1753348 189.560423,48.1313901 C189.568849,48.1234002 189.581487,48.1154102 189.598337,48.1034253 C190.251301,48.3231486 190.626229,48.7865651 190.807374,49.4057853 C190.870564,49.6095287 190.933754,49.8172671 190.988519,50.0210106 C191.266555,51.0956573 191.95322,51.8746763 192.955836,52.3860324 C193.604587,52.7176149 194.295465,52.965303 194.973705,53.2409558 C195.024257,53.2609307 195.09166,53.2689206 195.146425,53.2609307 C195.369696,53.2289709 195.597181,53.2050011 195.812027,53.1450766 C196.456565,52.957313 196.903109,52.5857809 197,51.918621 L197,51.8786713 C196.978937,51.7947769 196.962086,51.7068876 196.941023,51.6229933 C196.882045,51.3513354 196.759878,51.1715617 196.44814,51.0716875 C195.702497,50.8200044 194.986343,50.5044019 194.324954,50.0849301 C193.638289,49.6534734 193.212809,49.0861878 193.191746,48.279204 C193.18332,48.015536 193.149619,47.751868 193.107492,47.4842051 C192.976899,46.7411408 192.542994,46.1498853 191.991134,45.6305393 C191.679397,45.3389066 191.346596,45.0712436 191.009582,44.7915958 C191.064347,44.7436561 191.110686,44.6997115 191.157026,44.6557668 C191.607781,44.2283051 192.075388,43.8168233 192.496655,43.3613968 C193.676203,42.0989865 194.126959,40.6288378 193.853135,38.9589406 C193.659352,37.7724347 193.29285,36.6378634 192.778904,35.5392469 C191.696248,33.2301546 191.32132,30.833173 191.843691,28.3363172 C192.113302,27.0259673 192.44189,25.7355922 192.749415,24.4372272 C193.069578,23.0749427 193.41923,21.7206481 193.541397,20.3264038 C193.726755,18.1651254 193.35604,16.0877414 192.328148,14.1541762 C191.603569,12.7878967 190.798949,11.453577 189.981691,10.1352371 C188.166029,7.19493971 186.906441,4.06687875 186.438834,0.679144781 C186.405133,0.463416439 186.375644,0.251683066 186.33773,0 C186.287178,0.0599245395 186.266115,0.0878893246 186.253477,0.11185914 C185.558386,1.09462159 185.048653,2.16127839 184.703214,3.29584967 C184.336712,4.51032034 184.180843,5.75275579 184.121865,7.01516609 C184.033399,8.77694755 184.23982,10.5027743 184.888572,12.1686765 C185.326689,13.2912629 185.802721,14.4018643 186.240839,15.5244507 C186.76321,16.8667604 186.944355,18.2410298 186.539939,19.647259 C186.518875,19.7151735 186.485174,19.7950729 186.434622,19.8390175 C186.122884,20.0827107 185.773232,20.0507509 185.520472,19.7591181 C185.432006,19.6632389 185.351965,19.5553747 185.301413,19.4435156 C185.120268,19.004069 184.939124,18.5606274 184.787467,18.1131908 C184.3662,16.8547755 183.995485,15.5723903 183.536304,14.3259599 C183.064485,13.0355848 182.369394,11.8530739 181.396268,10.8263668 C181.286738,10.7065177 181.168783,10.5946586 181.050829,10.4867944 C180.941299,10.3789302 180.819132,10.279056 180.70539,10.1791818 C181.168783,11.7731745 181.223548,13.3831471 181.114019,15.0051047 C181.02134,16.3833691 180.89496,17.7576385 180.806494,19.1398979 C180.726453,20.4063032 180.751729,21.6767034 180.991851,22.9311238 C181.40048,25.116372 182.56739,26.9181031 184.180843,28.4721462 C184.871721,29.1353111 185.655278,29.7065917 186.363006,30.3537767 C188.043862,31.8958349 189.139156,33.7534956 189.627826,35.9307539 C189.973265,37.476807 190.019605,39.03085 189.884799,40.600873 C189.880586,40.6408227 189.863736,40.6767774 189.846885,40.7526818 C189.808971,40.6767774 189.787908,40.6408227 189.771057,40.600873 C188.945374,38.8311016 187.727912,37.344973 186.089183,36.2024118 C182.613729,33.7734704 178.822326,33.2301546 174.761311,34.6363838 C172.659188,35.3594733 170.902505,36.5979137 169.348029,38.1080121 C167.566069,39.8338389 166.184313,41.8353185 165.025829,43.984612 C164.992128,44.0445365 164.992128,44.1563956 165.021616,44.2243101 C165.173272,44.5319228 165.324929,44.8395354 165.501861,45.1391581 C167.427051,48.3431235 170.081034,50.8439743 173.535424,52.5618111" id="Fill-24" fill="#522E32" mask="url(#mask-2)"></path>
                <path d="M348.49356,193.5 L254.50644,193.5 C254.226885,193.5 254,193.724 254,194 C254,194.276 254.226885,194.5 254.50644,194.5 L348.49356,194.5 C348.773115,194.5 349,194.276 349,194 C349,193.724 348.773115,193.5 348.49356,193.5" id="Fill-25" fill="#522E32" mask="url(#mask-2)"></path>
                <path d="M99.4935602,193.5 L5.50643978,193.5 C5.22688502,193.5 5,193.724 5,194 C5,194.276 5.22688502,194.5 5.50643978,194.5 L99.4935602,194.5 C99.773115,194.5 100,194.276 100,194 C100,193.724 99.773115,193.5 99.4935602,193.5" id="Fill-26" fill="#522E32" mask="url(#mask-2)"></path>
            </g>
        </g>
    </g>
</svg>