<?xml version="1.0" encoding="UTF-8"?>
<svg width="32px" height="32px" viewBox="0 0 32 32" version="1.1" xmlns="http://www.w3.org/2000/svg" xmlns:xlink="http://www.w3.org/1999/xlink">
    <!-- Generator: sketchtool 52.6 (67491) - http://www.bohemiancoding.com/sketch -->
    <title>3D0AC643-1594-4860-BC7A-93423A2BD9ED</title>
    <desc>Created with sketchtool.</desc>
    <g id="Page-1" stroke="none" stroke-width="1" fill="none" fill-rule="evenodd">
        <g id="hari-satu-juta-pohon" transform="translate(-473.000000, -2557.000000)" fill="#FFFFFF" fill-rule="nonzero" stroke="#FFFFFF">
            <g id="Stacked-Group-4" transform="translate(0.000000, 805.000000)">
                <g id="Stacked-Group-12" transform="translate(180.000000, 1513.000000)">
                    <g id="Group-13" transform="translate(0.000000, 49.000000)">
                        <g id="play" transform="translate(294.000000, 191.000000)">
                            <path d="M22.7815,14.587 C22.918,14.68 23,14.8345 23,15 C23,15.1655 22.918,15.32 22.7815,15.413 L11.7815,22.913 C11.697,22.9705 11.5985,23 11.5,23 C11.42,23 11.3395,22.981 11.2665,22.942 C11.1025,22.8555 11,22.6855 11,22.5 L11,7.5 C11,7.3145 11.1025,7.1445 11.266,7.058 C11.43,6.9715 11.628,6.983 11.7815,7.087 L22.7815,14.587 Z M12,21.5535 L21.6125,15 L12,8.4465 L12,21.5535 Z M15,0 C23.271,0 30,6.729 30,15 C30,23.271 23.271,30 15,30 C6.729,30 0,23.271 0,15 C0,6.729 6.729,0 15,0 Z M15,29 C22.7195,29 29,22.7195 29,15 C29,7.2805 22.7195,1 15,1 C7.2805,1 1,7.2805 1,15 C1,22.7195 7.2805,29 15,29 Z" id="Combined-Shape"></path>
                        </g>
                    </g>
                </g>
            </g>
        </g>
    </g>
</svg>