<?xml version="1.0" encoding="UTF-8"?>
<svg width="24px" height="14px" viewBox="0 0 24 14" version="1.1" xmlns="http://www.w3.org/2000/svg" xmlns:xlink="http://www.w3.org/1999/xlink">
    <!-- Generator: sketchtool 52.6 (67491) - http://www.bohemiancoding.com/sketch -->
    <title>3C215D6E-0B21-4591-83F4-79F3295FE9A1</title>
    <desc>Created with sketchtool.</desc>
    <g id="Page-1" stroke="none" stroke-width="1" fill="none" fill-rule="evenodd">
        <g id="Desktop-HD" transform="translate(-708.000000, -728.000000)" fill="#ffffff">
            <g id="arrow-big" transform="translate(720.000000, 735.000000) rotate(90.000000) translate(-720.000000, -735.000000) translate(713.000000, 723.000000)">
                <path d="M13.0682233,11.1081141 L3.34723579,0.936582397 C3.12240121,0.701137157 2.82226659,0.571428571 2.50224139,0.571428571 C2.18221618,0.571428571 1.88208156,0.701137157 1.65724698,0.936582397 L0.941363749,1.68547294 C0.475533501,2.17345968 0.475533501,2.96657751 0.941363749,3.45382093 L9.10431514,11.9952614 L0.932306432,20.5461791 C0.707471855,20.7816243 0.583333333,21.0954894 0.583333333,21.4301672 C0.583333333,21.7652168 0.707471855,22.0790818 0.932306432,22.3147129 L1.64818967,23.0634176 C1.87320184,23.2988628 2.17315887,23.4285714 2.49318407,23.4285714 C2.81320927,23.4285714 3.1133439,23.2988628 3.33817847,23.0634176 L13.0682233,12.8825945 C13.2935907,12.6464059 13.417374,12.3310542 13.4166636,11.9958188 C13.417374,11.6592827 13.2935907,11.3441168 13.0682233,11.1081141 Z" id="Path"></path>
            </g>
        </g>
    </g>
</svg>