<?xml version="1.0" encoding="UTF-8"?>
<svg width="10px" height="6px" viewBox="0 0 10 6" version="1.1" xmlns="http://www.w3.org/2000/svg" xmlns:xlink="http://www.w3.org/1999/xlink">
    <!-- Generator: sketchtool 52.6 (67491) - http://www.bohemiancoding.com/sketch -->
    <title>8BBA52B2-D629-48BA-9B1D-F0ABAD558EB7</title>
    <desc>Created with sketchtool.</desc>
    <g id="Page-1" stroke="none" stroke-width="1" fill="none" fill-rule="evenodd">
        <g id="hari-satu-juta-pohon" transform="translate(-594.000000, -138.000000)" fill="#522E32">
            <g id="Stacked-Group" transform="translate(474.000000, 132.000000)">
                <g id="arrow-small">
                    <g transform="translate(125.000000, 9.000000) rotate(90.000000) translate(-125.000000, -9.000000) translate(122.000000, 4.000000)">
                        <path d="M5.48500771,4.60048682 L1.22151724,0.159432049 C1.12290791,0.05663286 0.991273022,0 0.850914402,0 C0.710555781,0 0.578920892,0.05663286 0.480311562,0.159432049 L0.166335091,0.486409736 C-0.0379716024,0.699472617 -0.0379716024,1.04576065 0.166335091,1.25849899 L3.74649249,4.98782961 L0.162362677,8.72129817 C0.0637533469,8.82409736 0.00930791075,8.9611359 0.00930791075,9.10726166 C0.00930791075,9.2535497 0.0637533469,9.39058824 0.162362677,9.49346856 L0.476339148,9.82036511 C0.575026369,9.9231643 0.706583367,9.97979716 0.846941988,9.97979716 C0.987300609,9.97979716 1.1189355,9.9231643 1.21754483,9.82036511 L5.48500771,5.37525355 C5.58385071,5.27212982 5.63814037,5.13444219 5.6378288,4.98807302 C5.63814037,4.8411359 5.58385071,4.70352941 5.48500771,4.60048682 Z" id="Path"></path>
                    </g>
                </g>
            </g>
        </g>
    </g>
</svg>