<?xml version="1.0" encoding="UTF-8"?>
<svg width="32px" height="25px" viewBox="0 0 32 25" version="1.1" xmlns="http://www.w3.org/2000/svg" xmlns:xlink="http://www.w3.org/1999/xlink">
    <!-- Generator: sketchtool 52.6 (67491) - http://www.bohemiancoding.com/sketch -->
    <title>C28EE14E-5072-4F78-9F09-52A47F5C39FC</title>
    <desc>Created with sketchtool.</desc>
    <g id="Page-1" stroke="none" stroke-width="1" fill="none" fill-rule="evenodd">
        <g id="hari-satu-juta-pohon" transform="translate(-681.000000, -3306.000000)" fill="#2C3E50" stroke="#2C3E50" stroke-width="0.5">
            <g id="Stacked-Group-4" transform="translate(0.000000, 805.000000)">
                <g id="Group-21" transform="translate(179.000000, 2456.000000)">
                    <g id="Stacked-Group-8-Copy-2" transform="translate(503.000000, 46.000000)">
                        <g id="mail">
                            <path d="M26.2995868,0.0464876033 L3.66322314,0.0464876033 C1.64256198,0.0464876033 0,1.68904959 0,3.70971074 L0,19.1807851 C0,21.2014463 1.64256198,22.8440083 3.66322314,22.8440083 L26.2933884,22.8440083 C28.3140496,22.8440083 29.9566116,21.2014463 29.9566116,19.1807851 L29.9566116,3.71590909 C29.9628099,1.69524793 28.3202479,0.0464876033 26.2995868,0.0464876033 Z M28.2892562,19.1807851 C28.2892562,20.2778926 27.3966942,21.1704545 26.2995868,21.1704545 L3.66322314,21.1704545 C2.5661157,21.1704545 1.67355372,20.2778926 1.67355372,19.1807851 L1.67355372,3.71590909 C1.67355372,2.61880165 2.5661157,1.72623967 3.66322314,1.72623967 L26.2933884,1.72623967 C27.3904959,1.72623967 28.2830579,2.61880165 28.2830579,3.71590909 L28.2830579,19.1807851 L28.2892562,19.1807851 Z" id="Shape" fill-rule="nonzero"></path>
                            <path d="M18.892562,11.2530992 L26.2190083,4.68285124 C26.5599174,4.37293388 26.5909091,3.84607438 26.2809917,3.49896694 C25.9710744,3.15805785 25.4442149,3.12706612 25.0971074,3.43698347 L14.9938017,12.5051653 L13.0227273,10.7448347 C13.0165289,10.7386364 13.0103306,10.732438 13.0103306,10.7262397 C12.9669421,10.6828512 12.9235537,10.6456612 12.8739669,10.6084711 L4.85330579,3.43078512 C4.50619835,3.12086777 3.97933884,3.1518595 3.66942149,3.49896694 C3.35950413,3.84607438 3.39049587,4.37293388 3.73760331,4.68285124 L11.1508264,11.3088843 L3.76859504,18.2200413 C3.4338843,18.536157 3.41528926,19.0630165 3.73140496,19.4039256 C3.89876033,19.5774793 4.12190083,19.6704545 4.34504132,19.6704545 C4.54958678,19.6704545 4.75413223,19.5960744 4.91528926,19.447314 L12.4090909,12.4369835 L14.4421488,14.2530992 C14.6033058,14.3956612 14.8016529,14.463843 15,14.463843 C15.1983471,14.463843 15.4028926,14.3894628 15.5578512,14.2469008 L17.6466942,12.375 L25.0971074,19.4535124 C25.2582645,19.6084711 25.4690083,19.6828512 25.6735537,19.6828512 C25.8966942,19.6828512 26.1136364,19.5960744 26.2809917,19.4225207 C26.5971074,19.0878099 26.5847107,18.5547521 26.25,18.2386364 L18.892562,11.2530992 Z" id="Path"></path>
                        </g>
                    </g>
                </g>
            </g>
        </g>
    </g>
</svg>