<?xml version="1.0" encoding="UTF-8"?>
<svg width="583px" height="119px" viewBox="0 0 583 119" version="1.1" xmlns="http://www.w3.org/2000/svg" xmlns:xlink="http://www.w3.org/1999/xlink">
    <!-- Generator: sketchtool 52.6 (67491) - http://www.bohemiancoding.com/sketch -->
    <title>105AB33D-B877-4008-A475-D5FBD30D8A4A</title>
    <desc>Created with sketchtool.</desc>
    <defs>
        <polygon id="path-1" points="0.291376364 0.757675649 534.381243 0.757675649 534.381243 68.1481481 0.291376364 68.1481481"></polygon>
    </defs>
    <g id="Page-1" stroke="none" stroke-width="1" fill="none" fill-rule="evenodd">
        <g id="hari-tani-pramuka" transform="translate(-429.000000, -483.000000)">
            <g id="Group-22" transform="translate(429.000000, 483.000000)">
                <path d="M15.3406819,28.2096774 L14.936378,28.2096774 C14.5320742,28.0780286 14.2305594,27.8349845 14.0284075,27.4805452 C13.8262556,27.1294816 13.7714347,26.7750424 13.8605186,26.4206031 C15.6079336,20.3276236 16.9099291,14.7646152 17.7596524,9.72820228 C17.8487363,9.37713864 18.0611672,9.07670918 18.4003713,8.83704074 C18.736149,8.59062107 19.1061899,8.50285516 19.5070674,8.5703674 C19.9113713,8.63450403 20.2231649,8.83704074 20.449301,9.16447509 C20.6720107,9.49866067 20.7645209,9.85985114 20.7165527,10.261549 C19.7332035,15.6456499 18.4106502,21.2761706 16.7523191,27.1497353 C16.526183,27.8586138 16.0567794,28.2096774 15.3406819,28.2096774 Z M34.342807,5.90857555 C36.8387298,9.00837807 37.6638846,12.392442 36.8182714,16.0675353 C36.4602497,17.6174366 35.9794777,19.0793522 35.3793651,20.4498981 C34.7758427,21.8204439 33.9063614,23.2045261 32.7709211,24.5987604 C31.6320711,25.9963788 30.3056859,27.1875693 28.7883557,28.1858681 C27.2710256,29.1807829 25.3786251,29.9997264 23.1043348,30.6426985 C20.8266347,31.2856706 18.3068438,31.6071567 15.5415522,31.6071567 L15.6097468,31.6714539 L15.3403781,31.6714539 C14.9823564,31.6714539 14.6720709,31.8271209 14.4061119,32.1350707 C14.1367432,32.4464045 13.9560275,32.73405 13.8707842,33.001391 C12.2204746,38.1790088 10.6144915,41.95224 9.05283483,44.3210847 C7.4911782,46.6899294 5.84086858,47.8709677 4.10190595,47.8709677 C3.87686373,47.8709677 3.65523124,47.8506634 3.43359875,47.8066705 C3.11990353,47.7626777 2.86417373,47.617163 2.66299963,47.3768944 C2.46182552,47.1332418 2.36294333,46.8320601 2.36294333,46.4767334 C2.36294333,46.0807979 2.51979094,45.7559278 2.83007643,45.5156593 C3.14377165,45.2720067 3.49838363,45.1941732 3.90073185,45.2855429 C4.07803784,45.2855429 4.27921195,45.2517023 4.50425417,45.180637 C4.72588666,45.1163397 5.08049865,44.8523828 5.57149986,44.3853819 C6.0659108,43.9217652 6.57737039,43.2686409 7.1126981,42.429393 C7.64802581,41.5867611 8.2924649,40.2805124 9.05283483,38.510647 C9.80979504,36.7407816 10.5906234,34.6358939 11.3953198,32.2027519 C11.4396463,32.0267806 11.4157782,31.8609615 11.3271252,31.7052946 C11.2384722,31.5496276 11.1054927,31.4717941 10.924777,31.4717941 C10.5258385,31.4278013 10.1916849,31.2619822 9.92231615,30.9743368 C9.65294743,30.6866913 9.51996793,30.3685893 9.51996793,30.0098785 C9.51996793,29.5699502 9.67681554,29.2044713 9.98710103,28.9168259 C10.3007962,28.6291805 10.6792763,28.5073542 11.1259511,28.5479629 C24.0147329,29.7932985 31.6218419,25.4075517 33.9404587,15.4042588 C34.6087659,12.659783 33.9847852,10.0912785 32.0685166,7.69874534 C29.5248576,4.51434122 25.6445841,2.92044713 20.4242865,2.92044713 C18.2386492,2.92044713 16.2234984,3.26562165 14.3720146,3.94920256 C12.5205309,4.63616752 11.0270689,5.44157473 9.88821884,6.3721923 C8.75277854,7.30280987 7.72303989,8.3958625 6.81264181,9.65811833 C5.89542427,10.9203742 5.25098518,11.9626658 4.86909535,12.7782252 C4.49061525,13.5971687 4.16669084,14.3856556 3.90073185,15.1403018 C3.00738242,17.9693792 2.74142343,20.6935507 3.09603542,23.306048 C3.45405713,25.9185453 4.36786494,27.7527079 5.84086858,28.8186881 C6.15115406,29.0386522 6.34209898,29.3262976 6.41029359,29.6782403 C6.47848821,30.033567 6.42052278,30.3685893 6.24321679,30.6731551 C6.0659108,31.0758587 5.75221558,31.3195113 5.30554087,31.4041129 C4.85886615,31.4954826 4.45651794,31.4041129 4.10190595,31.1401559 C2.13790111,29.7222331 0.866071581,27.4210697 0.289827104,24.2332815 C-0.289827104,21.0488774 -2.46061495e-15,17.7257266 1.15930842,14.2739815 C2.58457582,9.80363308 5.00548457,6.30451102 8.41521521,3.78338343 C11.8283556,1.25887177 15.8313793,0 20.4242865,0 C26.58226,0 31.2194937,1.96952518 34.342807,5.90857555 Z M61.3295351,25.3576591 C60.2346419,27.2058875 59.345477,29.4183155 58.6620405,32.0017507 C57.9786039,34.9391745 57.6926764,37.1924473 57.8077448,38.7479545 C57.9193263,40.310269 58.2959137,41.4198868 58.9340203,42.087019 C59.4361369,42.5805606 60.1195735,42.7133063 60.9878168,42.4886597 C61.9467201,42.2197646 62.9160841,41.6309184 63.895909,40.7187173 C64.8757338,39.8065162 65.8555586,38.4790594 66.8388703,36.746558 C67.8186951,35.0072492 68.6032524,33.0501013 69.1995159,30.8683068 C69.9282824,27.7062366 70.1305238,25.2351246 69.813214,23.4515672 C69.4959042,21.6748173 68.8124676,20.6264668 67.7629044,20.3167269 L67.2119709,20.3167269 C66.3925444,20.3167269 65.4789711,20.6945415 64.4782248,21.4535745 C63.4739915,22.2058001 62.4244283,23.5094307 61.3295351,25.3576591 Z M143.021121,28.5299406 C142.519005,29.4183155 142.508544,30.3237092 142.986252,31.2359103 C143.467447,32.1481114 144.206675,32.6484605 145.210908,32.7369576 C146.807918,32.9582004 148.450257,32.4033915 150.137927,31.0691272 C151.825597,29.7314592 153.10181,28.0398027 153.966567,25.9941576 C154.83481,23.9451089 154.901061,22.4100242 154.172295,21.3820961 C153.670178,20.7592125 152.941412,20.5141435 151.985995,20.6468892 C151.072422,20.8272872 150.068189,21.2833877 148.973296,22.0185946 C147.878402,22.7503977 146.79397,23.7000399 145.723485,24.85731 C144.653,26.01458 143.749888,27.2399248 143.021121,28.5299406 Z M167.718983,25.3576591 C166.62409,27.2058875 165.734925,29.4183155 165.051489,32.0017507 C164.364565,34.9391745 164.082125,37.1924473 164.193706,38.7479545 C164.308774,40.310269 164.685362,41.4198868 165.323468,42.087019 C165.825585,42.5805606 166.509022,42.7133063 167.377265,42.4886597 C168.332681,42.2197646 169.302045,41.6309184 170.285357,40.7187173 C171.265182,39.8065162 172.245007,38.4790594 173.224832,36.746558 C174.208143,35.0072492 174.9927,33.0501013 175.588964,30.8683068 C176.31773,27.7062366 176.519972,25.2351246 176.202662,23.4515672 C175.885352,21.6748173 175.198429,20.6264668 174.148866,20.3167269 L173.601419,20.3167269 C172.781993,20.3167269 171.868419,20.6945415 170.867673,21.4535745 C169.859953,22.2058001 168.813876,23.5094307 167.718983,25.3576591 Z M48.87774,45.4941582 L48.8114885,45.4941582 C47.3051386,45.4941582 46.1649154,44.9835978 45.3908189,43.9590735 C44.8852154,43.2919413 44.5539579,42.4784485 44.3970465,41.5185951 C44.2366481,40.5621455 44.2959257,39.3368007 44.5679056,37.8459646 C44.8398854,36.3551284 45.1153522,35.0855351 45.3908189,34.0405883 C45.6627988,32.9922378 46.095177,31.4231157 46.6879536,29.3298184 C46.8239435,28.8873328 46.7681528,28.4618659 46.5170944,28.0636288 C46.2660361,27.661988 45.9138571,27.3964966 45.4570704,27.263751 C44.3621772,27.083353 43.3823524,26.8178616 42.5141091,26.4570657 C42.0608093,26.2800714 41.6144835,26.2902826 41.1821052,26.4945067 C40.7462401,26.6953271 40.484721,27.0152783 40.3940611,27.4611676 C39.8466145,29.5987135 39.4595662,31.0691272 39.2329164,31.8690051 C39.0969265,32.3148944 38.8214597,32.6382493 38.410003,32.8356659 C38.0020332,33.0398901 37.5661681,33.0262751 37.1093815,32.8050323 C36.380615,32.4476401 36.1295566,31.8690051 36.3562065,31.0691272 C36.6316733,29.9561057 37.2035283,27.7947337 38.0682847,24.5884149 C38.2496046,23.8770342 38.1798662,23.1860759 37.8625564,22.5189437 C37.084973,21.04853 36.9280616,19.3160286 37.3848482,17.3112284 C37.9776248,14.6392961 38.9783711,13.0803852 40.3940611,12.6344959 C41.1681576,12.4098494 41.855081,12.5664212 42.4478576,13.1008077 C43.357944,13.9483378 43.5636723,15.3064282 43.0615557,17.1784828 C42.9708957,17.4439741 42.6291775,18.7782384 42.0364009,21.1812757 L41.9666625,21.3174251 C41.8760025,21.7599107 41.9213325,22.1853776 42.1061393,22.5870184 C42.2874592,22.9886592 42.5838475,23.2779767 42.9953042,23.4515672 C44.5469841,24.2106002 46.5972936,24.6564896 49.1532068,24.7892353 C49.4251866,24.8368876 49.6309149,24.9015585 49.7669049,24.9900557 C50.4991583,25.3474479 50.7606774,25.9022568 50.554949,26.6612898 C50.3492207,27.4169191 50.0179632,28.5741891 49.5611765,30.1331 C49.2891967,31.2018729 49.0730076,32.0153657 48.9126092,32.5701746 C48.7522108,33.1283872 48.5360217,33.9078426 48.260555,34.9085408 C47.9885751,35.9126428 47.7933076,36.7227319 47.6817261,37.3456154 C47.5666577,37.968499 47.4620501,38.6356312 47.374877,39.3470119 C47.2807302,40.0617964 47.2702694,40.6506426 47.3400078,41.1203581 C47.4062593,41.5866698 47.5422492,41.9440621 47.7479776,42.1857273 C47.9571928,42.4342 48.3302934,42.5567345 48.87774,42.5567345 C50.1086231,42.5567345 51.4336531,41.0624946 52.8458562,38.0808223 C53.9860793,35.7220336 54.7636627,33.4279159 55.1716325,31.2018729 C55.2622924,30.9363815 55.41223,30.6981201 55.6179584,30.5007034 C55.7609221,30.3611502 55.942242,30.2964793 56.1165881,30.2215971 C57.4206966,25.8307783 59.1746179,22.4712914 61.4341427,20.2486522 C63.8715005,17.8456149 66.2321461,16.9300101 68.5160793,17.5086451 C69.5621557,17.7741365 70.475729,18.3765976 71.2498254,19.3160286 C71.4799622,19.58152 71.7658898,19.6802283 72.107608,19.6155574 C72.4458394,19.5474826 72.6620285,19.3568735 72.7561753,19.0471335 C72.8015053,18.9109841 72.8468353,18.7373936 72.8921653,18.5093433 C73.0281552,18.1111063 73.2792135,17.8115776 73.6453402,17.6107572 C74.0114669,17.4099368 74.3985152,17.3758994 74.8099718,17.5086451 C75.2179416,17.6413908 75.5143299,17.8898635 75.6991367,18.243852 C75.8804566,18.6012442 75.904865,18.9790588 75.7653882,19.3806996 C75.3539315,20.8511133 74.6949034,23.0124854 73.7813301,25.8580082 C73.3245435,27.3284219 72.9828252,28.4618659 72.7561753,29.2617437 C72.5260385,30.0650253 72.2087287,31.1576243 71.797272,32.5361372 C71.3893023,33.9180538 71.0894271,35.0310753 70.9081072,35.8786055 C70.7267873,36.7227319 70.5559282,37.6247218 70.3955298,38.5811714 C70.2351314,39.5376211 70.1793407,40.3204802 70.2246707,40.916134 C70.2700006,41.5185951 70.385069,41.9542733 70.5663889,42.2197646 C70.7023788,42.3525103 70.9081072,42.4239888 71.1835739,42.4239888 C72.3691271,42.4239888 73.6697487,41.1305693 75.0819517,38.5471341 C76.4976416,35.9671026 77.4774664,33.4959906 78.024913,31.1337982 C78.115573,30.7321574 78.3213013,30.4224175 78.6386111,30.2011747 C78.7571665,30.119485 78.8826956,30.0786402 79.0117117,30.0309879 L81.9232908,19.1798792 C82.0592807,18.7782384 82.310339,18.4787097 82.6764657,18.2778893 C83.0425924,18.0770689 83.4296407,18.0464353 83.8410974,18.179181 C84.5245339,18.3561752 84.8662521,18.822487 84.8662521,19.58152 C84.8662521,19.6223648 84.9359906,19.6700171 85.0719805,19.7142657 C85.2079704,19.7585142 85.3195519,19.7380918 85.4136987,19.646191 C85.7763385,19.3806996 86.1180568,19.1594568 86.4388535,18.9790588 C88.2171833,18.0021867 89.9745915,17.7571178 91.7075912,18.243852 C93.2592711,18.6454927 94.3994943,19.6053461 95.1282608,21.1166047 C95.3549107,21.5182455 95.6861682,21.742892 96.1220333,21.7837369 C96.5544115,21.8313891 96.927512,21.6952397 97.2483088,21.3820961 C98.1618821,20.3167269 99.1417069,19.4896191 100.19127,18.9109841 C101.9696,17.9783606 103.7026,17.7571178 105.390269,18.243852 C106.349173,18.5093433 107.158138,18.9348103 107.820653,19.5134453 C108.479681,20.0920803 108.985285,20.7047527 109.327003,21.3480587 C109.668722,21.9981722 109.870963,22.8184724 109.940701,23.8225744 C110.01044,24.8232726 110.020901,25.7048401 109.975571,26.4570657 C109.930241,27.2160987 109.769842,28.2065857 109.494376,29.4319305 C109.222396,30.6572752 108.992259,31.6035137 108.810939,32.2706458 C108.629619,32.937778 108.354152,33.8738053 107.991513,35.0719201 C107.761376,35.742456 107.590517,36.2666313 107.478935,36.6444459 C107.363867,37.0256643 107.227877,37.5362246 107.067478,38.1829344 C106.90708,38.8262404 106.781551,39.3606268 106.690891,39.78269 C106.600231,40.2047532 106.520032,40.6506426 106.450293,41.1203581 C106.384042,41.5866698 106.359633,41.9644845 106.384042,42.253802 C106.404963,42.5465232 106.460754,42.7779773 106.554901,42.9549715 C106.645561,43.0877172 106.781551,43.1762143 106.962871,43.2238666 C108.057764,43.4451094 109.417663,42.2197646 111.035595,39.551236 C112.653526,36.8793037 113.807697,34.2720423 114.491133,31.7362594 C114.627123,31.3346186 114.867721,31.0350899 115.209439,30.8342695 C115.519775,30.6538715 115.666226,30.5653744 115.697608,30.5483557 C116.259002,28.4959032 116.949413,25.9056605 117.775813,22.7197641 C118.32326,20.7183676 118.689386,19.3568735 118.870706,18.6454927 C119.006696,18.1996034 119.292624,17.8796523 119.725002,17.6754281 C120.160867,17.4780115 120.582784,17.4848189 120.990754,17.7094655 C121.719521,18.0668577 121.974066,18.6454927 121.743929,19.4487743 C121.653269,19.8946637 121.311551,21.228928 120.718774,23.4515672 C119.759871,27.0595268 118.985775,29.888031 118.392998,31.9370798 C117.660745,34.2958685 117.399226,36.5559488 117.604954,38.7139171 C117.810682,40.8752891 118.549909,42.1346713 119.829609,42.4886597 C120.694366,42.7541511 121.653269,42.5975793 122.702832,42.022348 C125.481909,40.4600334 127.650773,36.8350551 129.202453,31.1337982 L129.268705,31.0010525 C129.544172,29.7995339 130.046288,27.907057 130.775055,25.3236217 C131.549151,22.4304466 132.121006,20.2486522 132.487133,18.7782384 C132.577793,18.3357528 132.839312,18.0123979 133.27169,17.8115776 C133.704068,17.6107572 134.150394,17.6243721 134.607181,17.8456149 C135.335947,18.1553548 135.587006,18.7135675 135.360356,19.5134453 C134.994229,20.983859 134.422374,23.1622497 133.648278,26.0588286 C133.240308,27.5700872 132.929972,28.7409722 132.724244,29.5646761 C132.522002,30.3917839 132.232588,31.5014016 131.869948,32.9037406 C131.503821,34.3060797 131.25625,35.40889 131.116773,36.2087678 C130.980783,37.0120494 130.855254,37.8936169 130.740185,38.8500665 C130.628604,39.8065162 130.593735,40.5757604 130.639065,41.1543954 C130.684395,41.7330305 130.820385,42.1550937 131.050521,42.4239888 C131.186511,42.5975793 131.413161,42.6894801 131.733958,42.6894801 C132.919511,42.6894801 134.160855,41.3858495 135.461477,38.7819918 C136.762098,36.1781342 137.640802,33.6934073 138.097589,31.3346186 C138.188249,30.9363815 138.404438,30.6232379 138.746156,30.3985913 C138.850764,30.3339204 138.910041,30.2930755 138.97978,30.248827 L145.486375,6.22185826 C145.577035,5.82362121 145.803684,5.52068875 146.169811,5.31986836 C146.535938,5.1224517 146.919499,5.07820314 147.334443,5.18712268 C147.742412,5.29944595 148.049262,5.52068875 148.25499,5.85765857 C148.460718,6.18782091 148.495587,6.55882807 148.356111,6.95706512 L145.280646,18.3119267 C145.144656,18.8463131 145.312029,19.2819913 145.793224,19.6155574 C146.270932,19.9457197 146.759101,19.9593346 147.264704,19.646191 C148.722237,18.6216666 150.113519,18.0021867 151.438549,17.7741365 C153.670178,17.3758994 155.382257,18.0226092 156.56781,19.7142657 C157.80218,21.6748173 157.913761,24.0029724 156.909528,26.6953271 C155.908782,29.3876819 154.262955,31.6239361 151.985995,33.4040898 C149.520742,35.2761443 147.034568,36.0113511 144.527471,35.6097104 C144.025355,35.5178095 143.592976,35.6879963 143.22685,36.1100595 C142.860723,36.5321227 142.794472,36.9882232 143.021121,37.4817649 C143.659228,39.0406757 144.503063,40.272828 145.552626,41.1850291 C146.602189,42.1006339 147.718004,42.5567345 148.907044,42.5567345 C151.41414,42.5567345 153.935184,41.4981727 156.466689,39.3810493 C158.998194,37.2673295 160.696324,34.5409374 161.564568,31.2018729 C161.651741,30.8444807 161.860956,30.5551632 162.178266,30.3339204 C162.289847,30.2556344 162.404915,30.2181934 162.523471,30.1705411 C163.824092,25.8035484 165.574527,22.4610802 167.823591,20.2486522 C170.260949,17.8456149 172.621594,16.9300101 174.902041,17.5086451 C175.951604,17.7741365 176.86169,18.3765976 177.639274,19.3160286 C177.865923,19.58152 178.151851,19.6802283 178.497056,19.6155574 C178.835287,19.5474826 179.051477,19.3568735 179.145623,19.0471335 C179.190953,18.9109841 179.236283,18.7373936 179.281613,18.5093433 C179.417603,18.1111063 179.668662,17.8115776 180.034788,17.6107572 C180.397428,17.4099368 180.787963,17.3758994 181.195933,17.5086451 C181.60739,17.6413908 181.903778,17.8898635 182.085098,18.243852 C182.269905,18.6012442 182.290826,18.9790588 182.154836,19.3806996 C181.74338,20.8511133 181.084352,23.0124854 180.170778,25.8580082 C179.713992,27.3284219 179.372273,28.4618659 179.145623,29.2617437 C178.915487,30.0650253 178.598177,31.1576243 178.18672,32.5361372 C177.77875,33.9180538 177.478875,35.0310753 177.297555,35.8786055 C177.116235,36.7227319 176.941889,37.6247218 176.784978,38.5811714 C176.62458,39.5376211 176.565302,40.3204802 176.614119,40.916134 C176.659449,41.5185951 176.77103,41.9542733 176.955837,42.2197646 C177.091827,42.3525103 177.297555,42.4239888 177.569535,42.4239888 C178.755088,42.4239888 180.05571,41.1305693 181.4714,38.5471341 C182.883603,35.9671026 183.866915,33.4959906 184.414361,31.1337982 C184.505021,30.7321574 184.707263,30.4224175 185.028059,30.2011747 C185.345369,29.9765281 185.711496,29.888031 186.122952,29.9322796 C186.534409,29.9765281 186.876127,30.1773485 187.148107,30.5347408 C187.423574,30.8887292 187.493312,31.29037 187.353836,31.7362594 C187.308506,32.0017507 187.182976,32.4952924 186.977248,33.2066731 C186.775007,33.9180538 186.36355,35.0208641 185.746365,36.5082965 C185.12918,38.0025364 184.470152,39.3708381 183.762307,40.6166052 C183.054462,41.8657762 182.144376,42.9685864 181.025074,43.9250361 C179.909259,44.8814858 178.755088,45.3614125 177.569535,45.3614125 C176.293322,45.3614125 175.289089,44.891697 174.560322,43.9590735 C174.379002,43.6901784 174.218604,43.3804384 174.082614,43.0196425 C173.943137,42.7133063 173.706027,42.5226971 173.364308,42.4546224 C173.02259,42.3899514 172.736663,42.4648336 172.506526,42.6894801 C171.094323,44.0237444 169.657711,44.891697 168.196691,45.2933378 C167.649245,45.4260835 167.126207,45.4941582 166.62409,45.4941582 C165.29906,45.4941582 164.162324,45.0482688 163.20342,44.1564901 C161.930694,42.9141267 161.289101,41.0454759 161.18798,38.6560536 C160.347632,39.7554602 159.420111,40.7901957 158.31127,41.6887819 C155.235806,44.1803163 152.097577,45.4260835 148.907044,45.4260835 C145.758354,45.4260835 143.202441,43.8025016 141.242792,40.5519343 C140.967325,40.1502935 140.590737,39.9835104 140.113029,40.0481814 C139.635321,40.1162561 139.328472,40.37494 139.192482,40.8174256 L138.233579,44.3573105 C138.048772,45.072095 137.571064,45.4260835 136.796967,45.4260835 L136.385511,45.4260835 C136.019384,45.2933378 135.722996,45.05848 135.496346,44.724914 C135.304565,44.4390002 135.269696,44.132664 135.339434,43.7990979 C134.969821,44.132664 134.645537,44.5274973 134.230593,44.7929887 C133.432089,45.303549 132.598714,45.5622329 131.733958,45.5622329 C130.408928,45.5622329 129.408182,45.1163435 128.724745,44.2245648 C128.585268,44.0475706 128.4702,43.8671726 128.37954,43.6901784 C128.10756,43.2919413 127.730973,43.0434686 127.253264,42.9549715 C126.772069,42.8698781 126.350152,42.9787977 125.984025,43.2919413 C125.394735,43.7786755 124.798472,44.2007387 124.205695,44.5615346 C123.020142,45.2252631 121.813668,45.5622329 120.582784,45.5622329 C120.031851,45.5622329 119.508813,45.470332 119.006696,45.2933378 C116.86224,44.7147027 115.484906,43.1762143 114.867721,40.6846799 C114.745679,40.1877346 114.682914,39.6499444 114.627123,39.1053467 C114.229614,39.8848021 113.853027,40.7187173 113.431109,41.4198868 C112.677934,42.665654 111.729492,43.7684643 110.589269,44.724914 C109.449046,45.6847674 108.308822,46.1612903 107.168599,46.1612903 C106.896619,46.1612903 106.600231,46.1170418 106.279434,46.0285446 C105.278688,45.8038981 104.525513,45.2933378 104.023396,44.4900562 C103.7026,43.9590735 103.496871,43.3566123 103.406211,42.6894801 C103.315551,42.022348 103.374829,41.1748179 103.57707,40.1502935 C103.782799,39.1257691 103.974579,38.2476053 104.159386,37.5123985 C104.340706,36.7771916 104.661503,35.6982075 105.11829,34.2720423 C105.620406,32.6280381 106.007454,31.2801588 106.279434,30.235212 C106.554901,29.1868615 106.77109,28.087455 106.931489,26.9267812 C107.091887,25.7695111 107.123269,24.8368876 107.032609,24.1221031 C106.941949,23.4107224 106.690891,22.7742239 106.279434,22.219415 C105.867978,21.6612024 105.278688,21.2731765 104.501105,21.04853 C103.632861,20.7830386 102.677445,20.9396105 101.627882,21.5182455 C98.8906486,23.029504 96.7252706,26.6612898 95.1282608,32.4033915 L91.7738427,44.891697 C91.5925228,45.65073 91.1148147,46.0285446 90.3372313,46.0285446 C90.1559114,46.0285446 89.9745915,45.9842961 89.7932716,45.8923952 C89.4271449,45.7596495 89.1621389,45.5281955 89.0052274,45.1912257 C88.8448291,44.8576596 88.8099598,44.4900562 88.9041067,44.0918192 L92.2550378,31.6681847 C92.6664945,30.0650253 92.9384744,28.550363 93.0744643,27.1276015 C93.2139411,25.7048401 93.1093335,24.4012094 92.7676152,23.2201132 C92.425897,22.039017 91.7982512,21.3174251 90.8881648,21.04853 C89.9745915,20.7830386 88.9947667,20.9396105 87.9452034,21.5182455 C85.1626404,23.0771563 82.9937755,26.7055383 81.4455826,32.4033915 L78.0911645,44.891697 C77.9098446,45.65073 77.4321365,46.0285446 76.6545531,46.0285446 C76.4732332,46.0285446 76.2919133,45.9842961 76.1071065,45.8923952 C75.7444667,45.7596495 75.4829476,45.5281955 75.3225492,45.1912257 C75.1621509,44.8576596 75.1272817,44.4900562 75.2179416,44.0918192 L75.5003822,43.0468724 C75.2144547,43.3429973 74.9529356,43.6527373 74.6356258,43.9250361 C73.519811,44.8814858 72.3691271,45.3614125 71.1835739,45.3614125 C69.9038739,45.3614125 68.8996407,44.891697 68.1708742,43.9590735 C67.9895543,43.6901784 67.8291559,43.3804384 67.693166,43.0196425 C67.5571761,42.7133063 67.3165785,42.5226971 66.9748602,42.4546224 C66.633142,42.3899514 66.3472145,42.4648336 66.1205646,42.6894801 C64.7048746,44.0237444 63.2682632,44.891697 61.8107302,45.2933378 C61.2597966,45.4260835 60.7367585,45.4941582 60.2346419,45.4941582 C58.9130988,45.4941582 57.7728756,45.0482688 56.8139723,44.1564901 C55.8690167,43.2340778 55.3355178,41.9032172 55.0356426,40.3443064 C53.2084959,43.7650605 51.1581864,45.4941582 48.87774,45.4941582 Z M239.21323,4.50440877 C238.89444,5.38058459 238.644953,6.58114612 238.464767,8.11278173 C238.828603,6.71156924 239.078091,5.51100771 239.21323,4.50440877 Z M206.67937,42.0060717 C205.522025,40.6282685 204.742377,39.0832562 204.333495,37.3777231 C203.924612,35.67219 203.768683,33.91315 203.858775,32.0972589 C203.948868,30.2813678 204.267658,28.4989185 204.811679,26.7465668 C206.124953,22.7235152 208.210946,19.5532302 211.066191,17.2357117 C214.375366,14.567054 217.979074,13.6440596 221.877315,14.4767611 C222.147593,14.5202355 222.386686,14.6172168 222.591127,14.7710492 C222.792103,14.9248815 222.941102,15.1255325 223.031195,15.3629695 C223.121288,15.6037506 223.145543,15.8344992 223.100497,16.0518711 C223.100497,16.2725871 223.04159,16.4665497 222.930707,16.6437914 C222.816359,16.8176889 222.667359,16.9614887 222.487174,17.0685026 C222.306988,17.1788606 222.112942,17.2557768 221.908501,17.2992511 C221.70406,17.3427255 221.513479,17.3427255 221.329829,17.2992511 C218.204305,16.600317 215.414897,17.3092837 212.968533,19.4328396 C210.52217,21.5563955 208.751502,24.2752159 207.666925,27.5993334 C206.804114,30.2245166 206.50958,32.5687886 206.783323,34.6221167 C207.053601,36.6787889 207.666925,38.3508802 208.616363,39.6417347 C209.569267,40.9325891 210.771658,41.8622719 212.220071,42.4307829 C215.120363,43.5711491 218.360235,42.4541922 221.943152,39.0832562 C224.164284,36.9831096 226.406206,34.1171451 228.672384,30.4887071 C230.942027,26.860269 233.024554,22.7903989 234.930362,18.2824408 C235.110547,17.8042227 235.20064,17.2992511 235.20064,16.7742145 C235.020454,8.46392089 235.813963,3.36738671 237.581166,1.48461194 C238.260326,0.742203418 239.078091,0.370999157 240.027529,0.370999157 C240.935386,0.370999157 241.5695,0.809087069 241.933336,1.68191871 C242.432311,2.81894077 242.328358,4.84551539 241.628407,7.75161001 C240.924991,10.6610488 239.89239,13.8213013 238.534069,17.2357117 C238.305373,17.8042227 238.21528,18.3927988 238.260326,19.0047842 L238.260326,19.3358583 C238.440512,23.7969978 238.849394,29.1978526 239.486973,35.5384227 C239.528554,36.0668035 239.826553,36.3811567 240.367109,36.4915147 C240.914596,36.6018727 241.320013,36.4179427 241.593756,35.9330362 C243.814888,32.0404078 247.325038,26.2683487 252.131137,18.6135149 C252.855344,17.5199672 253.399365,16.6437914 253.763201,15.9883316 C253.943386,15.6806668 254.08199,15.373002 254.172083,15.0686814 C254.262176,14.5871191 254.373059,14.1055568 254.511663,13.6273387 C255.371009,10.0825052 256.323913,7.14965716 257.366909,4.83213866 C258.59009,2.07318807 259.858318,0.501422276 261.175058,0.110152919 C262.07945,-0.157381684 262.918005,0.0633343636 263.690723,0.762268513 C264.505023,1.55149559 264.494627,2.91592207 263.656072,4.8622363 C262.817517,6.80855054 260.651827,10.5841326 257.162468,16.1822942 C256.978817,16.489959 256.843678,16.7976238 256.753585,17.1019444 C256.528354,18.2389664 256.323913,19.4228071 256.143727,20.6434337 C255.145777,27.0308223 254.920546,32.5988862 255.461102,37.3442813 C256.008588,42.0930205 257.25256,45.3168124 259.203414,47.0256897 C259.473692,47.2865359 259.633087,47.6142658 259.678133,48.0088794 C259.723179,48.4034929 259.608831,48.7512879 259.338553,49.0556085 C259.06481,49.4100919 258.680183,49.5806452 258.184673,49.5806452 C257.820837,49.5806452 257.502048,49.450222 257.23177,49.1893758 C254.057735,46.4337694 252.380624,41.2068121 252.200439,33.5085039 C252.151928,31.495306 252.22123,29.3750943 252.40488,27.1445245 C252.446461,26.6161437 252.231625,26.2884138 251.756906,26.1579907 C251.282186,26.0275676 250.907955,26.1579907 250.634212,26.5526042 C246.011764,33.986722 242.543195,40.0263157 240.23197,44.6613527 C239.868134,45.3602868 239.303323,45.6244772 238.534069,45.4472355 C237.851444,45.2733381 237.491073,44.8385943 237.446027,44.1396602 C236.718355,37.926169 236.177799,32.501905 235.813963,27.8635238 C235.768917,27.3384871 235.484778,27.0308223 234.961547,26.9438736 C234.441782,26.860269 234.067551,27.0308223 233.842319,27.4689102 C230.758377,33.2008391 227.608597,37.6385693 224.392981,40.7921335 C219.767067,45.2934032 215.34906,46.73809 211.132028,45.1228498 C209.319779,44.4239157 207.836715,43.3805307 206.67937,42.0060717 Z M264.312085,30.2549514 C263.901594,31.4034235 264.197287,32.3526019 265.199164,33.1058645 C266.9768,34.4299853 268.636158,34.7846605 270.180719,34.1631345 C271.547863,33.6328106 272.754986,32.4742049 273.802086,30.6839395 C274.845708,28.897052 275.301423,27.0054508 275.165752,25.0158918 C275.030082,22.8945962 274.143003,21.6380326 272.504517,21.2394452 C271.273043,20.8881478 269.888505,21.5265632 268.340465,23.1614471 C266.747203,24.8402431 265.404409,27.2047445 264.312085,30.2549514 Z M306.290035,30.2549514 C305.879543,31.4034235 306.175236,32.3526019 307.177113,33.1058645 C308.954749,34.4299853 310.614108,34.7846605 312.158668,34.1631345 C313.525813,33.6328106 314.732935,32.4742049 315.776557,30.6839395 C316.823658,28.897052 317.279373,27.0054508 317.143702,25.0158918 C317.004552,22.8945962 316.120952,21.6380326 314.482466,21.2394452 C313.250992,20.8881478 311.862975,21.5265632 310.318415,23.1614471 C308.725152,24.8402431 307.382359,27.2047445 306.290035,30.2549514 Z M329.155789,29.2584829 C328.654851,30.143482 328.644415,31.0386147 329.121002,31.943881 C329.601068,32.8525251 330.338561,33.3456925 331.340438,33.4335169 C332.933701,33.6564556 334.572187,33.1058645 336.255897,31.7783659 C337.939607,30.4542451 339.212825,28.775449 340.075553,26.7419778 C340.941759,24.7085066 341.007855,23.1850921 340.280798,22.1649786 C339.77986,21.5502082 339.052803,21.3070024 338.09615,21.4387389 C337.188199,21.6143875 336.186322,22.0670207 335.093998,22.7966383 C334.001674,23.5262558 332.919786,24.4653007 331.851813,25.6137728 C330.780361,26.7656228 329.882846,27.9782743 329.155789,29.2584829 Z M353.795701,26.1103181 C352.703377,27.9444957 351.816299,30.143482 351.134466,32.7072771 C350.452633,35.6223696 350.167376,37.8551346 350.282174,39.3988162 C350.393494,40.9492536 350.769198,42.0504357 351.409286,42.7124961 C351.906746,43.2022857 352.588579,43.3340222 353.454785,43.1144613 C354.411438,42.8476105 355.378528,42.2632408 356.356054,41.3545967 C357.333579,40.4527083 358.311105,39.1353432 359.29211,37.412635 C360.269636,35.686549 361.055831,33.7442799 361.647216,31.58245 C362.374273,28.4444188 362.579519,25.9887152 362.259474,24.2220948 C361.942909,22.4554745 361.261076,21.4184717 360.213976,21.1077087 L359.667814,21.1077087 C358.846831,21.1077087 357.93888,21.482651 356.937003,22.2359136 C355.935126,22.9857984 354.888025,24.2761406 353.795701,26.1103181 Z M387.789944,29.2584829 C387.289005,30.143482 387.278569,31.0386147 387.755156,31.943881 C388.231744,32.8525251 388.969236,33.3456925 389.974592,33.4335169 C391.564376,33.6564556 393.202862,33.1058645 394.886572,31.7783659 C396.570282,30.4542451 397.843501,28.775449 398.709707,26.7419778 C399.572434,24.7085066 399.642009,23.1850921 398.914953,22.1649786 C398.414014,21.5502082 397.686958,21.3070024 396.730304,21.4387389 C395.818874,21.6143875 394.820476,22.0670207 393.728152,22.7966383 C392.635828,23.5262558 391.55394,24.4653007 390.485967,25.6137728 C389.414515,26.7656228 388.517,27.9782743 387.789944,29.2584829 Z M412.429856,26.1103181 C411.337531,27.9444957 410.450453,30.143482 409.76862,32.7072771 C409.083308,35.6223696 408.80153,37.8551346 408.91285,39.3988162 C409.027648,40.9492536 409.403352,42.0504357 410.039962,42.7124961 C410.5409,43.2022857 411.222733,43.3340222 412.08546,43.1144613 C413.042114,42.8476105 414.009203,42.2632408 414.986729,41.3545967 C415.967734,40.4527083 416.945259,39.1353432 417.922785,37.412635 C418.900311,35.686549 419.686506,33.7442799 420.277892,31.58245 C421.004948,28.4444188 421.210194,25.9887152 420.893629,24.2220948 C420.573585,22.4554745 419.891752,21.4184717 418.844651,21.1077087 L418.298489,21.1077087 C417.480985,21.1077087 416.569556,21.482651 415.567679,22.2359136 C414.565802,22.9857984 413.52218,24.2761406 412.429856,26.1103181 Z M260.694196,31.9101024 L260.694196,31.845923 C261.967415,27.2047445 263.790274,23.6478588 266.155817,21.1752658 C268.52136,18.6992951 270.911254,17.7737616 273.32202,18.388532 C274.734389,18.7871194 275.858022,19.540382 276.703355,20.6415641 C277.541731,21.746124 278.032234,23.1411799 278.167905,24.8199759 C278.352278,27.5121297 277.736541,30.0117455 276.327651,32.3086898 C274.915283,34.605634 273.255924,36.1290485 271.342618,36.8823111 C269.067522,37.7673102 266.792426,37.5207265 264.517331,36.1526935 C264.152063,35.9770448 263.811147,35.9770448 263.494581,36.1526935 C263.174537,36.3317201 263.014515,36.6188381 263.014515,37.0140476 C263.059739,39.0036067 263.654603,40.5270212 264.792151,41.587669 C266.521085,43.2698429 268.952724,43.6650524 272.094025,42.7800533 C274.323897,42.2058172 276.404184,40.9931658 278.338363,39.1353432 C280.272542,37.2808985 281.62925,34.8724849 282.401531,31.9101024 C282.491978,31.511515 282.697223,31.2142634 283.013789,31.0183475 C283.139023,30.9406568 283.299045,30.9676797 283.438195,30.9271453 C283.747803,29.7077382 284.241784,27.8668049 284.927095,25.3502998 C285.10799,24.6443272 285.038415,23.9586218 284.72185,23.2931836 C283.946091,21.8373262 283.789548,20.1146181 284.241784,18.125059 C284.833169,15.4734395 285.835046,13.92638 287.247415,13.4838805 C288.019695,13.2643196 288.701528,13.4197011 289.296392,13.950025 C290.204343,14.791112 290.409589,16.1354999 289.90865,17.9933225 C289.818203,18.2567955 289.473808,19.5842942 288.885901,21.9690628 L288.816326,22.1007993 C288.725879,22.5432988 288.771103,22.9655312 288.951997,23.3607407 C289.132891,23.7593281 289.432063,24.0464462 289.839076,24.2220948 C291.387115,24.9753574 293.436092,25.4144791 295.98253,25.5462156 C296.25735,25.5935057 296.462596,25.6610629 296.598266,25.7455093 C297.325323,26.1035624 297.586228,26.6541535 297.384462,27.4040382 C297.179216,28.1573008 296.848736,29.3057729 296.393021,30.8528324 C296.121679,31.9101024 295.905997,32.7174107 295.745975,33.2713796 C295.585953,33.8253485 295.370271,34.5955004 295.095451,35.588591 C294.824109,36.5850595 294.6293,37.38899 294.51798,38.0105161 C294.403182,38.6286643 294.29882,39.2907247 294.208372,39.9966973 C294.117925,40.7060477 294.107489,41.2904174 294.173585,41.7531841 C294.24316,42.2159508 294.378831,42.570626 294.584076,42.8138319 C294.789322,43.0570377 295.165026,43.1786407 295.711188,43.1786407 C296.939183,43.1786407 298.257625,41.6991383 299.669993,38.7401337 C300.807541,36.3958994 301.579821,34.1226001 301.990313,31.9101024 C302.08076,31.6466294 302.230346,31.4135571 302.432113,31.2142634 C302.588656,31.0656376 302.779987,30.9913247 302.971317,30.9170118 C304.227142,26.7487335 305.931724,23.4722101 308.133767,21.1752658 C310.499309,18.6992951 312.889203,17.7737616 315.29997,18.388532 C316.712338,18.7871194 317.835971,19.540382 318.677826,20.6415641 C319.519681,21.746124 320.010183,23.1411799 320.145854,24.8199759 C320.330227,27.5121297 319.71449,30.0117455 318.305601,32.3086898 C316.893233,34.605634 315.233874,36.1290485 313.320567,36.8823111 C311.045472,37.7673102 308.770376,37.5207265 306.49528,36.1526935 C306.130013,35.9770448 305.789096,35.9770448 305.472531,36.1526935 C305.152487,36.3317201 304.992465,36.6188381 304.992465,37.0140476 C305.037688,39.0036067 305.629074,40.5270212 306.770101,41.587669 C308.499034,43.2698429 310.930673,43.6650524 314.071975,42.7800533 C316.301847,42.2058172 318.382133,40.9931658 320.316312,39.1353432 C322.250491,37.2808985 323.603721,34.8724849 324.37948,31.9101024 C324.469927,31.511515 324.675173,31.2142634 324.991738,31.0183475 C325.030004,30.9947025 325.078707,31.0115918 325.116973,30.9913247 L331.615258,7.11999372 C331.705705,6.7247842 331.931824,6.42415473 332.293612,6.2282389 C332.65888,6.0289452 333.04502,5.98503303 333.455511,6.09650239 C333.866003,6.20797174 334.172132,6.42415473 334.377377,6.75856279 C334.582623,7.08959299 334.61741,7.45440179 334.478261,7.84961131 L331.410013,19.1181496 C331.274342,19.6484735 331.441321,20.0808395 331.921387,20.4118697 C332.397975,20.7428999 332.884998,20.7530334 333.385937,20.4456483 C334.843528,19.4289126 336.231546,18.8107644 337.553467,18.5878257 C339.77986,18.1926162 341.487921,18.8310316 342.670692,20.5098276 C343.898687,22.4554745 344.013486,24.7659302 343.011609,27.4378168 C342.009732,30.1097034 340.371246,32.3289569 338.09615,34.0989551 C335.64016,35.9533998 333.159819,36.6830174 330.658605,36.28443 C330.157666,36.1966057 329.726303,36.3654987 329.361035,36.7843532 C328.995767,37.2032077 328.929671,37.652463 329.155789,38.1422526 C329.792399,39.6893121 330.634254,40.9120971 331.681354,41.8207413 C332.728455,42.7260075 333.841652,43.1786407 335.027902,43.1786407 C337.529115,43.1786407 340.044244,42.1315043 342.569809,40.0304759 C345.095374,37.9294475 346.78952,35.2271601 347.655726,31.9101024 C347.742695,31.558805 347.94794,31.271687 348.267984,31.0487483 C348.379304,30.9744354 348.497581,30.9339011 348.612379,30.886611 C349.909949,26.5528177 351.656276,23.2391378 353.900063,21.0401515 C356.335181,18.6553829 358.686809,17.7501166 360.965383,18.3243527 C362.009005,18.5878257 362.920435,19.1857068 363.692715,20.1146181 C363.922312,20.3780911 364.207569,20.476049 364.548485,20.4118697 C364.889402,20.3443125 365.105083,20.1585302 365.195531,19.8477672 C365.240754,19.7160307 365.285978,19.540382 365.33468,19.3174433 C365.470351,18.9222338 365.717342,18.6249821 366.082609,18.4223106 C366.447877,18.2230169 366.834017,18.1926162 367.244508,18.3243527 C367.654999,18.4560892 367.950692,18.6992951 368.131587,19.0539703 C368.312481,19.4052676 368.336832,19.78021 368.197683,20.1821752 C367.79067,21.6380326 367.12971,23.7829731 366.21828,26.6102413 C365.766044,28.0694765 365.421649,29.1943036 365.195531,29.9881005 C364.969413,30.7818974 364.649369,31.8695681 364.242356,33.237601 C363.831865,34.605634 363.532693,35.710194 363.351799,36.5512809 C363.170904,37.38899 363.000446,38.2841227 362.840424,39.2333011 C362.680402,40.1824795 362.624742,40.9593872 362.669966,41.5538904 C362.715189,42.1483936 362.829988,42.5807596 363.010882,42.8476105 C363.150032,42.979347 363.351799,43.0469041 363.626619,43.0469041 C364.809391,43.0469041 366.10696,41.7633176 367.51585,39.1995225 C368.928218,36.6424831 369.905744,34.1867795 370.451906,31.845923 C370.542353,31.4473357 370.747599,31.1399505 371.064164,30.9170118 C371.26941,30.7751417 371.495528,30.7109624 371.732082,30.6771838 C372.215627,28.9375863 372.852236,26.5899741 373.659304,23.5600344 C374.476808,20.4220032 375.116896,18.0169675 375.569132,16.3347936 C375.704803,15.8956719 375.62827,15.486951 375.332578,15.1120086 C375.036885,14.7336884 374.63683,14.5479061 374.135891,14.5479061 L371.203314,14.5479061 C370.747599,14.5479061 370.371895,14.3925246 370.076202,14.0817615 C369.780509,13.7743763 369.655275,13.399434 369.700498,12.9569344 C369.745722,12.6022592 369.91618,12.294874 370.211873,12.0280231 C370.507566,11.7611723 370.858919,11.6294358 371.26941,11.6294358 L375.704803,11.6294358 C376.480562,11.6294358 376.957149,11.2781384 377.141522,10.568788 C377.503311,9.28857933 377.844227,8.11646219 378.164271,7.0558144 C378.299942,6.66060487 378.550412,6.35997541 378.915679,6.16068171 C379.277468,5.96476588 379.667087,5.93098729 380.074099,6.0627238 C380.484591,6.1944603 380.769847,6.43766617 380.929869,6.79234138 C381.086413,7.14363874 381.1212,7.52195897 381.030753,7.92054635 C380.849858,8.53531673 380.665485,9.17710998 380.484591,9.83917038 C380.34892,10.2816699 380.425452,10.6903909 380.724624,11.0653333 C381.020317,11.4436535 381.416893,11.6294358 381.917831,11.6294358 L384.853888,11.6294358 C385.264379,11.6294358 385.626168,11.7848173 385.946212,12.0922025 C386.262777,12.4029655 386.401927,12.7779079 386.356703,13.2204074 C386.308001,13.4838805 386.217553,13.7169527 386.081883,13.9162464 C385.946212,14.1155401 385.751402,14.2709216 385.500933,14.382391 C385.250464,14.4904825 385.01391,14.5479061 384.784313,14.5479061 L380.279345,14.5479061 C379.552289,14.5479061 379.075701,14.8992035 378.846104,15.605176 C378.299942,17.6420251 377.527662,20.5334726 376.525785,24.2862742 C375.569132,27.9546293 374.842075,30.7413631 374.341137,32.63972 C372.612203,38.8718702 372.431309,42.3375537 373.794975,43.0469041 C374.160242,43.2225528 374.591606,43.2022857 375.092545,42.979347 C376.550136,42.3611987 378.08426,40.7060477 379.698396,38.0105161 C381.316009,35.3149844 382.328323,33.261246 382.735335,31.845923 C382.829261,31.4912478 383.055379,31.2142634 383.420647,31.0183475 C383.535445,30.9541682 383.657201,30.9271453 383.775478,30.8933668 L390.245934,7.11999372 C390.336381,6.7247842 390.562499,6.42415473 390.927767,6.2282389 C391.293034,6.0289452 391.679174,5.98503303 392.089666,6.09650239 C392.500157,6.20797174 392.806286,6.42415473 393.011532,6.75856279 C393.216777,7.08959299 393.248086,7.45440179 393.112415,7.84961131 L390.040688,19.1181496 C389.905017,19.6484735 390.075476,20.0808395 390.552063,20.4118697 C391.032129,20.7428999 391.519152,20.7530334 392.020091,20.4456483 C393.474204,19.4289126 394.862221,18.8107644 396.184142,18.5878257 C398.414014,18.1926162 400.122075,18.8310316 401.304847,20.5098276 C402.532842,22.4554745 402.644161,24.7659302 401.645763,27.4378168 C400.643886,30.1097034 399.0054,32.3289569 396.730304,34.0989551 C394.270835,35.9533998 391.793973,36.6830174 389.28928,36.28443 C388.788342,36.1966057 388.356978,36.3654987 387.991711,36.7843532 C387.629922,37.2032077 387.560347,37.652463 387.789944,38.1422526 C388.426553,39.6893121 389.264929,40.9120971 390.315509,41.8207413 C391.35913,42.7260075 392.475806,43.1786407 393.658577,43.1786407 C396.159791,43.1786407 398.67492,42.1315043 401.200484,40.0304759 C403.726049,37.9294475 405.420195,35.2271601 406.286402,31.9101024 C406.376849,31.558805 406.582094,31.271687 406.902139,31.0487483 C407.013458,30.9744354 407.128257,30.9339011 407.246534,30.886611 C408.540625,26.5528177 410.286952,23.2391378 412.530739,21.0401515 C414.965857,18.6553829 417.320963,17.7501166 419.596059,18.3243527 C420.64316,18.5878257 421.551111,19.1857068 422.326869,20.1146181 C422.552988,20.3780911 422.838244,20.476049 423.179161,20.4118697 C423.520077,20.3443125 423.735759,20.1585302 423.826206,19.8477672 C423.874909,19.7160307 423.920132,19.540382 423.965356,19.3174433 C424.101027,18.9222338 424.351496,18.6249821 424.716764,18.4223106 C425.078552,18.2230169 425.468171,18.1926162 425.875184,18.3243527 C426.285675,18.4560892 426.581368,18.6992951 426.762262,19.0539703 C426.943157,19.4052676 426.967508,19.78021 426.831837,20.1821752 C426.421346,21.6380326 425.763864,23.7829731 424.852434,26.6102413 C424.396719,28.0694765 424.055803,29.1943036 423.826206,29.9881005 C423.600088,30.7818974 423.283523,31.8695681 422.873032,33.237601 C422.46254,34.605634 422.166847,35.710194 421.985953,36.5512809 C421.80158,37.38899 421.631122,38.2841227 421.474578,39.2333011 C421.314556,40.1824795 421.255418,40.9593872 421.300641,41.5538904 C421.349344,42.1483936 421.460663,42.5807596 421.645037,42.8476105 C421.780707,42.979347 421.985953,43.0469041 422.257295,43.0469041 C423.440066,43.0469041 424.737636,41.7633176 426.150004,39.1995225 C427.558894,36.6424831 428.536419,34.1867795 429.08606,31.845923 C429.176508,31.4473357 429.378274,31.1399505 429.698318,30.9170118 C429.896607,30.7785195 430.122725,30.7109624 430.3558,30.6771838 L433.385782,19.4525577 C433.472751,19.1857068 433.6119,18.9627681 433.792795,18.7871194 C433.973689,18.6114707 434.189371,18.4898678 434.443319,18.4223106 C434.693788,18.3581313 434.954694,18.3479977 435.226036,18.388532 C435.862645,18.5675585 436.227913,18.9627681 436.31836,19.5842942 C436.31836,19.7160307 436.422722,19.7937214 436.627968,19.8139886 C436.829734,19.8376336 437.003671,19.78021 437.139342,19.6484735 C437.410684,19.4762027 437.685504,19.3174433 437.956846,19.1857068 C439.731003,18.2162612 441.459937,17.9933225 443.143647,18.5202685 C444.1003,18.7871194 444.907368,19.2059739 445.568328,19.78021 C446.22581,20.3544461 446.730227,20.9658386 447.071144,21.604254 C447.41206,22.2460472 447.613827,23.0634891 447.683402,24.0565797 C447.752976,25.0496703 447.763413,25.9144023 447.718189,26.6440199 C447.672965,27.3702596 447.512943,28.3430831 447.238123,29.5591124 C446.966781,30.7717638 446.737185,31.7141865 446.559769,32.3762469 C446.375396,33.0383073 446.100575,33.9874858 445.738786,35.2271601 C444.329897,39.7332243 443.849831,42.3375537 444.305546,43.0469041 C444.350769,43.1347285 444.465568,43.2022857 444.646462,43.2461978 C445.422221,43.4218465 446.340608,42.8476105 447.41206,41.5201118 C448.480033,40.195991 449.447123,38.63542 450.313329,36.8485325 C451.176056,35.0582671 451.812665,33.4166276 452.223157,31.9101024 C452.313604,31.511515 452.539722,31.2142634 452.90499,31.0183475 C453.270257,30.8190539 453.451152,30.7177181 453.451152,30.7177181 C453.451152,30.7177181 453.656397,30.7717638 454.066889,30.886611 C454.47738,30.9947025 454.783509,31.2142634 454.988755,31.5486714 C455.194,31.8763238 455.225309,32.2411326 455.089638,32.63972 C455.044414,32.903193 454.894829,33.4031161 454.644359,34.1293559 C454.397369,34.8589734 453.941654,35.9635334 453.280694,37.4464136 C452.619733,38.9259159 451.903113,40.2736817 451.130833,41.4863332 C450.355074,42.7057404 449.412335,43.7866553 448.299139,44.7358337 C447.182463,45.6850122 446.055352,46.1612903 444.917804,46.1612903 C444.601238,46.1612903 444.305546,46.1376453 444.034204,46.0937331 C442.983625,45.8741723 442.211344,45.3438484 441.710406,44.5061393 C441.393841,44.0163497 441.199031,43.4319801 441.132935,42.7462747 C441.06336,42.0639471 441.11902,41.2228602 441.299915,40.2297696 C441.484288,39.2333011 441.675619,38.371947 441.880864,37.6457073 C442.08611,36.9160897 442.41659,35.8182855 442.872305,34.3624281 C443.324541,32.7714565 443.689809,31.4574692 443.964629,30.4204665 C444.235971,29.3800858 444.465568,28.2890373 444.646462,27.1371873 C444.827357,25.9887152 444.87258,25.0631818 444.782133,24.3572092 C444.691686,23.6478588 444.441216,23.019577 444.034204,22.4656081 C443.623713,21.915017 443.032327,21.506296 442.256568,21.2394452 C441.393841,21.0198843 440.437187,21.1752658 439.390087,21.7055897 C436.614053,23.2053592 434.453755,26.8298021 432.905716,32.5755406 L429.562648,44.9655282 C429.33653,45.6748786 428.832112,46.0295538 428.059832,46.0295538 L427.718916,46.0295538 C427.308424,45.8978173 427.002295,45.664745 426.79705,45.3337148 C426.591804,44.9993068 426.536144,44.6378758 426.626591,44.2392884 L426.866625,43.3644229 C426.501357,43.769766 426.13261,44.1751091 425.704726,44.5399179 C424.591529,45.4890963 423.440066,45.9619966 422.257295,45.9619966 C420.984076,45.9619966 419.982199,45.4992299 419.255142,44.5703186 C419.074248,44.3034678 418.914226,43.9960826 418.778555,43.6414074 C418.639406,43.3340222 418.402851,43.1448621 418.061935,43.0806827 C417.721018,43.0131256 417.435762,43.0908163 417.206165,43.3103772 C415.797275,44.6378758 414.364035,45.4992299 412.906443,45.8978173 C412.360281,46.0295538 411.83847,46.0937331 411.337531,46.0937331 C410.01561,46.0937331 408.881541,45.6546114 407.924888,44.7696123 C406.651669,43.5366937 406.01506,41.682249 405.914176,39.307614 C405.0758,40.3986625 404.150456,41.4289096 403.044216,42.3172866 C399.972489,44.7932573 396.845103,46.0295538 393.658577,46.0295538 C390.517275,46.0295538 387.970838,44.4149371 386.012308,41.1890816 C385.740966,40.7904942 385.365262,40.6249791 384.888675,40.6925363 C384.408609,40.7567156 384.10248,41.0168108 383.966809,41.4525546 L383.010156,44.9655282 C382.829261,45.6748786 382.352674,46.0295538 381.576915,46.0295538 L381.166424,46.0295538 C380.804635,45.8978173 380.508942,45.664745 380.279345,45.3337148 C380.053227,44.9993068 380.008003,44.6378758 380.143674,44.2392884 L380.912476,41.4153982 C380.81855,41.5437568 380.752454,41.658604 380.655049,41.7869627 C379.176585,43.7765217 377.708557,45.0567304 376.254444,45.6309664 C375.614355,45.9417295 374.977746,46.0937331 374.341137,46.0937331 C373.659304,46.0937331 373.022695,45.9417295 372.431309,45.6309664 C371.519879,45.1445547 370.848482,44.4385821 370.417119,43.5096709 C370.093596,42.8138319 369.964882,41.9423442 369.937053,40.98641 C369.88835,41.0674787 369.850084,41.1721923 369.80486,41.2566388 C369.098676,42.4929352 368.187247,43.5873616 367.07405,44.5399179 C365.957375,45.4890963 364.809391,45.9619966 363.626619,45.9619966 C362.3534,45.9619966 361.351523,45.4992299 360.624467,44.5703186 C360.440094,44.3034678 360.280072,43.9960826 360.144401,43.6414074 C360.00873,43.3340222 359.768697,43.1448621 359.427781,43.0806827 C359.086864,43.0131256 358.801607,43.0908163 358.575489,43.3103772 C357.163121,44.6378758 355.72988,45.4992299 354.275767,45.8978173 C353.729605,46.0295538 353.204316,46.0937331 352.703377,46.0937331 C351.384935,46.0937331 350.247387,45.6546114 349.290734,44.7696123 C348.017515,43.5366937 347.380906,41.682249 347.280022,39.307614 C346.441646,40.3986625 345.51978,41.4289096 344.410062,42.3172866 C341.341814,44.7932573 338.210948,46.0295538 335.027902,46.0295538 C331.8866,46.0295538 329.336684,44.4149371 327.381632,41.1890816 C327.106812,40.7904942 326.731108,40.6249791 326.254521,40.6925363 C325.777933,40.7567156 325.471804,41.0168108 325.336133,41.4525546 L324.37948,44.9655282 C324.195107,45.6748786 323.71852,46.0295538 322.942761,46.0295538 L322.535748,46.0295538 C322.17048,45.8978173 321.874788,45.664745 321.64867,45.3337148 C321.422551,44.9993068 321.373849,44.6378758 321.50952,44.2392884 L322.313109,41.2937952 C320.003226,43.4421137 317.529842,44.8945931 314.892957,45.6309664 C313.661484,45.9417295 312.454361,46.0937331 311.275068,46.0937331 C308.544258,46.0937331 306.335258,45.2762912 304.651548,43.6414074 C303.552267,42.5908932 302.88087,41.2735281 302.452985,39.7974036 C302.432113,39.8446936 302.421676,39.8886058 302.400804,39.9291401 C300.442274,44.0399947 298.212402,46.0937331 295.711188,46.0937331 L295.641613,46.0937331 C294.142276,46.0937331 293.004729,45.5870543 292.22897,44.5703186 C291.728031,43.9082582 291.397551,43.1043277 291.241008,42.1483936 C291.080986,41.1992152 291.136645,39.9865637 291.411466,38.5036835 C291.682807,37.0275591 291.957628,35.7676176 292.22897,34.7272369 C292.50379,33.6902342 292.935154,32.1330411 293.526539,30.0522798 C293.66221,29.616536 293.60655,29.1943036 293.356081,28.7957162 C293.105612,28.3971288 292.750781,28.1336558 292.298544,28.0019193 C291.20622,27.8228927 290.225216,27.5594197 289.362488,27.2047445 C288.906773,27.0290958 288.464973,27.0392294 288.030131,27.2385231 C287.598767,27.4378168 287.337862,27.7587134 287.247415,28.201213 C286.701253,30.3225085 286.315112,31.7783659 286.085516,32.5755406 C285.949845,33.0146623 285.678503,33.335559 285.268012,33.5348526 C285.184522,33.575387 285.094075,33.5686312 285.007106,33.5922763 C284.057411,36.6526167 282.565031,39.1995225 280.456915,41.1890816 C278.112245,43.4015794 275.597116,44.8810817 272.915008,45.6309664 C271.683534,45.9417295 270.476411,46.0937331 269.297119,46.0937331 C266.566308,46.0937331 264.357309,45.2762912 262.673599,43.6414074 C259.946267,41.0337001 259.285307,37.125517 260.694196,31.9101024 Z M210.980369,85.598416 C209.498569,78.778945 204.744459,75.0182073 196.71118,74.3162029 C196.172656,74.2727455 195.689012,74.4131464 195.263681,74.7440913 C194.838349,75.0716934 194.581092,75.4761816 194.48848,75.957556 C194.399297,76.395473 194.478189,76.7999612 194.725156,77.1710207 C194.972123,77.5420801 195.321992,77.792796 195.767905,77.9231682 C197.42807,78.3610852 199.043644,79.0630896 200.614627,80.0224956 C200.974786,80.2431255 201.197743,80.5606989 201.286925,80.9752158 C201.376107,81.3897326 201.286925,81.7708207 201.019378,82.1218229 C200.792992,82.4293677 200.480853,82.6031973 200.076102,82.6466547 C199.674781,82.693455 199.314621,82.6232546 198.999053,82.4527678 C194.646264,79.6948935 190.519861,79.5411211 186.616415,81.9914507 C184.640681,83.214944 183.12458,84.9331833 182.071541,87.1394827 C181.018502,89.349125 180.672063,91.5453958 181.028793,93.7349809 C181.340931,95.8343082 182.318508,97.646148 183.958093,99.1771861 C185.594247,100.708224 187.758636,101.84146 190.45126,102.586922 C193.277657,103.332383 196.083473,103.362469 198.865279,102.683865 C201.647085,102.005261 204.116752,100.664767 206.267421,98.6523543 C208.195133,96.8572288 209.587751,94.7946732 210.441845,92.4546586 C211.292508,90.1146441 211.474303,87.8281155 210.980369,85.598416 Z M183.285794,62.2484136 C183.172601,61.853954 183.203472,61.4828945 183.385267,61.1352352 C184.373134,59.253195 185.505065,57.6018133 186.78449,56.1810901 C188.063914,54.760367 189.3502,53.6538744 190.653635,52.8682981 C191.957071,52.0827218 193.301667,51.4709751 194.690855,51.0330581 C196.083473,50.5951411 197.397199,50.3979113 198.628602,50.4413687 C199.863436,50.4848261 201.063969,50.6151984 202.230201,50.8358283 C204.651847,51.447575 206.59328,52.5841535 208.051069,54.2455638 C209.508859,55.9069742 210.194878,57.7890144 210.105695,59.8883418 C209.9239,64.8291154 207.975607,68.589853 204.250526,71.1705548 L204.181924,71.2340695 C203.821764,71.494814 203.66741,71.849159 203.712001,72.2837332 C203.756592,72.7216502 203.979548,73.0258521 204.384299,73.2030246 C209.453978,75.3458093 212.616524,79.2803767 213.875368,85.0067266 C214.455054,87.7211435 214.256109,90.4857035 213.268242,93.3070925 C212.280375,96.1251386 210.620209,98.6088969 208.287746,100.751682 C204.473482,104.248332 200.01093,106 194.893231,106 C193.143883,106 191.415116,105.77937 189.710359,105.341453 C187.604282,104.773164 185.772612,104.021016 184.22564,103.078325 C182.678668,102.138976 181.502146,101.112712 180.692644,99.9961912 C179.886572,98.8830129 179.289735,97.8634351 178.908995,96.9474866 C178.528255,96.0281951 178.246987,95.0888464 178.068622,94.1260976 C177.663871,91.4150236 178.102923,88.7039496 179.382348,85.9928756 C180.658343,83.2818016 182.534604,81.1390168 185.000841,79.5645213 C186.033299,78.9093172 187.110348,78.4078855 188.231989,78.0568833 C188.859696,77.8797108 189.418801,77.5955662 189.912735,77.2011066 C190.406668,76.8099899 190.82171,76.3486727 191.157859,75.8238409 C191.494008,75.3023519 191.730684,74.7340627 191.864458,74.1189731 L194.354706,61.0683777 C194.443888,60.5870033 194.701145,60.2360011 195.129907,60.018714 C195.555239,59.7980841 195.97028,59.7780268 196.375031,59.9518565 C197.136512,60.2594012 197.42807,60.8042903 197.249705,61.5898666 L195.97028,68.4126805 C195.836506,69.1581423 196.038882,69.7832605 196.577407,70.2846921 C197.115931,70.7861238 197.764219,70.9499249 198.52913,70.7727523 C200.01093,70.3816356 201.310936,69.7698889 202.432576,68.9408552 C203.550787,68.1084786 204.39459,67.2794449 204.957125,66.4470683 C205.51623,65.6146917 205.975863,64.6987431 206.336023,63.689194 C206.692752,62.6863306 206.919139,61.9107829 207.008321,61.3625509 C207.097503,60.8176618 207.166105,60.2828014 207.210696,59.7579695 C207.255288,58.3573037 206.751064,57.0903529 205.694595,55.9504316 C204.641556,54.8138531 203.238648,54.0282768 201.4893,53.5903597 C199.65077,53.2393576 197.956304,53.2159574 196.409332,53.5235022 C194.85893,53.831047 193.41143,54.4728795 192.066834,55.4590285 C190.722237,56.4418346 189.552575,57.52827 188.568138,58.704963 C187.580271,59.8883418 186.726178,61.1552925 186.009288,62.512501 C185.830924,62.9036177 185.539366,63.1543335 185.134615,63.2646485 C184.733294,63.3749635 184.325113,63.3415347 183.923792,63.167705 C183.611653,62.950418 183.395557,62.6428732 183.285794,62.2484136 Z M191.521668,81.2356866 C191.877409,81.3012119 192.157898,81.4683016 192.359713,81.7467845 C192.561527,82.0285436 192.640201,82.3397892 192.592313,82.6805212 L190.916223,91.2938322 C190.78282,91.9785724 190.358667,92.3225806 189.640343,92.3225806 C189.551407,92.3225806 189.462472,92.302923 189.373537,92.2570553 C189.014374,92.21774 188.737307,92.0572029 188.532071,91.77872 C188.333677,91.5002371 188.255003,91.1889916 188.299471,90.8449834 L190.043972,82.2316723 C190.08844,81.8876641 190.256049,81.61901 190.546799,81.4289864 C190.83755,81.2356866 191.162506,81.1668849 191.521668,81.2356866 Z M278.609847,81.1431168 C279.337359,78.0007853 279.542733,75.5450989 279.222489,73.7726752 C278.905725,72.0070164 278.223465,70.96521 277.175708,70.6540211 L276.629204,70.6540211 C275.807707,70.6540211 274.899187,71.0328598 273.896682,71.7837722 C272.894177,72.5346845 271.846421,73.8301775 270.753412,75.6668685 C269.660403,77.5035596 268.772769,79.7021768 268.090509,82.2694853 C267.408249,85.1885726 267.122813,87.4243972 267.237683,88.9701943 C267.349073,90.5227563 267.725012,91.6288299 268.365501,92.2917976 C268.863273,92.7788759 269.545533,92.9107929 270.412282,92.6909312 C271.369535,92.4237146 272.33723,91.8385442 273.315369,90.9320374 C274.293507,90.0255306 275.275126,88.7063602 276.253265,86.9846737 C277.231403,85.2562223 278.018091,83.3112917 278.609847,81.1431168 Z M246.101541,78.8193474 C245.600289,79.7021768 245.589846,80.6019187 246.066732,81.505043 C246.543618,82.4149323 247.281573,82.9087756 248.287559,83.0001027 C249.878339,83.2199645 251.517852,82.6686189 253.202617,81.3426836 C254.887382,80.0133657 256.161398,78.3322691 257.028147,76.2960113 C257.891415,74.2631359 257.961033,72.7376338 257.233521,71.7161224 C256.732269,71.0971271 256.004757,70.8535879 255.047504,70.985505 C254.135503,71.1647768 253.136479,71.6180302 252.043471,72.3452652 C250.950462,73.0758826 249.867896,74.0195968 248.799254,75.1662603 C247.727131,76.3196887 246.829054,77.5373844 246.101541,78.8193474 Z M302.311427,79.9795409 C302.582938,78.941117 302.809198,77.8451909 302.990206,76.6951449 C303.174695,75.5450989 303.219946,74.6149147 303.129443,73.9079747 C303.038939,73.1976522 302.788312,72.5718919 302.377564,72.0171638 C301.966816,71.4658183 301.375059,71.0565372 300.602295,70.7859382 C299.735546,70.5660764 298.778293,70.7216709 297.734018,71.2527215 C294.956244,72.7579287 292.791112,76.3873385 291.245584,82.1375683 L287.89694,94.5479172 C287.67068,95.2582397 287.169427,95.6100184 286.393182,95.6100184 L286.055533,95.6100184 C285.644785,95.4781014 285.338464,95.2447097 285.13309,94.9132259 C284.924235,94.5817421 284.86854,94.2164333 284.962525,93.8172997 L285.202708,92.9412353 C284.837212,93.3471339 284.468234,93.756415 284.040081,94.1183412 C282.922706,95.0688203 281.774003,95.5457512 280.59049,95.5457512 C279.316474,95.5457512 278.313969,95.0789678 277.586457,94.1521661 C277.401968,93.8849495 277.241846,93.5771431 277.10609,93.2185993 C276.970334,92.9107929 276.73015,92.7247561 276.38902,92.6571063 C276.04789,92.592839 275.762455,92.6672538 275.536195,92.890498 C274.122942,94.2164333 272.688803,95.0789678 271.233779,95.4781014 C270.687275,95.6100184 270.161656,95.6776682 269.660403,95.6776682 C268.341135,95.6776682 267.202874,95.2345623 266.245621,94.3483504 C264.975086,93.1137422 264.334597,91.2567562 264.23365,88.8822496 C263.394749,89.9747932 262.472305,91.0030696 261.365373,91.8960465 C258.291721,94.3720278 255.162374,95.6100184 251.973852,95.6100184 C248.830582,95.6100184 246.282549,93.9965716 244.322792,90.7662955 C244.05128,90.3671619 243.675341,90.2014199 243.198455,90.2656872 C242.718088,90.333337 242.411767,90.5904061 242.276011,91.0301295 L241.318758,94.5479172 C241.13775,95.2582397 240.660864,95.6100184 239.884619,95.6100184 L239.473871,95.6100184 C239.111855,95.4781014 238.815977,95.2447097 238.586237,94.9132259 C238.394786,94.6290969 238.359977,94.3212905 238.429595,93.9898066 C238.064099,94.3212905 237.740373,94.7170416 237.322663,94.9808757 C236.525532,95.4882489 235.693593,95.7419355 234.830325,95.7419355 C233.507575,95.7419355 232.508551,95.302212 231.826291,94.4160001 C231.687054,94.2401108 231.572184,94.0608389 231.48168,93.8849495 C231.210169,93.4858159 230.834229,93.2422768 230.357343,93.1543321 C229.876976,93.0663874 229.455785,93.1780095 229.090289,93.4858159 C228.498532,93.9728942 227.906776,94.3923227 227.31502,94.747484 C226.131507,95.4104516 224.927109,95.7419355 223.698345,95.7419355 C223.148359,95.7419355 222.626221,95.6539908 222.124969,95.4781014 C219.984204,94.9030784 218.609241,93.3741938 217.993118,90.8982125 C217.380476,88.4188487 217.596293,85.2798997 218.640569,81.4746006 C219.232325,79.3503981 219.984204,76.5429329 220.896205,73.0420577 C221.442709,71.0565372 221.808205,69.703542 221.989213,68.9966019 C222.124969,68.553496 222.406924,68.2355421 222.842038,68.0325928 C223.277153,67.833026 223.698345,67.8431735 224.105612,68.0664177 C224.833124,68.421579 225.087231,68.9966019 224.857491,69.7948691 C224.766987,70.2345926 224.425857,71.5639104 223.8341,73.7726752 C222.876848,77.3581126 222.104084,80.1689602 221.512327,82.2018356 C220.781334,84.5492823 220.520265,86.7952544 220.72564,88.9397519 C220.931014,91.0842493 221.668969,92.3391524 222.946466,92.6909312 C223.809734,92.9547653 224.766987,92.7991708 225.814744,92.2241478 C228.589036,90.6749683 230.754168,87.0726184 232.303177,81.4069508 L232.369315,81.2750338 C232.644307,80.0810155 233.142079,78.2003521 233.873072,75.6330436 C234.645836,72.7579287 235.216707,70.5897538 235.582203,69.128519 C235.672707,68.685413 235.933776,68.3674592 236.36541,68.1678924 C236.797044,67.9649431 237.242602,67.978473 237.698602,68.2017172 C238.426114,68.5095237 238.67674,69.0642517 238.450481,69.8591364 C238.084984,71.3203713 237.514113,73.4851637 236.741349,76.3636611 C236.330601,77.8654858 236.02428,79.0290617 235.818906,79.8476238 C235.613531,80.6661859 235.328096,81.7722596 234.96608,83.1658447 C234.600584,84.5594298 234.353439,85.6553559 234.214202,86.4502406 C234.078446,87.2485078 233.953133,88.1211898 233.838263,89.0750514 C233.723392,90.0255306 233.692064,90.7899729 233.737316,91.3616134 C233.782568,91.9366364 233.918324,92.3560649 234.148064,92.6266639 C234.28382,92.7991708 234.51008,92.890498 234.830325,92.890498 C236.013837,92.890498 237.253044,91.5950051 238.551427,89.0074016 C239.84981,86.4197982 240.727002,83.9505819 241.183002,81.6065176 C241.270025,81.2107665 241.489323,80.8995776 241.830453,80.6763334 C241.934881,80.6120661 241.994057,80.5714763 242.067156,80.5241214 L248.55907,56.6505203 C248.649574,56.2547692 248.875834,55.9537278 249.241331,55.754161 C249.606827,55.5579767 249.993209,55.5140043 250.403958,55.6222439 C250.814706,55.733866 251.121027,55.9537278 251.326401,56.2852116 C251.531776,56.6166954 251.563104,56.9820041 251.427348,57.3811377 L248.353696,68.6651181 C248.21794,69.1961687 248.388505,69.6291272 248.865391,69.9572286 C249.345758,70.2887124 249.833087,70.3022424 250.334339,69.9910534 C251.789364,68.9729245 253.17825,68.3573117 254.501,68.130685 C256.732269,67.7349339 258.4414,68.3776066 259.624913,70.0587032 C260.853677,72.0070164 260.965067,74.3172557 259.966043,76.9928039 C258.963538,79.668352 257.324025,81.8940291 255.047504,83.6630704 C252.586494,85.5234389 250.108079,86.2540563 247.601818,85.8549227 C247.100565,85.7635955 246.668931,85.9327199 246.303435,86.3521485 C245.941419,86.771577 245.871801,87.2248304 246.101541,87.7119087 C246.73855,89.2610883 247.577451,90.4889314 248.628689,91.3954383 C249.672965,92.3053276 250.79034,92.758581 251.973852,92.758581 C254.476633,92.758581 256.993338,91.7066272 259.520485,89.6027196 C262.047633,87.5021944 263.74284,84.7928214 264.609589,81.4746006 C264.700093,81.1194394 264.905468,80.8319279 265.225712,80.6120661 C265.337102,80.5342689 265.451972,80.4970615 265.566842,80.4497067 C266.865225,76.1099745 268.612647,72.7883711 270.85784,70.5897538 C273.294483,68.2017172 275.647585,67.2918279 277.927587,67.8668509 C278.971862,68.130685 279.883863,68.7293854 280.656627,69.6595696 C280.886368,69.9267862 281.171804,70.0248783 281.512934,69.9572286 C281.854064,69.8929613 282.069881,69.703542 282.160385,69.3923531 C282.205637,69.260436 282.250888,69.0879291 282.299621,68.8613024 C282.435377,68.4655513 282.682522,68.1678924 283.048019,67.9649431 C283.413516,67.7687588 283.799898,67.7349339 284.210646,67.8668509 C284.621395,67.9987679 284.917273,68.2456896 285.09828,68.5974683 C285.279288,68.9526296 285.303655,69.3280858 285.164418,69.7272194 C284.75715,71.1884542 284.095776,73.3329517 283.183775,76.1640943 C282.731255,77.6253291 282.386644,78.7516977 282.160385,79.5465824 C281.934125,80.3448496 281.61388,81.4306283 281.206613,82.8005359 C280.795864,84.1738261 280.496505,85.2798997 280.315497,86.1221393 C280.13449,86.9609963 279.963924,87.8539732 279.803802,88.8078348 C279.64368,89.758314 279.587985,90.5329038 279.633237,91.1282217 C279.678489,91.7269221 279.793359,92.1598806 279.974367,92.4237146 C280.113604,92.5556317 280.315497,92.6266639 280.59049,92.6266639 C281.774003,92.6266639 283.072385,91.3413184 284.482158,88.77401 C285.895411,86.210084 286.873549,83.7510151 287.420054,81.4069508 C287.510558,81.0078172 287.715932,80.7000108 288.036176,80.4801491 C288.234589,80.3414671 288.457368,80.2738173 288.690589,80.23661 L291.72247,68.9966019 C291.812974,68.7293854 291.952211,68.5095237 292.133218,68.3336343 C292.314226,68.1543624 292.530043,68.0325928 292.780669,67.9649431 C293.031296,67.9006758 293.292365,67.8905283 293.567357,67.9345007 C294.204365,68.1103901 294.566381,68.5095237 294.660366,69.128519 C294.660366,69.260436 294.761313,69.3416157 294.966687,69.3619107 C295.172061,69.3822056 295.342626,69.3280858 295.478382,69.1961687 C295.753375,69.0202794 296.024886,68.8613024 296.299879,68.7293854 C298.075148,67.7586113 299.805165,67.5387496 301.48993,68.0664177 C302.447182,68.3336343 303.254756,68.7530628 303.91613,69.3280858 C304.574024,69.9031088 305.075276,70.5119566 305.416407,71.1546294 C305.757537,71.7939196 305.962911,72.6158642 306.032529,73.6069332 C306.098667,74.6013848 306.10911,75.4673017 306.067338,76.1979191 C306.022087,76.9285366 305.861964,77.8993107 305.586972,79.1170064 C305.31546,80.3347021 305.085719,81.2750338 304.904711,81.9380015 C304.720223,82.6043516 304.448711,83.5548308 304.083214,84.7928214 C302.673442,89.3050606 302.193075,91.9163414 302.649076,92.6266639 C302.694328,92.7146086 302.809198,92.7788759 302.990206,92.8228482 C303.766451,93.0021201 304.688894,92.4237146 305.757537,91.0943968 C306.826179,89.771844 307.793874,88.2091344 308.660623,86.4197982 C309.523891,84.623697 310.164381,82.9798078 310.575129,81.4746006 C310.662152,81.0720845 310.891893,80.7778081 311.257389,80.5782413 C311.619405,80.3786745 311.803894,80.2771998 311.803894,80.2771998 C311.803894,80.2771998 312.009268,80.3347021 312.416535,80.4463242 C312.827284,80.5545638 313.133605,80.7778081 313.338979,81.1092919 C313.544353,81.4407757 313.579162,81.802702 313.443407,82.2018356 C313.398155,82.4690521 313.248475,82.9662779 312.997849,83.6968953 C312.747223,84.4275127 312.291222,85.5335863 311.633328,87.0151161 C310.971954,88.5000284 310.254884,89.8462587 309.48212,91.0639544 C308.705875,92.2816501 307.762546,93.3640463 306.645171,94.317908 C305.527796,95.2683871 304.403459,95.7419355 303.265198,95.7419355 C302.944954,95.7419355 302.649076,95.7216406 302.377564,95.6776682 C301.329807,95.454424 300.557043,94.9233734 300.055791,94.0845163 C299.735546,93.597438 299.544096,93.0122676 299.474477,92.3256225 C299.40834,91.6423599 299.464035,90.7967379 299.645042,89.8056688 C299.82605,88.8078348 300.020982,87.9453004 300.226356,87.2146829 C300.43173,86.4840655 300.758937,85.3881394 301.218418,83.9269045 C301.670937,82.3371351 302.036434,81.0213472 302.311427,79.9795409 Z M548.10719,81.1630175 C548.834248,78.0249695 549.039494,75.5726307 548.71945,73.802623 C548.402884,72.0393711 547.721049,70.998985 546.673946,70.6882203 L546.127783,70.6882203 C545.306799,70.6882203 544.398846,71.0665425 543.396966,71.8164312 C542.395087,72.56632 541.347984,73.8600469 540.255658,75.6942343 C539.163331,77.5284216 538.276251,79.7240418 537.594416,82.2878506 C536.912582,85.2029586 536.627325,87.4357354 536.742123,88.9794253 C536.853443,90.529871 537.229148,91.6344368 537.869237,92.2965007 C538.366698,92.7829151 539.048533,92.9146523 539.914741,92.6950902 C540.871396,92.4282379 541.838488,91.8438652 542.816016,90.9385941 C543.793544,90.033323 544.77455,88.7159509 545.752078,86.9966114 C546.729606,85.2705161 547.515803,83.3282368 548.10719,81.1630175 Z M515.615692,78.8424158 C515.114752,79.7240418 515.104316,80.6225571 515.580904,81.5244503 C516.060971,82.4330993 516.798466,82.9262694 517.800345,83.0174721 C519.393611,83.2370341 521.032101,82.6864401 522.715815,81.3623122 C524.399528,80.0348065 525.67275,78.3560015 526.535479,76.3225194 C527.401687,74.2924152 527.467783,72.7689926 526.740725,71.7488737 C526.239786,71.1307222 525.512727,70.887515 524.556072,71.0192522 C523.648119,71.1982797 522.64624,71.6509153 521.553913,72.3771589 C520.461587,73.1067803 519.379696,74.0492081 518.311721,75.1943084 C517.240267,76.3461646 516.34275,77.5622004 515.615692,78.8424158 Z M492.273299,78.8424158 C491.772359,79.7240418 491.761923,80.6225571 492.238511,81.5244503 C492.715099,82.4330993 493.456073,82.9262694 494.457952,83.0174721 C496.047739,83.2370341 497.686229,82.6864401 499.369943,81.3623122 C501.053656,80.0348065 502.326878,78.3560015 503.193086,76.3225194 C504.055815,74.2924152 504.12539,72.7689926 503.398332,71.7488737 C502.897392,71.1307222 502.170334,70.887515 501.213679,71.0192522 C500.302247,71.1982797 499.303846,71.6509153 498.21152,72.3771589 C497.119193,73.1067803 496.037303,74.0492081 494.969328,75.1943084 C493.897873,76.3461646 493.000357,77.5622004 492.273299,78.8424158 Z M478.417449,81.1630175 C479.144507,78.0249695 479.346274,75.5726307 479.029708,73.802623 C478.713142,72.0393711 478.027829,70.998985 476.984205,70.6882203 L476.434563,70.6882203 C475.617057,70.6882203 474.705626,71.0665425 473.707225,71.8164312 C472.705346,72.56632 471.658243,73.8600469 470.565916,75.6942343 C469.47359,77.5284216 468.586509,79.7240418 467.904675,82.2878506 C467.22284,85.2029586 466.937583,87.4357354 467.052382,88.9794253 C467.163702,90.529871 467.539406,91.6344368 468.176017,92.2965007 C468.676957,92.7829151 469.358791,92.9146523 470.224999,92.6950902 C471.181655,92.4282379 472.148746,91.8438652 473.126274,90.9385941 C474.103802,90.033323 475.08133,88.7159509 476.062337,86.9966114 C477.039865,85.2705161 477.822583,83.3282368 478.417449,81.1630175 Z M392.141041,79.8355117 C391.730549,80.98399 392.026242,81.9365513 393.028122,82.6864401 C394.802283,84.0139458 396.461645,84.3652451 398.009687,83.7470935 C399.376835,83.2133889 400.580482,82.0581549 401.627584,80.2645021 C402.674687,78.4776051 403.130403,76.5893717 402.994732,74.5998021 C402.855582,72.4784952 401.968502,71.2219248 400.333491,70.8199575 C399.102014,70.4686582 397.713994,71.107077 396.165951,72.7453475 C394.572685,74.4241524 393.229889,76.7852886 392.141041,79.8355117 Z M434.115604,79.8355117 C433.708591,80.98399 434.004284,81.9365513 435.006163,82.6864401 C436.780324,84.0139458 438.439687,84.3652451 439.987729,83.7470935 C441.354877,83.2133889 442.558523,82.0581549 443.605626,80.2645021 C444.652729,78.4776051 445.108445,76.5893717 444.972774,74.5998021 C444.833624,72.4784952 443.946543,71.2219248 442.308053,70.8199575 C441.080056,70.4686582 439.692036,71.107077 438.143993,72.7453475 C436.550727,74.4241524 435.207931,76.7852886 434.115604,79.8355117 Z M582.81465,81.1292387 C583.019896,81.4602707 583.054684,81.8217035 582.919013,82.220293 C582.873789,82.4871453 582.724203,82.9836933 582.473733,83.7133148 C582.223263,84.4429362 581.767547,85.5475021 581.110064,87.0270123 C580.449102,88.5099004 579.73248,89.8542955 578.960198,91.0703313 C578.184438,92.2863671 577.241697,93.3672878 576.125019,94.3198492 C575.008342,95.2690327 573.884706,95.7419355 572.747156,95.7419355 C572.427111,95.7419355 572.131418,95.7216682 571.860075,95.6777558 C570.812973,95.4548159 570.040691,94.9244892 569.539751,94.0867757 C569.219706,93.6003613 569.028375,93.0159886 568.9588,92.3302795 C568.892704,91.6479483 568.948364,90.803479 569.129259,89.813761 C569.310154,88.8172872 569.504964,87.9559285 569.71021,87.226307 C569.915456,86.4966856 570.242458,85.4022534 570.701653,83.9430104 C571.15389,82.3554081 571.519158,81.0414139 571.793979,80.0010277 C572.065322,78.9640194 572.29144,77.8695872 572.472335,76.7211089 C572.656709,75.5726307 572.701932,74.6437145 572.611485,73.9377381 C572.521037,73.2283839 572.270568,72.6034766 571.860075,72.0495048 C571.449583,71.4989108 570.858196,71.0901876 570.085914,70.8199575 C569.219706,70.6003954 568.263051,70.7557778 567.219427,71.2861045 C564.443387,72.7892599 562.279606,76.4137221 560.735042,82.1561134 L557.388487,94.5495448 C557.162369,95.258899 556.661429,95.6101983 555.885669,95.6101983 L555.54823,95.6101983 C555.137738,95.4784611 554.831608,95.2453875 554.626362,94.9143556 C554.417637,94.5833236 554.361977,94.2185129 554.455904,93.8199234 L554.695937,92.9450532 C554.330669,93.3503984 553.961921,93.7591216 553.534036,94.1205544 C552.417358,95.0697379 551.269371,95.5460186 550.086597,95.5460186 C548.813376,95.5460186 547.811497,95.0798716 547.084438,94.1543332 C546.900065,93.8874809 546.740042,93.5800941 546.604371,93.2220391 C546.4687,92.9146523 546.228667,92.728869 545.887749,92.6613115 C545.546832,92.5971318 545.261575,92.6714451 545.035456,92.894385 C543.623085,94.2185129 542.189841,95.0798716 540.735725,95.4784611 C540.189562,95.6101983 539.664271,95.6777558 539.163331,95.6777558 C537.844886,95.6777558 536.707336,95.2352539 535.75068,94.3502501 C534.480938,93.113947 533.840848,91.2628703 533.739964,88.8882226 C532.901586,89.979277 531.979718,91.0095295 530.869998,91.9012891 C527.801743,94.3738952 524.670871,95.6101983 521.487817,95.6101983 C518.346508,95.6101983 515.796587,93.9989508 513.841531,90.7730781 C513.56671,90.3744886 513.191005,90.2089726 512.714417,90.2731523 C512.237828,90.3407098 511.931699,90.5974285 511.796027,91.0365525 L510.839372,94.5495448 C510.654998,95.258899 510.17841,95.6101983 509.406128,95.6101983 L508.995636,95.6101983 C508.630368,95.4784611 508.334674,95.2453875 508.108555,94.9143556 C507.882437,94.5833236 507.833734,94.2185129 507.969406,93.8199234 L508.828656,90.664986 C508.404249,91.0872207 508.000714,91.5162111 507.527605,91.9012891 C504.455871,94.3738952 501.328477,95.6101983 498.141945,95.6101983 C495.000636,95.6101983 492.454193,93.9989508 490.495659,90.7730781 C490.224316,90.3744886 489.848612,90.2089726 489.372023,90.2731523 C488.895435,90.3407098 488.585827,90.5974285 488.450155,91.0365525 L487.4935,94.5495448 C487.312605,95.258899 486.836017,95.6101983 486.060256,95.6101983 L485.649764,95.6101983 C485.287974,95.4784611 484.992281,95.2453875 484.766162,94.9143556 C484.536565,94.5833236 484.491341,94.2185129 484.627012,93.8199234 L484.811386,93.14097 C484.498299,93.4753799 484.199126,93.8165455 483.840815,94.1205544 C482.727616,95.0697379 481.576151,95.5460186 480.396856,95.5460186 C479.120156,95.5460186 478.118276,95.0798716 477.391218,94.1543332 C477.210323,93.8874809 477.050301,93.5800941 476.91463,93.2220391 C476.778959,92.9146523 476.538925,92.728869 476.198008,92.6613115 C475.857091,92.5971318 475.571834,92.6714451 475.342236,92.894385 C473.933344,94.2185129 472.5001,95.0798716 471.045984,95.4784611 C470.496341,95.6101983 469.974529,95.6777558 469.47359,95.6777558 C468.155145,95.6777558 467.017594,95.2352539 466.060939,94.3502501 C464.735536,93.0632789 464.11284,91.0872207 464.060659,88.5639464 C463.500581,89.4590839 462.86397,90.391378 462.136912,91.3675845 C460.658445,93.3571542 459.190413,94.6373696 457.732818,95.2116088 C457.096208,95.5223735 456.459597,95.6777558 455.822986,95.6777558 C455.141152,95.6777558 454.501062,95.5223735 453.913154,95.2116088 C453.001722,94.7285723 452.330324,94.022596 451.898959,93.0903019 C451.467595,92.1647635 451.293657,91.0027738 451.387583,89.6110884 C451.387583,89.5773096 451.394541,89.5536644 451.39802,89.5266414 C451.032751,89.952254 450.670962,90.3846222 450.260469,90.7730781 C447.915794,92.9822098 445.404138,94.4650979 442.718546,95.2116088 C441.490548,95.5223735 440.283423,95.6777558 439.100649,95.6777558 C436.369832,95.6777558 434.164306,94.8603095 432.480593,93.2220391 C431.37783,92.1748972 430.70991,90.8541472 430.282025,89.3813927 C430.261152,89.4253051 430.247237,89.4692175 430.226365,89.5131299 C428.271309,93.6206286 426.041432,95.6777558 423.536734,95.6777558 L423.470638,95.6777558 C421.967819,95.6777558 420.830269,95.1676964 420.057987,94.1543332 C419.553568,93.4888914 419.226566,92.6849566 419.066544,91.7323952 C418.906521,90.7832117 418.96566,89.567176 419.237002,88.0876657 C419.511823,86.6081555 419.783166,85.3482073 420.057987,84.311199 C420.329329,83.2708128 420.764172,81.7136114 421.352081,79.636217 C421.491231,79.1970929 421.432092,78.7748583 421.185101,78.3796466 C420.931152,77.9810571 420.579799,77.7142048 420.124083,77.5824676 C419.031756,77.406818 418.054228,77.1433436 417.191499,76.7852886 C416.735783,76.609639 416.290504,76.6197726 415.859139,76.8224453 C415.424296,77.0183621 415.16339,77.3392605 415.072942,77.7817624 C414.530258,79.9030693 414.140638,81.3623122 413.914519,82.1561134 C413.778848,82.5986153 413.504027,82.9195136 413.093535,83.1154305 C413.010045,83.1593429 412.919598,83.1525871 412.832629,83.1762323 C411.88641,86.2332112 410.390548,88.7868863 408.282428,90.7730781 C405.937752,92.9822098 403.426097,94.4650979 400.740504,95.2116088 C399.512506,95.5223735 398.305381,95.6777558 397.122607,95.6777558 C394.39179,95.6777558 392.186265,94.8603095 390.502551,93.2220391 C387.771735,90.6176958 387.114251,86.7094918 388.523144,81.4940494 L388.523144,81.4264919 C389.796365,76.7852886 391.61575,73.2283839 393.981298,70.7557778 C396.346846,68.2831717 398.736746,67.3542554 401.150996,67.972407 C402.559889,68.3709965 403.687003,69.1242631 404.52886,70.2254511 C405.370716,71.3300169 405.86122,72.7217023 405.996891,74.4005073 C406.177786,77.0960533 405.562047,79.5923046 404.153155,81.8926389 C402.740784,84.1895954 401.081421,85.7130181 399.171589,86.4629068 C396.896488,87.3479106 394.617909,87.1047035 392.346287,85.7366632 C391.981019,85.5610136 391.636623,85.5610136 391.320057,85.7366632 C391.000012,85.9123128 390.843468,86.1994324 390.843468,86.594644 C390.888692,88.5842137 391.480079,90.1076363 392.617629,91.1716676 C394.346567,92.8504726 396.78169,93.2456842 399.91952,92.3606804 C402.149397,91.7898192 404.233166,90.5737834 406.167349,88.7159509 C408.101533,86.8614963 409.454765,84.4564477 410.227047,81.4940494 C410.320974,81.092082 410.522741,80.7982067 410.842786,80.598912 C410.964542,80.5245987 411.128043,80.5482438 411.263714,80.5110872 C411.576801,79.2916735 412.070783,77.4473525 412.752618,74.930834 C412.936991,74.2248577 412.867416,73.5391486 412.547372,72.8770847 C411.77509,71.4178417 411.615067,69.6951244 412.070783,67.7089326 C412.66217,65.0539211 413.66405,63.5068533 415.072942,63.0677293 C415.845224,62.8447894 416.530537,63.0001717 417.121924,63.5304985 C418.029877,64.3715899 418.235123,65.7193629 417.734184,67.5771953 C417.643736,67.8406698 417.302819,69.1647976 416.711432,71.5495789 L416.641857,71.6813161 C416.55141,72.1238181 416.596633,72.5460527 416.781007,72.9412643 C416.961902,73.3432317 417.257595,73.6303513 417.668087,73.802623 C419.21613,74.5558897 421.261633,74.9983916 423.811555,75.1301288 C424.082897,75.1774191 424.288143,75.2415987 424.423814,75.3260457 C425.154351,75.6841006 425.415257,76.2346946 425.210011,76.9879612 C425.004765,77.73785 424.674284,78.8863282 424.222047,80.433396 C423.947226,81.4940494 423.731544,82.3013621 423.571521,82.8519561 C423.411499,83.4059279 423.195817,84.1794618 422.924474,85.1725577 C422.653132,86.1656536 422.454844,86.9729663 422.343524,87.5911178 C422.228725,88.2092693 422.127841,88.8713332 422.037394,89.5773096 C421.943468,90.2866638 421.933031,90.8710366 422.002606,91.3371836 C422.072181,91.7965749 422.207852,92.1546299 422.413099,92.3944592 C422.618345,92.6376663 422.994049,92.7626478 423.536734,92.7626478 C424.764732,92.7626478 426.086656,91.2797597 427.499027,88.3207393 C428.633098,85.9798704 429.408859,83.7031811 429.819351,81.4940494 C429.90632,81.230575 430.055906,80.9941236 430.261152,80.7982067 C430.414217,80.6495801 430.609027,80.571889 430.800358,80.5009535 C432.056186,76.3292752 433.760772,73.0561122 435.95934,70.7557778 C438.324888,68.2831717 440.714787,67.3542554 443.129038,67.972407 C444.53793,68.3709965 445.665044,69.1242631 446.506901,70.2254511 C447.348758,71.3300169 447.839261,72.7217023 447.974933,74.4005073 C448.155827,77.0960533 447.540089,79.5923046 446.131197,81.8926389 C444.718825,84.1895954 443.059463,85.7130181 441.146152,86.4629068 C438.87453,87.3479106 436.595951,87.1047035 434.324329,85.7366632 C433.95906,85.5610136 433.614664,85.5610136 433.298098,85.7366632 C432.978054,85.9123128 432.82151,86.1994324 432.82151,86.594644 C432.866734,88.5842137 433.458121,90.1076363 434.595671,91.1716676 C436.324608,92.8504726 438.759731,93.2456842 441.897561,92.3606804 C444.127438,91.7898192 446.207729,90.5737834 448.145391,88.7159509 C450.079575,86.8614963 451.432807,84.4564477 452.205089,81.4940494 C452.295536,81.092082 452.500783,80.7982067 452.820827,80.598912 C452.914753,80.5381102 453.03651,80.5685111 453.137393,80.5313544 C453.627897,78.7748583 454.28538,76.3394088 455.141152,73.1405591 C455.958657,70.0025112 456.595268,67.5974626 457.050984,65.9152798 C457.186655,65.4761557 457.106644,65.0674326 456.81095,64.6924882 C456.515257,64.3175438 456.11868,64.1283827 455.61774,64.1283827 L452.681677,64.1283827 C452.22944,64.1283827 451.853736,63.9730004 451.558042,63.6622357 C451.262349,63.3582267 451.137114,62.9799045 451.182337,62.5374026 C451.227561,62.1861033 451.39802,61.8753386 451.693713,61.6084863 C451.989407,61.3450119 452.34076,61.2132747 452.751252,61.2132747 L457.186655,61.2132747 C457.962416,61.2132747 458.439004,60.8585976 458.619899,60.1492434 C458.985167,58.8690279 459.326084,57.7002824 459.646129,56.6362511 C459.7818,56.2410394 460.03227,55.9404084 460.397539,55.7444915 C460.759328,55.5451967 461.145469,55.511418 461.555961,55.6431552 C461.966453,55.7748924 462.248232,56.0214774 462.411733,56.3727767 C462.568277,56.7274538 462.603064,57.1023981 462.512617,57.5009876 C462.331722,58.1191392 462.147348,58.757558 461.966453,59.4196219 C461.830782,59.8621238 461.907315,60.2708469 462.206487,60.6491692 C462.502181,61.0241136 462.898758,61.2132747 463.399697,61.2132747 L466.33576,61.2132747 C466.742773,61.2132747 467.108042,61.368657 467.428086,61.672666 C467.744652,61.9834307 467.880324,62.3617529 467.8351,62.800877 C467.789876,63.0677293 467.699429,63.3008028 467.563758,63.5000976 C467.428086,63.6960144 467.233277,63.8513968 466.982807,63.9628667 C466.732337,64.0709588 466.495782,64.1283827 466.266185,64.1283827 L461.761207,64.1283827 C461.034149,64.1283827 460.557561,64.4830598 460.327964,65.1890362 C459.7818,67.2225182 459.009518,70.1139811 458.007639,73.8701806 C457.050984,77.5385552 456.323926,80.321926 455.822986,82.220293 C454.094049,88.4524765 453.913154,91.9215564 455.276823,92.6309106 C455.638612,92.8031823 456.073456,92.7829151 456.574395,92.5599752 C458.028512,91.9418236 459.566118,90.2866638 461.180257,87.5911178 C462.797874,84.8955718 463.810189,82.8418224 464.217203,81.4264919 C464.311129,81.0751927 464.537248,80.7982067 464.902516,80.598912 C465.062538,80.5110872 465.229518,80.460419 465.396498,80.4266402 C466.690592,76.1164689 468.433444,72.812905 470.670279,70.6240406 C473.101923,68.2392593 475.457035,67.3306103 477.735614,67.9048494 C478.779238,68.1683239 479.69067,68.7662081 480.462952,69.6951244 C480.692549,69.9619767 480.977807,70.0599351 481.318724,69.9923775 C481.656162,69.9281979 481.871845,69.7390368 481.965771,69.4282721 C482.010994,69.2965348 482.056218,69.1242631 482.101442,68.8979453 C482.237113,68.5027337 482.487583,68.2054805 482.852851,68.0028079 C483.21812,67.806891 483.604261,67.7731122 484.014753,67.9048494 C484.421766,68.0365866 484.71746,68.2831717 484.901833,68.6344709 C485.082728,68.989148 485.107079,69.3640924 484.96793,69.7626819 C484.557437,71.2219248 483.899954,73.363499 482.988522,76.1907822 C482.532807,77.6500252 482.191889,78.7748583 481.965771,79.5686594 C481.736173,80.3658384 481.419607,81.450137 481.009115,82.8181773 C480.602102,84.1895954 480.30293,85.2941613 480.122035,86.1352527 C479.94114,86.9729663 479.767203,87.8647258 479.610659,88.8172872 C479.450637,89.7664707 479.394977,90.5400046 479.4402,91.134511 C479.485424,91.7323952 479.600223,92.1647635 479.781118,92.4282379 C479.916789,92.5599752 480.122035,92.6309106 480.396856,92.6309106 C481.576151,92.6309106 482.877203,91.3473172 484.286095,88.7835084 C485.698466,86.2230775 486.675994,83.7673608 487.222158,81.4264919 C487.312605,81.0279024 487.517851,80.7205156 487.834417,80.5009535 C487.984003,80.3962393 488.144026,80.3286818 488.311006,80.2813915 L494.729294,56.7038086 C494.819741,56.308597 495.049339,56.0079659 495.411128,55.8086712 C495.776397,55.6127543 496.162538,55.5688419 496.57303,55.676934 C496.983522,55.7884039 497.289652,56.0079659 497.494898,56.3389979 C497.700144,56.6700298 497.734932,57.0348406 497.595782,57.4334301 L494.524048,68.7020285 C494.388377,69.2323552 494.558835,69.6647235 495.035424,69.9923775 C495.515491,70.3234095 496.002515,70.336921 496.503455,70.0261563 C497.957571,69.0094153 499.345591,68.3946416 500.667515,68.1683239 C502.897392,67.7731122 504.605457,68.4149089 505.788231,70.0937139 C507.016229,72.0393711 507.127549,74.3464613 506.129148,77.0183621 C505.127269,79.690263 503.488779,81.9129062 501.213679,83.679536 C498.754204,85.5373684 496.277336,86.2669899 493.772639,85.8684004 C493.271699,85.7771977 492.840334,85.9460916 492.475066,86.3649484 C492.113276,86.7838051 492.043701,87.2364407 492.273299,87.722855 C492.909909,89.2699228 493.751766,90.4960922 494.798869,91.4013633 C495.845972,92.3100122 496.959171,92.7626478 498.141945,92.7626478 C500.643164,92.7626478 503.158298,91.712128 505.683869,89.6110884 C508.209439,87.5134266 509.907068,84.807747 510.769797,81.4940494 C510.860244,81.1393723 511.065491,80.8522528 511.385535,80.6326907 C511.448153,80.5854005 511.517728,80.571889 511.587303,80.5347323 L518.075166,56.7038086 C518.165613,56.308597 518.391732,56.0079659 518.753522,55.8086712 C519.11879,55.6127543 519.504931,55.5688419 519.915423,55.676934 C520.325915,55.7884039 520.632045,56.0079659 520.837291,56.3389979 C521.042537,56.6700298 521.077325,57.0348406 520.938175,57.4334301 L517.86992,68.7020285 C517.734249,69.2323552 517.901229,69.6647235 518.381296,69.9923775 C518.857884,70.3234095 519.344909,70.336921 519.845848,70.0261563 C521.303443,69.0094153 522.691463,68.3946416 524.013387,68.1683239 C526.239786,67.7731122 527.94785,68.4149089 529.130624,70.0937139 C530.358622,72.0393711 530.473421,74.3464613 529.471542,77.0183621 C528.469662,79.690263 526.831173,81.9129062 524.556072,83.679536 C522.100076,85.5373684 519.61973,86.2669899 517.118511,85.8684004 C516.617571,85.7771977 516.186206,85.9460916 515.820938,86.3649484 C515.455669,86.7838051 515.389573,87.2364407 515.615692,87.722855 C516.252303,89.2699228 517.094159,90.4960922 518.141262,91.4013633 C519.188365,92.3100122 520.301564,92.7626478 521.487817,92.7626478 C523.989036,92.7626478 526.50417,91.712128 529.029741,89.6110884 C531.555311,87.5134266 533.249461,84.807747 534.115669,81.4940494 C534.202638,81.1393723 534.407884,80.8522528 534.727929,80.6326907 C534.839248,80.5549996 534.957526,80.514465 535.072325,80.4705526 C536.369897,76.1367362 538.116228,72.8196608 540.36002,70.6240406 C542.795143,68.2392593 545.146776,67.3306103 547.425356,67.9048494 C548.46898,68.1683239 549.380412,68.7662081 550.152693,69.6951244 C550.382291,69.9619767 550.667548,70.0599351 551.008465,69.9923775 C551.349382,69.9281979 551.565065,69.7390368 551.655512,69.4282721 C551.700736,69.2965348 551.74596,69.1242631 551.794662,68.8979453 C551.930333,68.5027337 552.177324,68.2054805 552.542593,68.0028079 C552.907861,67.806891 553.294002,67.7731122 553.704494,67.9048494 C554.114986,68.0365866 554.41068,68.2831717 554.591575,68.6344709 C554.77247,68.989148 554.796821,69.3640924 554.657671,69.7626819 C554.250657,71.2219248 553.589696,73.363499 552.678264,76.1907822 C552.226027,77.6500252 551.881631,78.7748583 551.655512,79.5686594 C551.429394,80.3658384 551.109349,81.450137 550.702335,82.8181773 C550.291843,84.1895954 549.992671,85.2941613 549.811776,86.1352527 C549.630881,86.9729663 549.460423,87.8647258 549.3004,88.8172872 C549.140378,89.7664707 549.084718,90.5400046 549.129942,91.134511 C549.175165,91.7323952 549.289964,92.1647635 549.470859,92.4282379 C549.610009,92.5599752 549.811776,92.6309106 550.086597,92.6309106 C551.269371,92.6309106 552.566944,91.3473172 553.975836,88.7835084 C555.388208,86.2230775 556.365736,83.7673608 556.911899,81.4264919 C557.002346,81.0279024 557.207593,80.7205156 557.527637,80.5009535 C557.725926,80.3624606 557.948566,80.294903 558.181642,80.2577464 L561.211631,69.0330604 C561.302078,68.7662081 561.441228,68.5466461 561.622123,68.3709965 C561.803018,68.191969 562.0187,68.0703654 562.26917,68.0028079 C562.519639,67.9386282 562.780545,67.9284946 563.055366,67.972407 C563.691977,68.1480566 564.053767,68.5466461 564.147693,69.1647976 C564.147693,69.2965348 564.248577,69.3776039 564.453823,69.3978712 C564.659069,69.4181384 564.829528,69.3640924 564.965199,69.2323552 C565.24002,69.0567056 565.511362,68.8979453 565.786183,68.7662081 C567.560344,67.7967574 569.289281,67.5771953 570.972995,68.1041442 C571.92965,68.3709965 572.73672,68.7898533 573.397682,69.3640924 C574.055165,69.9383315 574.556105,70.5463494 574.897022,71.1881461 C575.237939,71.8265649 575.443185,72.647389 575.51276,73.6371071 C575.578856,74.630203 575.589292,75.4949395 575.547547,76.224561 C575.502324,76.9541825 575.342301,77.9236332 575.06748,79.139669 C574.796138,80.3557048 574.566541,81.2947547 574.385646,81.9568186 C574.201272,82.6222604 573.92993,83.5714439 573.564662,84.807747 C572.155769,89.3138352 571.675702,91.9215564 572.131418,92.6309106 C572.176641,92.7187354 572.29144,92.7829151 572.472335,92.8268275 C573.248096,93.0058549 574.169964,92.4282379 575.237939,91.1007322 C576.305914,89.7799822 577.273006,88.2194029 578.139214,86.4325059 C579.001943,84.6388531 579.642033,82.9972048 580.052525,81.4940494 C580.139494,81.092082 580.369091,80.7982067 580.734359,80.598912 C581.096149,80.3996172 581.280523,80.2982809 581.280523,80.2982809 C581.280523,80.2982809 581.485769,80.3557048 581.892782,80.4671748 C582.303274,80.5752668 582.609404,80.7982067 582.81465,81.1292387 Z" id="Combined-Shape" fill="#522E32"></path>
                <g id="Group-21" transform="translate(48.000000, 50.000000)">
                    <path d="M318.841853,5.34724444 C318.706455,6.37287407 318.45649,7.59613333 318.091957,9.02383704 C318.272488,7.46324444 318.522453,6.23998519 318.841853,5.34724444 M533.214831,57.5793926 C476.77476,51.8719852 408.08292,50.1750963 339.07168,50.6316889 C339.279984,50.3454667 339.384136,50.0319852 339.345947,49.6742074 C339.300815,49.2721333 339.141114,48.9382074 338.870319,48.6724296 C336.915729,46.9312444 335.669375,43.6465037 335.12084,38.8079852 C334.579249,33.9728741 334.804912,28.2995407 335.804773,21.7913926 C335.985303,20.5476889 336.190136,19.3414667 336.415799,18.1829481 C336.506064,17.8728741 336.641462,17.5593926 336.825464,17.2459111 C340.321506,11.5419111 342.491343,7.69494815 343.331504,5.71183704 C344.171665,3.72872593 344.18208,2.3385037 343.366222,1.53435556 C342.592024,0.822207407 341.751863,0.597318519 340.845739,0.869911111 C339.526478,1.26857778 338.255821,2.87005926 337.030297,5.68117037 C335.985303,8.0425037 335.030575,11.0308 334.169583,14.6426519 C334.030714,15.1299111 333.919618,15.6205778 333.829353,16.1112444 C333.739088,16.4213185 333.600218,16.7348 333.419688,17.0482815 C333.055155,17.7161333 332.510092,18.6088741 331.784498,19.7230963 C326.969195,27.5226519 323.452323,33.403837 321.226938,37.3700593 C320.952671,37.8641333 320.546477,38.0515407 319.997942,37.9390963 C319.456351,37.8266519 319.157781,37.5063556 319.11612,36.9679852 C318.47732,30.5075407 318.067655,25.0045778 317.887124,20.4590963 L317.887124,20.121763 C317.841992,19.4982074 317.932257,18.8985037 318.161392,18.3192444 C319.522314,14.8402815 320.556892,11.6202815 321.261655,8.65583704 C321.962947,5.6948 322.067099,3.62991111 321.567168,2.47139259 C321.202636,1.58205926 320.567307,1.13568889 319.657712,1.13568889 C318.706455,1.13568889 317.887124,1.51391111 317.206664,2.27035556 C315.436076,4.18872593 314.641048,9.38161481 314.821578,17.8490222 C314.821578,18.3839852 314.731313,18.8985037 314.550783,19.385763 C312.641326,23.9789481 310.55481,28.125763 308.280821,31.8228 C306.010303,35.519837 303.764088,38.4399852 301.538703,40.579837 C297.948924,44.0145037 294.702847,45.1525778 291.797001,43.9906519 C290.345814,43.4113926 289.14112,42.4641333 288.186392,41.1488741 C287.235135,39.8336148 286.620637,38.1299111 286.349842,36.0343556 C286.075574,33.9422074 286.370672,31.5536148 287.235135,28.8788 C288.32179,25.491837 290.095849,22.7216148 292.546897,20.5579111 C294.997945,18.3942074 297.792696,17.671837 300.924205,18.3839852 C301.108207,18.4282815 301.299153,18.4282815 301.503985,18.3839852 C301.708818,18.3396889 301.903235,18.2613185 302.083766,18.1488741 C302.264296,18.039837 302.413581,17.8933185 302.528148,17.7161333 C302.639244,17.5355407 302.698264,17.3379111 302.698264,17.1130222 C302.743396,16.8915407 302.719094,16.6564296 302.628829,16.4110963 C302.538564,16.1691704 302.389279,15.9647259 302.187918,15.8079852 C301.983085,15.6512444 301.743535,15.5524296 301.47274,15.5081333 C297.567032,14.6596889 293.956423,15.6001333 290.640912,18.3192444 C287.780198,20.6805778 285.690211,23.9108 284.374422,28.0099111 C283.829359,29.7953926 283.509959,31.6115407 283.419693,33.461763 C283.329428,35.3119852 283.485656,37.1042815 283.895322,38.8420593 C284.304987,40.579837 285.086128,42.1540593 286.24569,43.5579111 C287.405251,44.9583556 288.891155,46.0214667 290.706875,46.7336148 C294.931982,48.3793926 299.35845,46.9073926 303.993222,42.3210222 C307.214997,39.107837 310.370808,34.5862074 313.460656,28.7459111 C313.68632,28.2995407 314.061267,28.125763 314.582028,28.2109481 C315.106261,28.2995407 315.390944,28.6130222 315.436076,29.1479852 C315.800609,33.8740593 316.3422,39.4008741 317.071266,45.731837 C317.116398,46.4439852 317.477459,46.8869481 318.161392,47.0641333 C318.932118,47.2447259 319.498012,46.9755407 319.862544,46.2633926 C322.178195,41.5407259 325.653406,35.3869481 330.284707,27.8122815 C330.558974,27.4102074 330.933922,27.2773185 331.40955,27.4102074 C331.885179,27.5430963 332.100427,27.8770222 332.058766,28.4153926 C331.874763,30.6881333 331.805329,32.8484296 331.853933,34.8996889 C332.02752,42.5459111 333.641879,47.7830963 336.669236,50.6453185 C170.789516,51.8549481 3.85438808,65.3993926 1.48318992,65.5970222 C0.768011554,65.6549481 0.23683539,66.2750963 0.295854964,66.9770222 C0.351402798,67.6448741 0.920768097,68.1491704 1.59081385,68.1491704 C1.62900298,68.1491704 1.66372038,68.1491704 1.70190951,68.145763 C5.06602521,67.8663556 340.44996,40.6513926 532.944036,60.1213185 C533.693932,60.2133185 534.301486,59.681763 534.374393,58.979837 C534.447299,58.2779111 533.93001,57.6543556 533.214831,57.5793926" id="Fill-19" fill="#522E32"></path>
                    <mask id="mask-2" fill="white">
                        <use xlink:href="#path-1"></use>
                    </mask>
                    <g id="Clip-20"></g>
                </g>
            </g>
        </g>
    </g>
</svg>