<?xml version="1.0" encoding="UTF-8"?>
<svg width="191px" height="133px" viewBox="0 0 191 133" version="1.1" xmlns="http://www.w3.org/2000/svg" xmlns:xlink="http://www.w3.org/1999/xlink">
    <!-- Generator: sketchtool 52.6 (67491) - http://www.bohemiancoding.com/sketch -->
    <title>FDD3D2B6-3695-40E3-B497-A93112A5DE3A</title>
    <desc>Created with sketchtool.</desc>
    <defs>
        <polygon id="path-1" points="0.332379123 0.255111111 175.983466 0.255111111 175.983466 39.9999259 0.332379123 39.9999259"></polygon>
    </defs>
    <g id="Page-1" stroke="none" stroke-width="1" fill="none" fill-rule="evenodd">
        <g id="hari-satu-juta-pohon" transform="translate(-178.000000, -2091.000000)">
            <g id="Stacked-Group-4" transform="translate(0.000000, 805.000000)">
                <g id="Group-17" transform="translate(0.000000, 1265.000000)">
                    <g id="selamat-hari-gerakan-white" transform="translate(178.000000, 21.000000)">
                        <path d="M15.711038,117 C15.824884,117 15.9884274,116.974251 16.2016683,116.922753 C16.4142043,116.870887 16.5284027,116.650917 16.5435587,116.262107 C16.5435587,115.261941 16.619691,112.69035 16.7719556,108.547332 C16.9238677,104.508047 17,102.396995 17,102.214177 C17,100.873021 16.8346942,99.7378566 16.5037302,98.8094205 C16.1731187,97.8806165 15.7223169,97.3056777 15.1520296,97.0831326 C15.014921,97.0275882 14.8785173,97 14.7414087,97 C14.2927216,97 13.8214768,97.2736753 13.3269694,97.8210259 C12.9695706,98.2179287 12.6008929,98.5831969 12.2205839,98.9164628 C11.4067438,99.614997 11,100.138806 11,100.487889 C11,100.654522 11.0965752,100.854996 11.2907831,101.089312 C11.4849909,101.323628 12.0947542,101.599143 13.1214827,101.916592 C13.3269694,102.028048 13.4446925,102.551857 13.4750044,103.488018 C13.4901604,103.805466 13.4982671,104.134686 13.4982671,104.476044 C13.4982671,106.039745 13.3611584,108.364882 13.0876461,111.452557 C13.1179581,112.976532 13.1517946,114.091464 13.1902132,114.797723 C13.2360336,115.27408 13.4260119,115.690478 13.7605005,116.047654 C14.0949891,116.40483 14.4791752,116.666734 14.9123539,116.833367 C15.2017271,116.944456 15.4678376,117 15.711038,117" id="Fill-1" fill="#FEFEFE"></path>
                        <path d="M36.2237327,95.0572662 C36.7452352,94.9092347 37.2829757,94.7800239 37.8365765,94.6707194 C39.2791106,94.3739326 40,94.0695452 40,93.7568332 C40,93.6869797 39.9796082,93.6167643 39.9392021,93.5461869 C39.5068195,92.7966193 39.0102403,92.351439 38.4483318,92.2110082 C37.885668,92.0702154 37.3766271,92 36.920454,92 C35.9427784,92 34.3091652,92.3047494 32.0192367,92.9135243 C30.9603714,93.1871473 29.823715,93.4719902 28.609645,93.7687771 C28.120996,93.8936447 27.5911857,93.9562595 27.0209694,93.9562595 C26.3608779,93.9562595 25.723444,94.0402284 25.1079124,94.2078044 C24.4931361,94.3761042 23.9882491,94.5929034 23.592874,94.8582019 C23.1978764,95.1238623 23,95.5020845 23,95.9943163 C23,96.8767142 23.2016527,97.408035 23.604958,97.5875548 C24.0082634,97.7670746 24.3975965,97.8568345 24.7722022,97.8568345 C25.0490026,97.8568345 25.3465725,97.8217268 25.6641566,97.7515114 C26.4137456,97.5955174 27.1754187,97.3845092 27.9499311,97.1188488 C29.0986716,96.7283208 29.9052823,96.5332377 30.3693856,96.5332377 C30.7851526,96.5332377 31.0253232,96.7051569 31.0906526,97.0486334 C31.4652583,99.0009115 31.6529388,100.992279 31.6529388,103.022735 L31.604225,110.121007 C31.604225,111.604941 31.5551335,113.069331 31.4573282,114.513814 C31.4573282,115.536643 31.3572571,116.052038 31.1578702,116.060001 C30.9581056,116.067601 30.850482,116.071945 30.8342441,116.071945 C29.9785419,116.071945 28.5609312,114.517795 26.5810343,111.409858 C26.1248612,110.714581 25.7744236,110.339978 25.5300991,110.284964 C25.3911324,110.253837 25.297481,110.238274 25.2487672,110.238274 C25.0939402,110.238274 24.9674352,110.292926 24.8700076,110.402231 C24.6339908,110.644365 24.5154161,110.925589 24.5154161,111.245901 L24.5275001,111.362806 C25.0085966,113.33861 25.7174019,114.90217 26.6542938,116.05421 C27.5911857,117.205887 28.5363854,117.985134 29.4895153,118.391225 C30.4426452,118.796954 31.2779555,119 31.9950686,119 C32.1740637,119 32.3534364,118.988418 32.5328091,118.964892 C33.3802035,118.847625 33.9504198,118.504149 34.2438358,117.934101 C34.707939,117.012614 34.9994669,115.737879 35.117664,114.109894 C35.2358612,112.481548 35.294771,110.906044 35.294771,109.383021 C35.294771,106.642086 35.1520281,103.885588 34.8669199,101.113165 C34.6633791,99.137723 34.5617975,97.6186812 34.5617975,96.5567635 C34.5617975,95.8850119 35.1153983,95.3851794 36.2237327,95.0572662" id="Fill-3" fill="#FEFEFE"></path>
                        <path d="M11.5018617,86.3598422 L11.5025789,86.2261435 C11.4878763,85.8120389 11.4814215,85.3943208 11.4832145,84.9729892 C11.4864419,84.1379144 11.5219432,83.2945286 11.5897185,82.4431931 C11.6151791,82.0298112 11.6291645,81.6200428 11.6305989,81.2146105 C11.6331091,80.6389834 11.6470945,80.0673311 11.6736308,79.4996537 C11.6825958,79.2727273 11.944732,79.07507 12.4607567,78.9066819 C13.2905558,78.6342257 14.1884889,78.4998043 15.1545559,78.5037791 C16.2167275,78.5081153 16.7549853,78.7046885 16.7696879,79.0942214 C16.842125,81.1871481 16.9199411,82.8049023 17.004212,83.9489295 C17.2025175,86.6420549 18.2159196,87.9924117 20.0426253,87.9996387 L20.1878581,88 C20.5353409,87.5067602 20.7182267,87.0229155 20.7365153,86.5484658 C20.7544452,86.0743774 20.7641274,85.7036346 20.7648446,85.4355145 C20.7669962,84.9079466 20.757314,84.3207564 20.7357981,83.6717757 C20.7132063,83.1767292 20.7031655,82.6495227 20.7056757,82.0901563 L20.7228885,80.7517239 C20.7261159,79.9733807 20.7132063,79.1299949 20.6845183,78.2219278 C20.6848769,78.1323135 20.769865,78.0253546 20.9394826,77.9003282 C21.1087415,77.7753019 21.3066884,77.6397964 21.5326061,77.4952573 C22.5087138,76.8260411 22.9982021,76.2558343 22.9999951,75.7853594 C23.0003537,75.6559969 22.9809893,75.5381975 22.9408262,75.4326839 C22.797745,75.0511006 22.2114349,74.6550634 21.1829716,74.2456563 C20.9900451,74.1719413 20.8828238,73.8676865 20.8609493,73.3318076 C20.7594656,70.3553856 20.7096203,68.7737661 20.7103375,68.5869493 C20.6375418,66.6324189 20.2000504,65.296516 19.398222,64.5799633 C18.9650339,64.1969346 18.3697587,64.0039748 17.6138311,64.001084 L17.4327383,64 C17.1186052,64.0151766 16.9604628,64.3711042 16.957594,65.0685055 L16.9568768,65.2751965 C17.0798764,68.7878587 17.1720365,70.9129453 17.233357,71.6508175 L17.244115,72.0768466 C17.2358672,74.1285796 16.7768599,75.1728748 15.8674516,75.2097323 C15.2879549,75.2317745 14.7808952,75.3069349 14.3455555,75.434852 C13.4752346,75.691409 12.8670499,75.818242 12.5210014,75.8167967 C12.1910899,75.8153513 11.9881226,75.683098 11.9128167,75.419314 C11.8375108,75.1555301 11.7890999,74.695173 11.7675839,74.0378813 C11.7855139,73.4944142 11.7955546,72.9838297 11.7977062,72.5050438 C11.8134846,68.4257882 10.9643211,66.3830889 9.2502156,66.3762233 C9.05728909,66.3751393 8.7790159,66.483905 8.41611323,66.7017977 C8.12528906,66.9677497 7.97898048,67.3363245 7.97718748,67.806438 C8.01304743,68.9988858 8.04962457,69.7898762 8.08835332,70.1794092 C8.15756301,71.0231564 8.19629176,72.434581 8.20489814,74.412599 C8.20202935,75.1027733 8.11381388,75.5826433 7.93953454,75.8536541 C7.76525519,76.124665 7.57376308,76.3165407 7.36398239,76.4292812 C7.12192774,76.5499714 7.00036252,76.6952332 7.00000392,76.8657894 C6.99892812,77.0844048 7.2191082,77.503207 7.65875115,78.1211117 C7.84307128,78.3895932 7.93379695,78.9048752 7.93056955,79.6673191 C7.92698356,80.5912855 7.93594854,81.4108224 7.95710591,82.1244843 C7.98615247,82.9035502 7.99906205,83.7469361 7.99583465,84.6550032 C7.99260726,85.4174471 8.11166228,85.9002078 8.35228253,86.1040079 C9.41086817,87.0001506 10.1976354,87.4496673 10.7129428,87.451474 C11.2361395,87.4536421 11.4989929,87.0897648 11.5018617,86.3598422" id="Fill-5" fill="#FEFEFE"></path>
                        <path d="M33.6179429,77.4774723 C33.6038337,77.7208314 33.5495672,77.9773057 33.4558672,78.2472594 C33.3614435,78.5175775 33.1367805,78.6891675 32.7804308,78.7623938 C32.2106331,78.8786087 31.8557306,78.9321623 31.7153613,78.9237832 C31.4349847,78.9070249 31.3098101,78.6359782 31.3405611,78.1099146 C31.3557557,77.8512544 31.4338994,77.4545208 31.5746304,76.9193494 C31.7153613,76.3845422 31.9255534,75.7947243 32.20593,75.1495312 C32.4859449,74.5050668 32.7084373,74.1086975 32.8734073,73.9611519 C32.8810046,73.9691667 32.938527,74.1225412 33.0463364,74.4198182 C33.4732324,75.6737734 33.6638885,76.6931128 33.6179429,77.4774723 M33.5455877,66.4891531 C33.1881527,66.1842256 32.8336119,66.0217434 32.4830507,66.0009777 C32.3973097,65.995513 32.2225717,66.0129999 31.9581132,66.0523454 C31.6940165,66.0916909 31.4708006,66.4603726 31.2891889,67.1583907 C31.0858706,67.9653374 30.5779366,69.6280484 29.7661106,72.1465236 C29.4557065,73.3094012 28.9394518,74.8497041 28.2173463,76.7674321 C27.7162861,78.1157435 27.2495946,79.473527 26.8176337,80.8418755 C26.3375566,82.3727062 26.0676714,83.6437839 26.0083401,84.6558372 C25.9540737,85.5819133 26.1646275,86.1928612 26.6400016,86.488681 C27.024208,86.7316758 27.3454654,86.8613702 27.6023265,86.8766712 C27.6960266,86.8821358 27.8338634,86.8628274 28.0165604,86.8187459 C28.3497564,86.7280327 28.6695666,86.1404006 28.9756294,85.0565783 C29.1424083,84.4758681 29.3717744,83.898801 29.6633661,83.3257413 C30.3069662,82.0805296 31.497572,81.5089272 33.2351836,81.6123912 L33.5976835,81.6338855 C33.9395621,81.6699522 34.2409217,82.47107 34.5006771,84.0379674 C34.7072514,85.3254391 34.7944395,86.2402216 34.7626032,86.7815863 C34.7340228,87.2679402 34.9250407,87.6140347 35.3352951,87.8195055 C35.5400605,87.9262484 35.74772,87.9859952 35.9582739,87.9983818 C36.1373531,88.0089468 36.372146,87.9677797 36.6633759,87.8748807 C36.954244,87.7816173 37.1640743,87.4989127 37.2935902,87.0264026 C37.4010378,86.6544421 37.4654339,86.2923179 37.4860552,85.9393015 C37.5247653,85.2802646 37.4542189,84.4809684 37.2744161,83.5410485 C37.1376646,82.808421 37.0844835,82.1756145 37.115958,81.6419003 C37.1481561,81.0925208 37.3847578,80.5868585 37.8261249,80.1249133 C37.9350196,80.0054197 37.992542,79.8866546 37.9994158,79.7689824 C38.0102691,79.588649 37.8698999,79.312502 37.5786699,78.9409057 C37.1416442,78.3955336 36.8677795,77.863641 36.7574377,77.3448635 C36.1785956,74.6730137 35.4919442,72.3130133 34.6963981,70.2659552 L34.3190654,69.2987121 C34.2434542,69.1212931 34.2108943,68.9456957 34.221024,68.7730127 L34.2543075,68.2083322 C34.2731198,67.4848124 34.0365181,66.9121171 33.5455877,66.4891531" id="Fill-7" fill="#FEFEFE"></path>
                        <path d="M63.61943,96.2037357 C63.61943,95.7886594 63.8201553,95.4817062 64.220513,95.2821503 C64.6215992,95.0822315 65.0164925,94.9712059 65.4055571,94.9472592 C65.794986,94.9240381 66.0678412,94.9120648 66.2248514,94.9120648 C67.3727377,94.9120648 68.233197,95.0767891 68.806958,95.4055121 C69.0743488,95.5618914 69.329718,95.6402624 69.5734298,95.6402624 C69.801477,95.6402624 70.0171383,95.5814841 70.2218708,95.4639276 C70.6619364,95.2055934 70.901641,94.9396398 70.9413489,94.665704 C70.9803282,94.3917681 71,94.2310349 71,94.18423 C71,93.7379505 70.7209518,93.3076354 70.1628554,92.8925591 C69.5497508,92.4382973 68.7719859,92.175972 67.8284678,92.1055832 C66.885314,92.0351944 66.2445232,92 65.9068239,92 C64.4052094,92 62.4719081,92.2155204 60.105827,92.6458354 C57.3237237,93.1469022 55.1325032,93.65196 53.5332583,94.1606461 C51.9336491,94.6693322 50.7919558,95.1547973 50.1081784,95.6166785 C49.424401,96.0785597 49.0688513,96.4192561 49.0411651,96.6384047 C49.0134788,96.8575534 49,96.9947027 49,97.049127 C49,97.3622484 49.1333311,97.6325559 49.400722,97.859324 C49.7074564,98.1260032 50.0236625,98.3077805 50.3497044,98.4053815 C50.6761107,98.5037081 50.9252869,98.5523272 51.0986902,98.5523272 C51.295044,98.5523272 52.5092315,98.1416049 54.7416171,97.3194346 C56.2428673,96.7712001 57.2840158,96.4174419 57.8661556,96.2567087 C58.4475667,96.0963383 58.8679605,96.0157903 59.1277011,96.0157903 C59.3786988,96.0157903 59.5717739,96.0669492 59.7051051,96.1685413 C59.9488169,96.3564867 60.0708549,96.8067573 60.0708549,97.5189905 C60.0154824,99.2025166 59.9881605,101.12805 59.9881605,103.296315 C59.9881605,104.689941 59.9721316,105.985603 59.9408024,107.183301 C59.9251379,107.621961 59.9174877,108.044657 59.9174877,108.451388 C59.9174877,110.3537 60.0548261,111.900077 60.3302313,113.089793 C60.6602805,114.537843 61.0686526,115.551587 61.5564405,116.131025 C62.0434999,116.710463 62.5036015,117 62.9356527,117 L63.0300045,116.988027 C63.4857346,116.956823 63.7862761,116.76525 63.9316289,116.412943 C64.077346,116.060636 64.1502045,115.759125 64.1502045,115.508773 C64.1502045,115.164086 64.0751602,114.784567 63.9261645,114.36949 C63.5881009,113.391304 63.4190691,112.095642 63.4190691,110.482504 C63.4190691,105.44136 63.4620556,101.867858 63.5487573,99.7619988 C63.5961153,98.4627084 63.61943,97.2766208 63.61943,96.2037357" id="Fill-9" fill="#FEFEFE"></path>
                        <path d="M39.8177,111.975959 C40.4325988,114.448446 41.6317238,115.939482 43.4147139,116.447979 C43.7726832,116.549534 44.1154965,116.600674 44.4424322,116.600674 C45.0266582,116.600674 45.5711901,116.44399 46.0774713,116.130984 C46.8792936,115.638083 47.5898193,114.978705 48.2090485,114.153212 C48.8279167,113.32772 49.3609012,112.539223 49.8087237,111.78772 C50.2565462,111.03658 50.5795124,110.575233 50.7783441,110.402953 C50.976815,110.230674 51.1070841,110.144715 51.1695122,110.144715 C51.3171023,110.144715 51.3950472,110.363782 51.4029861,110.801917 L51.4148943,113.313938 C51.4304112,114.339275 51.6306863,115.135389 52.0164415,115.702642 C52.401475,116.269896 52.7792914,116.627876 53.148808,116.77658 C53.5186856,116.925285 53.8088139,117 54.0188322,117 C54.1592052,117 54.2837006,116.976425 54.39304,116.929275 C54.6654864,116.812124 54.8015291,116.573109 54.8015291,116.213316 C54.8015291,115.133212 54.8210154,113.378497 54.8599878,110.948808 C54.8989603,108.519119 54.9184465,106.744456 54.9184465,105.625181 C54.9184465,103.739534 54.9455107,102.362021 55,101.493731 L55,101.364249 C55,100.855751 54.8365322,100.460415 54.5095965,100.178964 C54.1433275,99.8815544 53.610343,99.6153368 52.9095604,99.3803109 C52.7146981,99.3182902 52.5472609,99.2867358 52.4076096,99.2867358 C52.2517197,99.2867358 52.1192855,99.333886 52.010307,99.4274611 C51.7999278,99.6077202 51.6483683,99.8735751 51.5545457,100.226114 L51.1695122,101.669637 C50.6946255,103.352176 49.8458919,105.249793 48.6233113,107.362487 C47.4010916,109.475544 46.0074652,111.259637 44.4424322,112.71513 C44.3410316,112.80943 44.2439613,112.856218 44.1504996,112.856218 C43.9404813,112.856218 43.7571664,112.609585 43.6016374,112.116684 C43.188818,110.817876 42.9239496,108.552487 42.807393,105.320155 C42.7604817,104.044922 42.737387,102.236891 42.737387,99.8971503 C42.737387,99.0049223 42.5757234,98.2559585 42.2527572,97.649171 C41.9297909,97.0427461 41.5541397,96.6162176 41.1258035,96.3699482 C40.6974672,96.1233161 40.3200117,96 39.9927152,96 C39.3778164,96 39.0703669,96.2974093 39.0703669,96.892228 C39.0703669,97.3227461 39.0584587,97.8388601 39.0353639,98.441658 C39.0119083,99.044456 39,99.5645596 39,100.002694 C39.0155168,101.145544 39.0310336,102.808497 39.0469113,104.991554 C39.0779449,107.691451 39.3348745,110.019223 39.8177,111.975959" id="Fill-11" fill="#FEFEFE"></path>
                        <path d="M74.2507508,108.305572 C74.1705006,108.584113 73.9498127,108.770545 73.58943,108.865971 C73.0120747,109.0174 72.6513205,109.092563 72.5071674,109.092563 C72.2184897,109.092563 72.0743367,108.826179 72.0743367,108.293782 C72.0743367,108.031451 72.1304375,107.625798 72.2426391,107.077557 C72.3544692,106.528948 72.535032,105.920651 72.7839562,105.253035 C73.0321372,104.585051 73.2364779,104.172029 73.3969782,104.012862 C73.4047803,104.020968 73.4727701,104.172029 73.6013189,104.466045 C74.1143998,105.70585 74.3707545,106.723853 74.3707545,107.518581 C74.3707545,107.765068 74.3306294,108.027399 74.2507508,108.305572 M79,109.569694 C79,109.386947 78.8398712,109.116511 78.5192421,108.758386 C78.0381126,108.234094 77.7256571,107.713487 77.5815041,107.196563 C76.8280442,104.533838 75.9820737,102.192393 75.0443357,100.173335 L74.5992446,99.2194403 C74.5108208,99.0444307 74.4669804,98.8697895 74.4669804,98.6947799 L74.4669804,98.122222 C74.4432026,97.390866 74.1664138,96.8267823 73.6377287,96.4292341 C73.2524536,96.1425868 72.880182,96 72.5190563,96 C72.4310041,96 72.2526704,96.0276331 71.9840552,96.0832677 C71.7154401,96.1392708 71.5092418,96.524292 71.3647172,97.2398051 C71.2045884,98.0665874 70.7836466,99.7757867 70.1022632,102.367403 C69.8537106,103.559679 69.4167931,105.145819 68.7918821,107.125086 C68.3590514,108.51632 67.9618874,109.915292 67.6015047,111.322369 C67.2002539,112.896351 67,114.196212 67,115.221584 C67,116.159267 67.2526394,116.763879 67.7575467,117.033947 C68.1662281,117.256485 68.5028329,117.368123 68.7677327,117.368123 C68.8639586,117.368123 69.0040249,117.340122 69.188303,117.284487 C69.5249079,117.172849 69.8176724,116.560868 70.066225,115.448175 C70.2025759,114.852037 70.4032013,114.255531 70.6673581,113.659393 C71.2525156,112.363953 72.4388062,111.715865 74.2266014,111.715865 L74.5992446,111.715865 C74.9521967,111.732076 75.3088641,112.522751 75.6692467,114.088627 C75.9582959,115.376329 76.1020775,116.294854 76.1020775,116.843463 C76.1020775,117.336069 76.3186786,117.673929 76.7515093,117.857045 C76.9681105,117.952471 77.1843401,118 77.4009412,118 C77.5855909,118 77.8237407,117.944365 78.1161336,117.832728 C78.4088981,117.721827 78.6076659,117.423389 78.7116939,116.938889 C78.7997461,116.557184 78.8435865,116.187637 78.8435865,115.829881 C78.8435865,115.161896 78.7235828,114.359431 78.4832038,113.421011 C78.2989257,112.689655 78.2064151,112.054094 78.2064151,111.513222 C78.2064151,110.956876 78.4189294,110.431847 78.8435865,109.939241 C78.947986,109.812128 79,109.688701 79,109.569694" id="Fill-13" fill="#FEFEFE"></path>
                        <path d="M115.105788,107.835181 C114.693504,109.027495 114.131298,110.107847 113.419921,111.076238 C112.708168,112.044993 112.006536,112.764743 111.315397,113.235125 C110.623884,113.705507 110.023074,113.941062 109.51409,113.941062 C109.376537,113.941062 109.242732,113.925431 109.1138,113.894169 C108.393802,113.713868 107.876572,113.160605 107.560988,112.235108 C107.245403,111.309975 107.083862,110.496076 107.075617,109.794138 C107.067746,109.092199 107.063623,108.693792 107.063623,108.600007 C107.063623,107.392062 107.16482,106.164488 107.367214,104.917648 C107.569233,103.584657 107.841716,102.405793 108.185786,101.382148 C108.529106,100.358867 108.899037,99.6703789 109.29558,99.3174105 C109.651268,98.9808001 110.059805,98.8117678 110.520813,98.8117678 C110.714587,98.8117678 110.921104,98.8433932 111.13924,98.905917 C111.843121,99.1178434 112.776757,99.8314139 113.941648,101.046992 C114.863665,102.011748 115.362904,102.862725 115.439739,103.600288 C115.516199,104.337486 115.554803,104.851126 115.554803,105.141207 C115.554803,106.043076 115.405257,106.94131 115.105788,107.835181 M115.373023,98.2294245 C114.378294,97.4337007 113.37307,96.8277292 112.358476,96.4115101 C111.343508,95.9963814 110.45972,95.7081178 109.708239,95.5470828 C108.956007,95.3864113 108.478507,95.3057121 108.276488,95.3057121 C108.236009,95.3057121 108.21577,95.3017135 108.21577,95.2940797 C107.941039,95.0981478 107.678301,95 107.427557,95 C106.933941,95 106.445197,95.3725979 105.959826,96.1177938 C105.417859,96.9411444 104.91075,98.068753 104.437373,99.4998926 C103.96437,100.931396 103.606433,102.417789 103.363935,103.958709 C103.121062,105.499992 103,106.945308 103,108.294295 C103,112.592075 104.124037,115.324945 106.37211,116.493994 C107.10785,116.831331 107.884068,117 108.701141,117 C109.250978,117 109.821055,116.92548 110.411745,116.776441 C111.867109,116.400208 113.258006,115.684093 114.584061,114.629187 C115.910492,113.574644 116.977933,112.311446 117.78676,110.84141 C118.595587,109.370648 119,107.81955 119,106.188117 C119,104.274599 118.643562,102.668611 117.932184,101.370516 C117.220806,100.072785 116.367378,99.0255118 115.373023,98.2294245" id="Fill-15" fill="#FEFEFE"></path>
                        <path d="M19.4572937,51.8177772 C19.2695665,52.2270558 19.0042355,52.6144478 18.6624094,52.9795885 C18.3194747,53.3443645 17.9414335,53.669015 17.5279163,53.9528107 C17.1140296,54.2362416 16.6735359,54.4627674 16.2045875,54.6316587 C15.7352695,54.8001852 15.2803636,54.8928382 14.8402394,54.9096179 C14.5006306,54.9223851 14.176912,54.8844484 13.8679752,54.7954431 C13.932645,54.7257709 13.9973148,54.6477088 14.0623541,54.5616217 C14.1266544,54.4751698 14.1920632,54.4138875 14.2589503,54.3785042 C14.455916,54.2037765 14.6536209,54.045099 14.8516952,53.9035659 C15.0501391,53.7623977 15.2655819,53.6361852 15.4995018,53.5267524 C16.1328964,53.2349317 16.7758989,52.9500417 17.427401,52.6742711 C18.0792726,52.3981357 18.7559035,52.1132457 19.4572937,51.8177772 M29.1969352,43.5669106 C29.6913821,42.836994 30.3750342,42.2453275 31.2486309,41.7926406 C31.3258651,42.2606481 31.2844764,42.7385045 31.1248344,43.2273043 C30.9648228,43.7164688 30.7190776,44.1571181 30.3875987,44.5481579 C30.0561197,44.940292 29.6717963,45.2583766 29.2357371,45.5009526 C28.7989388,45.7442581 28.3436634,45.8701058 27.8688023,45.87959 C28.2597774,45.0675988 28.7024884,44.297192 29.1969352,43.5669106 M45.1238138,49.0308892 C45.226916,48.5285927 45.4231426,47.9511524 45.7136024,47.2985683 C46.0029536,46.6459842 46.3610395,46.0189344 46.7871211,45.4166893 C47.2120941,44.8151738 47.6973023,44.3136069 48.2412678,43.9127182 C48.7848636,43.5118295 49.3624573,43.3126618 49.9733098,43.3141209 C50.3469165,43.3144857 50.6769172,43.4158934 50.9655293,43.6176145 C51.2530328,43.8189708 51.4304128,44.1045903 51.4976694,44.473014 C51.564926,44.7746837 51.5131901,45.0431588 51.343201,45.2766154 C50.6610269,46.4143515 49.9803311,47.4430196 49.2996352,48.3622549 C48.6182003,49.2825846 47.7002587,50.0923871 46.5454408,50.7927569 C46.3414538,50.9605538 46.1285977,51.0856719 45.9079813,51.1684761 C45.6866259,51.251645 45.4408806,51.3603482 45.1688979,51.4931266 C45.0000173,51.0240248 44.9246308,50.5884824 44.9431079,50.1861345 C44.9608459,49.7845162 45.0214508,49.3996776 45.1238138,49.0308892 M76.1194951,50.4896281 C76.1490584,50.0887393 76.2211191,49.7060894 76.3345684,49.3402192 C76.4524522,48.8415705 76.6660473,48.2696018 76.9749842,47.6261371 C77.2835515,46.9819428 77.6601145,46.3654715 78.1039341,45.7759936 C78.5466451,45.186151 79.0462655,44.6991751 79.6020563,44.3143365 C80.1571079,43.9294979 80.7409838,43.7463804 81.3514668,43.7657135 C81.7243344,43.7773863 82.0517483,43.8879134 82.3337087,44.0976596 C82.6149299,44.3077705 82.78418,44.5981322 82.8407199,44.9683797 C82.8991075,45.2718733 82.8392417,45.5385245 82.6626008,45.7668742 C81.947168,46.8845476 81.2365393,47.8927883 80.5288669,48.7923257 C79.8200859,49.6925927 78.878124,50.4754018 77.7029814,51.142577 C77.4945598,51.3041727 77.2780084,51.4230897 77.0548052,51.4993278 C76.831602,51.5766603 76.5825309,51.6777033 76.3068527,51.8028214 C76.1516452,51.3289775 76.0891927,50.8912464 76.1194951,50.4896281 M14.3587266,46.4796464 C15.0168804,46.8243596 15.651753,47.2026323 16.262236,47.6144643 C16.8723493,48.0270258 17.4743328,48.440317 18.0681863,48.8532433 C18.2429796,48.9812796 18.4096429,49.1169763 18.5681763,49.2617923 C18.7267097,49.4066084 18.8937425,49.5598143 19.0700139,49.7203157 C18.9366094,49.7929061 18.8202037,49.8479872 18.7196884,49.8844648 C18.619173,49.9224015 18.5190272,49.9596087 18.4185119,49.996451 L14.0579196,51.8217898 C13.7911105,51.9658762 13.5416698,52.109598 13.3099672,52.2522253 C13.077895,52.3955823 12.8458228,52.5549894 12.6155983,52.7311761 C11.7937375,53.4333698 11.7209378,54.1902798 12.3983077,55.0019062 C13.539083,56.4000923 15.0261189,57.0647141 16.8571981,56.9950419 C17.569305,56.9680485 18.2511095,56.8166665 18.9026115,56.5405311 C19.5541136,56.2643957 20.1930512,55.895972 20.8209026,55.4370839 C21.4480149,54.9771015 21.843055,54.4339501 22.0056534,53.8079946 C22.1675126,53.1816744 22.1324062,52.4878706 21.8988558,51.7251241 L21.5585079,50.8328822 C21.6575451,50.7621157 21.7488219,50.7084936 21.8323383,50.6716513 C21.9154852,50.6355385 22.0078706,50.5979665 22.108386,50.5607594 C22.6061587,50.2740455 23.1700793,49.9256845 23.7994089,49.5156764 C24.1707983,49.2745595 24.5255584,49.0108265 24.8718189,48.7350559 C24.9084036,48.9178086 24.9520095,49.099467 25.0092885,49.2774777 C25.208841,49.8943138 25.5510366,50.4655529 26.036984,50.991195 C27.0413984,52.0103789 28.1880863,52.5072037 29.4781565,52.4816694 C30.6994919,52.4583237 31.7689456,52.0774977 32.6883654,51.3384617 C33.6066766,50.6001552 34.4307546,49.7888935 35.1594909,48.9028528 C35.4240828,48.5566805 35.6768493,48.222181 35.9240727,47.8938826 C35.9266595,47.9423978 35.9277681,47.9912778 35.9307244,48.0401578 C36.0046328,48.6092082 36.0966487,49.2275034 36.2056635,49.8961377 C36.3150478,50.5655015 36.5079486,51.1743125 36.785844,51.7243946 C37.0633698,52.2741119 37.4332811,52.7308113 37.8955778,53.0941282 C38.3575049,53.4585393 38.9617056,53.6354556 39.7085495,53.6277953 C40.2510367,53.6219589 40.824935,53.3144528 41.4287662,52.7049123 C41.9313429,52.1978737 42.402139,51.6120436 42.8444805,50.9547174 C43.0917039,51.3960963 43.3987931,51.7929725 43.7675957,52.1431573 C44.1563536,52.5130401 44.6060859,52.8070495 45.1145753,53.0259151 C45.6234342,53.2451454 46.148553,53.354943 46.6914098,53.3560373 C47.2010078,53.3574964 47.7102363,53.2414976 48.2194648,53.0076763 C48.7294324,52.7749492 49.213532,52.4747387 49.6725028,52.1066797 C50.1318432,51.7393504 50.5564466,51.3384617 50.9485304,50.9036488 C51.3387665,50.4695654 51.6709845,50.0683119 51.9437062,49.6998882 C52.4499784,50.8401777 53.1613462,51.4114168 54.0774401,51.4136055 C54.5870382,51.4146998 55.121765,51.2148026 55.6823598,50.8139139 C56.2436937,50.4133899 56.7872896,49.9209424 57.3149951,49.3354771 C57.3711655,49.2734652 57.4210536,49.2092646 57.4761153,49.1468879 C57.4073806,49.605776 57.3434499,50.0657585 57.2891272,50.5286591 C57.2499558,50.8974476 57.2791496,51.1739477 57.3778172,51.3592539 C57.4768544,51.5452896 57.711883,51.7247594 58.0821638,51.8980279 C58.2514139,51.9677001 58.3944265,52.0202279 58.5126799,52.0548816 C58.6305637,52.0906296 58.7739459,52.1267424 58.943935,52.1621257 C59.0111916,52.16322 59.0621884,52.1727042 59.0961862,52.1898487 C59.1290754,52.2073579 59.1627037,52.2161125 59.1970711,52.2164773 C59.5026821,52.2208546 59.7092559,52.0402905 59.8167926,51.673326 C59.9934335,51.2067775 60.1530756,50.7657635 60.2960882,50.3488246 C60.4376227,49.9322505 60.5972647,49.4912364 60.7750143,49.0243232 C61.0573441,48.2918532 61.357412,47.5845526 61.6737397,46.9020569 C61.9896979,46.2206555 62.4069105,45.5987125 62.9246385,45.0369576 C62.9941123,44.9373738 63.0805851,44.8469093 63.1836872,44.76447 C63.2864198,44.6827602 63.390261,44.5751513 63.4941022,44.4423728 L63.4848637,45.0457122 L63.4309106,48.4622035 C63.4227807,48.9984241 63.6441362,49.4624191 64.0968248,49.8538237 C64.5487743,50.2463225 65.0454384,50.4465845 65.5890342,50.4549744 C65.9962692,50.4611756 66.3395735,50.1649775 66.6211643,49.5660155 C66.8654313,49.1009261 67.0941777,48.6183276 67.3055555,48.1189494 C67.5173029,47.6199359 67.7449406,47.1380669 67.9903163,46.6726128 C68.0960053,46.4059616 68.2101937,46.1652095 68.332512,45.9488974 C68.4544607,45.7329501 68.5686491,45.492198 68.6750772,45.2255468 C68.7393774,45.3948028 68.780027,45.5370654 68.7955478,45.6545232 C68.8103294,45.7727106 68.8336105,45.8981936 68.8657607,46.0327959 C68.9263655,46.4694326 69.0050779,46.8976796 69.1004197,47.3175367 C69.1953919,47.7381233 69.3583598,48.13427 69.5908015,48.5063414 C69.8553934,48.9119722 70.215327,49.2439183 70.6694938,49.5021797 C71.1236606,49.7608058 71.5874354,49.8935842 72.0630356,49.9008797 C72.5038989,49.9078105 72.93848,49.7888935 73.3671484,49.5441289 C73.4554688,49.493425 73.5419416,49.4387087 73.6284144,49.3828979 C73.6280448,49.4580418 73.6250885,49.5317265 73.6269362,49.6075999 C73.6095677,50.1438205 73.7207998,50.6501295 73.9602628,51.1261621 C74.2000954,51.6036538 74.5090323,52.0322655 74.8867039,52.412362 C75.2647451,52.793188 75.7052388,53.0999646 76.2067069,53.3330564 C76.7089141,53.5672425 77.2310766,53.6919959 77.7739334,53.7087756 C78.2827923,53.7248257 78.7949771,53.623418 79.3115965,53.4049173 C79.8274767,53.1867813 80.3208149,52.9004322 80.7905024,52.54587 C81.26019,52.1920373 81.6969883,51.803551 82.1008974,51.3804109 C82.5040674,50.9576356 82.8477412,50.566231 83.1319188,50.2058324 C83.6038235,51.3603482 84.2981924,51.95165 85.2139168,51.9801025 C85.7224062,51.9957879 86.2634153,51.811576 86.836205,51.427467 C87.4086251,51.0429932 87.9666331,50.566231 88.5113376,49.996451 C89.0556725,49.4274006 89.5582493,48.8397466 90.0194373,48.233489 C90.0375449,48.2097786 90.0526961,48.1882568 90.0708036,48.1645464 C90.0848462,48.5895103 90.1048015,49.0155686 90.1339953,49.4438155 C90.1816662,49.8819114 90.2544659,50.3378813 90.3531335,50.8113604 C90.450323,51.2855691 90.6095955,51.7112626 90.8313205,52.0895353 C91.0511978,52.4685375 91.3423967,52.7909994 91.7052867,53.0580154 C92.0666985,53.3250313 92.518648,53.4705769 93.0615048,53.4942874 C93.6719877,53.5205512 94.2673194,53.2951197 94.8497172,52.8172632 C95.4313758,52.3394068 95.9579728,51.7590483 96.4298776,51.0750934 C96.9017823,50.3915034 97.3156691,49.6801903 97.6719073,48.9407895 C98.0270369,48.2021183 98.2668694,47.6009676 98.3891878,47.136243 C98.4697478,46.8382211 98.4627266,46.628475 98.3659066,46.5066398 C98.2698258,46.3851694 98.0865331,46.2855856 97.8189849,46.2060644 C97.4812237,46.1582788 97.2532165,46.3326417 97.1331154,46.7298827 C96.9764298,47.1927833 96.7499007,47.70274 96.4535282,48.2593881 C96.1567862,48.8171305 95.827155,49.3475147 95.4657432,49.8512702 C95.1032228,50.3557553 94.7092913,50.8244924 94.2817315,51.2585757 C93.8549108,51.6926591 93.3981573,52.0337246 92.9114708,52.2806779 C92.8519746,52.0767681 92.8020865,51.8819778 92.7592197,51.6955773 C92.7163528,51.5095416 92.6816159,51.3322605 92.6553784,51.1630044 C92.6143593,50.5574764 92.5822092,49.9526779 92.558189,49.3478794 C92.5337992,48.743081 92.518648,48.1225971 92.5134744,47.4849688 C92.6077075,44.6057925 92.8878202,41.7506913 93.3538123,38.9207597 C93.4898036,38.1554598 93.6424244,37.3912543 93.8124136,36.6266839 C93.9820332,35.8635727 94.1690213,35.1004615 94.3733779,34.337715 C94.3837251,34.1038937 94.4905226,33.9904484 94.6941401,33.999203 C95.4454184,33.8985248 96.1966967,33.8051422 96.9483446,33.7201494 C97.6992534,33.6355214 98.4501621,33.5585537 99.2007014,33.4910701 L99.4549461,33.5020134 C99.6914528,33.5118623 99.8736368,33.6205656 100.000759,33.8273935 C100.028105,33.9630902 100.125295,34.0677809 100.292697,34.1418304 C100.425732,34.1812262 100.544725,34.2031127 100.646349,34.20749 C100.748342,34.2118673 100.865856,34.2341187 101,34.2731497 C100.970437,34.1713772 100.950112,34.0531898 100.939395,33.9185875 C100.927939,33.7839852 100.889877,33.6818479 100.825576,33.6118109 C100.477468,33.0267104 100.059886,32.6816323 99.5728299,32.5765769 C99.0842957,32.472251 98.5521556,32.4065913 97.9760401,32.3814218 L96.1963272,32.304454 C95.990862,32.328894 95.786875,32.3369191 95.583627,32.3277997 C95.3800095,32.3190451 95.175653,32.3274349 94.9712964,32.3518749 C95.0089896,32.2526559 95.0307926,32.153072 95.0355966,32.0527587 C95.2255411,31.5916819 95.3992257,31.1214857 95.55702,30.6418054 C95.7137057,30.1628546 95.8703914,29.6919289 96.0274466,29.2286635 C96.0669876,29.0969794 96.0573795,28.9284529 95.9989919,28.7245431 C95.7133362,28.2769631 95.2983408,28.0402235 94.7565926,28.0168779 C94.5544533,27.9749286 94.4073757,28.0267268 94.3160989,28.1737315 C94.2244526,28.3207362 94.1416752,28.4768603 94.0662887,28.6406447 C93.767699,29.2312169 93.4953468,29.8316381 93.2477538,30.4408139 C92.9990522,31.051084 92.7263304,31.6507756 92.4281103,32.2413478 C92.3497674,32.4729805 92.2426003,32.5853315 92.1080871,32.5794951 C91.5604263,32.6564628 91.0216345,32.7337953 90.4924507,32.8111278 C89.9625279,32.8884603 89.4078458,32.9486483 88.8284044,32.9905976 L88.4721662,32.975277 C88.3032856,32.9676167 88.1425349,32.944271 87.9910228,32.9037809 C87.8402498,32.8640203 87.7001935,32.7739207 87.5704844,32.6338467 C87.5069232,32.5306151 87.4248849,32.468968 87.3236305,32.4470814 C87.2231151,32.4262892 87.1218607,32.413522 87.0194977,32.40878 C86.8849845,32.4029435 86.7988813,32.4164403 86.7634052,32.4481758 C86.6883883,32.6130545 86.6828452,32.7301475 86.747515,32.799455 C87.1979863,33.3896624 87.6373714,33.8109786 88.0671484,34.0637683 C88.4976645,34.3172876 89.1369717,34.4624684 89.9839613,34.498946 C90.5597073,34.5241155 91.1217803,34.4985812 91.6690716,34.4216135 L91.7148948,34.5241155 C91.3989366,35.516306 91.159104,36.5117795 90.9961361,37.510536 C90.8327987,38.5096573 90.6779607,39.5087785 90.5316222,40.5082645 C90.3283742,42.0082231 90.1861007,43.494685 90.1040624,44.9661911 C90.0903894,45.2087671 90.0829985,45.4528022 90.0744991,45.6964725 C90.0183287,45.7340444 89.958463,45.7800062 89.892315,45.8416533 C89.2227054,46.5923621 88.5294451,47.2992979 87.8129037,47.9639196 C87.0948842,48.6289061 86.3206943,49.232975 85.4881168,49.7764912 C85.3502777,49.8395974 85.2634354,49.887383 85.229068,49.9194833 C85.1947006,49.918389 85.1692023,49.9096344 85.153312,49.8917603 C85.1363131,49.8749807 85.1111842,49.8651317 85.0779255,49.8644022 C85.2346112,49.1990509 85.3761456,48.5161903 85.4999421,47.8161854 C85.6241081,47.1161804 85.764534,46.4340494 85.9215892,45.7683333 C86.0753186,45.2032954 85.93711,44.746596 85.5073329,44.3978702 C85.3746675,44.2931795 85.1666155,44.1611306 84.8835465,44.0013588 C84.5997385,43.8419517 84.3732094,43.7591475 84.2039593,43.7540407 C84.0003418,43.7474747 83.8273963,43.8262663 83.68734,43.9893212 C83.2276301,43.4720689 82.6489277,43.0018727 81.9493853,42.5776383 C81.2502123,42.1537687 80.5270192,41.9301611 79.7809145,41.9068154 C79.2040598,41.8885766 78.6312702,42.0217198 78.0621759,42.3055155 C77.4930817,42.5893112 76.9982653,42.9259993 76.5780964,43.3148505 C75.6679151,44.1585772 74.9425047,45.0989695 74.4000175,46.1382161 C74.3516075,46.2308692 74.3083711,46.3253462 74.2643957,46.4198231 C73.8771159,46.9410879 73.4140802,47.4050829 72.8601371,47.8023239 C72.6543024,47.9336432 72.4399682,48.0470885 72.2178736,48.1444837 C71.9954095,48.2411493 71.7821839,48.3724686 71.5756101,48.5366178 C71.5427209,48.4355749 71.4935718,48.3173875 71.428902,48.1824204 C71.3342994,47.7122242 71.2393271,47.2500531 71.1447245,46.7959071 C71.0497522,46.3421259 70.9551496,45.8810491 70.861286,45.4097586 C70.7973552,45.1073594 70.7511625,44.8049601 70.7227078,44.5029257 C70.6931445,44.2008912 70.6465822,43.9160012 70.5837601,43.6467966 C70.4873097,43.2769138 70.3047561,42.9974954 70.0368384,42.809271 C69.7674425,42.6210467 69.4636792,42.5236515 69.1244399,42.5185446 C68.6832071,42.5119787 68.3073831,42.674304 67.9973376,43.0040614 C67.6159706,43.4337674 67.278579,43.8809827 66.9829456,44.3453425 C66.6873122,44.810067 66.3994392,45.2747915 66.1211743,45.7391513 C66.0853288,45.8726592 66.0324843,45.9726078 65.9641191,46.0382675 C65.901297,45.6691143 65.848083,45.2912064 65.8033684,44.9049087 C65.7586539,44.5193406 65.670703,44.1414327 65.5413634,43.7700908 C65.3783955,43.2988003 65.121564,42.9518984 64.7686516,42.7282908 C64.4157393,42.5054127 64.0181124,42.3901435 63.5776187,42.3835775 C63.0347619,42.3748229 62.5735738,42.5360539 62.1951631,42.864717 C61.919485,43.0952554 61.6704139,43.3090141 61.4468411,43.5067226 C61.2228988,43.7040664 60.9911962,43.8849952 60.7513636,44.0487796 C60.7532113,43.9152716 60.763928,43.7394496 60.7849919,43.5216784 C60.8053167,43.304272 60.7997736,43.0781109 60.7705798,42.8428304 C60.7402773,42.5747201 60.591352,42.3460056 60.3226952,42.1577812 C60.0536688,41.9695569 59.749536,41.8721617 59.4110358,41.8674196 C59.1054248,41.8626775 58.9428264,41.9527772 58.9228712,42.1362595 C58.9025464,42.3204713 58.8744612,42.4959285 58.8382461,42.6622664 C58.5910227,43.6504443 58.3630155,44.6389871 58.1446163,45.6275298 C57.6291056,46.2166429 57.1025087,46.7871525 56.556326,47.3237379 C55.8586312,48.0091518 55.1025489,48.6354721 54.2866008,49.2030634 C54.1502399,49.2701822 54.0652453,49.3201565 54.0319865,49.3529863 C53.9976191,49.3529863 53.9721207,49.3449612 53.9554914,49.3278168 C53.9377534,49.3114019 53.912255,49.3022825 53.8789962,49.3022825 C54.0160962,48.6332834 54.1365668,47.9464104 54.2400385,47.2431224 C54.3435102,46.5398344 54.4636112,45.8536909 54.6018198,45.1835975 C54.7381807,44.6149119 54.5862991,44.1622249 54.1465444,43.8259015 C54.0105531,43.7248586 53.7988057,43.5990109 53.5109327,43.4476289 C53.2226901,43.2962469 52.9935743,43.2203735 52.8243242,43.2200087 C52.6207067,43.219644 52.4503479,43.3028129 52.3147261,43.4698802 C51.8406041,42.9664895 51.2478592,42.5127082 50.5361218,42.1092661 C49.824754,41.7054591 49.0949091,41.5030085 48.3488044,41.5011846 C47.7712107,41.4997255 47.2032251,41.6492836 46.6422607,41.9491294 C46.0820355,42.2497048 45.5971968,42.6002544 45.1895922,43.0011432 C44.3038007,43.870769 43.6068451,44.8319535 43.0953993,45.8857912 C42.7550514,46.5868905 42.5455212,47.3379641 42.4601571,48.1360938 C42.2772339,48.4355749 42.0839636,48.7270308 41.8722162,49.006814 C41.1194597,50.003017 40.2551017,50.9255353 39.2806201,51.7729098 C39.2466223,51.7732746 39.2122549,51.7572244 39.1786266,51.723665 C39.1050878,51.2560223 39.0234191,50.7880148 38.93399,50.3192777 C38.8438218,49.8512702 38.779152,49.3836275 38.7407197,48.9145257 C38.6948965,47.8431788 38.6742022,46.7718319 38.6797453,45.6993907 C38.6845493,44.6269495 38.6982224,43.5556026 38.7207644,42.4824318 C38.8297792,40.0694391 39.0577865,37.6721317 39.4055252,35.2890506 C39.7528945,32.9070639 40.1505213,30.5247123 40.6002536,28.1409017 C40.6634453,27.7378243 40.625752,27.4292238 40.4879129,27.2125469 C40.3497043,26.9962348 40.1098718,26.8065513 39.7691543,26.6420374 C39.6327934,26.5771073 39.5470597,26.5439127 39.5134314,26.5442775 C39.3774401,26.5461013 39.2602953,26.647509 39.1605191,26.8499597 C38.5326677,28.4316281 38.0064403,30.0111078 37.5836846,31.5902228 C37.1590811,33.1697025 36.8205809,34.7976975 36.5678144,36.4753019 C36.2832673,38.3881869 36.0752153,40.3080025 35.9436584,42.2354785 C35.8804668,43.1623741 35.8483166,44.0910936 35.8438821,45.0209075 C35.1169936,46.0068968 34.3221093,46.9516664 33.4584903,47.8555812 C32.5933932,48.7605902 31.5893483,49.4751862 30.4463558,50.0004636 C30.076075,50.175556 29.7057942,50.3083345 29.3347743,50.3991637 C28.9626458,50.4903576 28.5916259,50.6070859 28.2213451,50.7475247 L28.1193516,50.7493485 C27.8473689,50.7548202 27.6581635,50.6081803 27.5502573,50.3083345 C27.1559563,49.2778425 27.1507827,48.1550622 27.533628,46.9414527 C27.8070888,47.0366592 28.0798106,47.115086 28.3529019,47.1763684 C28.6259933,47.2387451 28.8976064,47.2661033 29.1695891,47.2609964 C29.3388393,47.2577134 29.5927144,47.2201415 29.9308451,47.1457272 C30.5372631,46.9326981 31.0745767,46.654374 31.5431556,46.3100256 C32.011365,45.9664067 32.4097309,45.5224744 32.7382535,44.9796878 C33.6924103,43.4870247 33.5992857,42.1986362 32.4570323,41.1152517 C31.590457,40.2277518 30.7667485,39.7914798 29.9870154,39.8068004 C29.3077977,39.8199324 28.5690839,40.2036766 27.7697651,40.9562094 C26.9042984,41.8444387 26.2110381,42.8132836 25.6896148,43.8612848 C25.3367024,44.5715035 25.0942831,45.337533 24.9449882,46.1509833 C24.663767,46.4285777 24.3703508,46.6944994 24.0558708,46.9414527 C23.495276,47.3824668 22.8995748,47.7822612 22.2683975,48.1408359 C21.6372203,48.5001402 21.0378236,48.8080111 20.4705771,49.063719 C20.4025814,49.0662724 20.3678445,49.0349017 20.3652577,48.9674182 C19.7592093,48.2535517 19.1154676,47.6151938 18.4314459,47.0541685 C17.7470546,46.4942374 17.0209051,45.9598407 16.2548451,45.4524374 C14.9304076,44.5977674 13.5930361,43.818606 12.2412525,43.1160476 C10.8890994,42.4127596 9.5369462,41.7018113 8.18479305,40.9817437 C7.31673955,40.5115475 6.45792459,40.0333263 5.60723955,39.5456209 C4.75544589,39.058645 3.91326031,38.5625498 3.07846557,38.0576999 C2.62688558,37.8070988 2.37042363,37.5313282 2.30760154,37.232212 C2.24514899,36.9323662 2.30612337,36.5453389 2.49163332,36.0685768 C2.80278744,35.3525216 3.30351647,34.6802396 3.9919727,34.0502716 C5.07472994,33.071213 6.26982786,32.1621914 7.57911417,31.3243011 C8.8876614,30.4875052 10.2601393,29.7564942 11.696548,29.1319979 C13.1322176,28.5078662 14.6074281,28.0077585 16.1214406,27.6313097 C17.6343444,27.2555905 19.1202716,27.0396432 20.5788528,26.984562 C21.0193465,26.9677823 21.6398071,26.9867507 22.4402344,27.0392784 C23.2399227,27.0932652 24.0429369,27.2136413 24.8489074,27.4004065 C25.6537692,27.5886309 26.3695715,27.8633072 26.9948361,28.2240706 C27.6204703,28.5862931 27.9615573,29.0677973 28.0192058,29.668948 C28.0295529,29.9374231 28.1108521,30.2865136 28.2638424,30.7154901 C28.415724,31.1459257 28.6784682,31.3534832 29.0520749,31.339257 C29.221325,31.3330558 29.3791193,31.234931 29.5243492,31.0452476 C29.6703182,30.8555641 29.7213149,30.660409 29.6799263,30.4608765 C29.6540583,29.7915127 29.4670702,29.1451298 29.1204401,28.5209982 C28.7730709,27.8975961 28.3355335,27.336206 27.8067193,26.8360982 C27.2779051,26.33672 26.7003114,25.8895047 26.0731991,25.4937228 C25.4468259,25.0986705 24.8407774,24.8112271 24.2569015,24.6324869 C23.4649736,24.3607288 22.6601118,24.1819886 21.8419464,24.0955367 C21.0234115,24.0094496 20.2070938,23.9813618 19.393363,24.012003 C16.7481833,24.1126812 14.1791293,24.6547382 11.6880486,25.6374445 C9.19585919,26.6205156 6.85702965,27.8242762 4.67082084,29.2476318 C3.97571286,29.7101677 3.32384127,30.1960492 2.71520606,30.7045469 C2.10657084,31.2141388 1.54338926,31.7970507 1.02603085,32.4532826 C-0.204912614,33.9754925 -0.328339548,35.6060409 0.656119593,37.3449277 C0.946948927,37.8370105 1.27066747,38.3020998 1.62764477,38.74129 C1.98388299,39.1801154 2.40663872,39.5751677 2.89665104,39.9249878 C3.38518519,40.2755375 3.89921773,40.624628 4.43985726,40.9729891 C4.97938817,41.3217148 5.52815763,41.6693463 6.085057,42.016613 C7.47231661,42.7684161 8.85144631,43.5041692 10.2213375,44.2231425 C11.5904895,44.9424806 12.9696192,45.6950134 14.3587266,46.4796464" id="Fill-17" fill="#FEFEFE"></path>
                        <path d="M46.1607021,77.0348879 C45.8572495,77.3711388 45.5967349,77.676214 45.3787975,77.948258 C44.7563768,78.7172555 44.3558627,79.1017543 44.1768942,79.1021254 C44.0603482,79.1021254 44.0015339,78.8501229 44.0011731,78.3453755 C44.0011731,78.0332486 44.023905,77.624997 44.0704512,77.1202496 C44.1011212,76.9680831 44.1166366,76.5037898 44.115915,75.7269984 C44.1155542,74.9580009 44.1050903,74.0876828 44.0848842,73.1145595 C44.064678,72.1414362 44.0347297,71.2766851 43.9957607,70.5199352 C43.9560701,69.7631852 43.9362248,69.3252426 43.9362248,69.2046229 C43.935864,68.4920383 44.1238531,68.0678278 44.5016354,67.9312491 C44.8790568,67.7950415 45.1886435,67.726381 45.4300344,67.726381 C45.8038476,67.7260099 46.2126607,67.8139696 46.6564737,67.9895177 C47.3806466,68.2934796 47.9276552,68.7655669 48.298221,69.4057795 C48.6680651,70.0463634 48.8535284,70.702535 48.8542501,71.3754078 C48.8546109,71.7677004 48.8080647,72.1919109 48.7149722,72.6487815 C48.443272,73.8898663 47.5917284,75.3521492 46.1607021,77.0348879 M48.8250234,79.7234101 C49.3853824,79.1863737 49.8793498,78.5695427 50.3065649,77.8725459 C51.4341386,75.973805 52.0053223,74.6180387 52.0204769,73.8052469 C52.0352706,72.9924551 52.0432088,72.5541414 52.0432088,72.4899346 C52.0421263,71.0165175 51.7061995,69.735721 51.0361502,68.6468028 C50.3343483,67.5181727 49.4423925,66.6285555 48.3599218,65.9764664 C47.2770903,65.3247484 46.1830732,64.9988894 45.0775098,65.0000028 C44.0733378,65.0007451 43.1528769,65.1198803 42.316127,65.3562951 C41.4793772,65.5934522 40.8840183,65.9523424 40.5304112,66.4329658 C40.1764433,66.9135893 39.9996397,67.4101716 40.0000006,67.9223418 C40.0003614,68.202922 40.0432994,68.5035436 40.1288146,68.8234644 C40.3009274,69.511925 40.3871642,70.4887596 40.3882467,71.7539683 C40.3914941,76.4306756 40.4012364,79.6814715 40.4185559,81.5074694 C40.4524733,85.7273061 41.1120588,88.1051859 42.3969515,88.6407378 C42.950094,88.8804928 43.3740617,89.0003703 43.6702979,88.9999991 C44.0982346,88.999628 44.312203,88.7550482 44.3118422,88.267002 C44.3039041,87.8665443 44.2371517,87.3577144 44.1123067,86.7416257 C43.9322558,85.7885438 43.8420499,84.6558313 43.8413282,83.3423747 C43.8409674,82.974206 44.0935439,82.7897505 44.6001402,82.7893794 C45.5263743,82.7886371 46.8343597,83.151981 48.5244573,83.8794111 C49.0848163,84.1273311 49.4156915,84.2794976 49.5174438,84.3351683 C51.3399636,85.3346423 52.6598562,85.9722571 53.4774824,86.2480124 C54.2951086,86.5233967 54.8868593,86.6610888 55.2527344,86.6610888 C55.4003112,86.6610888 55.5211871,86.6410474 55.6146404,86.6005933 C55.8715468,86.4963036 56,86.3203843 56,86.0720931 C55.944794,85.6475115 55.7654647,85.231466 55.4616512,84.8232145 C55.204384,84.4791697 54.9709312,84.25092 54.760571,84.1392075 C53.2342874,83.3394056 52.0074872,82.7118116 51.0808923,82.2560544 C50.0370297,81.7364615 49.3106919,81.3545607 48.9022396,81.110352 C48.4930657,80.8665145 48.2884787,80.6568216 48.2881179,80.48016 C48.2881179,80.2964468 48.4670864,80.043702 48.8250234,79.7234101" id="Fill-19" fill="#FEFEFE"></path>
                        <path d="M59.3758189,69.40257 C59.3610753,68.9302429 59.1654764,68.4970668 58.7893499,68.1041194 C58.4128958,67.7108128 58.0344758,67.426339 57.6544177,67.250698 C57.2740319,67.0746978 56.9601563,66.9913671 56.7127909,67.0007058 C56.2183877,67.018665 55.981179,67.3530654 56.0011648,68.0035479 C56.041464,69.3127739 56.0794699,70.2067832 56.1158375,70.686294 C56.1515499,71.1658048 56.1735015,71.521397 56.1803818,71.7541483 C56.192832,72.1567937 56.189228,72.5138227 56.1708804,72.8241578 C56.1364786,73.3219869 56.1299259,73.9038652 56.1502393,74.5701517 C56.1751397,75.3754425 56.1649829,76.6516236 56.1197691,78.3976176 C56.1889004,80.6514978 56.3422342,82.4061122 56.5791153,83.6611015 C56.8156687,84.9160908 57.1413392,85.7903449 57.5561268,86.2827863 C57.9709144,86.7752277 58.3798045,87.0140851 58.7824695,86.9993586 C59.1851346,86.9842728 59.4904916,86.8510155 59.6985407,86.5992275 C59.9062621,86.3470802 60.0068465,86.1049902 59.9996385,85.872598 C59.997345,85.7950143 59.9842396,85.7181489 59.9606498,85.6412835 C59.6706916,84.721413 59.5055629,83.5993218 59.4646084,82.27501 C59.4554345,81.9808382 59.4528135,81.6748134 59.4574004,81.3562171 C59.4750927,79.6342885 59.4551069,77.8322618 59.3967876,75.9501371 C59.36042,74.7572866 59.3548502,73.6007138 59.3804058,72.4786227 C59.4059615,71.3572499 59.4043233,70.3321384 59.3758189,69.40257" id="Fill-21" fill="#FEFEFE"></path>
                        <path d="M82.9484823,73.9500992 C84.3547278,73.3404073 85.0381438,72.7903473 84.9983585,72.3010036 C84.9355199,71.5391598 83.4969255,71.2673824 80.6818317,71.4860331 C79.5061182,71.5771074 78.3973334,71.7238382 77.355849,71.9255028 C76.3139929,72.1278901 75.6755678,72.3667795 75.4409457,72.6432551 C74.9713296,73.1962063 74.7497213,73.635676 74.7764928,73.9620256 C74.7798392,74.0014188 74.8054952,74.1163459 74.8534608,74.3082525 C74.9010545,74.4997977 75.1248937,74.6743568 75.5238628,74.831207 C75.9232039,74.9876958 76.3396489,75.108044 76.7731979,75.1918902 C77.4592166,75.3187437 77.8098484,75.4672816 77.823606,75.6382266 C77.8276961,75.6852094 77.8117076,75.7368904 77.7763841,75.7947154 C75.1546397,79.6433279 73.3442195,81.6064852 72.3443796,81.6838261 C72.168506,81.6975596 72.0194038,81.6466013 71.8970731,81.5309514 C71.6256402,81.2624267 71.4635241,80.805971 71.4107248,80.1608612 C71.3902744,79.9118525 71.3936208,79.4387721 71.4207641,78.7401743 C71.4475356,78.0415765 71.6468342,76.9877166 72.0182883,75.5782332 C72.3893706,74.1687498 73.0170127,72.3794287 73.9012146,70.2106313 C74.7854166,68.0414725 75.5837268,66.5423604 76.2961452,65.7125723 C76.4798272,65.4950058 76.6315322,65.3815244 76.7512601,65.3724892 C76.8951567,65.3609242 77.0446308,65.513799 77.1993103,65.8303906 C77.2859458,66.0038655 77.3937753,66.1614385 77.5216834,66.3041939 C77.6503351,66.4465878 77.8302989,66.5087497 78.0623182,66.4906794 C78.2701689,66.4747775 78.5334216,66.3450328 78.850961,66.1010837 C79.3283854,65.7357022 79.54925,65.3392399 79.5142983,64.9116966 C79.5109519,64.8730261 79.4849241,64.7262953 79.4358431,64.4715041 C79.3867621,64.2174356 79.1454471,63.8784368 78.7122699,63.4541462 C78.2790927,63.0302169 77.8057584,62.6814602 77.2926386,62.4082372 C76.7203986,62.1086316 76.2385122,61.9738272 75.8469796,62.0041853 C74.8151627,62.0844174 73.8837388,62.649295 73.052708,63.6999023 C72.2213053,64.7497867 71.5419793,65.9370054 71.0151021,67.2604741 C70.4878529,68.5843043 69.9483336,70.2456877 69.3965439,72.2439015 C68.8748722,74.1308022 68.486686,75.72135 68.2308698,77.0159063 C68.0237627,78.1196402 67.9560904,79.1070014 68.027481,79.977267 C68.06801,80.4749231 68.2159967,81.1182257 68.4699538,81.9082592 C68.7235391,82.6982928 69.2604557,83.3824343 70.0810754,83.9599611 C70.7719279,84.4384626 71.5572242,84.6433798 72.4369643,84.5747127 C72.5968494,84.5624249 72.9880102,84.4970104 73.610075,84.3781078 C74.2321397,84.2595667 75.0107431,83.8963536 75.9470007,83.2877459 C76.8828865,82.6791382 77.654797,81.7647811 78.2627324,80.544313 C78.6364174,79.8034307 78.923467,79.4250386 79.1235093,79.4094982 C79.4429078,79.3849226 79.6738117,80.2353109 79.8154773,81.9606631 C80.0984368,85.4041395 80.7956104,87.0828703 81.906998,86.9968557 C82.2349484,86.9711959 82.6186727,86.7926613 83.0585428,86.461252 C83.3381558,86.2444084 83.4928354,85.7022994 83.5225815,84.8352864 C83.5519557,83.9689962 83.5181196,82.9451331 83.421073,81.7633354 C83.3247701,80.5894888 83.2173124,79.4282913 83.0987,78.279743 C83.0202447,77.3238242 82.9399303,76.4889763 82.8570131,75.7759223 C82.8425119,75.5973877 82.8187151,75.2627258 82.7863662,74.7719364 C82.7543892,74.2818699 82.8083039,74.0079241 82.9484823,73.9500992" id="Fill-23" fill="#FEFEFE"></path>
                        <path d="M86.01359,69.1416449 C86.2350221,69.3302473 86.3909132,69.8357161 86.4808932,70.6569676 L86.8504403,74.4759854 C86.9989257,75.8323329 87.1063091,76.8873501 87.1729609,77.6406758 C87.2396127,78.3943627 87.2833067,78.8683979 87.3040428,79.0616973 C87.4180914,80.100817 87.5987918,80.9480825 87.8476252,81.6042165 C88.1827356,82.4630439 88.6618879,83.1516955 89.2850822,83.6712554 C89.9086467,84.1900926 90.566648,84.5524838 91.260197,84.7587903 C91.9537459,84.9647354 92.5784213,85.0388034 93.1345935,84.9809942 C94.5564984,84.8328583 95.6355169,84.471551 96.3727598,83.8967111 C97.1088918,83.3218713 97.5743435,82.7286047 97.7683742,82.1165502 C97.9627753,81.5044957 98.0346111,80.9697609 97.9846223,80.5123459 C97.9694405,80.3728813 97.9420392,80.2345006 97.9027887,80.0975652 C97.670248,79.2203111 97.2958871,78.8084209 96.7793357,78.8622556 C96.5490167,78.8864632 96.3049971,79.0407414 96.0469066,79.3265355 C96.021727,79.3919321 95.7503061,79.7377032 95.2322735,80.36421 C94.849396,80.8274059 94.4135673,81.2685621 93.9251578,81.6884011 C93.4367483,82.1075175 93.0720149,82.3336959 92.830217,82.3669362 C92.5887894,82.3994538 92.4602995,82.4167966 92.4443772,82.4186031 C91.9992913,82.4652117 91.6401122,82.192786 91.3668398,81.6016874 C90.9180511,80.6608432 90.6573685,79.8569346 90.5844219,79.1903226 C90.5684995,79.0432706 90.5607234,78.9030834 90.5625749,78.7690384 C90.5788675,78.0384751 90.7754903,77.4672483 91.1524432,77.055358 C91.5290259,76.6441903 91.9929964,76.3135942 92.5443549,76.0635695 C93.095343,75.8142675 93.64485,75.6610732 94.1932461,75.6039867 C94.8205136,75.5382288 95.2822624,75.4081581 95.5784926,75.2126909 C95.8743525,75.0172237 96.0091372,74.7989941 95.9832171,74.5587248 C95.9713679,74.4503326 95.9347094,74.3365208 95.8732416,74.2176507 C95.6658805,73.7920307 95.3559496,73.5131015 94.9438194,73.3794178 C94.5316891,73.2457341 94.081049,73.2027386 93.5918989,73.2497085 C93.103119,73.2970398 92.6202638,73.3454549 92.1437035,73.3945927 C91.579385,73.4538471 91.1205985,73.4841969 90.767344,73.4852809 C90.4140895,73.4867261 90.2200587,73.3288348 90.1852517,73.0108844 C90.1182296,72.3988299 90.0793494,71.7520899 90.0693516,71.0710257 C89.9641899,70.1099483 89.92568,69.2496757 89.9556733,68.4894852 C89.984926,67.7303787 90.1237839,67.2747702 90.372247,67.1233825 C90.4326039,67.0861678 90.5140672,67.0615989 90.6177478,67.0507597 C90.7366101,67.0384752 90.8776897,67.0431722 91.0409866,67.0655733 C91.3583232,67.1027879 91.7152806,67.1009814 92.1129696,67.0594311 C92.6609955,67.0023445 93.1108951,66.9828339 93.4622982,67.0012606 C93.8137012,67.0196873 94.0610534,67.0211325 94.2039845,67.0063189 C94.4583722,66.9799435 94.6516624,66.912379 94.7845957,66.8043481 C94.8742053,66.7403968 94.9130855,66.6580187 94.9023472,66.557214 C94.8853139,66.4022131 94.7679327,66.2107203 94.5502035,65.9823741 C93.6737324,65.0234646 92.7861527,64.4392308 91.8874644,64.2311178 C90.9891464,64.0230048 90.1900654,63.9554403 89.4913325,64.0284244 C89.1814016,64.0605807 88.8740628,64.1162221 88.569316,64.194987 C87.5773151,64.4551283 86.7545358,64.8662959 86.1009779,65.4284901 C85.4477904,65.9899616 85.0978685,66.4676098 85.0523231,66.8607121 C85.007148,67.2530918 84.9912256,67.5117878 85.0045559,67.6357162 C85.0634317,68.1704509 85.4000232,68.672668 86.01359,69.1416449" id="Fill-25" fill="#FEFEFE"></path>
                        <path d="M103.646355,63.9659787 C104.026935,63.8064008 104.34191,63.7190217 104.590908,63.7038414 C104.976334,63.6801454 105.403134,63.7423474 105.871683,63.8889666 C106.636943,64.1462907 107.230363,64.5820755 107.6512,65.196321 C108.072409,65.8109368 108.303888,66.4529511 108.345637,67.1227342 C108.369865,67.5133485 108.347873,67.9387663 108.280405,68.3993578 C108.076137,69.6522854 107.28814,71.1617966 105.915295,72.9267806 C105.623431,73.2811103 105.372941,73.6006364 105.165319,73.885359 C104.570407,74.6902836 104.181254,75.0982996 103.996369,75.1101476 C103.876343,75.1171823 103.800302,74.869855 103.768991,74.3674251 C103.749608,74.0564148 103.748489,73.6483987 103.765263,73.1430068 C103.788001,72.9897232 103.775327,72.5261696 103.727242,71.7527163 C103.679157,70.9874086 103.615044,70.1210225 103.53453,69.153558 C103.454015,68.1857233 103.370519,67.3267422 103.283295,66.5758743 C103.196071,65.8246361 103.149105,65.3895918 103.141649,65.2696306 C103.097292,64.5598605 103.265776,64.1255567 103.646355,63.9659787 M120.233435,72.7120353 C120.348988,72.1614729 120.533127,71.5513001 120.78548,70.881517 C121.038579,70.2117339 121.245829,69.7974236 121.40723,69.6385862 C121.415431,69.6467317 121.483272,69.7989046 121.610007,70.095105 C122.118441,71.3439598 122.370421,72.3677024 122.366321,73.1667029 C122.365202,73.4144004 122.323081,73.6772783 122.241821,73.9564471 C122.159443,74.2359862 121.937283,74.4222222 121.575341,74.5162658 C120.99534,74.6651065 120.633025,74.7395269 120.488397,74.7387864 C120.198769,74.7369351 120.05526,74.4685035 120.057869,73.9334916 C120.05936,73.6698733 120.117509,73.2625977 120.233435,72.7120353 M99.4596078,62.7230479 C99.1241312,63.2236265 98.9724212,63.7293887 99.0041051,64.2392236 C99.0216245,64.5187627 99.0842468,64.814963 99.1923448,65.1285652 C99.4118955,65.8035318 99.5606235,66.770626 99.6392741,68.0305884 C99.929275,72.6868583 100.139134,75.9235879 100.268479,77.7404069 C100.562953,81.940158 101.388598,84.2664417 102.746533,84.719258 C103.331007,84.9236363 103.776073,85.0161989 104.081357,84.9976864 C104.522695,84.9699176 104.728081,84.713334 104.697888,84.2271951 C104.665086,83.8288056 104.565188,83.326746 104.398941,82.720646 C104.154789,81.7831718 103.992269,80.6609426 103.910636,79.353218 C103.887526,78.9862997 104.136897,78.7867347 104.659122,78.7548932 C105.614112,78.6960234 106.985465,78.9759327 108.772437,79.5946213 C109.365858,79.8060343 109.716245,79.9367327 109.824343,79.985976 C111.764888,80.8668019 113.164944,81.4192156 114.025255,81.6424766 C114.422608,81.7457765 114.766285,81.8213076 115.060759,81.8716617 C115.181903,82.2578329 115.38729,82.53441 115.681391,82.6943582 C116.090672,82.9198407 116.42764,83.0338779 116.693039,83.0353589 C116.789582,83.0357291 116.930482,83.0083306 117.115739,82.9535335 C117.454198,82.8431989 117.750908,82.2296939 118.005871,81.1130184 C118.145653,80.5139532 118.34992,79.9159987 118.618674,79.3184144 C119.212468,78.0195758 120.406019,77.3742292 122.199328,77.3834855 L122.57357,77.3853367 C122.927312,77.403479 123.281053,78.1998878 123.634795,79.7756737 C123.917713,81.0711801 124.057495,81.9945848 124.054513,82.5458878 C124.051904,83.0412829 124.267354,83.3815431 124.700492,83.5674088 C124.917061,83.6647847 125.134002,83.7136577 125.351316,83.7147685 C125.536574,83.7158792 125.775881,83.6610822 126.069982,83.5507475 C126.364083,83.4404129 126.564623,83.1416208 126.671603,82.6554819 C126.762555,82.2719024 126.808776,81.9009114 126.81064,81.5413982 C126.813622,80.8705044 126.697696,80.0633584 126.460998,79.1192197 C126.279841,78.3831617 126.190753,77.7437392 126.193735,77.2002115 C126.196717,76.6411333 126.412168,76.1150074 126.841578,75.6218337 C126.946321,75.4948378 126.999252,75.3711742 126.999997,75.251213 C127.000743,75.0675688 126.841578,74.7950644 126.521757,74.4340702 C126.042025,73.9042418 125.73115,73.3795969 125.588759,72.8597652 C124.846983,70.1795221 124.010901,67.8225076 123.080513,65.7887218 L122.638802,64.8275516 C122.551578,64.6516826 122.508339,64.4754434 122.509084,64.2995744 L122.512066,63.7245754 C122.491938,62.989258 122.21722,62.4209235 121.688285,62.0184613 C121.303978,61.7292956 120.930854,61.583417 120.568912,61.5815657 C120.480197,61.5811954 120.301276,61.6082237 120.031776,61.6626506 C119.761531,61.7174476 119.55279,62.1036189 119.404062,62.8219048 C119.238933,63.6516361 118.808032,65.3670065 118.110987,67.968016 C117.854906,69.1650358 117.408722,70.7563723 116.770944,72.7420256 C116.329233,74.1382401 115.924052,75.5418596 115.554655,76.9539949 C115.319822,77.8566656 115.153947,78.6664033 115.051813,79.3898728 C113.50713,78.7241624 112.258039,78.1991473 111.309013,77.8177893 C110.200822,77.3653432 109.428853,77.031007 108.991988,76.81367 C108.555496,76.596333 108.331472,76.4001002 108.320662,76.2246015 C108.30948,76.0413275 108.478336,75.7788199 108.827605,75.4367085 C109.372195,74.8672633 109.843726,74.2219167 110.241825,73.501039 C111.288139,71.5398223 111.79359,70.1543451 111.75967,69.3438668 C111.725377,68.5337588 111.705993,68.096493 111.701893,68.0328099 C111.610569,66.5655073 111.186005,65.3114689 110.427828,64.2692139 C109.635358,63.1891932 108.660984,62.3590917 107.505081,61.7777984 C106.348433,61.1968755 105.200357,60.9410324 104.060483,61.01138 C103.024978,61.0746928 102.083035,61.250932 101.235024,61.5389869 C100.386641,61.827412 99.7947116,62.2217288 99.4596078,62.7230479" id="Fill-27" fill="#FEFEFE"></path>
                        <path d="M142.605342,66.5051079 C142.843029,66.2845995 142.97305,66.046986 142.996148,65.7907798 C143.011795,65.6148938 142.979755,65.4308269 142.900402,65.2385793 C142.68395,64.7681863 142.401557,64.4309164 142.052849,64.2263977 C141.703397,64.0222508 141.429199,63.911067 141.22914,63.89359 C141.01306,63.8742537 140.814118,63.9289159 140.633058,64.0579486 C139.379053,64.9046561 138.328832,65.7312835 137.482025,66.5378309 C136.635217,67.3443783 135.951959,68.0345359 135.432623,68.6086757 C134.813444,69.3025519 134.430834,69.6792382 134.284422,69.7387345 C134.137637,69.7982309 134.048225,69.8264916 134.016558,69.8238887 C133.824322,69.8064116 133.728203,69.4799254 133.728949,68.8433145 C133.715164,68.0932886 133.793027,66.7754444 133.96142,64.8890383 C133.969244,64.8012812 133.965518,64.7124085 133.949126,64.6224203 C134.020656,63.8229381 133.857851,63.1179063 133.460339,62.5062095 C133.0632,61.8952563 132.691395,61.4951434 132.344923,61.307358 C131.99845,61.1195726 131.74139,61.018057 131.57337,61.0031829 C131.357291,60.9838466 131.177349,61.0526392 131.034289,61.2088172 C130.516444,61.7669673 130.009775,64.8146678 129.514282,70.3530343 C129.234124,73.4855172 129.066104,76.3584472 129.009849,78.9710807 C128.967005,81.166496 129.063868,82.6048203 129.301928,83.2864253 C129.423752,83.6352227 129.629773,83.9055592 129.919245,84.0966913 C130.209089,84.2870796 130.461679,84.3926856 130.677758,84.4116501 C130.869994,84.4287553 131.065956,84.4019819 131.266016,84.33133 C131.690351,84.1915136 131.974235,83.6995531 132.118784,82.8547049 C132.262589,82.0094849 132.414962,80.6882941 132.575904,78.8903888 C132.634022,78.2426222 132.834827,77.9343568 133.179436,77.9652205 C133.595575,78.0024057 134.347755,78.5244862 135.435976,79.5314619 C136.285764,80.3164419 137.096807,81.1497627 137.869477,82.0321679 C138.641775,82.9142013 139.211405,83.6114241 139.576877,84.1234646 C139.943095,84.6351332 140.240763,84.907329 140.472117,84.940052 C140.703471,84.972775 140.830883,84.9902521 140.855099,84.9924832 C141.263042,85.0285528 141.610632,84.9348461 141.897123,84.7106192 C142.115065,84.5287835 142.235772,84.306044 142.259242,84.042029 C142.267438,83.9542719 142.267438,83.8616807 142.259987,83.7642554 C142.162752,83.0465807 141.843848,82.3259311 141.30365,81.6011912 C140.763451,80.8760794 140.121919,80.1725351 139.38017,79.4905582 C138.638049,78.8082094 137.906732,78.1649051 137.185847,77.5610172 C136.321156,76.8556136 135.664722,76.2736649 135.217661,75.8147993 C134.7706,75.3563056 134.557501,75.0067645 134.579109,74.7672917 C134.594756,74.5914056 135.407662,73.6692122 137.017454,71.9999677 C139.775819,69.1288969 141.638573,67.2971531 142.605342,66.5051079" id="Fill-29" fill="#FEFEFE"></path>
                        <path d="M151.799699,76.3919374 C151.75373,76.6280759 151.665158,76.872481 151.53398,77.1251527 C151.402803,77.377465 151.149791,77.5176386 150.775319,77.544595 C150.176612,77.5866471 149.805878,77.5949137 149.663115,77.5690355 C149.377963,77.517998 149.284906,77.2369321 149.384316,76.7261973 C149.433274,76.4742444 149.564452,76.0957759 149.777848,75.590073 C149.991245,75.0836513 150.28275,74.533021 150.653485,73.9367444 C151.023846,73.3408273 151.303019,72.9810486 151.491376,72.8570489 C151.497355,72.8660344 151.53697,73.0231006 151.608725,73.3278882 C151.884534,74.6081396 151.948067,75.6299686 151.799699,76.3919374 M155.770149,79.5095401 C155.896842,79.4060274 155.971587,79.2971233 155.99401,79.182828 C156.027645,79.0074314 155.919639,78.719896 155.669617,78.3195029 C155.292155,77.7311336 155.080253,77.1761903 155.033912,76.6546729 C154.786132,73.967295 154.387368,71.5721251 153.836872,69.4688035 L153.575264,68.4750092 C153.520327,68.2917054 153.509489,68.1159494 153.542377,67.94846 L153.649262,67.3992674 C153.762127,66.6940868 153.593951,66.1035609 153.145107,65.6280492 C152.818098,65.2855227 152.476514,65.0813725 152.119233,65.0173959 C152.032155,65.0015814 151.850899,64.9965496 151.574716,65.0023003 C151.298908,65.0076916 151.023099,65.3408732 150.746916,66.0011264 C150.433735,66.7652518 149.698619,68.3287256 148.54082,70.6926261 C148.072543,71.7913708 147.344527,73.2344392 146.357147,75.0211123 C145.66912,76.2780015 145.015849,77.548908 144.396214,78.8338319 C143.706318,80.271509 143.265323,81.4820331 143.073602,82.4654042 C142.898699,83.3646712 143.035482,83.9889825 143.484325,84.3379786 C143.847212,84.6240763 144.159272,84.7908468 144.420879,84.8382902 C144.515805,84.8551829 144.659689,84.8533858 144.852158,84.8328989 C145.205701,84.7861744 145.609697,84.2513585 146.063025,83.2284513 C146.30931,82.6810557 146.618754,82.1451616 146.991357,81.6207689 C147.811683,80.4824881 149.105891,80.0723907 150.873235,80.3908362 L151.242101,80.4573287 C151.587797,80.5353227 151.792598,81.3569552 151.856878,82.9229449 C151.901725,84.2093065 151.872949,85.1154024 151.770548,85.6412328 C151.678612,86.1138692 151.829597,86.4761638 152.223502,86.7288355 C152.419334,86.8585859 152.624509,86.94269 152.838653,86.9815073 C153.021031,87.0145738 153.266942,87.0030724 153.577133,86.9488001 C153.887324,86.8941684 154.139215,86.6432937 154.33243,86.1972544 C154.49089,85.8471801 154.603755,85.5006999 154.670651,85.1578139 C154.795475,84.5169694 154.826121,83.7258875 154.763709,82.7838497 C154.717741,82.0495561 154.745396,81.4234477 154.846302,80.9051651 C154.950197,80.3714275 155.258146,79.906339 155.770149,79.5095401" id="Fill-31" fill="#FEFEFE"></path>
                        <path d="M172.343957,70.9544522 C172.160511,71.106702 172.028693,71.3261742 171.946674,71.6128689 C171.880033,71.8468757 171.845614,72.1266664 171.843417,72.4515144 C171.839389,73.3304934 171.727344,74.1546044 171.508381,74.9242106 L171.368142,75.3733293 C171.04702,76.2693864 170.756656,77.1734376 170.496317,78.0865729 C170.374019,78.5167966 170.203389,78.9412064 169.98589,79.3608926 C169.901674,79.6548545 169.346576,80.6232212 168.320598,82.266356 C167.358697,83.7975745 166.767716,84.531571 166.547288,84.4697991 C165.364959,83.2012932 164.671453,80.7376811 164.466038,77.0785994 C164.380357,75.6207806 164.327996,74.3639024 164.309322,73.3076014 C164.294309,72.2930874 164.073149,71.3835858 163.645475,70.5790966 C163.217801,69.7749707 162.848712,69.3189481 162.538941,69.2113921 C162.228804,69.1041996 162.058174,69.0460612 162.028149,69.0377039 C161.473418,68.8821838 161.080529,69.2077585 160.85058,70.0147913 L160.073224,72.6568154 C159.796041,73.6295425 159.550715,74.7076453 159.336878,75.8900338 C159.123041,77.0727856 158.862701,78.2032129 158.555127,79.2820424 C158.482262,79.5385779 158.405368,79.7653174 158.324081,79.9626244 C158.210205,80.3626888 158.103287,80.7238732 158.003325,81.0458143 C157.440172,83.0225178 157.113558,84.3691471 157.024581,85.0853387 C156.948054,85.6423767 157.050212,86.076234 157.331057,86.3872741 C157.612267,86.6983142 158.14393,86.9639338 158.926779,87.183406 C159.223368,87.2666165 159.488101,87.1594239 159.720246,86.8621917 C159.952758,86.5649594 160.157807,86.1699821 160.335028,85.6783498 C160.512249,85.1859907 160.678486,84.6663793 160.834103,84.1191522 C160.990087,83.5726518 161.151563,83.0719354 161.3178,82.6177296 C161.484402,82.1631605 161.66858,81.8259581 161.8707,81.6053958 C161.897064,81.6293779 161.925624,81.6511797 161.956382,81.6722549 C161.987505,81.69333 162.015333,81.7176755 162.040232,81.7449278 C162.065497,81.7721802 162.081242,81.8030661 162.087833,81.8375858 C162.406392,83.2550711 162.8813,84.418928 163.512925,85.3295197 C164.144184,86.2397481 164.750544,86.8640085 165.331639,87.202301 C165.912734,87.5405934 166.389107,87.7618825 166.761857,87.8661681 C167.10385,87.9624597 167.436323,88.0067902 167.758543,87.9991596 C168.893271,87.9922556 170.175195,86.575497 171.604315,83.7499738 C172.808979,81.3666652 173.775274,78.8961492 174.503931,76.3387891 C174.807477,75.2752208 174.970418,74.5146987 174.994218,74.0568593 C175.030834,73.1219221 174.893524,72.3788415 174.582655,71.8268906 C174.272152,71.2756665 174.000462,70.9591759 173.769781,70.8777823 C173.538002,70.7963886 173.406917,70.7516947 173.376892,70.7433374 C172.989129,70.634328 172.644573,70.7048207 172.343957,70.9544522" id="Fill-33" fill="#FEFEFE"></path>
                        <g id="Group-37" transform="translate(15.000000, 93.000000)">
                            <mask id="mask-2" fill="white">
                                <use xlink:href="#path-1"></use>
                            </mask>
                            <g id="Clip-36"></g>
                            <path d="M131.181582,20.3447407 C130.503669,20.824 129.915043,21.0636296 129.415703,21.0636296 C129.280855,21.0636296 129.150049,21.0477037 129.023285,21.0158519 C128.317448,20.8321481 127.810392,20.2688148 127.501014,19.3258519 C127.192003,18.3828889 127.033273,17.554 127.025189,16.8384444 C127.017473,16.1236296 127.013431,15.7177037 127.013431,15.6217778 C127.013431,14.3914074 127.112638,13.1406667 127.311051,11.8699259 C127.509097,10.5117778 127.77622,9.31103704 128.113523,8.26807407 C128.450091,7.22511111 128.813114,6.524 129.20149,6.16437037 C129.55055,5.82103704 129.950684,5.64881481 130.402625,5.64881481 C130.592588,5.64881481 130.795043,5.68103704 131.008889,5.74474074 C131.698926,5.96066667 132.6142,6.68807407 133.756179,7.92659259 C134.660062,8.90955556 135.149481,9.77659259 135.224805,10.5277037 C135.299761,11.2788148 135.337974,11.8025185 135.337974,12.0977037 C135.337974,13.016963 135.191001,13.9321481 134.897423,14.8428889 C134.493615,16.0577037 133.942467,17.1580741 133.244713,18.1451111 C132.546959,19.1321481 131.859494,19.8651111 131.181582,20.3447407 M110.974283,23.706963 C110.624855,23.7273333 110.175118,23.7506667 109.63977,23.7765926 L109.63977,23.7128889 C109.62397,23.2814074 109.616254,22.8458519 109.616254,22.4062222 C109.616254,21.6073333 109.643811,20.7999259 109.699294,19.9851111 C109.723177,19.5777037 109.734934,19.174 109.734934,18.7743704 C109.742651,18.2073333 109.754776,17.6436296 109.770943,17.0843704 C109.778291,16.8606667 110.036229,16.6647407 110.543653,16.496963 C111.367803,16.2254815 112.251845,16.0895556 113.19541,16.0895556 C114.241857,16.0895556 114.773164,16.281037 114.788964,16.6647407 C114.868329,18.7265926 114.951369,20.321037 115.03845,21.4477037 C115.103486,22.2851111 115.248621,22.9899259 115.472387,23.5628889 C113.976939,23.6117778 112.47855,23.6628889 110.974283,23.706963 M78.5197361,3.27548148 C78.9393436,3.27548148 79.41921,3.48362963 79.9586004,3.89918519 C80.6956693,4.45807407 81.3871766,5.31325926 82.0334898,6.464 C82.6794355,7.61474074 83.0027758,8.97733333 83.0027758,10.5517778 C83.0027758,10.7114074 83.0101244,10.8673333 83.0262914,11.0188148 C83.0262914,11.5547407 82.9270848,12.0302963 82.7290388,12.4454815 C82.5309929,12.861037 82.1661328,13.2528889 81.6351933,13.6202963 C80.461615,14.4351111 79.5896985,14.8428889 79.0190764,14.8428889 C78.376805,14.8428889 77.9921035,14.3954815 77.8657069,13.5002963 C77.7543749,12.6932593 77.6988927,11.6225185 77.6988927,10.2880741 C77.6988927,8.82548148 77.6316526,7.1877037 77.4971724,5.37325926 C77.4810054,5.18955556 77.4729219,5.02177778 77.4729219,4.86992593 C77.4729219,3.80733333 77.821615,3.27548148 78.5197361,3.27548148 M173.636162,25.8299259 C171.000571,25.4495556 168.376371,24.9943704 165.758049,24.7902963 C164.448889,24.6617778 163.141932,24.534 161.837181,24.4058519 L159.880605,24.2188148 L157.926233,24.0995556 C155.322241,23.9477037 152.723394,23.7725185 150.127118,23.6477037 C148.024671,23.5843704 145.924062,23.5217778 143.822717,23.4588148 C143.913841,23.3717778 143.993206,23.2591852 144.0542,23.1077037 C144.197131,22.7517778 144.286049,22.3084444 144.322058,21.776963 C144.357331,21.2458519 144.375335,20.6906667 144.375335,20.111037 C144.375335,19.5317778 144.393339,18.9958519 144.42898,18.5047407 C144.464254,18.0132593 144.549866,17.6317778 144.684346,17.3599259 C144.716312,17.3758519 144.750116,17.3899259 144.78539,17.4021481 C144.821398,17.414 144.854834,17.4299259 144.886801,17.4499259 C144.9184,17.4699259 144.941916,17.4962222 144.958083,17.5280741 C145.655836,18.8302963 146.434425,19.8414074 147.294951,20.5602963 C148.154742,21.2795556 148.91202,21.7254815 149.566049,21.896963 C150.220078,22.0684444 150.741097,22.1547407 151.129841,22.1547407 C151.486617,22.1547407 151.819511,22.106963 152.128889,22.0106667 C153.222734,21.6914074 154.070767,19.9491852 154.673724,16.7847407 C155.180413,14.1158519 155.434676,11.4265926 155.434676,8.71733333 C155.434676,7.59066667 155.382868,6.79992593 155.279987,6.344 C155.05769,5.41733333 154.720755,4.72585185 154.269181,4.27066667 C153.817239,3.81511111 153.468179,3.57918519 153.222734,3.56325926 C152.976554,3.54733333 152.838033,3.53918519 152.806433,3.53918519 C152.402258,3.53918519 152.088838,3.70325926 151.867277,4.03066667 C151.732429,4.23066667 151.664822,4.48251852 151.664822,4.78585185 C151.664822,5.03362963 151.708179,5.3177037 151.795995,5.63696296 C152.033356,6.49992593 152.152404,7.33918519 152.152404,8.15437037 L152.140646,8.63362963 C152.077081,9.60066667 152.045481,10.5677037 152.045481,11.5343704 C152.045481,11.9899259 151.997715,12.4532593 151.902918,12.9251111 C151.902918,13.2365926 151.633223,14.3391852 151.093832,16.2332593 C150.586776,17.9995556 150.218241,18.8825185 149.988229,18.8825185 C148.497557,17.9632593 147.149815,15.7380741 145.945005,12.2054815 C145.461465,10.7995556 145.065005,9.58066667 144.755628,8.54955556 C144.462784,7.55918519 143.998717,6.7277037 143.364529,6.05659259 C142.730342,5.38511111 142.248638,5.03992593 141.919786,5.01955556 C141.590567,4.99955556 141.410158,4.98955556 141.378559,4.98955556 C140.80022,4.98955556 140.510684,5.41733333 140.510684,6.27251852 L140.486801,9.07696296 C140.486801,10.1080741 140.545957,11.2328889 140.665373,12.4514074 C140.784053,13.6702963 140.843577,14.8506667 140.843577,15.9936296 C140.843577,16.2651111 140.83182,16.5091852 140.807937,16.7247407 C140.807937,17.1484444 140.803895,17.5317778 140.795811,17.8754815 C140.795811,19.9691852 140.851294,21.3795556 140.962258,22.106963 C141.041623,22.674 141.259878,23.0714074 141.616287,23.2995556 C141.673974,23.3358519 141.73901,23.3684444 141.808454,23.3991852 L140.396413,23.3591852 L138.450492,23.3480741 C137.152722,23.3414074 135.854584,23.3343704 134.555344,23.3277037 C133.702901,23.3236296 132.849724,23.3180741 131.996546,23.314 C132.815185,22.9188148 133.612145,22.4047407 134.386325,21.7651111 C135.686667,20.6906667 136.732747,19.4036296 137.526033,17.9054815 C138.318584,16.406963 138.715043,14.826963 138.715043,13.1643704 C138.715043,11.2151111 138.365982,9.57881481 137.668229,8.25585185 C136.970843,6.93362963 136.1342,5.86659259 135.159402,5.05585185 C134.184237,4.24474074 133.198784,3.62733333 132.204145,3.20362963 C131.209139,2.7802963 130.343101,2.48659259 129.606033,2.32288889 C128.868596,2.15881481 128.400855,2.07696296 128.202809,2.07696296 C128.162759,2.07696296 128.142918,2.07288889 128.142918,2.06511111 C127.87359,1.86511111 127.61602,1.76548148 127.370208,1.76548148 C126.886667,1.76548148 126.407168,2.14474074 125.931344,2.904 C125.400404,3.74325926 124.902901,4.89177778 124.438834,6.3502963 C123.975502,7.80844444 123.624605,9.32288889 123.386509,10.8928889 C123.14878,12.4636296 123.029732,13.9358519 123.029732,15.3102963 C123.029732,19.3528889 123.971461,22.034 125.849774,23.3591852 C123.536053,23.3936296 121.218659,23.4280741 118.889874,23.4628889 C118.839536,23.464 118.789197,23.4662222 118.739227,23.4673333 C118.745106,23.2102963 118.74878,22.9858519 118.74878,22.8021481 C118.74878,22.3065926 118.737022,21.7588148 118.713139,21.1595556 C118.689256,20.6725185 118.677498,20.1528889 118.677498,19.6014074 L118.689256,18.2832593 C118.689256,17.5158519 118.673456,16.6847407 118.641857,15.7895556 C118.641857,15.7017778 118.727101,15.5962222 118.897223,15.4721481 C119.067711,15.3484444 119.260246,15.2143704 119.474458,15.0706667 C120.44154,14.3991852 120.925081,13.8317778 120.925081,13.3684444 C120.925081,13.2565926 120.901197,13.1451111 120.853799,13.0328889 C120.710868,12.6573333 120.132162,12.2695556 119.117314,11.8699259 C118.926985,11.7980741 118.820062,11.4984444 118.796546,10.971037 C118.685214,8.03844444 118.630099,6.47992593 118.630099,6.29622222 C118.558818,4.37066667 118.122308,3.05585185 117.321673,2.35251852 C116.893615,1.97696296 116.307193,1.78918519 115.561673,1.78918519 L115.383469,1.78918519 C115.074091,1.80511111 114.91977,2.15696296 114.91977,2.844 L114.91977,3.04807407 C115.05425,6.50807407 115.153456,8.60177778 115.217022,9.32881481 L115.22878,9.74844444 C115.22878,11.7702963 114.78088,12.801037 113.885081,12.841037 C113.314458,12.8651111 112.815118,12.941037 112.38706,13.0684444 C111.530943,13.3247407 110.932028,13.4525185 110.591051,13.4525185 C110.265874,13.4525185 110.065991,13.3225185 109.990667,13.0628889 C109.915344,12.8032593 109.86574,12.3495556 109.842225,11.7021481 C109.858024,11.166963 109.86574,10.6632593 109.86574,10.1921481 C109.86574,6.17251852 109.021381,4.16288889 107.33303,4.16288889 C107.142701,4.16288889 106.868964,4.27066667 106.512187,4.48659259 C106.22706,4.75807407 106.084129,5.10955556 106.084129,5.54103704 C106.131895,6.73992593 106.171577,7.53066667 106.203177,7.91437037 C106.290625,8.97733333 106.333982,10.3958519 106.333982,12.1699259 C106.333982,12.801037 106.249106,13.2484444 106.07825,13.5125185 C105.908129,13.7762222 105.723678,13.9636296 105.525264,14.0754815 C105.27982,14.2036296 105.15673,14.3477037 105.15673,14.506963 C105.15673,14.7228889 105.374985,15.1347407 105.810759,15.7417778 C105.993005,16.0054815 106.084129,16.5128889 106.084129,17.2643704 C106.084129,18.1751111 106.096254,18.9821481 106.11977,19.6854815 C106.151736,20.4525185 106.167536,21.2836296 106.167536,22.1784444 C106.167536,22.9217778 106.286216,23.396963 106.524312,23.6051111 C106.648504,23.7095556 106.769022,23.806963 106.885866,23.8991852 C106.749548,23.9047407 106.616905,23.9102963 106.476179,23.9165926 C104.431051,24.0321481 101.890993,24.1762222 99.0066505,24.3399259 C97.5644793,24.4188148 96.0359616,24.5025185 94.4405712,24.5899259 C92.8466505,24.7017778 91.1854898,24.8177037 89.4765628,24.9373333 C87.7676359,25.0577037 86.0102079,25.181037 84.2241203,25.3062222 C83.3312601,25.3702963 82.4306839,25.4343704 81.5253311,25.4991852 C80.621448,25.5777037 79.7120534,25.6565926 78.8000868,25.7354815 C78.3503499,25.7743704 77.8984084,25.8132593 77.4479365,25.8521481 C77.5908676,25.5151111 77.6636192,25.071037 77.6636192,24.5162222 C77.6636192,22.1743704 77.65921,20.8221481 77.6514939,20.4588148 C77.6434104,20.0951111 77.6393687,19.8695556 77.6393687,19.7814074 C77.6393687,18.526963 77.9568301,17.8873333 78.5906505,17.8636296 C80.0574397,17.8636296 81.4048134,17.5917778 82.6338739,17.0484444 C83.8629344,16.5051111 84.8516944,15.734 85.6008885,14.7351111 C86.3500827,13.7358519 86.7344167,12.876963 86.7546255,12.1580741 C86.7744668,11.4384444 86.78402,11.051037 86.78402,10.9951111 C86.78402,9.65251852 86.340162,8.17807407 85.4524459,6.57177778 C84.3663165,4.60622222 83.2441787,3.144 82.0871349,2.18511111 C80.9293562,1.22585185 79.9604376,0.66437037 79.1796443,0.500666667 C78.3988509,0.336962963 77.7822998,0.255111111 77.3303582,0.255111111 C76.8229344,0.255111111 76.3511516,0.319185185 75.915377,0.446592593 C75.0827758,0.702518519 74.456304,1.04622222 74.0366965,1.4777037 C73.6163541,1.90918519 73.4061829,2.30474074 73.4061829,2.66437037 L73.4179407,2.83214815 C73.7747173,4.78177778 73.9790096,6.514 74.0304501,8.02844444 C74.0818906,9.54288889 74.1076109,11.1588148 74.1076109,12.876963 C74.1076109,13.5402963 74.0918113,14.2514074 74.0602121,15.0106667 C74.0602121,15.4021481 74.0440451,15.8495556 74.0124459,16.3532593 C74.0124459,17.5280741 74.0084042,18.4888148 74.0006881,19.2358519 C73.9926046,19.9828889 73.9889303,20.4088148 73.9889303,20.5125185 C73.9889303,23.4021481 74.5184,25.2336296 75.5751349,26.014 C74.821899,26.0784444 74.0690305,26.1436296 73.3176317,26.2084444 C71.4929637,26.3747407 69.6738071,26.4991852 67.8884543,26.6991852 C64.3155441,27.0662222 60.8521286,27.4217778 57.6492225,27.751037 C54.4496234,28.1095556 51.5153102,28.4832593 48.9884793,28.7777037 C46.4623833,29.0795556 44.3452392,29.3151111 42.7965127,29.5421481 C42.4202622,29.5973333 42.0458489,29.6525185 41.6718029,29.7073333 C39.9808802,29.9454815 38.1992017,30.1965926 36.3888635,30.4514074 C34.5796276,30.7173333 32.7376902,30.9580741 30.940947,31.2877037 C27.3419491,31.9095556 23.8759616,32.5284444 21.0382831,33.0847407 C18.4563374,33.6962222 15.8277278,34.3184444 13.210876,34.9373333 C14.4491223,34.7777037 15.5966129,34.6291852 16.5941912,34.5006667 C13.9104668,35.0077037 11.2271098,35.5136296 10.2129971,35.7884444 C4.5743833,37.2417778 7.83791566,36.7277037 10.0741077,36.5236296 C11.6720701,36.326963 9.58321837,36.941037 12.0747758,36.5895556 C10.2923624,36.9099259 9.41236242,37.131037 7.63546054,37.5184444 C7.54690939,37.6002963 8.90640835,37.2795556 10.1395106,36.9962222 C11.3766547,36.7317778 12.4940159,36.5358519 11.8943666,36.7473333 C11.4637361,36.8184444 11.0220827,36.8991852 10.5730806,36.9858519 C10.1262831,37.0806667 9.67507641,37.191037 9.22056284,37.2977037 C8.31300543,37.5136296 7.39773194,37.7365926 6.51369019,37.9317778 C6.83739791,37.9436296 8.37142714,37.6147407 9.79449186,37.3106667 C10.5040033,37.1491852 11.1947758,37.0354815 11.6886046,36.9547407 C12.1831683,36.8754815 12.4829929,36.8417778 12.4223666,36.8947407 C11.9480117,37.014 10.6811056,37.1695556 9.5126714,37.4147407 C8.34093027,37.6425185 7.24892192,37.8732593 7.09974447,38.0099259 C7.04095532,38.0647407 8.80940626,37.6736296 9.69418288,37.4780741 C4.264638,38.761037 1.31636242,39.6191852 6.32336033,38.7199259 C4.60083841,39.101037 2.14712651,39.5643704 0.332379123,39.9999259 L0.347076409,39.9999259 C1.25830814,39.8099259 2.83202004,39.4814074 3.67343967,39.3054815 C2.64095532,39.534 1.60479666,39.7628889 0.570842589,39.991037 C0.740963674,39.9791852 0.93166096,39.9654815 1.13191148,39.9514074 C1.90866305,39.8021481 2.68835407,39.6477037 3.49413278,39.4699259 C2.80923925,39.621037 2.12324342,39.7725185 1.43430814,39.9247407 C1.96267557,39.8736296 2.56820376,39.8025185 3.22958163,39.7147407 C5.70203257,39.2925185 8.08005344,38.9536296 9.40097203,38.6617778 C10.7321787,38.3558519 12.0828593,38.1302963 13.4283958,37.8788148 L17.4679449,37.1336296 L21.5078614,36.3854815 L25.5683541,35.7336296 C28.2759616,35.3025185 30.9832017,34.8714074 33.6882372,34.4406667 C36.4024585,34.0617778 39.1148426,33.6836296 41.8235524,33.3054815 C41.8334731,33.2284444 41.2455816,33.2365926 42.1388092,33.0747407 C44.952972,32.5814074 47.26559,32.5758519 50.0926129,32.1591852 C50.154709,32.1117778 50.2186422,32.0632593 50.2822079,32.0147407 C52.4823916,31.8047407 54.7759031,31.5865926 57.1160785,31.3632593 C61.4209136,30.8951111 65.7029678,30.4295556 69.9681203,29.9662222 C69.8527466,29.9314074 69.7965294,29.8951111 70.2205461,29.8432593 C71.9956109,29.6614074 74.4629177,29.4962222 77.0158363,29.2936296 C77.3924543,29.2551111 77.7690722,29.2162222 78.1394438,29.1780741 C78.4275106,29.1277037 78.4987925,29.0791852 78.5436192,29.0491852 C79.698091,28.9625185 80.7246965,28.8854815 81.6767132,28.8136296 C94.1995357,27.664 106.944287,26.7032593 120.786559,26.1551111 C123.712421,26.0058519 126.642325,25.856963 129.465306,25.7691852 C131.556362,25.7554815 133.935853,25.7873333 136.302484,25.8199259 C137.485248,25.8380741 138.665072,25.8562222 139.804112,25.874 C140.942784,25.8891852 142.039202,25.9525185 143.057724,25.9817778 C142.440438,25.5351111 152.393072,25.6402963 150.429147,25.1462222 C153.148513,25.3114074 157.232154,25.5758519 157.450408,25.4662222 C157.778893,25.3062222 158.474074,25.1477037 159.996346,25.0684444 C161.51678,25.0358519 163.864671,25.1002963 167.50078,25.3384444 C168.211761,25.3788148 169.0146,25.5025185 169.835444,25.6262222 C170.65592,25.7536296 171.495135,25.8836296 172.27703,26.0047407 C173.840087,26.251037 175.173131,26.4625185 175.67835,26.4977037 C177.268596,26.6162222 172.047753,25.7147407 173.636162,25.8299259" id="Fill-35" fill="#FEFEFE" mask="url(#mask-2)"></path>
                        </g>
                        <path d="M146.999508,42.1606993 C146.957586,41.124228 145.594769,41.3346173 145.000385,42.1662262 C144.406374,42.9974666 142.342123,44.6326816 140.88386,44.0103566 C139.42672,43.3872948 140.290973,37.1485702 139.30395,36.3099607 C138.317676,35.4713511 138.115556,38.393957 138.037328,40.9477368 C137.959474,43.5011482 136.11007,41.7001273 135.391793,38.4750177 C134.673516,35.2495396 133.716063,35.9602944 133.482501,36.3497541 C133.248565,36.7388454 135.228225,42.6323251 134.949373,42.8397667 C134.669773,43.0472084 131.727045,37.8991184 131.32767,37.9495971 C130.92792,37.9997074 130.218626,38.2182027 130.852312,39.7804631 C131.486746,41.3430919 133.893105,44.2395373 133.629225,44.589572 C133.364971,44.9396068 131.414133,42.3526658 130.553997,42.1279066 C129.694236,41.9038844 129.797167,43.1824323 131.130789,44.5962043 C132.463663,46.0096077 136.037082,47.9779084 135.298592,52.1621132 C135.015249,53.7674831 134.380815,56.1624576 133.707079,58.5043743 C134.55636,59.2611863 136.423731,60.4852025 139.085735,59.7976606 C139.405011,56.5600234 140.049177,52.9137667 141.33414,50.2074455 C144.256281,44.0538346 147.042552,43.1971706 146.999508,42.1606993" id="Fill-38" fill="#FEFEFE"></path>
                        <path d="M142.140818,39.3163845 C142.698446,33.3766166 150.581782,24.3993828 150.581782,24.3993828 C147.460397,28.6284412 144.665937,40 144.665937,40 C166.460275,31.857141 154.976685,11 154.976685,11 C135.333361,23.0458911 142.140818,39.3163845 142.140818,39.3163845" id="Fill-40" fill="#FEFEFE"></path>
                        <path d="M149,41.8164102 C153.367205,39.8225275 162.856896,41.6049157 162.856896,41.6049157 C158.631423,41.1706227 149.555365,43.8095637 149.555365,43.8095637 C164.147774,55.4114964 174,39.2412822 174,39.2412822 C157.565823,30.6670029 149,41.8164102 149,41.8164102" id="Fill-42" fill="#FEFEFE"></path>
                        <path d="M130.491703,38.0361049 C125.800144,37.6778606 118.622655,31.7059442 118.622655,31.7059442 C121.996392,34.0622393 131,36.0804082 131,36.0804082 C124.308442,19.368572 108,28.4782151 108,28.4782151 C117.743146,43.4835374 130.491703,38.0361049 130.491703,38.0361049" id="Fill-44" fill="#FEFEFE"></path>
                        <path d="M134.349385,35 C131.553654,30.4826091 132.356457,19.8782839 132.356457,19.8782839 C132.402541,24.5541925 136.520796,34.1357877 136.520796,34.1357877 C147.724204,16.6886606 128.28648,8 128.28648,8 C120.722204,27.0712064 134.349385,35 134.349385,35" id="Fill-46" fill="#FEFEFE"></path>
                        <path d="M167.150698,27.0450172 C164.504744,28.1335666 159.970791,32.6849569 159.970791,32.6849569 C172.361116,35.1834913 173,22 173,22 C160.491721,21.9689195 159,31.6283231 159,31.6283231 C160.948279,28.9903481 167.150698,27.0450172 167.150698,27.0450172" id="Fill-48" fill="#FEFEFE"></path>
                        <path d="M122.092788,25 C119.519211,23.461721 117.13515,17.9154726 117.13515,17.9154726 C118.385382,20.2570343 122.943614,23.9925925 122.943614,23.9925925 C123.915572,12.2634905 112,13.0095007 112,13.0095007 C113.258597,24.5979915 122.092788,25 122.092788,25" id="Fill-50" fill="#FEFEFE"></path>
                        <path d="M144.819749,7.82269355 C143.439764,10.4432033 142.873172,17 142.873172,17 C154.417852,10.5739615 146.103615,0 146.103615,0 C136.116341,8.4045144 141.392732,16.8414511 141.392732,16.8414511 C141.179538,13.4990988 144.819749,7.82269355 144.819749,7.82269355" id="Fill-52" fill="#FEFEFE"></path>
                        <path d="M161,58.7232097 C157.794023,46.9290676 148.70153,48.0270525 148.70153,48.0270525 C151.583067,49.1789351 154.940235,54.5195482 154.940235,54.5195482 C153.274635,52.3082831 148,49.2157167 148,49.2157167 C148.950551,61.5379113 161,58.7232097 161,58.7232097" id="Fill-54" fill="#FEFEFE"></path>
                        <path d="M113,49.2850353 C124.775181,54.5862277 130,45.905032 130,45.905032 C127.117942,47.628223 120.506569,46.8878161 120.506569,46.8878161 C123.43148,46.9549534 129.502104,44.4761832 129.502104,44.4761832 C118.814232,36.8460467 113,49.2850353 113,49.2850353" id="Fill-56" fill="#FEFEFE"></path>
                    </g>
                </g>
            </g>
        </g>
    </g>
</svg>