<?xml version="1.0" encoding="UTF-8"?>
<svg width="9px" height="16px" viewBox="0 0 9 16" version="1.1" xmlns="http://www.w3.org/2000/svg" xmlns:xlink="http://www.w3.org/1999/xlink">
    <!-- Generator: sketchtool 52.6 (67491) - http://www.bohemiancoding.com/sketch -->
    <title>6E78D3FD-7D67-4E2D-91CC-C22BDA2409BC</title>
    <desc>Created with sketchtool.</desc>
    <g id="Page-1" stroke="none" stroke-width="1" fill="none" fill-rule="evenodd">
        <g id="hari-satu-juta-pohon" transform="translate(-1003.000000, -1288.000000)" fill="#FFFFFF">
            <g id="Stacked-Group-4" transform="translate(0.000000, 805.000000)">
                <g id="Group-3" transform="translate(178.000000, 0.000000)">
                    <g id="arrow-left-white" transform="translate(829.000000, 491.000000) scale(-1, 1) translate(-829.000000, -491.000000) translate(824.000000, 483.000000)">
                        <path d="M8.76111968,7.3607789 L1.93953493,0.255091278 C1.78176,0.0906125761 1.57114418,0 1.34657039,0 C1.12199659,0 0.911380771,0.0906125761 0.753605842,0.255091278 L0.251243489,0.778255578 C-0.0756472211,1.11915619 -0.0756472211,1.67321704 0.251243489,2.01359838 L5.97949533,7.98052738 L0.244887627,13.9540771 C0.0871126978,14.1185558 0,14.3378174 0,14.5716187 C0,14.8056795 0.0871126978,15.0249412 0.244887627,15.1895497 L0.74724998,15.7125842 C0.905149533,15.8770629 1.11564073,15.9676755 1.34021452,15.9676755 C1.56478832,15.9676755 1.77540414,15.8770629 1.93317907,15.7125842 L8.76111968,8.60040568 C8.91926848,8.43540771 9.00613193,8.21510751 9.00563343,7.98091684 C9.00613193,7.74581744 8.91926848,7.52564706 8.76111968,7.3607789 Z" id="Path"></path>
                    </g>
                </g>
            </g>
        </g>
    </g>
</svg>