<?xml version="1.0" encoding="UTF-8"?>
<svg width="89px" height="78px" viewBox="0 0 89 78" version="1.1" xmlns="http://www.w3.org/2000/svg" xmlns:xlink="http://www.w3.org/1999/xlink">
    <!-- Generator: Sketch 50.2 (55047) - http://www.bohemiancoding.com/sketch -->
    <title>icon-kesehatan@2x</title>
    <desc>Created with Sketch.</desc>
    <defs></defs>
    <g id="-" stroke="none" stroke-width="1" fill="none" fill-rule="evenodd">
        <g id="Hari-Olahraga-Nsional" transform="translate(-1036.000000, -677.000000)" fill="#FFFFFF">
            <g id="Group-21" transform="translate(960.000000, 621.000000)">
                <g id="ambulance-(1)" transform="translate(76.000000, 56.000000)">
                    <g id="Shape">
                        <path d="M69.543418,22.0434783 L76.3105469,35.6086957 L69.543418,22.0434783 Z" fill-rule="nonzero"></path>
                        <path d="M69.3574219,50.8695652 C70.3169531,50.8695652 71.0957031,50.109913 71.0957031,49.173913 C71.0957031,48.237913 70.3169531,47.4782609 69.3574219,47.4782609 C68.3978906,47.4782609 67.6191406,48.237913 67.6191406,49.173913 C67.6191406,50.109913 68.3978906,50.8695652 69.3574219,50.8695652 Z" fill-rule="nonzero"></path>
                        <path d="M85.1291953,38.9671043 C85.1144199,38.9574391 85.0994707,38.9482826 85.0843477,38.9391261 L77.6542383,34.4275043 C67.9295977,14.9334391 68.4609902,15.9791478 68.3601699,15.8319652 C67.3910781,14.4125348 65.7689141,13.5652174 64.0208984,13.5652174 L60.6660156,13.5652174 L60.6660156,11.8695652 C60.6660156,9.65911304 59.2126387,7.77422609 57.1894531,7.07426087 L57.1894531,5.08695652 C57.1894531,2.27607391 54.8558105,0 51.9746094,0 C49.0991445,0 46.7597656,2.2820087 46.7597656,5.08695652 L46.7597656,7.07426087 C44.7365801,7.77422609 43.2832031,9.65894348 43.2832031,11.8695652 L43.2832031,13.5652174 L5.21484375,13.5652174 C2.33937891,13.5652174 0,15.8472261 0,18.6521739 L0,62.7391304 C0,65.5440783 2.33937891,67.826087 5.21484375,67.826087 L10.2652461,67.826087 C10.696166,70.2895304 11.910877,72.5540739 13.7795293,74.3246739 C13.8822617,74.4220043 13.9882969,74.5152652 14.0939844,74.6086957 L1.73828125,74.6086957 C0.778402344,74.6086957 0,75.3680087 0,76.3043478 C0,77.240687 0.778402344,78 1.73828125,78 L87.2617188,78 C88.2215977,78 89,77.240687 89,76.3043478 C89,75.3680087 88.2215977,74.6086957 87.2617188,74.6086957 L74.9199219,74.6086957 C75.0256094,74.5152652 75.1316445,74.4221739 75.234377,74.3246739 C77.103377,72.5537348 78.3182617,70.2886826 78.7490078,67.826087 L83.7851562,67.826087 C86.6606211,67.826087 89,65.5440783 89,62.7391304 L89,46.0216957 C89,43.1785957 87.5530547,40.5411783 85.1291953,38.9671043 Z M63.6334355,27.6270913 C62.9544629,26.9651087 61.8541309,26.9651087 61.1749844,27.6270913 L57.1894531,31.5148826 L57.1894531,23.7391304 L68.4559492,23.7391304 L73.5313828,33.9130435 L59.6477305,33.9130435 L63.6334355,30.0250826 C64.3124082,29.3629304 64.3124082,28.2892435 63.6334355,27.6270913 Z M50.2363281,5.08695652 C50.2363281,4.15197391 51.0161211,3.39130435 51.9746094,3.39130435 C52.9343145,3.39130435 53.7128906,4.15078696 53.7128906,5.08695652 L53.7128906,6.7826087 L50.2363281,6.7826087 L50.2363281,5.08695652 Z M46.7597656,11.8695652 C46.7597656,10.9345826 47.5395586,10.173913 48.4980469,10.173913 L55.4511719,10.173913 C56.4096602,10.173913 57.1894531,10.9345826 57.1894531,11.8695652 L57.1894531,13.5652174 L46.7597656,13.5652174 L46.7597656,11.8695652 Z M5.21484375,16.9565217 L45.0214844,16.9565217 L58.9277344,16.9565217 L64.0208984,16.9565217 C64.5708906,16.9565217 65.0833359,17.2081565 65.4104805,17.6341043 L66.7642539,20.3478261 L55.4511719,20.3478261 C54.491293,20.3478261 53.7128906,21.1071391 53.7128906,22.0434783 L53.7128906,35.6078478 C53.7121953,36.5501217 54.5032871,37.3043478 55.4511719,37.3043478 L75.8139199,37.3043478 L83.2231699,41.8034217 C84.6640312,42.7487478 85.5234375,44.3238391 85.5234375,46.0216957 L85.5234375,47.4782609 L76.3105469,47.4782609 C75.350668,47.4782609 74.5722656,48.2375739 74.5722656,49.173913 C74.5722656,50.1102522 75.350668,50.8695652 76.3105469,50.8695652 L85.5234375,50.8695652 L85.5234375,57.6521739 L75.5924629,57.6521739 C73.2984531,55.285213 70.1250469,53.9403913 66.7569531,53.9403913 C63.3890332,53.9403913 60.2161484,55.2848739 57.9216172,57.6521739 L31.0926367,57.6521739 C28.8000176,55.2847043 25.6260898,53.9403913 22.2569531,53.9403913 C18.8890332,53.9403913 15.7161484,55.2848739 13.4216172,57.6521739 L3.4765625,57.6521739 L3.4765625,50.8695652 L12.6894531,50.8695652 C13.649332,50.8695652 14.4277344,50.1102522 14.4277344,49.173913 C14.4277344,48.2375739 13.649332,47.4782609 12.6894531,47.4782609 L3.4765625,47.4782609 L3.4765625,18.6521739 C3.4765625,17.7171913 4.25635547,16.9565217 5.21484375,16.9565217 Z M54.6739863,64.4347826 L34.3400938,64.4347826 C34.1991191,63.263087 33.879623,62.1197087 33.3963809,61.0434783 L55.6176992,61.0434783 C55.1342832,62.1197087 54.8147871,63.263087 54.6739863,64.4347826 Z M3.4765625,62.7391304 L3.4765625,61.0434783 L11.1176992,61.0434783 C10.6342832,62.1197087 10.3149609,63.263087 10.1739863,64.4347826 L5.21484375,64.4347826 C4.25635547,64.4347826 3.4765625,63.674113 3.4765625,62.7391304 Z M13.5698926,66.0753261 C13.5667637,65.9869826 13.5655469,65.8984696 13.5655469,65.8101261 C13.5655469,63.8511391 14.2678125,61.9384435 15.5424941,60.4252435 C17.2004668,58.4593043 19.647793,57.3318652 22.2569531,57.3318652 C24.8664609,57.3318652 27.3130918,58.4591348 28.9693262,60.4245652 C28.9821895,60.4401652 28.9955742,60.4554261 29.0091328,60.4703478 C30.2601738,61.9771043 30.9483594,63.8709783 30.9483594,65.8101261 C30.9483594,65.8984696 30.9469687,65.9869826 30.9440137,66.0780391 C30.7976504,70.6819043 26.9819492,74.288387 22.2569531,74.288387 C17.531957,74.288387 13.7162559,70.6819043 13.5698926,66.0753261 Z M30.4199219,74.6086957 C30.5256094,74.5152652 30.6316445,74.4221739 30.734377,74.3246739 C32.603377,72.5537348 33.8182617,70.2886826 34.2490078,67.826087 L54.7654199,67.826087 C55.1963398,70.2895304 56.4110508,72.5540739 58.2797031,74.3246739 C58.3824355,74.4220043 58.4884707,74.5152652 58.5941582,74.6086957 L30.4199219,74.6086957 Z M66.7569531,74.2882174 C62.031957,74.2882174 58.2162559,70.6817348 58.0698926,66.0751565 C58.0667637,65.986813 58.0655469,65.8983 58.0655469,65.8099565 C58.0655469,63.8509696 58.7678125,61.9382739 60.0424941,60.4250739 C61.7004668,58.4591348 64.147793,57.3316957 66.7569531,57.3316957 C69.0829473,57.3316957 71.2787441,58.229713 72.9029941,59.817013 C73.0411875,60.2851826 73.3801523,60.6689087 73.8234141,60.8761174 C74.8738574,62.3103 75.4483594,64.040713 75.4483594,65.8099565 C75.4483594,65.8983 75.4469688,65.986813 75.4440137,66.0778696 C75.2976504,70.6819043 71.4819492,74.2882174 66.7569531,74.2882174 Z M83.7851562,64.4347826 L78.8400937,64.4347826 C78.6991191,63.263087 78.379623,62.1197087 77.8963809,61.0434783 L85.5234375,61.0434783 L85.5234375,62.7391304 C85.5234375,63.674113 84.7436445,64.4347826 83.7851562,64.4347826 Z" fill-rule="nonzero"></path>
                        <path d="M19.6425781,50.8695652 L62.4042969,50.8695652 C63.3641758,50.8695652 64.1425781,50.1102522 64.1425781,49.173913 C64.1425781,48.2375739 63.3641758,47.4782609 62.4042969,47.4782609 L19.6425781,47.4782609 C18.6826992,47.4782609 17.9042969,48.2375739 17.9042969,49.173913 C17.9042969,50.1102522 18.6826992,50.8695652 19.6425781,50.8695652 Z" fill-rule="nonzero"></path>
                        <path d="M22.2569531,70.896913 C25.132418,70.896913 27.4717969,68.6149043 27.4717969,65.8099565 C27.4717969,63.0050087 25.132418,60.723 22.2569531,60.723 C19.3814883,60.723 17.0421094,63.0050087 17.0421094,65.8099565 C17.0421094,68.6149043 19.3814883,70.896913 22.2569531,70.896913 Z M22.2569531,64.1143043 C23.2154414,64.1143043 23.9952344,64.8749739 23.9952344,65.8099565 C23.9952344,66.7449391 23.2154414,67.5056087 22.2569531,67.5056087 C21.2984648,67.5056087 20.5186719,66.7449391 20.5186719,65.8099565 C20.5186719,64.8749739 21.2984648,64.1143043 22.2569531,64.1143043 Z" fill-rule="nonzero"></path>
                        <path d="M66.7569531,60.723 C63.8814883,60.723 61.5421094,63.0050087 61.5421094,65.8099565 C61.5421094,68.6149043 63.8814883,70.896913 66.7569531,70.896913 C69.632418,70.896913 71.9717969,68.6149043 71.9717969,65.8099565 C71.9717969,63.0050087 69.632418,60.723 66.7569531,60.723 Z M66.7569531,67.5056087 C65.7984648,67.5056087 65.0186719,66.7449391 65.0186719,65.8099565 C65.0186719,64.8749739 65.7984648,64.1143043 66.7569531,64.1143043 C67.7154414,64.1143043 68.4952344,64.8749739 68.4952344,65.8099565 C68.4952344,66.7449391 67.7154414,67.5056087 66.7569531,67.5056087 Z" fill-rule="nonzero"></path>
                        <path d="M19.6425781,37.3043478 L24.8574219,37.3043478 L24.8574219,42.3913043 C24.8574219,43.3276435 25.6358242,44.0869565 26.5957031,44.0869565 L33.5488281,44.0869565 C34.508707,44.0869565 35.2871094,43.3276435 35.2871094,42.3913043 L35.2871094,37.3043478 L41.0234375,37.3043478 C41.9833164,37.3043478 42.7617188,36.5450348 42.7617188,35.6086957 L42.7617188,28.826087 C42.7617188,27.8897478 41.9833164,27.1304348 41.0234375,27.1304348 L35.2871094,27.1304348 L35.2871094,22.0434783 C35.2871094,21.1071391 34.508707,20.3478261 33.5488281,20.3478261 L26.5957031,20.3478261 C25.6358242,20.3478261 24.8574219,21.1071391 24.8574219,22.0434783 L24.8574219,27.1304348 L19.6425781,27.1304348 C18.6826992,27.1304348 17.9042969,27.8897478 17.9042969,28.826087 L17.9042969,35.6086957 C17.9042969,36.5450348 18.6826992,37.3043478 19.6425781,37.3043478 Z M21.3808594,30.5217391 L26.5957031,30.5217391 C27.555582,30.5217391 28.3339844,29.7624261 28.3339844,28.826087 L28.3339844,23.7391304 L31.8105469,23.7391304 L31.8105469,28.826087 C31.8105469,29.7624261 32.5889492,30.5217391 33.5488281,30.5217391 L39.2851562,30.5217391 L39.2851562,33.9130435 L33.5488281,33.9130435 C32.5889492,33.9130435 31.8105469,34.6723565 31.8105469,35.6086957 L31.8105469,40.6956522 L28.3339844,40.6956522 L28.3339844,35.6086957 C28.3339844,34.6723565 27.555582,33.9130435 26.5957031,33.9130435 L21.3808594,33.9130435 L21.3808594,30.5217391 Z" fill-rule="nonzero"></path>
                    </g>
                </g>
            </g>
        </g>
    </g>
</svg>