<?xml version="1.0" encoding="UTF-8"?>
<svg width="52px" height="45px" viewBox="0 0 52 45" version="1.1" xmlns="http://www.w3.org/2000/svg" xmlns:xlink="http://www.w3.org/1999/xlink">
    <!-- Generator: Sketch 50.2 (55047) - http://www.bohemiancoding.com/sketch -->
    <title>icon-pengaduan@2x</title>
    <desc>Created with Sketch.</desc>
    <defs></defs>
    <g id="-" stroke="none" stroke-width="1" fill="none" fill-rule="evenodd">
        <g id="Hari-Olahraga-Nsional" transform="translate(-865.000000, -3445.000000)" fill="#FFFFFF">
            <g id="Group-24-Copy" transform="translate(179.000000, 3413.000000)">
                <g id="Group-28" transform="translate(662.250000, 0.000000)">
                    <g id="megaphone-(1)" transform="translate(24.000000, 32.000000)">
                        <g id="Shape">
                            <path d="M44.7747129,10.769967 C48.2822578,11.2211564 51,14.209989 51,17.8202974 C51,21.4294163 48.2821582,24.4182489 44.7747129,24.8706278 L44.7747129,33.0353524 C44.7747129,33.9351542 44.3102344,34.7430727 43.5315879,35.1979295 C43.1324531,35.430859 42.693873,35.5473238 42.253998,35.5473238 C41.8289648,35.5473238 41.405127,35.4394824 41.0158535,35.2224119 C33.9662988,31.2993833 26.3402051,28.8965419 18.323543,28.0678084 L23.2429512,41.5714758 C23.5213594,42.3315198 23.4092988,43.1823568 22.9411348,43.8468502 C22.474166,44.5113436 21.709166,44.9073238 20.8947598,44.9073238 L15.1486934,44.9073238 C14.1015,44.9073238 13.1578008,44.2489758 12.7993066,43.2706718 L7.0741582,27.5457489 C5.85444141,27.0088216 4.96622461,25.8601322 4.80485742,24.4931828 L3.19576758,24.4931828 C1.43407617,24.4930837 0,23.0673568 0,21.3142401 L0,14.3288326 C0,12.5770044 1.43407617,11.149989 3.19576758,11.149989 L4.80475781,11.149989 C5.02897852,9.25096916 6.65649609,7.77132159 8.62517578,7.77132159 C8.62517578,7.77132159 16.4656289,7.73702643 16.532168,7.73207048 C25.2054551,7.09215859 33.4438477,4.63162996 41.0157539,0.416894273 C41.8091426,-0.0244823789 42.7491562,-0.0146696035 43.5314883,0.441376652 C44.3101348,0.89623348 44.7746133,1.70534141 44.7746133,2.60395374 L44.7746133,10.769967 L44.7747129,10.769967 Z M48.5359629,17.8203965 C48.5359629,15.5646476 46.9171113,13.679207 44.7746133,13.2513106 L44.7746133,22.3881938 C46.9171113,21.9602974 48.5359629,20.0748568 48.5359629,17.8203965 Z M42.3106758,33.0354515 L42.3106758,2.60405286 C42.3106758,2.58690529 42.3106758,2.57213656 42.2847773,2.55627753 C42.2527031,2.53912996 42.2342754,2.54894273 42.2182383,2.55746696 C34.646332,6.77101322 26.4350332,9.30132159 17.7962109,10.0871366 L17.7962109,25.5535573 C26.4337383,26.3381828 34.6451367,28.8684912 42.2182383,33.0820374 C42.2342754,33.0906608 42.2527031,33.101663 42.2847773,33.0832269 C42.3106758,33.0673678 42.3106758,33.0538877 42.3106758,33.0354515 Z M20.9231484,42.440848 C20.9342051,42.4248899 20.9305195,42.4187445 20.926834,42.4077423 L15.6316992,27.8718502 L9.81291797,27.8718502 L15.1154238,42.4335132 C15.1203047,42.445804 15.1339512,42.4556167 15.1486934,42.4556167 L20.8947598,42.4556167 C20.9046211,42.4555176 20.9119922,42.4555176 20.9231484,42.440848 Z M15.3322734,25.4199449 L15.3322734,10.2232269 L8.62527539,10.2232269 C7.8614707,10.2232269 7.24050586,10.8411344 7.24050586,11.6011784 L7.24050586,24.0419934 C7.24050586,24.6022137 7.57808203,25.0840308 8.0622832,25.2998128 C8.2396875,25.3745485 8.29148437,25.3881278 8.53781836,25.4162775 C8.56730273,25.417467 15.3322734,25.4199449 15.3322734,25.4199449 Z M4.77646875,22.0412775 L4.77646875,13.6018943 L3.19576758,13.6018943 C2.79165234,13.6018943 2.4639375,13.9279956 2.4639375,14.3288326 L2.4639375,21.3142401 C2.4639375,21.7150771 2.79165234,22.0411784 3.19576758,22.0411784 L4.77646875,22.0412775 Z" fill-rule="nonzero"></path>
                        </g>
                    </g>
                </g>
            </g>
        </g>
    </g>
</svg>