<?xml version="1.0" encoding="UTF-8"?>
<svg width="73px" height="72px" viewBox="0 0 73 72" version="1.1" xmlns="http://www.w3.org/2000/svg" xmlns:xlink="http://www.w3.org/1999/xlink">
    <!-- Generator: Sketch 50.2 (55047) - http://www.bohemiancoding.com/sketch -->
    <title>icon-video@2x</title>
    <desc>Created with Sketch.</desc>
    <defs></defs>
    <g id="-" stroke="none" stroke-width="1" fill="none" fill-rule="evenodd">
        <g id="Hari-Olahraga-Nsional" transform="translate(-1284.000000, -680.000000)" fill="#FFFFFF">
            <g id="Group-22" transform="translate(1200.000000, 621.000000)">
                <g id="play-button-(1)" transform="translate(84.496914, 59.500000)">
                    <g>
                        <path d="M18.00675,4.76961914 C26.33175,0.0302304688 36.0299531,-1.22793945 45.3141562,1.22391797 C54.5985,3.67757813 62.3574844,9.5495 67.1634844,17.7569336 C71.9694844,25.9661699 73.2455156,35.5298145 70.759125,44.6850703 C68.2709062,53.8403262 62.3161406,61.4915469 53.99325,66.2309355 C48.4471406,69.3886328 42.2938125,70.9998613 36.0580781,70.9998613 C32.9326875,70.9998613 29.7867656,70.5952168 26.6858438,69.7766367 C17.4016406,67.3229766 9.64265625,61.450916 4.83651563,53.2436211 C0.030515625,45.0342461 -1.24551563,35.4707402 1.240875,26.3154844 C3.72923437,17.1600898 9.68385937,9.50886914 18.00675,4.76961914 Z M67.1391562,43.727957 C69.3669375,35.5260703 68.2240781,26.9583672 63.9182812,19.6045977 C59.6124844,12.2508281 52.6609687,6.99239063 44.3437031,4.79360938 C41.5669219,4.06003516 38.7469687,3.69796289 35.9476875,3.69796289 C30.3622031,3.69796289 24.8497031,5.14098242 19.8807187,7.96975 C12.4250625,12.2157441 7.09059375,19.0707109 4.86084375,27.272459 C2.6330625,35.4743457 3.77592187,44.0420488 8.08171875,51.3958184 C12.3875156,58.7495879 19.3388906,64.0081641 27.6562969,66.2068066 C35.9737031,68.4036465 44.6620781,67.2766602 52.1194219,63.030666 C59.5767656,58.7846719 64.9094062,51.9298438 67.1391562,43.727957 Z" id="Shape" fill-rule="nonzero"></path>
                        <g id="Group" transform="translate(24.187500, 8.042969)" fill-rule="nonzero">
                            <path d="M33.9335156,10.6009102 C34.5668906,11.4064551 34.4169844,12.5686641 33.598125,13.1932422 C33.2571094,13.4538066 32.8542188,13.5794434 32.4532969,13.5794434 C31.8930469,13.5794434 31.3384219,13.3337168 30.9692812,12.8625098 C27.1094062,7.94575977 21.3065156,4.64037695 15.0464531,3.79780664 C14.0215781,3.65927344 13.3039688,2.72795312 13.4444531,1.7173125 C13.5831094,0.704730469 14.529375,-0.00291210938 15.55425,0.135759766 C22.7774531,1.109375 29.4778125,4.92299023 33.9335156,10.6009102 Z" id="Shape"></path>
                            <path d="M29.0787187,24.1093535 C30.3059531,24.8078437 31.0386094,26.0586641 31.0386094,27.4573086 C31.0386094,28.8559531 30.3059531,30.1069121 29.0787187,30.8052637 L5.94225,43.9792305 C5.32771875,44.3284062 4.65496875,44.5021621 3.98053125,44.5021621 C3.30792187,44.5021621 2.63334375,44.3285449 2.02064062,43.9792305 C0.79340625,43.2789375 0.058921875,42.0281172 0.058921875,40.629334 L0.058921875,14.2851445 C0.058921875,12.8865 0.79340625,11.635541 2.02064062,10.935248 C3.247875,10.2367578 4.7131875,10.2367578 5.94225,10.935248 L29.0787187,24.1093535 Z M27.2912344,27.4573086 C27.2912344,27.3576035 27.2331563,27.3243223 27.2050312,27.3094844 L4.0685625,14.1355176 C4.04985938,14.1262266 4.02173438,14.1095859 3.98235938,14.1095859 C3.95803125,14.1095859 3.92807813,14.1169355 3.89432813,14.1355176 C3.80629688,14.1854395 3.80629688,14.2518633 3.80629688,14.2851445 L3.80629688,40.6294727 C3.80629688,40.6627539 3.80629688,40.7293164 3.89432813,40.7790996 C3.98053125,40.8270801 4.0404375,40.7939375 4.0685625,40.7790996 L27.2050312,27.6051328 C27.2331563,27.5902949 27.2912344,27.5570137 27.2912344,27.4573086 Z" id="Shape"></path>
                        </g>
                    </g>
                </g>
            </g>
        </g>
    </g>
</svg>