<?xml version="1.0" encoding="UTF-8"?>
<svg width="16px" height="16px" viewBox="0 0 16 16" version="1.1" xmlns="http://www.w3.org/2000/svg" xmlns:xlink="http://www.w3.org/1999/xlink">
    <!-- Generator: Sketch 50.2 (55047) - http://www.bohemiancoding.com/sketch -->
    <title>icon date@3x</title>
    <desc>Created with Sketch.</desc>
    <defs></defs>
    <g id="-" stroke="none" stroke-width="1" fill="none" fill-rule="evenodd">
        <g id="Hari-Olahraga-Nsional" transform="translate(-149.000000, -1389.000000)">
            <g id="Group-4" transform="translate(149.000000, 1389.000000)">
                <g id="agenda">
                    <g id="Shape">
                        <path d="M7.99752284,4.02653266 C8.24917766,4.02653266 8.45396954,3.82379899 8.45396954,3.57467337 L8.45396954,2.84832161 C8.45396954,2.8481608 8.45396954,2.848 8.45396954,2.8479196 C8.45396954,2.84775879 8.45396954,2.84759799 8.45396954,2.84751759 L8.45396954,1.41676382 C8.45396954,1.16755779 8.24917766,0.964824121 7.99752284,0.964824121 C7.74582741,0.964824121 7.54107614,1.16755779 7.54107614,1.41676382 L7.54107614,3.57467337 C7.54111675,3.82379899 7.74582741,4.02653266 7.99752284,4.02653266 Z"></path>
                        <path d="M3.38351269,4.02653266 C3.63524873,4.02653266 3.84,3.82379899 3.84,3.57467337 L3.84,2.84868342 C3.84,2.84836181 3.83995939,2.8481206 3.83995939,2.8478794 C3.83995939,2.84755779 3.84,2.84731658 3.84,2.84711558 L3.84,1.41676382 C3.84,1.16755779 3.63524873,0.964824121 3.38351269,0.964824121 C3.13185787,0.964824121 2.9271066,1.16755779 2.9271066,1.41676382 L2.9271066,3.57467337 C2.92706599,3.82379899 3.13181726,4.02653266 3.38351269,4.02653266 Z"></path>
                        <path d="M15.4777665,2.36550754 L14.0426396,2.36550754 L14.0426396,1.41676382 C14.0426802,0.635537688 13.4006904,0 12.6115736,0 C11.8224569,0 11.1805076,0.635537688 11.1805076,1.41676382 L11.1805076,2.36550754 L9.42858883,2.36550754 L9.42858883,1.41676382 C9.42858883,0.635537688 8.78663959,0 7.99752284,0 C7.2084467,0 6.56645685,0.635537688 6.56645685,1.41676382 L6.56645685,2.36550754 L4.81457868,2.36550754 L4.81457868,1.41676382 C4.81461929,0.635537688 4.17258883,0 3.38351269,0 C2.59443655,0 1.9524467,0.635537688 1.9524467,1.41676382 L1.9524467,2.36550754 L0.517319797,2.36550754 C0.248162437,2.36550754 0.0300101523,2.58150754 0.0300101523,2.8479196 L0.0300101523,14.0380704 C0.0300101523,15.1172261 0.916832487,15.9951357 2.00694416,15.9951357 L13.9881827,15.9951357 C15.0782944,15.9951357 15.9651168,15.1172261 15.9651168,14.0380704 L15.9651168,2.8479196 C15.9650761,2.58150754 15.7469645,2.36550754 15.4777665,2.36550754 Z M14.9904975,5.41073367 L1.00462944,5.41073367 L1.00462944,3.33033166 L1.95248731,3.33033166 L1.95248731,3.57467337 C1.95248731,4.3558593 2.59447716,4.99135678 3.38351269,4.99135678 C4.17258883,4.99135678 4.81461929,4.3558191 4.81461929,3.57467337 L4.81461929,3.33033166 L6.56649746,3.33033166 L6.56649746,3.57467337 C6.56649746,4.3558593 7.20848731,4.99135678 7.99756345,4.99135678 C8.7866802,4.99135678 9.42862944,4.3558191 9.42862944,3.57467337 L9.42862944,3.33033166 L11.1805482,3.33033166 L11.1805482,3.57467337 C11.1805482,4.3558593 11.8225381,4.99135678 12.6116142,4.99135678 C13.400731,4.99135678 14.0426802,4.3558191 14.0426802,3.57467337 L14.0426802,3.33033166 L14.9904975,3.33033166 L14.9904975,5.41073367 Z M12.1551269,1.41676382 C12.1551269,1.16755779 12.3598376,0.964824121 12.6115736,0.964824121 C12.8632284,0.964824121 13.0680203,1.16755779 13.0680203,1.41676382 L13.0680203,3.57467337 C13.0680203,3.82379899 12.8632284,4.02653266 12.6115736,4.02653266 C12.3598376,4.02653266 12.1551269,3.82379899 12.1551269,3.57467337 L12.1551269,1.41676382 Z M7.54111675,1.41676382 C7.54111675,1.16755779 7.74586802,0.964824121 7.99756345,0.964824121 C8.24921827,0.964824121 8.45401015,1.16755779 8.45401015,1.41676382 L8.45401015,2.84751759 C8.45401015,2.84759799 8.45401015,2.84775879 8.45401015,2.8479196 C8.45401015,2.848 8.45401015,2.8481608 8.45401015,2.84832161 L8.45401015,3.57467337 C8.45401015,3.82379899 8.24921827,4.02653266 7.99756345,4.02653266 C7.74586802,4.02653266 7.54111675,3.82379899 7.54111675,3.57467337 L7.54111675,1.41676382 Z M2.92706599,1.41676382 C2.92706599,1.16755779 3.13181726,0.964824121 3.38351269,0.964824121 C3.63524873,0.964824121 3.84,1.16755779 3.84,1.41676382 L3.84,2.84711558 C3.84,2.84735678 3.83995939,2.84759799 3.83995939,2.8478794 C3.83995939,2.8481206 3.84,2.84836181 3.84,2.84868342 L3.84,3.57467337 C3.84,3.82379899 3.63524873,4.02653266 3.38351269,4.02653266 C3.13185787,4.02653266 2.9271066,3.82379899 2.9271066,3.57467337 L2.9271066,1.41676382 L2.92706599,1.41676382 Z M14.9904569,14.0380704 C14.9904569,14.5851658 14.5408325,15.0303116 13.9881421,15.0303116 L2.00690355,15.0303116 C1.45425381,15.0303116 1.00458883,14.585206 1.00458883,14.0380704 L1.00458883,6.37547739 L14.9904569,6.37547739 L14.9904569,14.0380704 Z" fill="#0D0D0D" fill-rule="nonzero"></path>
                        <path d="M2.43975635,8.75344724 L13.5553299,8.75344724 C13.8244467,8.75344724 14.0426396,8.53744724 14.0426396,8.27103518 C14.0426396,8.00462312 13.8244467,7.78862312 13.5553299,7.78862312 L2.43975635,7.78862312 C2.17059898,7.78862312 1.9524467,8.00462312 1.9524467,8.27103518 C1.9524467,8.53744724 2.17059898,8.75344724 2.43975635,8.75344724 Z" fill="#0D0D0D" fill-rule="nonzero"></path>
                        <path d="M2.43975635,10.9900302 L13.5553299,10.9900302 C13.8244467,10.9900302 14.0426396,10.7740302 14.0426396,10.5076181 C14.0426396,10.241206 13.8244467,10.025206 13.5553299,10.025206 L2.43975635,10.025206 C2.17059898,10.025206 1.9524467,10.241206 1.9524467,10.5076181 C1.9524467,10.7740302 2.17059898,10.9900302 2.43975635,10.9900302 Z" fill="#0D0D0D" fill-rule="nonzero"></path>
                        <path d="M2.43975635,13.2266131 L13.5553299,13.2266131 C13.8244467,13.2266131 14.0426396,13.0106131 14.0426396,12.744201 C14.0426396,12.4777889 13.8244467,12.2617889 13.5553299,12.2617889 L2.43975635,12.2617889 C2.17059898,12.2617889 1.9524467,12.4777889 1.9524467,12.744201 C1.9524467,13.0106131 2.17059898,13.2266131 2.43975635,13.2266131 Z" fill="#0D0D0D" fill-rule="nonzero"></path>
                    </g>
                </g>
            </g>
        </g>
    </g>
</svg>