<?xml version="1.0" encoding="UTF-8"?>
<svg width="41px" height="54px" viewBox="0 0 41 54" version="1.1" xmlns="http://www.w3.org/2000/svg" xmlns:xlink="http://www.w3.org/1999/xlink">
    <!-- Generator: Sketch 50.2 (55047) - http://www.bohemiancoding.com/sketch -->
    <title>icon-peta</title>
    <desc>Created with Sketch.</desc>
    <defs></defs>
    <g id="-" stroke="none" stroke-width="1" fill="none" fill-rule="evenodd">
        <g id="Hari-Olahraga-Nsional" transform="translate(-1096.000000, -3440.000000)" fill="#FFFFFF">
            <g id="Group-24-Copy" transform="translate(179.000000, 3413.000000)">
                <g id="Group-27" transform="translate(883.000000, 0.000000)">
                    <g id="placeholder" transform="translate(34.000000, 27.000000)">
                        <g id="Shape">
                            <path d="M40.7673834,51.9967368 C41.0075415,52.4993684 40.9055725,53.0965263 40.5137358,53.4941053 C40.2560518,53.7561053 39.9072332,53.8944211 39.554272,53.8944211 C39.3691347,53.8944211 39.1838912,53.8571579 39.008101,53.7801053 L30.0270829,49.8173684 L21.0460648,53.7801053 C20.6985207,53.9330526 20.3013731,53.9330526 19.953829,53.7801053 L10.9728109,49.8173684 L1.99179275,53.78 C1.47918653,54.0061053 0.878101036,53.8916842 0.486264249,53.4941053 C0.0944274611,53.0965263 -0.00754145078,52.4993684 0.23261658,51.9967368 L7.40209326,36.9673684 C7.53900777,36.6788421 7.77651036,36.4501053 8.06903368,36.3197895 L11.657171,34.7386316 L5.47658031,24.4726316 C5.46181606,24.4487368 5.44843264,24.4234737 5.43494301,24.3982105 C4.20717358,22.0245263 3.56710622,19.3489474 3.58314508,16.6641053 C3.61001813,12.2691579 5.35708549,8.11621053 8.50367617,4.97252632 C11.6503731,1.82757895 15.8262124,0.0629473684 20.2610104,0.00178947368 C24.8260311,-0.062 29.1293316,1.65336842 32.3779974,4.82894737 C35.6266632,8.00452632 37.4166425,12.2425263 37.4166425,16.7651579 C37.4166425,19.4526316 36.7939948,22.0217895 35.5648446,24.3982105 C35.5514611,24.4234737 35.5379715,24.4487368 35.5232073,24.4726316 L29.3426166,34.7386316 L32.9092979,36.3117895 C33.2072383,36.4368421 33.4540881,36.6668421 33.5976943,36.9673684 L40.7673834,51.9967368 Z M36.7954819,49.8916842 L31.3851813,38.5498947 L27.9580699,37.0378947 L23.9566399,43.6842105 C23.2239508,44.9023158 21.9318135,45.6296842 20.5,45.6296842 C19.0681865,45.6296842 17.7760492,44.9023158 17.0433601,43.6842105 L13.0419301,37.0378947 L9.61619948,38.5498947 L4.20451813,49.8916842 L10.4266399,47.1456842 C10.7741839,46.9927368 11.1713316,46.9927368 11.5188756,47.1456842 L20.5,51.1084211 L29.4810181,47.1456842 C29.8285622,46.9927368 30.2257098,46.9927368 30.5732539,47.1456842 L36.7954819,49.8916842 Z M33.1952358,23.1481053 C34.2164119,21.1601053 34.7329482,19.0137895 34.7329482,16.7650526 C34.7329482,12.9605263 33.2274197,9.394 30.4940155,6.72242105 C27.7606114,4.05084211 24.1390155,2.61073684 20.2972306,2.66126316 C12.6070751,2.76631579 6.31240674,9.05494737 6.26683938,16.68 C6.25345596,18.9578947 6.76999223,21.1348421 7.80455181,23.1481053 L19.3472202,42.3210526 C19.7000751,42.9062105 20.2704637,42.97 20.4998938,42.97 C20.7293238,42.97 21.2996062,42.9062105 21.6525674,42.3210526 L33.1952358,23.1481053 Z" fill-rule="nonzero"></path>
                            <path d="M20.5,10.6958947 C23.8774016,10.6958947 26.6241891,13.418 26.6241891,16.7650526 C26.6241891,20.1108421 23.8774016,22.8342105 20.5,22.8342105 C17.1238731,22.8342105 14.3758109,20.1108421 14.3758109,16.7650526 C14.3758109,13.418 17.1238731,10.6958947 20.5,10.6958947 Z M23.9404948,16.7651579 C23.9404948,14.8848421 22.3973653,13.3555789 20.5,13.3555789 C18.6039093,13.3555789 17.0595052,14.8848421 17.0595052,16.7651579 C17.0595052,18.6454737 18.6040155,20.1747368 20.5,20.1747368 C22.3973653,20.1747368 23.9404948,18.6454737 23.9404948,16.7651579 Z" fill-rule="nonzero"></path>
                        </g>
                    </g>
                </g>
            </g>
        </g>
    </g>
</svg>