<?xml version="1.0" encoding="UTF-8"?>
<svg width="86px" height="77px" viewBox="0 0 86 77" version="1.1" xmlns="http://www.w3.org/2000/svg" xmlns:xlink="http://www.w3.org/1999/xlink">
    <!-- Generator: Sketch 50.2 (55047) - http://www.bohemiancoding.com/sketch -->
    <title>icon-pendidikan@2x</title>
    <desc>Created with Sketch.</desc>
    <defs></defs>
    <g id="-" stroke="none" stroke-width="1" fill="none" fill-rule="evenodd">
        <g id="Hari-Olahraga-Nsional" transform="translate(-797.000000, -678.000000)" fill="#FFFFFF">
            <g id="Group-20" transform="translate(720.000000, 621.000000)">
                <g id="pencil" transform="translate(77.000000, 57.000000)">
                    <g id="Shape">
                        <path d="M80.9609375,13.3913043 L77.6015625,13.3913043 L71.5546875,13.3913043 L71.5546875,9.20652174 C71.5546875,7.64091087 70.9431133,6.16937391 69.8333437,5.06358696 C68.7234062,3.95729783 67.246793,3.34782609 65.6757812,3.34782609 C64.6609141,3.34782609 63.7051719,3.6056087 62.871207,4.05873696 C62.1071172,1.70638696 59.8889219,0 57.2773438,0 C55.6347773,0 54.1480859,0.675591304 53.0803086,1.76179348 C53.0653594,1.74656087 53.051418,1.73082609 53.0364687,1.71576087 C51.9265313,0.609471739 50.449918,0 48.8789062,0 C47.2351641,0 45.7476328,0.676595652 44.6796875,1.76413696 C43.6117422,0.676595652 42.1242109,0 40.4804688,0 C37.2388398,0 34.6015625,2.62821087 34.6015625,5.85869565 L34.6015625,13.3913043 L15.1171875,13.3913043 C15.1145,13.3913043 15.1119805,13.3918065 15.109293,13.3918065 C15.0520156,13.3921413 14.9947383,13.3956565 14.9377969,13.4016826 C14.9188164,13.4036913 14.9001719,13.4072065 14.8813594,13.4097174 C14.8398711,13.4155761 14.7985508,13.4224391 14.7573984,13.4314783 C14.7375781,13.4358304 14.7179258,13.4408522 14.6982734,13.4458739 C14.657457,13.4562522 14.6171445,13.4683043 14.577168,13.481863 C14.5595312,13.4878891 14.5418945,13.4935804 14.5244258,13.5002761 C14.480418,13.5168478 14.43725,13.5355957 14.3945859,13.55585 C14.3851797,13.5603696 14.3752695,13.5633826 14.3660313,13.5680696 L14.3386523,13.5817957 C14.3374766,13.5824652 14.3363008,13.5829674 14.335125,13.583637 L0.92853125,20.2637217 C0.359453125,20.5472826 0,21.1267913 0,21.7608696 C0,22.3949478 0.359453125,22.9744565 0.92853125,23.2580174 L14.3347891,29.9381022 C14.3363008,29.9389391 14.3378125,29.9396087 14.3393242,29.9404457 L14.3660313,29.9536696 C14.3751016,29.9581891 14.3846758,29.9612022 14.3937461,29.9655543 C14.4369141,29.9861435 14.4805859,30.0050587 14.5250977,30.0217978 C14.5420625,30.0281587 14.5591953,30.03385 14.5763281,30.0397087 C14.6169766,30.0534348 14.6579609,30.0656543 14.6994492,30.0763674 C14.7184297,30.0812217 14.7374102,30.0860761 14.7565586,30.0902609 C14.7987188,30.0994674 14.8410469,30.1064978 14.883543,30.1125239 C14.9013477,30.1150348 14.9189844,30.1182152 14.9367891,30.1202239 C14.9967539,30.1264174 15.0568867,30.1304348 15.1171875,30.1304348 L26.9709102,30.1304348 C27.5588008,31.6729457 28.4685195,33.0812087 29.6463164,34.2552913 L35.501707,40.0903848 C37.0875,41.6707261 37.9609375,43.7721565 37.9609375,46.0075 L37.9609375,50.2173913 L36.28125,50.2173913 C35.3535586,50.2173913 34.6015625,50.9669696 34.6015625,51.8913043 L34.6015625,75.326087 C34.6015625,76.2504217 35.3535586,77 36.28125,77 L69.875,77 C70.8025234,77 71.5546875,76.2504217 71.5546875,75.326087 L71.5546875,51.8913043 C71.5546875,50.9669696 70.8025234,50.2173913 69.875,50.2173913 L68.1953125,50.2173913 L68.1953125,45.5906957 C68.1953125,43.5185587 68.6629375,41.4313565 69.547293,39.555737 C70.8980977,36.6948522 71.5546875,34.0786935 71.5546875,31.5582826 L71.5546875,30.1304348 L77.6015625,30.1304348 L80.9609375,30.1304348 C83.7394766,30.1304348 86,27.8776826 86,25.1086957 L86,18.4130435 C86,15.6440565 83.7394766,13.3913043 80.9609375,13.3913043 Z M75.921875,16.7391304 L75.921875,26.7826087 L48.3731523,26.7826087 C47.8336367,26.1051761 47.2381875,25.4854935 46.5938594,24.92875 C48.5559023,24.5546304 50.3607266,23.6056891 51.8047539,22.1661239 C52.1131445,21.8587935 52.3966758,21.5335522 52.6593789,21.1954217 C53.7370664,22.5576522 55.4058359,23.4347826 57.2773438,23.4347826 C58.9210859,23.4347826 60.4086172,22.758187 61.4765625,21.6706457 C62.5445078,22.7580196 64.0320391,23.4347826 65.6757812,23.4347826 C68.9174102,23.4347826 71.5546875,20.8065717 71.5546875,17.576087 L71.5546875,16.7391304 L75.921875,16.7391304 Z M65.6757812,6.69565217 C66.3493359,6.69565217 66.9820742,6.95678261 67.4577617,7.43100217 C67.9332812,7.90471957 68.1953125,8.53528261 68.1953125,9.20652174 L68.1953125,17.576087 C68.1953125,18.9605804 67.0650508,20.0869565 65.6757812,20.0869565 C64.2865117,20.0869565 63.15625,18.9605804 63.15625,17.576087 L63.15625,9.20652174 C63.15625,7.82202826 64.2865117,6.69565217 65.6757812,6.69565217 Z M57.2773438,3.34782609 C58.6666133,3.34782609 59.796875,4.47420217 59.796875,5.85869565 L59.796875,9.20652174 L59.796875,17.576087 C59.796875,18.9605804 58.6666133,20.0869565 57.2773438,20.0869565 C55.8880742,20.0869565 54.7578125,18.9605804 54.7578125,17.576087 L54.7578125,15.0652174 L54.7578125,5.85869565 C54.7578125,4.47420217 55.8880742,3.34782609 57.2773438,3.34782609 Z M48.8789062,3.34782609 C49.5524609,3.34782609 50.1851992,3.60895652 50.6608867,4.08317609 C51.1364063,4.55689348 51.3984375,5.18745652 51.3984375,5.85869565 L51.3984375,13.3913043 L46.359375,13.3913043 L46.359375,5.85869565 C46.359375,4.47420217 47.4896367,3.34782609 48.8789062,3.34782609 Z M37.9609375,5.85869565 C37.9609375,4.47420217 39.0911992,3.34782609 40.4804688,3.34782609 C41.8697383,3.34782609 43,4.47420217 43,5.85869565 L43,13.3913043 L37.9609375,13.3913043 L37.9609375,5.85869565 Z M28.5545195,18.0784283 C27.0382656,20.0938196 26.203125,22.5906283 26.203125,25.1086957 L26.203125,25.9707609 C26.203125,26.2416 26.2135391,26.5124391 26.2325195,26.7826087 L18.3777969,26.7826087 C19.9698047,23.6344804 19.9698047,19.8872587 18.3777969,16.7391304 L29.7323164,16.7391304 C29.3102109,17.152587 28.9154844,17.5988522 28.5545195,18.0784283 Z M14.7014648,17.1438826 C16.721793,19.8793913 16.721793,23.6423478 14.7014648,26.3778565 L5.43563672,21.7608696 L14.7014648,17.1438826 Z M68.1953125,73.6521739 L37.9609375,73.6521739 L37.9609375,53.5652174 L39.640625,53.5652174 L66.515625,53.5652174 L68.1953125,53.5652174 L68.1953125,73.6521739 Z M68.1953125,31.5582826 C68.1953125,33.5751804 67.6431992,35.724987 66.5070586,38.1314043 C65.41375,40.4502761 64.8359375,43.0299435 64.8359375,45.5906957 L64.8359375,50.2173913 L41.3203125,50.2173913 L41.3203125,46.0075 C41.3203125,42.8779522 40.0975,39.9358826 37.8771211,37.723137 L32.0217305,31.8882109 C30.9563047,30.8262804 30.196582,29.4966913 29.8241953,28.0418935 C29.6505156,27.3651304 29.5625,26.6682804 29.5625,25.9709283 L29.5625,25.1086957 C29.5625,23.3100761 30.159125,21.5266891 31.2421875,20.0869565 C32.5446172,18.3562978 34.4398086,17.2081609 36.5792266,16.8537935 C37.0367734,16.7776304 37.5017109,16.7391304 37.9609375,16.7391304 L44.6796875,16.7391304 L51.1867969,16.7391304 C50.8913398,17.886263 50.2926992,18.9388196 49.4296758,19.7988761 C48.160168,21.0640196 46.4732578,21.7608696 44.6796875,21.7608696 L39.640625,21.7608696 C38.7692031,21.7608696 38.0424023,22.4250783 37.9673203,23.2901565 C37.8920703,24.1554022 38.4932305,24.9342739 39.3515508,25.0837543 C42.1262266,25.567013 44.5409453,27.104 46.1509258,29.4119913 C46.1546211,29.4171804 46.1589883,29.4217 46.1626836,29.4268891 C47.3678594,31.1634065 48.0110117,33.1978804 48.0222656,35.3115304 L48.0390625,38.5087043 C48.0439336,39.4303609 48.7949219,40.173913 49.718582,40.173913 C49.7216055,40.173913 49.7244609,40.173913 49.7274844,40.173913 C50.6551758,40.1690587 51.4033086,39.4157978 51.3984375,38.4912957 L51.3816406,35.2939543 C51.3720664,33.5042065 51.0179883,31.7579804 50.3466172,30.1302674 L68.1953125,30.1302674 L68.1953125,31.5582826 Z M82.640625,25.1086957 C82.640625,26.0316913 81.8871172,26.7826087 80.9609375,26.7826087 L79.28125,26.7826087 L79.28125,16.7391304 L80.9609375,16.7391304 C81.8871172,16.7391304 82.640625,17.4900478 82.640625,18.4130435 L82.640625,25.1086957 Z" fill-rule="nonzero"></path>
                        <path d="M63.15625,56.9130435 L49.71875,56.9130435 C48.7912266,56.9130435 48.0390625,57.6626217 48.0390625,58.5869565 C48.0390625,59.5112913 48.7912266,60.2608696 49.71875,60.2608696 L63.15625,60.2608696 C64.0837734,60.2608696 64.8359375,59.5112913 64.8359375,58.5869565 C64.8359375,57.6626217 64.0837734,56.9130435 63.15625,56.9130435 Z" fill-rule="nonzero"></path>
                        <path d="M43,56.9130435 C42.0728125,56.9130435 41.3203125,57.6629565 41.3203125,58.5869565 C41.3203125,59.5109565 42.0728125,60.2608696 43,60.2608696 C43.9271875,60.2608696 44.6796875,59.5109565 44.6796875,58.5869565 C44.6796875,57.6629565 43.9271875,56.9130435 43,56.9130435 Z" fill-rule="nonzero"></path>
                    </g>
                </g>
            </g>
        </g>
    </g>
</svg>