<?xml version="1.0" encoding="UTF-8"?>
<svg width="80px" height="79px" viewBox="0 0 80 79" version="1.1" xmlns="http://www.w3.org/2000/svg" xmlns:xlink="http://www.w3.org/1999/xlink">
    <!-- Generator: Sketch 50.2 (55047) - http://www.bohemiancoding.com/sketch -->
    <title>icon-anggaran</title>
    <desc>Created with Sketch.</desc>
    <defs></defs>
    <g id="-" stroke="none" stroke-width="1" fill="none" fill-rule="evenodd">
        <g id="Hari-Olahraga-Nsional" transform="translate(-320.000000, -677.000000)" fill="#FFFFFF">
            <g id="Group-18" transform="translate(240.000000, 621.000000)">
                <g id="wallet-(1)" transform="translate(80.000000, 56.000000)">
                    <g>
                        <ellipse id="Oval" fill-rule="nonzero" cx="39.6270313" cy="55.529748" rx="2.5" ry="2.46875"></ellipse>
                        <path d="M43.4729687,33.6066309 C43.4729687,30.3927812 40.8346875,27.7873242 37.58,27.7873242 C34.3253125,27.7873242 31.6870313,30.3927812 31.6870313,33.6066309" id="Shape" fill-rule="nonzero"></path>
                        <path d="M39.6271875,51.5183379 C37.3871875,51.5183379 35.5648438,53.3179023 35.5648438,55.5299023 C35.5648438,57.7420566 37.3873437,59.5414668 39.6271875,59.5414668 C41.8670313,59.5414668 43.6895313,57.7419023 43.6895313,55.5299023 C43.6895313,53.3179023 41.8673438,51.5183379 39.6271875,51.5183379 Z M39.6271875,56.4556836 C39.1101563,56.4556836 38.6896875,56.0404707 38.6896875,55.5299023 C38.6896875,55.019334 39.1101563,54.6041211 39.6271875,54.6041211 C40.1442188,54.6041211 40.5646875,55.019334 40.5646875,55.5299023 C40.5646875,56.0404707 40.1442188,56.4556836 39.6271875,56.4556836 Z" id="Shape" fill-rule="nonzero"></path>
                        <path d="M51.06375,49.0383242 C51.4746875,49.0383242 51.8778125,48.8733809 52.1684375,48.5862344 C52.4590625,48.2993965 52.62625,47.9013105 52.62625,47.4953555 C52.62625,47.0895547 52.4590625,46.6914687 52.1684375,46.4046309 C51.8778125,46.1176387 51.4746875,45.9523867 51.06375,45.9523867 C50.6528125,45.9523867 50.2496875,46.1174844 49.9590625,46.4046309 C49.666875,46.6914687 49.50125,47.0895547 49.50125,47.4953555 C49.50125,47.9013105 49.666875,48.2993965 49.9590625,48.5862344 C50.2496875,48.8735352 50.6528125,49.0383242 51.06375,49.0383242 Z" id="Shape" fill-rule="nonzero"></path>
                        <path d="M72.1865625,22.2167441 L70.5020313,22.2167441 L48.4621875,0.452398437 C47.8520313,-0.150130859 46.8625,-0.150130859 46.2525,0.452398437 L40.60625,6.02822461 L18.024375,0.053078125 C17.1907813,-0.167720703 16.3339063,0.3209375 16.110625,1.14411133 L10.3929688,22.2167441 L6.5634375,22.2167441 C2.945,22.2167441 0.00109375,25.1236973 0.00109375,28.6970586 C0.00109375,28.7826934 0.004375,28.8677109 0.00765625,28.9525742 C0.0040625,28.9950059 0.00109375,29.0375918 0.00109375,29.0809492 L0.00109375,71.2854648 C0.00109375,75.5391211 3.50578125,79 7.8134375,79 L63.749375,79 C63.7735938,79 63.7973438,78.998457 63.8215625,78.9981484 L72.1865625,78.9981484 C76.4942188,78.9981484 79.9989063,75.5374238 79.9989063,71.283459 L79.9989063,29.9312793 C79.99875,25.6773145 76.4942188,22.2167441 72.1865625,22.2167441 Z M76.8739063,29.9312793 L76.8739063,42.2970938 C76.8739063,44.3135996 75.2125,45.954084 73.170625,45.954084 L71.5615625,45.954084 L71.5615625,39.8059707 C71.5615625,35.6058555 68.1445313,32.1813906 63.9117188,32.095293 L70.790625,25.302373 L72.1865625,25.302373 C74.7710938,25.3025273 76.8739063,27.3790547 76.8739063,29.9312793 Z M57.2503125,27.1229219 L52.2695313,32.0414434 L44.8640625,32.0414434 C44.1351563,28.7316211 41.146875,26.2445098 37.5798438,26.2445098 C34.0128125,26.2445098 31.0245313,28.7316211 30.295625,32.0414434 L25.9604688,32.0414434 L44.0957813,14.1328223 C46.0975,15.3110332 48.6171875,15.3110332 50.6189063,14.1328223 L57.2503125,20.6813359 C56.0573438,22.6577246 56.0573438,25.1463789 57.2503125,27.1229219 Z M33.55125,32.0414434 C34.1853125,30.4557344 35.7517188,29.3304473 37.58,29.3304473 C39.4084375,29.3304473 40.9745313,30.4558887 41.60875,32.0414434 L33.55125,32.0414434 Z M23.648125,22.7742187 L17.0315625,29.3080742 L21.169375,14.0584512 C22.3039063,14.0765039 23.4325,13.7904375 24.4432813,13.2138301 C25.4542188,12.6375313 26.2676563,11.8180605 26.8209375,10.8362695 L33.8529688,12.6969355 L23.648125,22.7742187 Z M47.3575,3.72534375 L67.7896875,23.9021289 L59.5475,32.0412891 L56.6890625,32.0412891 L60.4278125,28.3491191 C61.0379688,27.7465898 61.0379688,26.769582 60.4278125,26.1670527 C59.1629687,24.9180195 59.1629687,22.8859297 60.4278125,21.6368965 C61.0379688,21.0343672 61.0379688,20.0573594 60.4278125,19.4546758 L51.8609375,10.9951953 C51.2507813,10.392666 50.2614063,10.392666 49.6510938,10.9951953 C48.38625,12.2443828 46.3282813,12.2443828 45.0635938,10.9951953 C44.4534375,10.392666 43.4639063,10.392666 42.8539063,10.9951953 L21.5414063,32.0414434 L18.683125,32.0414434 L42.178125,8.84013086 C42.1782813,8.83997656 42.1784375,8.83966797 42.1785938,8.83951367 L47.3575,3.72534375 Z M18.7248438,3.43310547 L38.0546875,8.54773828 L36.4045313,10.1774219 L26.3060938,7.50546289 C25.905625,7.39946094 25.4792188,7.45500781 25.1204688,7.65960547 C24.7615625,7.86420312 24.4996875,8.2011875 24.3925,8.59649609 C24.168125,9.42291016 23.6314063,10.1136973 22.8810938,10.5415625 C22.130625,10.9694277 21.2564063,11.0829902 20.419375,10.8615742 C19.5860938,10.6409297 18.7290625,11.1294336 18.5057813,11.9526074 L13.0410938,32.0914355 L10.9485938,32.0914355 L18.7248438,3.43310547 Z M6.5634375,25.3025273 L9.55546875,25.3025273 L7.71328125,32.0914355 L6.56328125,32.0914355 C4.6678125,32.0914355 3.1259375,30.5686797 3.1259375,28.6970586 C3.1259375,26.8254375 4.66828125,25.3025273 6.5634375,25.3025273 Z M3.12609375,71.2853105 L3.12609375,34.2140977 C4.1265625,34.8241875 5.30390625,35.1772187 6.5634375,35.1772187 L63.7492187,35.1772187 C66.3339063,35.1772187 68.4365625,37.2537461 68.4365625,39.8059707 L68.4365625,45.954084 L57.1390625,45.954084 C56.2760938,45.954084 55.5765625,46.6450254 55.5765625,47.4970527 C55.5765625,48.3490801 56.2760938,49.0400215 57.1390625,49.0400215 L73.170625,49.0400215 C74.5351562,49.0400215 75.80625,48.6411641 76.8739063,47.9576289 L76.8739063,57.6803379 C76.8739063,60.0625273 74.91125,62.0004961 72.4990625,62.0004961 L39.6875,62.0004961 C36.0690625,62.0004961 33.1251563,59.093543 33.1251563,55.5201816 C33.1251563,51.9469746 36.0689063,49.0398672 39.6875,49.0398672 L44.4228125,49.0398672 C45.2857812,49.0398672 45.9853125,48.3489258 45.9853125,47.4968984 C45.9853125,46.6448711 45.2857812,45.9539297 44.4228125,45.9539297 L39.6875,45.9539297 C34.3459375,45.9539297 30.0003125,50.2452344 30.0003125,55.5200273 C30.0003125,60.7948203 34.3459375,65.086125 39.6875,65.086125 L68.4367187,65.086125 L68.4367187,71.2851562 C68.4367187,73.8136191 66.3728125,75.8754883 63.8215625,75.9139082 L10.6257813,75.9139082 L10.6257813,58.5386914 C10.6257813,57.6866641 9.92625,56.9957227 9.06328125,56.9957227 C8.2003125,56.9957227 7.50078125,57.6866641 7.50078125,58.5386914 L7.50078125,75.9026445 C5.0615625,75.7431016 3.12609375,73.7338477 3.12609375,71.2853105 Z M72.1865625,75.9122109 L69.99625,75.9122109 C70.9785938,74.6222891 71.5615625,73.019916 71.5615625,71.2853105 L71.5615625,65.0862793 L72.4990625,65.0862793 C74.1309375,65.0862793 75.6414063,64.5673789 76.8739063,63.6900469 L76.8739063,71.283459 C76.8739063,73.8358379 74.7710938,75.9122109 72.1865625,75.9122109 Z" id="Shape" fill-rule="nonzero"></path>
                        <path d="M9.0634375,54.0637734 C9.474375,54.0637734 9.8775,53.8986758 10.168125,53.6116836 C10.45875,53.3246914 10.6259375,52.9266055 10.6259375,52.5208047 C10.6259375,52.1150039 10.45875,51.716918 10.168125,51.4299258 C9.8775,51.1430879 9.474375,50.9778359 9.0634375,50.9778359 C8.6525,50.9778359 8.249375,51.1429336 7.95875,51.4299258 C7.668125,51.716918 7.5009375,52.1150039 7.5009375,52.5208047 C7.5009375,52.9266055 7.668125,53.3246914 7.95875,53.6116836 C8.249375,53.8986758 8.6525,54.0637734 9.0634375,54.0637734 Z" id="Shape" fill-rule="nonzero"></path>
                    </g>
                </g>
            </g>
        </g>
    </g>
</svg>