<?xml version="1.0" encoding="UTF-8"?>
<svg width="160px" height="24px" viewBox="0 0 160 24" version="1.1" xmlns="http://www.w3.org/2000/svg" xmlns:xlink="http://www.w3.org/1999/xlink">
    <!-- Generator: sketchtool 52.6 (67491) - http://www.bohemiancoding.com/sketch -->
    <title>73D5333B-F212-47B9-B177-45203748A170</title>
    <desc>Created with sketchtool.</desc>
    <g id="Page-1" stroke="none" stroke-width="1" fill="none" fill-rule="evenodd">
        <g id="hari-tani" transform="translate(-640.000000, -836.000000)">
            <g id="RICE-2" transform="translate(641.000000, 836.000000)">
                <g id="Group-2" transform="translate(60.000000, 0.000000)" fill="#E3A22F" fill-rule="nonzero">
                    <g id="1201997" transform="translate(14.000000, 0.000000)">
                        <path d="M23.7940064,8.76196289 C22.8786621,7.84680178 21.7468872,7.22644041 20.5140381,6.94921875 C20.6654663,6.82196044 20.8123169,6.68811038 20.9538574,6.54656981 C22.2293701,5.27105714 22.9317627,3.57513427 22.9317627,1.77136228 C22.9317627,1.38299559 22.6170044,1.06823728 22.2286377,1.06823728 C20.1520386,1.06823728 18.2915039,2.01068114 17.0516968,3.48999023 C16.7750244,2.25567628 16.1542969,1.12225341 15.2380371,0.205993641 C15.1060181,0.0739746094 14.9273071,8.8817842e-16 14.7407227,8.8817842e-16 C14.5543213,8.8817842e-16 14.3754272,0.0739746094 14.2435913,0.205993641 C13.2610474,1.18853761 12.6188965,2.4206543 12.3755493,3.75915525 C12.2697143,3.63684084 12.1589355,3.51727294 12.0428467,3.40118409 C11.9110107,3.26934816 11.7321167,3.19519041 11.5455323,3.19519041 C11.3591309,3.19519041 11.1800537,3.26934816 11.0482178,3.40136719 C10.0424194,4.40734866 9.42132567,5.65429688 9.18383789,6.95800781 C9.07653806,6.83422852 8.96447756,6.713562 8.84747316,6.59655759 C8.57281495,6.32189944 8.12768555,6.32189944 7.85321044,6.59655759 C5.38787841,9.06170653 5.23095703,12.9741211 7.38171384,15.6238403 L0.205993641,22.7997436 C-0.0686645625,23.0742188 -0.0686645625,23.5195313 0.205993641,23.7940064 C0.343322766,23.9313354 0.523132313,24 0.703125,24 C0.883117688,24 1.06292723,23.9313354 1.20025636,23.7940064 L8.37579347,16.6184693 C9.57513427,17.5940552 11.060669,18.1246948 12.6280518,18.1248779 L12.6287842,18.1248779 C14.43219,18.1248779 16.1279297,17.4224854 17.4034424,16.1469727 C17.5352783,16.0151367 17.609436,15.8360596 17.609436,15.6496582 C17.609436,15.4630737 17.5352783,15.2841797 17.4034424,15.1525268 C17.2877198,15.0366211 17.1683349,14.9256592 17.0458374,14.819458 C18.3843384,14.5761108 19.616272,13.9339599 20.5988159,12.9515991 C20.7306518,12.8197632 20.8046265,12.6408691 20.8046265,12.4544677 C20.8046265,12.2678833 20.7306518,12.0891724 20.5988159,11.9573364 C20.4829102,11.8414307 20.3637085,11.7304688 20.2412109,11.6242676 C21.5753174,11.3816528 22.8035888,10.742981 23.7844849,9.76574709 C23.8529663,9.70001222 23.9086304,9.61962891 23.9463501,9.52825927 C24.0552979,9.26550291 23.9950561,8.96319581 23.7940064,8.76196289 Z M21.4727783,2.52777098 C21.3121948,3.66906741 20.7888794,4.72302244 19.9594116,5.55230714 C19.2368775,6.2746582 18.3440552,6.76483153 17.3713989,6.98529052 C17.3701172,6.98547366 17.3690185,6.98583984 17.3677368,6.98620603 C17.2250977,7.01843259 17.0806275,7.04498292 16.9348755,7.06549073 C17.2679443,4.72082522 19.1281128,2.86102294 21.4727783,2.52777098 Z M14.7407227,1.77191161 C15.4345093,2.692749 15.8096924,3.80804442 15.8096924,4.98120117 C15.8096924,6.15417478 15.4343262,7.26965334 14.7407227,8.19030759 C14.0471191,7.26983644 13.6717529,6.15435792 13.6717529,4.98120117 C13.6717529,3.80822756 14.0471191,2.69256591 14.7407227,1.77191161 Z M11.5455323,4.96801758 C12.9673462,6.86151122 12.9671631,9.49145508 11.5453491,11.3847656 C10.1237183,9.49145508 10.1237183,6.86151122 11.5455323,4.96801758 Z M8.3503418,8.16247556 C9.04394531,9.08312991 9.4193115,10.1986084 9.4193115,11.371582 C9.4193115,12.5447388 9.04394531,13.6602173 8.3503418,14.5808716 C7.65655519,13.6602173 7.28137209,12.5447388 7.28137209,11.3717651 C7.28137209,10.1986084 7.65655519,9.08312991 8.3503418,8.16247556 Z M12.6287842,16.7186279 C12.6286011,16.7186279 12.628418,16.7186279 12.6282349,16.7186279 C11.4550781,16.7184448 10.3395996,16.3432617 9.41912841,15.6496582 C10.3397827,14.9560547 11.4552612,14.5806885 12.628418,14.5806885 C13.8013916,14.5806885 14.9168701,14.9558716 15.8375244,15.6496582 C14.9168701,16.3434448 13.8015747,16.7186279 12.6287842,16.7186279 Z M15.8234253,13.5234375 C14.6504517,13.5234375 13.5349732,13.1480713 12.6143189,12.4544677 C13.5351562,11.7608643 14.6506348,11.385498 15.8237915,11.385498 C16.9967651,11.385498 18.1122436,11.7606811 19.0327148,12.4542847 C18.1118775,13.1480713 16.996582,13.5234375 15.8234253,13.5234375 Z M19.0187988,10.3282471 C17.8456421,10.3282471 16.7301636,9.95288086 15.8095093,9.25909425 C16.3824463,8.82751462 17.0310059,8.51934816 17.7216797,8.34796144 C17.7322998,8.34539794 17.7429199,8.34301758 17.7537232,8.34045413 C18.1629638,8.24157712 18.5870362,8.19030759 19.0187988,8.19030759 C20.1919556,8.19030759 21.307251,8.56549073 22.2279053,9.25909425 C21.307251,9.95288086 20.1917724,10.3282471 19.0187988,10.3282471 Z" id="Shape"></path>
                    </g>
                    <g id="1201997-copy" transform="translate(12.000000, 12.000000) scale(-1, 1) translate(-12.000000, -12.000000) ">
                        <path d="M23.7940064,8.76196289 C22.8786621,7.84680178 21.7468872,7.22644041 20.5140381,6.94921875 C20.6654663,6.82196044 20.8123169,6.68811038 20.9538574,6.54656981 C22.2293701,5.27105714 22.9317627,3.57513427 22.9317627,1.77136228 C22.9317627,1.38299559 22.6170044,1.06823728 22.2286377,1.06823728 C20.1520386,1.06823728 18.2915039,2.01068114 17.0516968,3.48999023 C16.7750244,2.25567628 16.1542969,1.12225341 15.2380371,0.205993641 C15.1060181,0.0739746094 14.9273071,8.8817842e-16 14.7407227,8.8817842e-16 C14.5543213,8.8817842e-16 14.3754272,0.0739746094 14.2435913,0.205993641 C13.2610474,1.18853761 12.6188965,2.4206543 12.3755493,3.75915525 C12.2697143,3.63684084 12.1589355,3.51727294 12.0428467,3.40118409 C11.9110107,3.26934816 11.7321167,3.19519041 11.5455323,3.19519041 C11.3591309,3.19519041 11.1800537,3.26934816 11.0482178,3.40136719 C10.0424194,4.40734866 9.42132567,5.65429688 9.18383789,6.95800781 C9.07653806,6.83422852 8.96447756,6.713562 8.84747316,6.59655759 C8.57281495,6.32189944 8.12768555,6.32189944 7.85321044,6.59655759 C5.38787841,9.06170653 5.23095703,12.9741211 7.38171384,15.6238403 L0.205993641,22.7997436 C-0.0686645625,23.0742188 -0.0686645625,23.5195313 0.205993641,23.7940064 C0.343322766,23.9313354 0.523132313,24 0.703125,24 C0.883117688,24 1.06292723,23.9313354 1.20025636,23.7940064 L8.37579347,16.6184693 C9.57513427,17.5940552 11.060669,18.1246948 12.6280518,18.1248779 L12.6287842,18.1248779 C14.43219,18.1248779 16.1279297,17.4224854 17.4034424,16.1469727 C17.5352783,16.0151367 17.609436,15.8360596 17.609436,15.6496582 C17.609436,15.4630737 17.5352783,15.2841797 17.4034424,15.1525268 C17.2877198,15.0366211 17.1683349,14.9256592 17.0458374,14.819458 C18.3843384,14.5761108 19.616272,13.9339599 20.5988159,12.9515991 C20.7306518,12.8197632 20.8046265,12.6408691 20.8046265,12.4544677 C20.8046265,12.2678833 20.7306518,12.0891724 20.5988159,11.9573364 C20.4829102,11.8414307 20.3637085,11.7304688 20.2412109,11.6242676 C21.5753174,11.3816528 22.8035888,10.742981 23.7844849,9.76574709 C23.8529663,9.70001222 23.9086304,9.61962891 23.9463501,9.52825927 C24.0552979,9.26550291 23.9950561,8.96319581 23.7940064,8.76196289 Z M21.4727783,2.52777098 C21.3121948,3.66906741 20.7888794,4.72302244 19.9594116,5.55230714 C19.2368775,6.2746582 18.3440552,6.76483153 17.3713989,6.98529052 C17.3701172,6.98547366 17.3690185,6.98583984 17.3677368,6.98620603 C17.2250977,7.01843259 17.0806275,7.04498292 16.9348755,7.06549073 C17.2679443,4.72082522 19.1281128,2.86102294 21.4727783,2.52777098 Z M14.7407227,1.77191161 C15.4345093,2.692749 15.8096924,3.80804442 15.8096924,4.98120117 C15.8096924,6.15417478 15.4343262,7.26965334 14.7407227,8.19030759 C14.0471191,7.26983644 13.6717529,6.15435792 13.6717529,4.98120117 C13.6717529,3.80822756 14.0471191,2.69256591 14.7407227,1.77191161 Z M11.5455323,4.96801758 C12.9673462,6.86151122 12.9671631,9.49145508 11.5453491,11.3847656 C10.1237183,9.49145508 10.1237183,6.86151122 11.5455323,4.96801758 Z M8.3503418,8.16247556 C9.04394531,9.08312991 9.4193115,10.1986084 9.4193115,11.371582 C9.4193115,12.5447388 9.04394531,13.6602173 8.3503418,14.5808716 C7.65655519,13.6602173 7.28137209,12.5447388 7.28137209,11.3717651 C7.28137209,10.1986084 7.65655519,9.08312991 8.3503418,8.16247556 Z M12.6287842,16.7186279 C12.6286011,16.7186279 12.628418,16.7186279 12.6282349,16.7186279 C11.4550781,16.7184448 10.3395996,16.3432617 9.41912841,15.6496582 C10.3397827,14.9560547 11.4552612,14.5806885 12.628418,14.5806885 C13.8013916,14.5806885 14.9168701,14.9558716 15.8375244,15.6496582 C14.9168701,16.3434448 13.8015747,16.7186279 12.6287842,16.7186279 Z M15.8234253,13.5234375 C14.6504517,13.5234375 13.5349732,13.1480713 12.6143189,12.4544677 C13.5351562,11.7608643 14.6506348,11.385498 15.8237915,11.385498 C16.9967651,11.385498 18.1122436,11.7606811 19.0327148,12.4542847 C18.1118775,13.1480713 16.996582,13.5234375 15.8234253,13.5234375 Z M19.0187988,10.3282471 C17.8456421,10.3282471 16.7301636,9.95288086 15.8095093,9.25909425 C16.3824463,8.82751462 17.0310059,8.51934816 17.7216797,8.34796144 C17.7322998,8.34539794 17.7429199,8.34301758 17.7537232,8.34045413 C18.1629638,8.24157712 18.5870362,8.19030759 19.0187988,8.19030759 C20.1919556,8.19030759 21.307251,8.56549073 22.2279053,9.25909425 C21.307251,9.95288086 20.1917724,10.3282471 19.0187988,10.3282471 Z" id="Shape"></path>
                    </g>
                </g>
                <path d="M113,12.5 L158,12.5" id="Path-3" stroke="#E3A22F" stroke-linecap="round"></path>
                <path d="M0,12.5 L45,12.5" id="Path-3-Copy" stroke="#E3A22F" stroke-linecap="round"></path>
            </g>
        </g>
    </g>
</svg>